<?xml version="1.0" encoding="utf-8"?>
<!-- Svg Vector Icons : http://www.onlinewebfonts.com/icon -->
<!DOCTYPE svg PUBLIC "-//W3C//DTD SVG 1.1//EN" "http://www.w3.org/Graphics/SVG/1.1/DTD/svg11.dtd">
<svg version="1.1" xmlns="http://www.w3.org/2000/svg" xmlns:xlink="http://www.w3.org/1999/xlink" x="0px" y="0px" viewBox="0 0 1000 1000" fill="#164116" enable-background="new 0 0 1000 1000" xml:space="preserve">
<metadata> Svg Vector Icons : http://www.onlinewebfonts.com/icon </metadata>
<g><g transform="translate(0.000000,511.000000) scale(0.100000,-0.100000)"><path d="M7002.1,4980.6c-835.8-179.8-1169-1209.8-592.7-1835.2c233-251.4,498.7-369.9,837.9-367.9c324.9,2,584.5,118.5,807.2,359.7c416.9,449.6,394.4,1136.2-51.1,1557.2c-161.5,151.2-337.2,245.2-541.6,288.2C7288.2,5019.4,7175.8,5019.4,7002.1,4980.6z M7553.9,4490.2c239.1-128.7,388.3-402.6,361.7-658c-26.6-251.4-208.5-490.5-441.4-578.3c-151.2-57.2-398.5-47-529.3,20.4c-134.9,69.5-261.6,196.2-325,327c-75.6,153.3-81.7,408.7-12.3,557.9C6773.2,4520.8,7214.7,4674.1,7553.9,4490.2z"/><path d="M5236.4,3396.8c-602.9-77.7-1269.1-329-1767.7-666.2c-2156-1463.2-2448.3-4489.8-609-6325c564-559.9,1289.5-952.3,2064.1-1109.7c349.4-71.5,778.6-106.3,921.7-73.6c374,83.8,465.9,580.4,147.1,786.8c-92,59.3-104.2,61.3-482.3,92c-447.5,36.8-778.6,124.6-1156.7,308.6c-911.5,441.4-1549.1,1262.9-1769.8,2276.6c-38.8,177.8-45,265.7-45,635.6c0,363.8,8.2,459.8,45,629.4c153.3,690.7,453.7,1226.2,958.5,1712.5c551.8,529.3,1242.5,825.6,2039.5,876.7c345.4,20.4,425.1,51.1,531.3,200.3c55.2,81.7,61.3,104.2,61.3,249.3c0,145.1-6.1,167.6-61.3,247.3c-32.7,47-102.2,108.3-151.2,134.9c-81.7,42.9-114.4,47-337.2,45C5487.8,3415.2,5314.1,3405,5236.4,3396.8z"/></g></g>
</svg>