<?xml version="1.0" encoding="utf-8"?>
<!-- Svg Vector Icons : http://www.onlinewebfonts.com/icon -->
<!DOCTYPE svg PUBLIC "-//W3C//DTD SVG 1.1//EN" "http://www.w3.org/Graphics/SVG/1.1/DTD/svg11.dtd">
<svg version="1.1" xmlns="http://www.w3.org/2000/svg" xmlns:xlink="http://www.w3.org/1999/xlink" x="0px" y="0px" viewBox="0 0 1000 1000" fill="#461346" enable-background="new 0 0 1000 1000" xml:space="preserve">
<metadata> Svg Vector Icons : http://www.onlinewebfonts.com/icon </metadata>
<g><g transform="translate(0.000000,511.000000) scale(0.100000,-0.100000)"><path d="M7762.3,4980.6c-488.5-104.2-838-539.6-838-1040.3c0-686.7,641.8-1197.7,1304-1042.4c365.9,85.8,670.4,367.9,782.8,723.5c57.2,183.9,57.2,453.7,0,637.7c-112.4,357.7-431.2,647.9-793,723.5C8048.4,5019.4,7936,5019.4,7762.3,4980.6z M8273.2,4526.9c124.7-65.4,237.1-177.8,302.5-300.5c47-87.9,55.2-126.7,55.2-286.1c0-159.4-8.2-198.3-55.2-286.1c-57.2-108.3-196.2-251.4-294.3-302.5c-245.3-124.7-576.4-63.4-768.5,145.1c-124.7,136.9-167.6,249.4-167.6,443.5c0,269.8,118.6,459.9,361.8,582.5c116.5,59.3,141,63.4,300.4,57.2C8140.4,4575.9,8203.7,4563.7,8273.2,4526.9z"/><path d="M1232.2,3231.1c-98.1-34.7-190.1-114.4-241.2-206.4l-45-85.8V-770.8v-3709.6l45-85.8c159.4-298.4,588.6-298.4,748,0l45,85.8l6.1,1966.2l6.1,1968.2h1747.5c1678,0,1749.5,2,1823.1,38.8c306.6,157.4,302.5,584.5-6.1,754.2c-55.2,30.7-224.8,34.8-1812.9,40.9l-1753.6,6.1v1060.8v1062.8h2370.9c2573.2,0,2450.6-6.1,2571.2,108.3c145.1,134.9,169.6,386.3,55.2,547.7c-34.7,47-98.1,106.3-143.1,128.8c-81.8,42.9-87.9,42.9-2718.3,47C2125.3,3251.5,1275.1,3245.4,1232.2,3231.1z"/></g></g>
</svg>