<?xml version="1.0" encoding="UTF-8"?>
<svg viewBox="0 0 737.41138 954.64984" xmlns="http://www.w3.org/2000/svg">
 <defs>
  <linearGradient id="c" x2="0" y1="910.94" y2="1057.7" gradientUnits="userSpaceOnUse">
   <stop stop-color="#afe" offset="0"/>
   <stop stop-color="#afe" stop-opacity="0" offset="1"/>
  </linearGradient>
  <linearGradient id="b" x2="0" y1="440.21" y2="507.49" gradientTransform="matrix(.73727 .18927 -.18927 .73727 55.587 162.83)" gradientUnits="userSpaceOnUse">
   <stop stop-color="#782121" offset="0"/>
   <stop stop-color="#ff2a2a" offset="1"/>
  </linearGradient>
  <linearGradient id="a" x1="153.54" x2="178.8" y1="917" y2="944.78" gradientUnits="userSpaceOnUse">
   <stop stop-color="#5fd3bc" offset="0"/>
   <stop stop-color="#5fd3bc" stop-opacity="0" offset="1"/>
  </linearGradient>
 </defs>
 <g transform="translate(-6.0609 -101.75)">
  <path d="m6.0609 910.94c28.284-8.0812 90.914-28.284 151.52-26.264s90.914 30.305 121.22 26.264 30.305-22.223 52.528-24.244 50.508 20.203 76.772 20.203 30.305-24.244 90.914-24.244 58.589 32.325 101.02 42.426 28.284-30.305 80.812-36.365 60.609 14.142 60.609 14.142l2.0203 153.54h-737.41l3e-7 -145.46z" fill="url(#c)"/>
  <path d="m482.86 673.79c18.571 11.429 40 37.143 48.571 58.571s20 32.857 20 32.857-34.286 45.714-41.429 70-8.5714 70.286-8.5714 70.286l15.714-1.4286s-2.8572-61.714 14.286-81.714 47.143-47.143 47.143-47.143-14.286-37.143-14.286-54.286 17.143-50 17.143-50-24.286-67.143-98.571 2.8571z" fill="#a05a2c"/>
  <path d="m330 336.66-34.281 21.406s-15.063 233.44 12.844 317.16c3.5437 10.631 7.7427 19.241 12.531 26.156 5.4531 19.265 14.625 55.742 14.625 83.844 0 40-1.4375 127.16-1.4375 127.16h12.875s1.1033-143.37 6.375-188.22c5.1084 1.1904 10.466 1.7068 16.062 1.6875 4.5362 19.067 8.9688 42.668 8.9688 62.219 0 40-1.4062 127.16-1.4062 127.16h12.844s1.2273-154.47 7.0312-192.88c49.198-10.881 109.58-42.916 165.38-32.031 21.07 40.221 30.065 56.841 43.312 74.906 15.714 21.429-37.143 51.424-40 84.281s-4.2812 60.71-4.2812 60.71l14.281 1.4375s-5.7232-50.719 18.562-82.147 48.562-51.438 48.562-51.438-25.692-74.272-21.406-92.844c1.4125-6.1209 4.0451-14.412 6.9688-22.781 15.779-25.29 22.261-61.674 1.5938-95.781-1.1832-1.9526-2.5049-3.757-3.9375-5.4375 7.8063-3.4551 16.519-7.7316 22.5-11.719 12.857-8.5714 17.156-20 17.156-20s-31.446 7.1473-12.875-4.2812 27.156-30 27.156-30-20.004 1.442-35.719 7.1562-22.844 20-22.844 20l7.125-21.438s-18.567 7.1473-24.281 25.719c-2.0249 6.5809-2.0586 13.676-1.2812 20.125-68.64-21.472-218.19 49.585-248.72 22.719-35.714-31.429-24.281-232.84-24.281-232.84z" fill="#d38d5f"/>
  <path d="m196.73 528.34s-15.106 0.0912-19.624 36.242 24.186 38.756 32.861 23.519 3.9438-33.917 15.004-42.985-29.348-18.648-28.241-16.776z" fill="url(#b)"/>
  <path d="m198.99 547.77c-9.7866 7.0681-9.7866 11.961-9.7866 25.554s3.8059 18.486 3.8059 18.486" fill="none" stroke="#782121" stroke-width=".76118"/>
  <path d="m250.34 279.51c-21.395 0.0738-41.424 8.0483-52.973 26.285-10.709 16.909-14.191 30.681-14.153 42.412-3.8604 9.4727-12.118 26.88-25.809 42.15-19.992 22.298-53.823 42.3-56.898 69.981s2.3073 44.6 2.3073 44.6 37.654-42.296 63.796-82.279c12.725-19.462 17.996-39.458 19.862-54.781 7.4544 23.738 22.688 38.928-9.8478 61.703-53.824 37.676-24.737 138.89 52.284 125.33 96.114-16.916 39.519-103.74 79.972-144.55 23.516-23.725 22.112-45.486 19.912-64.954 9.2237 14.508 18.091 35.897 22.381 68.023 4.6084 34.509 43.007 89.153 43.007 89.153s2.3073-17.258 2.3073-60.395c0-37.681-57.326-98.708-70.074-113.74-11.974-45.322-36.82-44.891-76.072-48.937z" fill="#d38d5f" stroke="#a05a2c" stroke-width=".76118"/>
  <path d="m172 541.07s11.413-7.2447-8.458-37.677c-16.456-25.203 88.187-23.34 68.433 4.6135-16.314 23.085-16.621 32.31 2.3067 45.366 4.0528 2.7954-19.223 5.3824-34.601 1.5378-17.462-4.3656-27.681-13.84-27.681-13.84z" fill="#502d16"/>
  <path transform="matrix(.76118 0 0 .76118 -30.991 212.14)" d="m316.87 216.66c2.6461-6.6986 7.4187-7.6956 10.66-2.227s3.7237 15.332 1.0776 22.031-7.4187 7.6956-10.66 2.227c-2.5156-4.2444-3.4426-11.33-2.3045-17.616" fill="#501616"/>
  <path transform="matrix(.76118 0 0 .76118 3.61 212.91)" d="m316.87 216.66c2.6461-6.6986 7.4187-7.6956 10.66-2.227s3.7237 15.332 1.0776 22.031-7.4187 7.6956-10.66 2.227c-2.5156-4.2444-3.4426-11.33-2.3045-17.616" fill="#501616"/>
  <path d="m301.95 308.31s-5.3824 9.2269-0.76891 16.147 17.685-0.76891 17.685-0.76891 29.987-37.676 39.214-43.059 22.298-11.534 35.37-0.76891 39.983-12.303 39.983-12.303l-8.458-9.2269s3.0756 16.147-17.685 9.9958-18.454-26.143 13.84-36.139 26.912 6.1513 51.517 4.6134 29.219-21.529 29.219-21.529l-9.9958-4.6134s4.6134 12.303-10.765 12.303-33.063-10.765-49.21-9.9958-39.214 3.8445-52.286 17.685-26.912-22.298 3.8445-42.29 16.916-61.513 16.916-61.513l-17.685 1.5378s17.685 14.609 3.0756 35.37-30.756-11.534-30.756-11.534l-9.9958 9.9958s29.219 8.458 16.147 27.681-9.2269 36.139-8.458 53.824-49.21 64.588-50.748 64.588z" fill="#782121"/>
  <path d="m192.32 322.26-46.134-50.748s-12.303-6.9202-31.525-3.8445-39.983-14.609-39.983-14.609-1.5378-4.6134 4.6134-8.458 6.1513-3.0756 6.1513-3.0756 1.5378 9.9958 18.454 13.071 19.223-3.8445 19.223-3.8445-6.9202-16.916-23.836-28.45-20.761-33.832-20.761-49.21 9.2269-32.294 9.2269-32.294 3.0756-6.1513 9.2269-0.76891 4.6135 6.1513 4.6135 6.1513-9.2269 3.8445-9.2269 23.836 4.6134 35.37 10.765 40.752 22.298 8.458 22.298 8.458-3.8446-39.214 3.8445-55.361 9.2269-32.294 3.0756-39.983-19.992-9.2269-19.992-9.2269-2.3067-0.7689 0.76891-8.458 7.6891-3.0756 7.6891-3.0756 8.458 0.76892 16.916 9.2269 13.071 19.992 11.534 32.294-7.6891 25.374-7.6891 39.983 23.067 1.5378 39.214-19.223 9.9958-35.37 9.9958-35.37 9.9958-7.6891 14.609 0.76892-3.0756 39.214-20.761 54.592-28.45 13.84-39.214 23.836-5.3824 32.294 2.3067 43.059 26.143 22.298 26.143 22.298 1.5378-33.832 6.9202-43.059 13.071-12.303 13.071-12.303 14.609 0.76891 13.84 6.9202-0.76891 6.9202-0.76891 6.9202-9.2269-2.3067-13.84 13.071-6.1513 26.912-6.1513 26.912l0.7689 11.534 21.529 24.605s3.8446 17.685-16.916 13.071z" fill="#782121"/>
  <path d="m377.14 908.79h14.286s2.8571 19.286-1.4286 25-6.4286-11.429-6.4286-11.429 2.1429 13.571-5 12.143-0.71429-23.571-1.4286-25.714z" fill="#28170b"/>
  <path d="m334.29 908.79h14.286s2.8571 19.286-1.4286 25-6.4286-11.429-6.4286-11.429 2.1429 13.571-5 12.143-0.71429-23.571-1.4286-25.714z" fill="#28170b"/>
  <path d="m561.43 909.08h14.286s2.8571 19.286-1.4286 25-6.4286-11.429-6.4286-11.429 2.1429 13.571-5 12.143-0.71429-23.571-1.4286-25.714z" fill="#28170b"/>
  <path d="m502.86 903.36h14.286s2.8571 19.286-1.4286 25-6.4286-11.429-6.4286-11.429 2.1429 13.571-5 12.143-0.71429-23.571-1.4286-25.714z" fill="#28170b"/>
  <path d="m158.1 922.94c7.0562-6.9146 19.783-7.9439 28.427-2.2989 8.6433 5.645 9.9298 15.827 2.8736 22.741s-19.783 7.9439-28.427 2.2989c-6.7083-4.3813-9.1802-11.696-6.1453-18.184" fill="url(#a)"/>
  <path transform="matrix(1.425 0 0 1.425 11.519 -337.18)" d="m158.1 922.94c7.0562-6.9146 19.783-7.9439 28.427-2.2989 8.6433 5.645 9.9298 15.827 2.8736 22.741s-19.783 7.9439-28.427 2.2989c-6.7083-4.3813-9.1802-11.696-6.1453-18.184" fill="url(#a)"/>
  <path transform="matrix(1.425 0 0 1.425 -187.48 -369.51)" d="m158.1 922.94c7.0562-6.9146 19.783-7.9439 28.427-2.2989 8.6433 5.645 9.9298 15.827 2.8736 22.741s-19.783 7.9439-28.427 2.2989c-6.7083-4.3813-9.1802-11.696-6.1453-18.184" fill="url(#a)"/>
  <path transform="matrix(.65626 0 0 .65626 326.53 318.24)" d="m158.1 922.94c7.0562-6.9146 19.783-7.9439 28.427-2.2989 8.6433 5.645 9.9298 15.827 2.8736 22.741s-19.783 7.9439-28.427 2.2989c-6.7083-4.3813-9.1802-11.696-6.1453-18.184" fill="url(#a)"/>
  <path transform="translate(114.15 -1.0102)" d="m158.1 922.94c7.0562-6.9146 19.783-7.9439 28.427-2.2989 8.6433 5.645 9.9298 15.827 2.8736 22.741s-19.783 7.9439-28.427 2.2989c-6.7083-4.3813-9.1802-11.696-6.1453-18.184" fill="url(#a)"/>
  <path transform="matrix(.65626 0 0 .65626 416.43 370.77)" d="m158.1 922.94c7.0562-6.9146 19.783-7.9439 28.427-2.2989 8.6433 5.645 9.9298 15.827 2.8736 22.741s-19.783 7.9439-28.427 2.2989c-6.7083-4.3813-9.1802-11.696-6.1453-18.184" fill="url(#a)"/>
  <path transform="matrix(.65626 0 0 .65626 513.41 344.5)" d="m158.1 922.94c7.0562-6.9146 19.783-7.9439 28.427-2.2989 8.6433 5.645 9.9298 15.827 2.8736 22.741s-19.783 7.9439-28.427 2.2989c-6.7083-4.3813-9.1802-11.696-6.1453-18.184" fill="url(#a)"/>
  <path transform="matrix(.65626 0 0 .65626 601.29 318.24)" d="m158.1 922.94c7.0562-6.9146 19.783-7.9439 28.427-2.2989 8.6433 5.645 9.9298 15.827 2.8736 22.741s-19.783 7.9439-28.427 2.2989c-6.7083-4.3813-9.1802-11.696-6.1453-18.184" fill="url(#a)"/>
  <path d="m207.08 296.77s15.152 18.183 43.437 21.213 61.619-22.223 61.619-22.223 6.0609-20.203-1.0102-28.284-14.142 21.213-56.569 21.213-34.345-25.254-44.447-23.234-10.102 17.173-3.0305 31.315z" fill="#faa"/>
  <path d="m210.11 269.49c3.0305-4.0406 14.142-20.203 15.152-39.396s-1.082-40.11 0.93836-56.273 5.1226-33.631 29.366-45.753 41.416-9.0914 59.599-4.0406 27.274 32.325 27.274 52.528 13.132 38.386 5.0508 49.497-15.152-50.508-34.345-58.589-29.294 19.193-29.294 44.447 23.234 56.569 23.234 56.569-6.0609 18.183-37.376 26.264-48.487-5.0508-59.599-25.254z" fill="#ff2a2a"/>
  <path d="m333.18 214.19c5.9978-7.3468 16.816-8.4404 24.163-2.4426s8.4404 16.816 2.4426 24.163-16.816 8.4404-24.163 2.4426c-5.7021-4.6551-7.8032-12.427-5.2235-19.321" fill="#fc0"/>
 </g>
</svg>
