<?xml version="1.0" encoding="UTF-8"?>
<svg viewBox="0 0 668.68127 738.448" xmlns="http://www.w3.org/2000/svg" xmlns:xlink="http://www.w3.org/1999/xlink">
 <defs>
  <linearGradient id="b" x1="1464.2" x2="1544.7" gradientUnits="userSpaceOnUse">
   <stop stop-color="#6a6a6a" offset="0"/>
   <stop stop-color="#fff" offset=".35424"/>
   <stop stop-color="#fff" offset=".66488"/>
   <stop stop-color="#6d6d6d" offset="1"/>
  </linearGradient>
  <linearGradient id="c" x2="0" y1="-250.49" y2="378.08" gradientUnits="userSpaceOnUse">
   <stop stop-color="#f51500" offset="0"/>
   <stop stop-color="#f43e00" offset=".7623"/>
   <stop stop-color="#ff967b" offset="1"/>
  </linearGradient>
  <linearGradient id="a">
   <stop stop-color="#fff" offset="0"/>
   <stop stop-color="#fff" stop-opacity="0" offset="1"/>
  </linearGradient>
  <linearGradient id="f" x1="506.36" x2="-105.46" y1="99.191" y2="549.35" gradientTransform="matrix(.66465 .04263 -.20139 .65442 144.51 364.97)" gradientUnits="userSpaceOnUse" xlink:href="#a"/>
  <linearGradient id="e" x1="532.79" x2="-79.033" y1="329.79" y2="779.95" gradientUnits="userSpaceOnUse" xlink:href="#a"/>
  <linearGradient id="d" x1="326.54" x2="369.55" y1="202.53" y2="706.96" gradientUnits="userSpaceOnUse" xlink:href="#a"/>
 </defs>
 <g transform="translate(-40.659 -163.14)">
  <g transform="translate(-1131.8 55.4)">
   <path transform="translate(0 -447.64)" d="m1472.3 589.19c-0.8491-41.779 61.361-45.205 63.874 0.15208" fill="none" stroke="#909090" stroke-width="2.4"/>
   <path d="m1464.2 140.38h80.51v75.706h-80.51z" fill="url(#b)"/>
  </g>
  <path transform="matrix(1.0176 0 0 1.0176 308.13 516.87)" d="m394.29 49.505a328.57 328.57 0 1 1 -657.14 0 328.57 328.57 0 1 1 657.14 0z" fill="#fff"/>
  <path transform="translate(309.29 517.74)" d="m394.29 49.505a328.57 328.57 0 1 1 -657.14 0 328.57 328.57 0 1 1 657.14 0z" fill="url(#c)"/>
  <path d="m105.05 380.04c-0.068 1.8073-0.1875 3.6182-0.1875 5.4375 0 3.3562 0.115 6.6855 0.3437 10s0.5482 6.6064 1 9.875 1.0181 6.5 1.6875 9.7188 1.4623 6.429 2.3438 9.5938 1.8495 6.2995 2.9375 9.4062 2.2735 6.1742 3.5625 9.2188 2.7031 6.0528 4.1875 9.0312 3.0444 5.9356 4.7187 8.8438 3.4539 5.7912 5.3125 8.625 3.8064 5.6196 5.8438 8.375 4.1643 5.4521 6.375 8.125 4.4966 5.3199 6.875 7.9062 4.8345 5.1292 7.375 7.625 5.1778 4.9427 7.875 7.3438 5.4643 4.7602 8.3125 7.0625 5.7875 4.5506 8.7812 6.75 6.0538 4.345 9.1875 6.4375 6.3256 4.1435 9.5938 6.125c6.5363 3.963 13.334 7.6929 20.375 11.188s14.312 6.7251 21.812 9.7188 15.239 5.7274 23.156 8.1875 16.024 4.6686 24.312 6.5625 16.76 3.486 25.375 4.7812 17.383 2.2736 26.281 2.9375c4.449 0.33195 8.926 0.58199 13.438 0.75s9.0567 0.28125 13.625 0.28125 9.1135-0.11324 13.625-0.28125 8.9884-0.41805 13.438-0.75c8.8981-0.6639 17.666-1.6423 26.281-2.9375s17.087-2.8873 25.375-4.7812 16.396-4.1024 24.312-6.5625 15.624-5.1938 23.125-8.1875 14.772-6.2241 21.812-9.7188 13.87-7.2245 20.406-11.188c3.2681-1.9815 6.46-4.0325 9.5937-6.125s6.1938-4.2381 9.1875-6.4375 5.9331-4.4477 8.7813-6.75 5.6153-4.6614 8.3125-7.0625 5.3032-4.848 7.8437-7.3438 4.9967-5.0386 7.375-7.625 4.6956-5.2333 6.9063-7.9062 4.3376-5.3696 6.375-8.125 3.9851-5.5412 5.8437-8.375 3.607-5.7168 5.2813-8.625 3.2656-5.8653 4.75-8.8438 2.8672-5.9866 4.1562-9.0312 2.4745-6.112 3.5625-9.2188 2.0873-6.2415 2.9688-9.4062 1.643-6.375 2.3125-9.5938 1.2356-6.4501 1.6875-9.7188 0.8025-6.5605 1.0312-9.875 0.3438-6.6438 0.3438-10-0.1151-6.7168-0.3438-10.031-0.5794-6.6064-1.0312-9.875c-0.109-0.78822-0.2846-1.5584-0.4063-2.3438-60.188-75.844-153.12-124.56-257.47-124.56-111.87 0-210.6 55.973-269.94 141.38z" fill="url(#d)"/>
  <path d="m59.588 536.8c-6.321 53.472-1.5046 106.08 24.002 149.07-66.179-299.03 270.11-467.7 437.83-288.77l50.458-50.729c-192.08-199.73-494.79-45.167-512.29 190.43z" fill="url(#e)"/>
  <path d="m90.817 665.35c-14.774-226.14 270.16-308.77 389.84-142.02l51.054-35.914c-143.55-213.04-502.15-78.026-440.89 177.93z" fill="url(#f)"/>
  <path transform="matrix(.37374 0 0 .37374 368.65 706.28)" d="m-69.552 190.17c-2.8463 2.2655-76.615-37.03-80.171-36.917s-75.322 50.686-78.352 48.689 13.865-88.475 12.496-91.817-70.236-54.675-69.444-58.23 82.835-14.191 85.536-16.583 34.216-84.7 37.843-84.824 40.544 78.527 43.607 80.4 86.166 0.26786 87.485 3.6412-60.953 66.947-61.725 70.46 25.572 82.915 22.726 85.181z" fill="#fff"/>
  <path transform="matrix(.12037 0 0 .12037 503.63 620.51)" d="m-69.552 190.17c-2.8463 2.2655-76.615-37.03-80.171-36.917s-75.322 50.686-78.352 48.689 13.865-88.475 12.496-91.817-70.236-54.675-69.444-58.23 82.835-14.191 85.536-16.583 34.216-84.7 37.843-84.824 40.544 78.527 43.607 80.4 86.166 0.26786 87.485 3.6412-60.953 66.947-61.725 70.46 25.572 82.915 22.726 85.181z" fill="#fff"/>
  <path transform="matrix(.27813 0 0 .27813 281.78 600.28)" d="m-69.552 190.17c-2.8463 2.2655-76.615-37.03-80.171-36.917s-75.322 50.686-78.352 48.689 13.865-88.475 12.496-91.817-70.236-54.675-69.444-58.23 82.835-14.191 85.536-16.583 34.216-84.7 37.843-84.824 40.544 78.527 43.607 80.4 86.166 0.26786 87.485 3.6412-60.953 66.947-61.725 70.46 25.572 82.915 22.726 85.181z" fill="#fff"/>
  <path transform="matrix(.06529 0 0 .06529 131.52 683.42)" d="m-69.552 190.17c-2.8463 2.2655-76.615-37.03-80.171-36.917s-75.322 50.686-78.352 48.689 13.865-88.475 12.496-91.817-70.236-54.675-69.444-58.23 82.835-14.191 85.536-16.583 34.216-84.7 37.843-84.824 40.544 78.527 43.607 80.4 86.166 0.26786 87.485 3.6412-60.953 66.947-61.725 70.46 25.572 82.915 22.726 85.181z" fill="#fff"/>
  <path transform="matrix(.08464 0 0 .08464 318.46 651.53)" d="m-69.552 190.17c-2.8463 2.2655-76.615-37.03-80.171-36.917s-75.322 50.686-78.352 48.689 13.865-88.475 12.496-91.817-70.236-54.675-69.444-58.23 82.835-14.191 85.536-16.583 34.216-84.7 37.843-84.824 40.544 78.527 43.607 80.4 86.166 0.26786 87.485 3.6412-60.953 66.947-61.725 70.46 25.572 82.915 22.726 85.181z" fill="#fff"/>
  <path transform="matrix(.11366 0 0 .11366 324.3 611.6)" d="m-69.552 190.17c-2.8463 2.2655-76.615-37.03-80.171-36.917s-75.322 50.686-78.352 48.689 13.865-88.475 12.496-91.817-70.236-54.675-69.444-58.23 82.835-14.191 85.536-16.583 34.216-84.7 37.843-84.824 40.544 78.527 43.607 80.4 86.166 0.26786 87.485 3.6412-60.953 66.947-61.725 70.46 25.572 82.915 22.726 85.181z" fill="#fff"/>
  <path transform="matrix(.23965 0 0 .23965 442.36 689.57)" d="m-69.552 190.17c-2.8463 2.2655-76.615-37.03-80.171-36.917s-75.322 50.686-78.352 48.689 13.865-88.475 12.496-91.817-70.236-54.675-69.444-58.23 82.835-14.191 85.536-16.583 34.216-84.7 37.843-84.824 40.544 78.527 43.607 80.4 86.166 0.26786 87.485 3.6412-60.953 66.947-61.725 70.46 25.572 82.915 22.726 85.181z" fill="#fff"/>
  <path transform="matrix(.17296 0 0 .17296 431.87 613.01)" d="m-69.552 190.17c-2.8463 2.2655-76.615-37.03-80.171-36.917s-75.322 50.686-78.352 48.689 13.865-88.475 12.496-91.817-70.236-54.675-69.444-58.23 82.835-14.191 85.536-16.583 34.216-84.7 37.843-84.824 40.544 78.527 43.607 80.4 86.166 0.26786 87.485 3.6412-60.953 66.947-61.725 70.46 25.572 82.915 22.726 85.181z" fill="#fff"/>
  <path transform="matrix(.27813 0 0 .27813 411.97 547.96)" d="m-69.552 190.17c-2.8463 2.2655-76.615-37.03-80.171-36.917s-75.322 50.686-78.352 48.689 13.865-88.475 12.496-91.817-70.236-54.675-69.444-58.23 82.835-14.191 85.536-16.583 34.216-84.7 37.843-84.824 40.544 78.527 43.607 80.4 86.166 0.26786 87.485 3.6412-60.953 66.947-61.725 70.46 25.572 82.915 22.726 85.181z" fill="#fff"/>
  <path transform="matrix(.13301 0 0 .13301 486.62 584.58)" d="m-69.552 190.17c-2.8463 2.2655-76.615-37.03-80.171-36.917s-75.322 50.686-78.352 48.689 13.865-88.475 12.496-91.817-70.236-54.675-69.444-58.23 82.835-14.191 85.536-16.583 34.216-84.7 37.843-84.824 40.544 78.527 43.607 80.4 86.166 0.26786 87.485 3.6412-60.953 66.947-61.725 70.46 25.572 82.915 22.726 85.181z" fill="#fff"/>
  <path transform="matrix(.08464 0 0 .08464 448.64 599.21)" d="m-69.552 190.17c-2.8463 2.2655-76.615-37.03-80.171-36.917s-75.322 50.686-78.352 48.689 13.865-88.475 12.496-91.817-70.236-54.675-69.444-58.23 82.835-14.191 85.536-16.583 34.216-84.7 37.843-84.824 40.544 78.527 43.607 80.4 86.166 0.26786 87.485 3.6412-60.953 66.947-61.725 70.46 25.572 82.915 22.726 85.181z" fill="#fff"/>
  <path transform="matrix(.08464 0 0 .08464 446.21 565.15)" d="m-69.552 190.17c-2.8463 2.2655-76.615-37.03-80.171-36.917s-75.322 50.686-78.352 48.689 13.865-88.475 12.496-91.817-70.236-54.675-69.444-58.23 82.835-14.191 85.536-16.583 34.216-84.7 37.843-84.824 40.544 78.527 43.607 80.4 86.166 0.26786 87.485 3.6412-60.953 66.947-61.725 70.46 25.572 82.915 22.726 85.181z" fill="#fff"/>
  <path transform="matrix(.27813 0 0 .27813 281.78 600.28)" d="m-69.552 190.17c-2.8463 2.2655-76.615-37.03-80.171-36.917s-75.322 50.686-78.352 48.689 13.865-88.475 12.496-91.817-70.236-54.675-69.444-58.23 82.835-14.191 85.536-16.583 34.216-84.7 37.843-84.824 40.544 78.527 43.607 80.4 86.166 0.26786 87.485 3.6412-60.953 66.947-61.725 70.46 25.572 82.915 22.726 85.181z" fill="#fff"/>
  <path transform="matrix(.07496 0 0 .07496 201.19 642.53)" d="m-69.552 190.17c-2.8463 2.2655-76.615-37.03-80.171-36.917s-75.322 50.686-78.352 48.689 13.865-88.475 12.496-91.817-70.236-54.675-69.444-58.23 82.835-14.191 85.536-16.583 34.216-84.7 37.843-84.824 40.544 78.527 43.607 80.4 86.166 0.26786 87.485 3.6412-60.953 66.947-61.725 70.46 25.572 82.915 22.726 85.181z" fill="#fff"/>
  <path transform="matrix(.07496 0 0 .07496 167.3 687.55)" d="m-69.552 190.17c-2.8463 2.2655-76.615-37.03-80.171-36.917s-75.322 50.686-78.352 48.689 13.865-88.475 12.496-91.817-70.236-54.675-69.444-58.23 82.835-14.191 85.536-16.583 34.216-84.7 37.843-84.824 40.544 78.527 43.607 80.4 86.166 0.26786 87.485 3.6412-60.953 66.947-61.725 70.46 25.572 82.915 22.726 85.181z" fill="#fff"/>
  <path transform="matrix(.05652 0 0 .05652 181.34 635.31)" d="m-69.552 190.17c-2.8463 2.2655-76.615-37.03-80.171-36.917s-75.322 50.686-78.352 48.689 13.865-88.475 12.496-91.817-70.236-54.675-69.444-58.23 82.835-14.191 85.536-16.583 34.216-84.7 37.843-84.824 40.544 78.527 43.607 80.4 86.166 0.26786 87.485 3.6412-60.953 66.947-61.725 70.46 25.572 82.915 22.726 85.181z" fill="#fff"/>
  <path transform="matrix(.0798 0 0 .0798 150.41 641.56)" d="m-69.552 190.17c-2.8463 2.2655-76.615-37.03-80.171-36.917s-75.322 50.686-78.352 48.689 13.865-88.475 12.496-91.817-70.236-54.675-69.444-58.23 82.835-14.191 85.536-16.583 34.216-84.7 37.843-84.824 40.544 78.527 43.607 80.4 86.166 0.26786 87.485 3.6412-60.953 66.947-61.725 70.46 25.572 82.915 22.726 85.181z" fill="#fff"/>
  <path transform="matrix(-.01324 -.06393 -.06393 .01324 160.08 712.67)" d="m-69.552 190.17c-2.8463 2.2655-76.615-37.03-80.171-36.917s-75.322 50.686-78.352 48.689 13.865-88.475 12.496-91.817-70.236-54.675-69.444-58.23 82.835-14.191 85.536-16.583 34.216-84.7 37.843-84.824 40.544 78.527 43.607 80.4 86.166 0.26786 87.485 3.6412-60.953 66.947-61.725 70.46 25.572 82.915 22.726 85.181z" fill="#fff"/>
  <path transform="matrix(-.0152 -.07341 -.07341 .0152 198.78 661.23)" d="m-69.552 190.17c-2.8463 2.2655-76.615-37.03-80.171-36.917s-75.322 50.686-78.352 48.689 13.865-88.475 12.496-91.817-70.236-54.675-69.444-58.23 82.835-14.191 85.536-16.583 34.216-84.7 37.843-84.824 40.544 78.527 43.607 80.4 86.166 0.26786 87.485 3.6412-60.953 66.947-61.725 70.46 25.572 82.915 22.726 85.181z" fill="#fff"/>
  <path transform="matrix(-.0152 -.07341 -.07341 .0152 240.71 668.74)" d="m-69.552 190.17c-2.8463 2.2655-76.615-37.03-80.171-36.917s-75.322 50.686-78.352 48.689 13.865-88.475 12.496-91.817-70.236-54.675-69.444-58.23 82.835-14.191 85.536-16.583 34.216-84.7 37.843-84.824 40.544 78.527 43.607 80.4 86.166 0.26786 87.485 3.6412-60.953 66.947-61.725 70.46 25.572 82.915 22.726 85.181z" fill="#fff"/>
  <path transform="matrix(-.01146 -.05535 -.05535 .01146 218.4 662.17)" d="m-69.552 190.17c-2.8463 2.2655-76.615-37.03-80.171-36.917s-75.322 50.686-78.352 48.689 13.865-88.475 12.496-91.817-70.236-54.675-69.444-58.23 82.835-14.191 85.536-16.583 34.216-84.7 37.843-84.824 40.544 78.527 43.607 80.4 86.166 0.26786 87.485 3.6412-60.953 66.947-61.725 70.46 25.572 82.915 22.726 85.181z" fill="#fff"/>
  <path transform="matrix(-.01618 -.07814 -.07814 .01618 138.68 692.08)" d="m-69.552 190.17c-2.8463 2.2655-76.615-37.03-80.171-36.917s-75.322 50.686-78.352 48.689 13.865-88.475 12.496-91.817-70.236-54.675-69.444-58.23 82.835-14.191 85.536-16.583 34.216-84.7 37.843-84.824 40.544 78.527 43.607 80.4 86.166 0.26786 87.485 3.6412-60.953 66.947-61.725 70.46 25.572 82.915 22.726 85.181z" fill="#fff"/>
  <path transform="matrix(.05652 0 0 .05652 144.84 665.73)" d="m-69.552 190.17c-2.8463 2.2655-76.615-37.03-80.171-36.917s-75.322 50.686-78.352 48.689 13.865-88.475 12.496-91.817-70.236-54.675-69.444-58.23 82.835-14.191 85.536-16.583 34.216-84.7 37.843-84.824 40.544 78.527 43.607 80.4 86.166 0.26786 87.485 3.6412-60.953 66.947-61.725 70.46 25.572 82.915 22.726 85.181z" fill="#fff"/>
  <path transform="matrix(.05652 0 0 .05652 160.65 624.36)" d="m-69.552 190.17c-2.8463 2.2655-76.615-37.03-80.171-36.917s-75.322 50.686-78.352 48.689 13.865-88.475 12.496-91.817-70.236-54.675-69.444-58.23 82.835-14.191 85.536-16.583 34.216-84.7 37.843-84.824 40.544 78.527 43.607 80.4 86.166 0.26786 87.485 3.6412-60.953 66.947-61.725 70.46 25.572 82.915 22.726 85.181z" fill="#fff"/>
  <path transform="matrix(.05652 0 0 .05652 125.37 655.99)" d="m-69.552 190.17c-2.8463 2.2655-76.615-37.03-80.171-36.917s-75.322 50.686-78.352 48.689 13.865-88.475 12.496-91.817-70.236-54.675-69.444-58.23 82.835-14.191 85.536-16.583 34.216-84.7 37.843-84.824 40.544 78.527 43.607 80.4 86.166 0.26786 87.485 3.6412-60.953 66.947-61.725 70.46 25.572 82.915 22.726 85.181z" fill="#fff"/>
  <path transform="matrix(-.0152 -.07341 -.07341 .0152 127.51 624.46)" d="m-69.552 190.17c-2.8463 2.2655-76.615-37.03-80.171-36.917s-75.322 50.686-78.352 48.689 13.865-88.475 12.496-91.817-70.236-54.675-69.444-58.23 82.835-14.191 85.536-16.583 34.216-84.7 37.843-84.824 40.544 78.527 43.607 80.4 86.166 0.26786 87.485 3.6412-60.953 66.947-61.725 70.46 25.572 82.915 22.726 85.181z" fill="#fff"/>
  <path transform="matrix(.06045 0 0 .06045 467.37 626)" d="m-69.552 190.17c-2.8463 2.2655-76.615-37.03-80.171-36.917s-75.322 50.686-78.352 48.689 13.865-88.475 12.496-91.817-70.236-54.675-69.444-58.23 82.835-14.191 85.536-16.583 34.216-84.7 37.843-84.824 40.544 78.527 43.607 80.4 86.166 0.26786 87.485 3.6412-60.953 66.947-61.725 70.46 25.572 82.915 22.726 85.181z" fill="#fff"/>
  <path transform="matrix(.06045 0 0 .06045 448.6 626)" d="m-69.552 190.17c-2.8463 2.2655-76.615-37.03-80.171-36.917s-75.322 50.686-78.352 48.689 13.865-88.475 12.496-91.817-70.236-54.675-69.444-58.23 82.835-14.191 85.536-16.583 34.216-84.7 37.843-84.824 40.544 78.527 43.607 80.4 86.166 0.26786 87.485 3.6412-60.953 66.947-61.725 70.46 25.572 82.915 22.726 85.181z" fill="#fff"/>
  <path transform="matrix(.05719 .0196 -.0196 .05719 467.84 653.07)" d="m-69.552 190.17c-2.8463 2.2655-76.615-37.03-80.171-36.917s-75.322 50.686-78.352 48.689 13.865-88.475 12.496-91.817-70.236-54.675-69.444-58.23 82.835-14.191 85.536-16.583 34.216-84.7 37.843-84.824 40.544 78.527 43.607 80.4 86.166 0.26786 87.485 3.6412-60.953 66.947-61.725 70.46 25.572 82.915 22.726 85.181z" fill="#fff"/>
  <path transform="matrix(.05719 .0196 -.0196 .05719 450.08 646.98)" d="m-69.552 190.17c-2.8463 2.2655-76.615-37.03-80.171-36.917s-75.322 50.686-78.352 48.689 13.865-88.475 12.496-91.817-70.236-54.675-69.444-58.23 82.835-14.191 85.536-16.583 34.216-84.7 37.843-84.824 40.544 78.527 43.607 80.4 86.166 0.26786 87.485 3.6412-60.953 66.947-61.725 70.46 25.572 82.915 22.726 85.181z" fill="#fff"/>
  <path transform="matrix(.03384 .01159 -.01159 .03384 483.88 667.9)" d="m-69.552 190.17c-2.8463 2.2655-76.615-37.03-80.171-36.917s-75.322 50.686-78.352 48.689 13.865-88.475 12.496-91.817-70.236-54.675-69.444-58.23 82.835-14.191 85.536-16.583 34.216-84.7 37.843-84.824 40.544 78.527 43.607 80.4 86.166 0.26786 87.485 3.6412-60.953 66.947-61.725 70.46 25.572 82.915 22.726 85.181z" fill="#fff"/>
  <path transform="matrix(.03384 .01159 -.01159 .03384 492.7 659.08)" d="m-69.552 190.17c-2.8463 2.2655-76.615-37.03-80.171-36.917s-75.322 50.686-78.352 48.689 13.865-88.475 12.496-91.817-70.236-54.675-69.444-58.23 82.835-14.191 85.536-16.583 34.216-84.7 37.843-84.824 40.544 78.527 43.607 80.4 86.166 0.26786 87.485 3.6412-60.953 66.947-61.725 70.46 25.572 82.915 22.726 85.181z" fill="#fff"/>
  <path transform="matrix(.03384 .01159 -.01159 .03384 488.75 679.46)" d="m-69.552 190.17c-2.8463 2.2655-76.615-37.03-80.171-36.917s-75.322 50.686-78.352 48.689 13.865-88.475 12.496-91.817-70.236-54.675-69.444-58.23 82.835-14.191 85.536-16.583 34.216-84.7 37.843-84.824 40.544 78.527 43.607 80.4 86.166 0.26786 87.485 3.6412-60.953 66.947-61.725 70.46 25.572 82.915 22.726 85.181z" fill="#fff"/>
  <path transform="matrix(.03384 .01159 -.01159 .03384 500 673.68)" d="m-69.552 190.17c-2.8463 2.2655-76.615-37.03-80.171-36.917s-75.322 50.686-78.352 48.689 13.865-88.475 12.496-91.817-70.236-54.675-69.444-58.23 82.835-14.191 85.536-16.583 34.216-84.7 37.843-84.824 40.544 78.527 43.607 80.4 86.166 0.26786 87.485 3.6412-60.953 66.947-61.725 70.46 25.572 82.915 22.726 85.181z" fill="#fff"/>
  <path transform="matrix(.17774 0 0 .17774 210.59 580.41)" d="m-69.552 190.17c-2.8463 2.2655-76.615-37.03-80.171-36.917s-75.322 50.686-78.352 48.689 13.865-88.475 12.496-91.817-70.236-54.675-69.444-58.23 82.835-14.191 85.536-16.583 34.216-84.7 37.843-84.824 40.544 78.527 43.607 80.4 86.166 0.26786 87.485 3.6412-60.953 66.947-61.725 70.46 25.572 82.915 22.726 85.181z" fill="#fff" fill-opacity=".54315"/>
  <path transform="matrix(.09647 0 0 .09647 525.65 616.29)" d="m-69.552 190.17c-2.8463 2.2655-76.615-37.03-80.171-36.917s-75.322 50.686-78.352 48.689 13.865-88.475 12.496-91.817-70.236-54.675-69.444-58.23 82.835-14.191 85.536-16.583 34.216-84.7 37.843-84.824 40.544 78.527 43.607 80.4 86.166 0.26786 87.485 3.6412-60.953 66.947-61.725 70.46 25.572 82.915 22.726 85.181z" fill="#fff" fill-opacity=".54315"/>
  <path transform="matrix(.08464 0 0 .08464 280.74 585.83)" d="m-69.552 190.17c-2.8463 2.2655-76.615-37.03-80.171-36.917s-75.322 50.686-78.352 48.689 13.865-88.475 12.496-91.817-70.236-54.675-69.444-58.23 82.835-14.191 85.536-16.583 34.216-84.7 37.843-84.824 40.544 78.527 43.607 80.4 86.166 0.26786 87.485 3.6412-60.953 66.947-61.725 70.46 25.572 82.915 22.726 85.181z" fill="#fff"/>
  <path transform="matrix(.11366 0 0 .11366 310.92 566.59)" d="m-69.552 190.17c-2.8463 2.2655-76.615-37.03-80.171-36.917s-75.322 50.686-78.352 48.689 13.865-88.475 12.496-91.817-70.236-54.675-69.444-58.23 82.835-14.191 85.536-16.583 34.216-84.7 37.843-84.824 40.544 78.527 43.607 80.4 86.166 0.26786 87.485 3.6412-60.953 66.947-61.725 70.46 25.572 82.915 22.726 85.181z" fill="#fff"/>
  <path transform="matrix(.03717 0 0 .03717 283.83 556.03)" d="m-69.552 190.17c-2.8463 2.2655-76.615-37.03-80.171-36.917s-75.322 50.686-78.352 48.689 13.865-88.475 12.496-91.817-70.236-54.675-69.444-58.23 82.835-14.191 85.536-16.583 34.216-84.7 37.843-84.824 40.544 78.527 43.607 80.4 86.166 0.26786 87.485 3.6412-60.953 66.947-61.725 70.46 25.572 82.915 22.726 85.181z" fill="#fff"/>
  <path transform="matrix(.02002 0 0 .02002 271.24 544.79)" d="m-69.552 190.17c-2.8463 2.2655-76.615-37.03-80.171-36.917s-75.322 50.686-78.352 48.689 13.865-88.475 12.496-91.817-70.236-54.675-69.444-58.23 82.835-14.191 85.536-16.583 34.216-84.7 37.843-84.824 40.544 78.527 43.607 80.4 86.166 0.26786 87.485 3.6412-60.953 66.947-61.725 70.46 25.572 82.915 22.726 85.181z" fill="#fff"/>
  <path transform="matrix(.03717 0 0 .03717 270.86 557.93)" d="m-69.552 190.17c-2.8463 2.2655-76.615-37.03-80.171-36.917s-75.322 50.686-78.352 48.689 13.865-88.475 12.496-91.817-70.236-54.675-69.444-58.23 82.835-14.191 85.536-16.583 34.216-84.7 37.843-84.824 40.544 78.527 43.607 80.4 86.166 0.26786 87.485 3.6412-60.953 66.947-61.725 70.46 25.572 82.915 22.726 85.181z" fill="#fff"/>
  <path transform="matrix(.03717 0 0 .03717 492.29 570.1)" d="m-69.552 190.17c-2.8463 2.2655-76.615-37.03-80.171-36.917s-75.322 50.686-78.352 48.689 13.865-88.475 12.496-91.817-70.236-54.675-69.444-58.23 82.835-14.191 85.536-16.583 34.216-84.7 37.843-84.824 40.544 78.527 43.607 80.4 86.166 0.26786 87.485 3.6412-60.953 66.947-61.725 70.46 25.572 82.915 22.726 85.181z" fill="#fff"/>
  <path transform="matrix(.03384 .01159 -.01159 .03384 493.62 588.82)" d="m-69.552 190.17c-2.8463 2.2655-76.615-37.03-80.171-36.917s-75.322 50.686-78.352 48.689 13.865-88.475 12.496-91.817-70.236-54.675-69.444-58.23 82.835-14.191 85.536-16.583 34.216-84.7 37.843-84.824 40.544 78.527 43.607 80.4 86.166 0.26786 87.485 3.6412-60.953 66.947-61.725 70.46 25.572 82.915 22.726 85.181z" fill="#fff"/>
  <path transform="matrix(.03384 .01159 -.01159 .03384 502.44 580)" d="m-69.552 190.17c-2.8463 2.2655-76.615-37.03-80.171-36.917s-75.322 50.686-78.352 48.689 13.865-88.475 12.496-91.817-70.236-54.675-69.444-58.23 82.835-14.191 85.536-16.583 34.216-84.7 37.843-84.824 40.544 78.527 43.607 80.4 86.166 0.26786 87.485 3.6412-60.953 66.947-61.725 70.46 25.572 82.915 22.726 85.181z" fill="#fff"/>
  <path transform="matrix(.05212 .01786 -.01786 .05212 504.02 602.29)" d="m-69.552 190.17c-2.8463 2.2655-76.615-37.03-80.171-36.917s-75.322 50.686-78.352 48.689 13.865-88.475 12.496-91.817-70.236-54.675-69.444-58.23 82.835-14.191 85.536-16.583 34.216-84.7 37.843-84.824 40.544 78.527 43.607 80.4 86.166 0.26786 87.485 3.6412-60.953 66.947-61.725 70.46 25.572 82.915 22.726 85.181z" fill="#fff"/>
  <path transform="matrix(.03384 .01159 -.01159 .03384 509.74 594.6)" d="m-69.552 190.17c-2.8463 2.2655-76.615-37.03-80.171-36.917s-75.322 50.686-78.352 48.689 13.865-88.475 12.496-91.817-70.236-54.675-69.444-58.23 82.835-14.191 85.536-16.583 34.216-84.7 37.843-84.824 40.544 78.527 43.607 80.4 86.166 0.26786 87.485 3.6412-60.953 66.947-61.725 70.46 25.572 82.915 22.726 85.181z" fill="#fff"/>
  <path transform="matrix(.03717 0 0 .03717 517.84 559.15)" d="m-69.552 190.17c-2.8463 2.2655-76.615-37.03-80.171-36.917s-75.322 50.686-78.352 48.689 13.865-88.475 12.496-91.817-70.236-54.675-69.444-58.23 82.835-14.191 85.536-16.583 34.216-84.7 37.843-84.824 40.544 78.527 43.607 80.4 86.166 0.26786 87.485 3.6412-60.953 66.947-61.725 70.46 25.572 82.915 22.726 85.181z" fill="#fff"/>
  <path transform="matrix(.03384 .01159 -.01159 .03384 519.17 577.87)" d="m-69.552 190.17c-2.8463 2.2655-76.615-37.03-80.171-36.917s-75.322 50.686-78.352 48.689 13.865-88.475 12.496-91.817-70.236-54.675-69.444-58.23 82.835-14.191 85.536-16.583 34.216-84.7 37.843-84.824 40.544 78.527 43.607 80.4 86.166 0.26786 87.485 3.6412-60.953 66.947-61.725 70.46 25.572 82.915 22.726 85.181z" fill="#fff"/>
  <path transform="matrix(.03384 .01159 -.01159 .03384 527.99 569.05)" d="m-69.552 190.17c-2.8463 2.2655-76.615-37.03-80.171-36.917s-75.322 50.686-78.352 48.689 13.865-88.475 12.496-91.817-70.236-54.675-69.444-58.23 82.835-14.191 85.536-16.583 34.216-84.7 37.843-84.824 40.544 78.527 43.607 80.4 86.166 0.26786 87.485 3.6412-60.953 66.947-61.725 70.46 25.572 82.915 22.726 85.181z" fill="#fff"/>
  <path transform="matrix(.03384 .01159 -.01159 .03384 524.03 589.43)" d="m-69.552 190.17c-2.8463 2.2655-76.615-37.03-80.171-36.917s-75.322 50.686-78.352 48.689 13.865-88.475 12.496-91.817-70.236-54.675-69.444-58.23 82.835-14.191 85.536-16.583 34.216-84.7 37.843-84.824 40.544 78.527 43.607 80.4 86.166 0.26786 87.485 3.6412-60.953 66.947-61.725 70.46 25.572 82.915 22.726 85.181z" fill="#fff"/>
  <path transform="matrix(.03384 .01159 -.01159 .03384 535.29 583.65)" d="m-69.552 190.17c-2.8463 2.2655-76.615-37.03-80.171-36.917s-75.322 50.686-78.352 48.689 13.865-88.475 12.496-91.817-70.236-54.675-69.444-58.23 82.835-14.191 85.536-16.583 34.216-84.7 37.843-84.824 40.544 78.527 43.607 80.4 86.166 0.26786 87.485 3.6412-60.953 66.947-61.725 70.46 25.572 82.915 22.726 85.181z" fill="#fff"/>
  <path transform="matrix(.20354 .04868 -.04868 .20354 232.09 761.44)" d="m-69.552 190.17c-2.8463 2.2655-76.615-37.03-80.171-36.917s-75.322 50.686-78.352 48.689 13.865-88.475 12.496-91.817-70.236-54.675-69.444-58.23 82.835-14.191 85.536-16.583 34.216-84.7 37.843-84.824 40.544 78.527 43.607 80.4 86.166 0.26786 87.485 3.6412-60.953 66.947-61.725 70.46 25.572 82.915 22.726 85.181z" fill="#f00" fill-opacity=".74242"/>
  <path transform="matrix(.14237 .03405 -.03405 .14237 259.23 794.55)" d="m-69.552 190.17c-2.8463 2.2655-76.615-37.03-80.171-36.917s-75.322 50.686-78.352 48.689 13.865-88.475 12.496-91.817-70.236-54.675-69.444-58.23 82.835-14.191 85.536-16.583 34.216-84.7 37.843-84.824 40.544 78.527 43.607 80.4 86.166 0.26786 87.485 3.6412-60.953 66.947-61.725 70.46 25.572 82.915 22.726 85.181z" fill="#f00" fill-opacity=".3401"/>
  <path transform="matrix(.09588 .02293 -.02293 .09588 276.13 815.86)" d="m-69.552 190.17c-2.8463 2.2655-76.615-37.03-80.171-36.917s-75.322 50.686-78.352 48.689 13.865-88.475 12.496-91.817-70.236-54.675-69.444-58.23 82.835-14.191 85.536-16.583 34.216-84.7 37.843-84.824 40.544 78.527 43.607 80.4 86.166 0.26786 87.485 3.6412-60.953 66.947-61.725 70.46 25.572 82.915 22.726 85.181z" fill="#d40000" fill-opacity=".38579"/>
  <path transform="matrix(.06295 .01505 -.01505 .06295 297.89 822.35)" d="m-69.552 190.17c-2.8463 2.2655-76.615-37.03-80.171-36.917s-75.322 50.686-78.352 48.689 13.865-88.475 12.496-91.817-70.236-54.675-69.444-58.23 82.835-14.191 85.536-16.583 34.216-84.7 37.843-84.824 40.544 78.527 43.607 80.4 86.166 0.26786 87.485 3.6412-60.953 66.947-61.725 70.46 25.572 82.915 22.726 85.181z" fill="#fc2626" fill-opacity=".41117"/>
  <path transform="matrix(.04883 .01168 -.01168 .04883 317.34 824.54)" d="m-69.552 190.17c-2.8463 2.2655-76.615-37.03-80.171-36.917s-75.322 50.686-78.352 48.689 13.865-88.475 12.496-91.817-70.236-54.675-69.444-58.23 82.835-14.191 85.536-16.583 34.216-84.7 37.843-84.824 40.544 78.527 43.607 80.4 86.166 0.26786 87.485 3.6412-60.953 66.947-61.725 70.46 25.572 82.915 22.726 85.181z" fill="#ff8585"/>
  <path transform="matrix(.23965 0 0 .23965 503.47 651.47)" d="m-69.552 190.17c-2.8463 2.2655-76.615-37.03-80.171-36.917s-75.322 50.686-78.352 48.689 13.865-88.475 12.496-91.817-70.236-54.675-69.444-58.23 82.835-14.191 85.536-16.583 34.216-84.7 37.843-84.824 40.544 78.527 43.607 80.4 86.166 0.26786 87.485 3.6412-60.953 66.947-61.725 70.46 25.572 82.915 22.726 85.181z" fill="#fff"/>
  <path transform="matrix(.08464 0 0 .08464 334.71 581.07)" d="m-69.552 190.17c-2.8463 2.2655-76.615-37.03-80.171-36.917s-75.322 50.686-78.352 48.689 13.865-88.475 12.496-91.817-70.236-54.675-69.444-58.23 82.835-14.191 85.536-16.583 34.216-84.7 37.843-84.824 40.544 78.527 43.607 80.4 86.166 0.26786 87.485 3.6412-60.953 66.947-61.725 70.46 25.572 82.915 22.726 85.181z" fill="#fff"/>
  <path transform="matrix(.06571 0 0 .06571 347.62 605.53)" d="m-69.552 190.17c-2.8463 2.2655-76.615-37.03-80.171-36.917s-75.322 50.686-78.352 48.689 13.865-88.475 12.496-91.817-70.236-54.675-69.444-58.23 82.835-14.191 85.536-16.583 34.216-84.7 37.843-84.824 40.544 78.527 43.607 80.4 86.166 0.26786 87.485 3.6412-60.953 66.947-61.725 70.46 25.572 82.915 22.726 85.181z" fill="#fff"/>
  <path transform="matrix(.04677 0 0 .04677 360.54 626.02)" d="m-69.552 190.17c-2.8463 2.2655-76.615-37.03-80.171-36.917s-75.322 50.686-78.352 48.689 13.865-88.475 12.496-91.817-70.236-54.675-69.444-58.23 82.835-14.191 85.536-16.583 34.216-84.7 37.843-84.824 40.544 78.527 43.607 80.4 86.166 0.26786 87.485 3.6412-60.953 66.947-61.725 70.46 25.572 82.915 22.726 85.181z" fill="#fff"/>
  <path transform="matrix(.04677 0 0 .04677 343.87 628.4)" d="m-69.552 190.17c-2.8463 2.2655-76.615-37.03-80.171-36.917s-75.322 50.686-78.352 48.689 13.865-88.475 12.496-91.817-70.236-54.675-69.444-58.23 82.835-14.191 85.536-16.583 34.216-84.7 37.843-84.824 40.544 78.527 43.607 80.4 86.166 0.26786 87.485 3.6412-60.953 66.947-61.725 70.46 25.572 82.915 22.726 85.181z" fill="#fff"/>
  <path transform="matrix(.04677 0 0 .04677 350.22 641.89)" d="m-69.552 190.17c-2.8463 2.2655-76.615-37.03-80.171-36.917s-75.322 50.686-78.352 48.689 13.865-88.475 12.496-91.817-70.236-54.675-69.444-58.23 82.835-14.191 85.536-16.583 34.216-84.7 37.843-84.824 40.544 78.527 43.607 80.4 86.166 0.26786 87.485 3.6412-60.953 66.947-61.725 70.46 25.572 82.915 22.726 85.181z" fill="#fff"/>
  <path transform="matrix(.04677 0 0 .04677 364.51 643.48)" d="m-69.552 190.17c-2.8463 2.2655-76.615-37.03-80.171-36.917s-75.322 50.686-78.352 48.689 13.865-88.475 12.496-91.817-70.236-54.675-69.444-58.23 82.835-14.191 85.536-16.583 34.216-84.7 37.843-84.824 40.544 78.527 43.607 80.4 86.166 0.26786 87.485 3.6412-60.953 66.947-61.725 70.46 25.572 82.915 22.726 85.181z" fill="#fff"/>
  <path transform="matrix(.04677 0 0 .04677 356.57 662.53)" d="m-69.552 190.17c-2.8463 2.2655-76.615-37.03-80.171-36.917s-75.322 50.686-78.352 48.689 13.865-88.475 12.496-91.817-70.236-54.675-69.444-58.23 82.835-14.191 85.536-16.583 34.216-84.7 37.843-84.824 40.544 78.527 43.607 80.4 86.166 0.26786 87.485 3.6412-60.953 66.947-61.725 70.46 25.572 82.915 22.726 85.181z" fill="#fff"/>
  <path transform="matrix(.04677 0 0 .04677 276.41 629.19)" d="m-69.552 190.17c-2.8463 2.2655-76.615-37.03-80.171-36.917s-75.322 50.686-78.352 48.689 13.865-88.475 12.496-91.817-70.236-54.675-69.444-58.23 82.835-14.191 85.536-16.583 34.216-84.7 37.843-84.824 40.544 78.527 43.607 80.4 86.166 0.26786 87.485 3.6412-60.953 66.947-61.725 70.46 25.572 82.915 22.726 85.181z" fill="#fff"/>
  <path transform="matrix(.05613 0 0 .05613 278.28 646.32)" d="m-69.552 190.17c-2.8463 2.2655-76.615-37.03-80.171-36.917s-75.322 50.686-78.352 48.689 13.865-88.475 12.496-91.817-70.236-54.675-69.444-58.23 82.835-14.191 85.536-16.583 34.216-84.7 37.843-84.824 40.544 78.527 43.607 80.4 86.166 0.26786 87.485 3.6412-60.953 66.947-61.725 70.46 25.572 82.915 22.726 85.181z" fill="#fff"/>
  <path transform="matrix(.07191 0 0 .07191 264.53 659.01)" d="m-69.552 190.17c-2.8463 2.2655-76.615-37.03-80.171-36.917s-75.322 50.686-78.352 48.689 13.865-88.475 12.496-91.817-70.236-54.675-69.444-58.23 82.835-14.191 85.536-16.583 34.216-84.7 37.843-84.824 40.544 78.527 43.607 80.4 86.166 0.26786 87.485 3.6412-60.953 66.947-61.725 70.46 25.572 82.915 22.726 85.181z" fill="#fff"/>
  <path transform="matrix(.04677 0 0 .04677 263.71 683.16)" d="m-69.552 190.17c-2.8463 2.2655-76.615-37.03-80.171-36.917s-75.322 50.686-78.352 48.689 13.865-88.475 12.496-91.817-70.236-54.675-69.444-58.23 82.835-14.191 85.536-16.583 34.216-84.7 37.843-84.824 40.544 78.527 43.607 80.4 86.166 0.26786 87.485 3.6412-60.953 66.947-61.725 70.46 25.572 82.915 22.726 85.181z" fill="#fff"/>
  <path transform="matrix(.04677 0 0 .04677 254.19 697.45)" d="m-69.552 190.17c-2.8463 2.2655-76.615-37.03-80.171-36.917s-75.322 50.686-78.352 48.689 13.865-88.475 12.496-91.817-70.236-54.675-69.444-58.23 82.835-14.191 85.536-16.583 34.216-84.7 37.843-84.824 40.544 78.527 43.607 80.4 86.166 0.26786 87.485 3.6412-60.953 66.947-61.725 70.46 25.572 82.915 22.726 85.181z" fill="#fff"/>
  <path transform="matrix(.03717 0 0 .03717 320.07 564.28)" d="m-69.552 190.17c-2.8463 2.2655-76.615-37.03-80.171-36.917s-75.322 50.686-78.352 48.689 13.865-88.475 12.496-91.817-70.236-54.675-69.444-58.23 82.835-14.191 85.536-16.583 34.216-84.7 37.843-84.824 40.544 78.527 43.607 80.4 86.166 0.26786 87.485 3.6412-60.953 66.947-61.725 70.46 25.572 82.915 22.726 85.181z" fill="#fff"/>
  <path transform="matrix(.03717 0 0 .03717 335.94 569.04)" d="m-69.552 190.17c-2.8463 2.2655-76.615-37.03-80.171-36.917s-75.322 50.686-78.352 48.689 13.865-88.475 12.496-91.817-70.236-54.675-69.444-58.23 82.835-14.191 85.536-16.583 34.216-84.7 37.843-84.824 40.544 78.527 43.607 80.4 86.166 0.26786 87.485 3.6412-60.953 66.947-61.725 70.46 25.572 82.915 22.726 85.181z" fill="#fff"/>
  <path transform="matrix(.03717 0 0 .03717 362.93 610.31)" d="m-69.552 190.17c-2.8463 2.2655-76.615-37.03-80.171-36.917s-75.322 50.686-78.352 48.689 13.865-88.475 12.496-91.817-70.236-54.675-69.444-58.23 82.835-14.191 85.536-16.583 34.216-84.7 37.843-84.824 40.544 78.527 43.607 80.4 86.166 0.26786 87.485 3.6412-60.953 66.947-61.725 70.46 25.572 82.915 22.726 85.181z" fill="#fff"/>
  <path transform="matrix(.03717 0 0 .03717 474.83 570.63)" d="m-69.552 190.17c-2.8463 2.2655-76.615-37.03-80.171-36.917s-75.322 50.686-78.352 48.689 13.865-88.475 12.496-91.817-70.236-54.675-69.444-58.23 82.835-14.191 85.536-16.583 34.216-84.7 37.843-84.824 40.544 78.527 43.607 80.4 86.166 0.26786 87.485 3.6412-60.953 66.947-61.725 70.46 25.572 82.915 22.726 85.181z" fill="#fff"/>
  <path transform="matrix(.03717 0 0 .03717 506.58 561.9)" d="m-69.552 190.17c-2.8463 2.2655-76.615-37.03-80.171-36.917s-75.322 50.686-78.352 48.689 13.865-88.475 12.496-91.817-70.236-54.675-69.444-58.23 82.835-14.191 85.536-16.583 34.216-84.7 37.843-84.824 40.544 78.527 43.607 80.4 86.166 0.26786 87.485 3.6412-60.953 66.947-61.725 70.46 25.572 82.915 22.726 85.181z" fill="#fff"/>
  <path transform="matrix(.02455 0 0 .02455 537.9 566.04)" d="m-69.552 190.17c-2.8463 2.2655-76.615-37.03-80.171-36.917s-75.322 50.686-78.352 48.689 13.865-88.475 12.496-91.817-70.236-54.675-69.444-58.23 82.835-14.191 85.536-16.583 34.216-84.7 37.843-84.824 40.544 78.527 43.607 80.4 86.166 0.26786 87.485 3.6412-60.953 66.947-61.725 70.46 25.572 82.915 22.726 85.181z" fill="#fff"/>
  <path transform="matrix(.02158 0 0 .02158 531.5 596.05)" d="m-69.552 190.17c-2.8463 2.2655-76.615-37.03-80.171-36.917s-75.322 50.686-78.352 48.689 13.865-88.475 12.496-91.817-70.236-54.675-69.444-58.23 82.835-14.191 85.536-16.583 34.216-84.7 37.843-84.824 40.544 78.527 43.607 80.4 86.166 0.26786 87.485 3.6412-60.953 66.947-61.725 70.46 25.572 82.915 22.726 85.181z" fill="#fff"/>
  <path transform="matrix(.05969 0 0 .05969 341.51 696.25)" d="m-69.552 190.17c-2.8463 2.2655-76.615-37.03-80.171-36.917s-75.322 50.686-78.352 48.689 13.865-88.475 12.496-91.817-70.236-54.675-69.444-58.23 82.835-14.191 85.536-16.583 34.216-84.7 37.843-84.824 40.544 78.527 43.607 80.4 86.166 0.26786 87.485 3.6412-60.953 66.947-61.725 70.46 25.572 82.915 22.726 85.181z" fill="#fff"/>
  <path transform="matrix(.0784 0 0 .0784 338.11 672.63)" d="m-69.552 190.17c-2.8463 2.2655-76.615-37.03-80.171-36.917s-75.322 50.686-78.352 48.689 13.865-88.475 12.496-91.817-70.236-54.675-69.444-58.23 82.835-14.191 85.536-16.583 34.216-84.7 37.843-84.824 40.544 78.527 43.607 80.4 86.166 0.26786 87.485 3.6412-60.953 66.947-61.725 70.46 25.572 82.915 22.726 85.181z" fill="#fff"/>
  <path transform="matrix(.02892 .02336 -.02336 .02892 143.69 622.6)" d="m-69.552 190.17c-2.8463 2.2655-76.615-37.03-80.171-36.917s-75.322 50.686-78.352 48.689 13.865-88.475 12.496-91.817-70.236-54.675-69.444-58.23 82.835-14.191 85.536-16.583 34.216-84.7 37.843-84.824 40.544 78.527 43.607 80.4 86.166 0.26786 87.485 3.6412-60.953 66.947-61.725 70.46 25.572 82.915 22.726 85.181z" fill="#fff"/>
  <path transform="matrix(.01558 .01258 -.01258 .01558 140.96 605.94)" d="m-69.552 190.17c-2.8463 2.2655-76.615-37.03-80.171-36.917s-75.322 50.686-78.352 48.689 13.865-88.475 12.496-91.817-70.236-54.675-69.444-58.23 82.835-14.191 85.536-16.583 34.216-84.7 37.843-84.824 40.544 78.527 43.607 80.4 86.166 0.26786 87.485 3.6412-60.953 66.947-61.725 70.46 25.572 82.915 22.726 85.181z" fill="#fff"/>
  <path transform="matrix(.02892 .02336 -.02336 .02892 132.41 615.94)" d="m-69.552 190.17c-2.8463 2.2655-76.615-37.03-80.171-36.917s-75.322 50.686-78.352 48.689 13.865-88.475 12.496-91.817-70.236-54.675-69.444-58.23 82.835-14.191 85.536-16.583 34.216-84.7 37.843-84.824 40.544 78.527 43.607 80.4 86.166 0.26786 87.485 3.6412-60.953 66.947-61.725 70.46 25.572 82.915 22.726 85.181z" fill="#fff"/>
  <path transform="matrix(.02892 .02336 -.02336 .02892 273.45 673.4)" d="m-69.552 190.17c-2.8463 2.2655-76.615-37.03-80.171-36.917s-75.322 50.686-78.352 48.689 13.865-88.475 12.496-91.817-70.236-54.675-69.444-58.23 82.835-14.191 85.536-16.583 34.216-84.7 37.843-84.824 40.544 78.527 43.607 80.4 86.166 0.26786 87.485 3.6412-60.953 66.947-61.725 70.46 25.572 82.915 22.726 85.181z" fill="#fff"/>
  <path transform="matrix(.02892 .02336 -.02336 .02892 175.27 711.17)" d="m-69.552 190.17c-2.8463 2.2655-76.615-37.03-80.171-36.917s-75.322 50.686-78.352 48.689 13.865-88.475 12.496-91.817-70.236-54.675-69.444-58.23 82.835-14.191 85.536-16.583 34.216-84.7 37.843-84.824 40.544 78.527 43.607 80.4 86.166 0.26786 87.485 3.6412-60.953 66.947-61.725 70.46 25.572 82.915 22.726 85.181z" fill="#fff"/>
  <path transform="matrix(.02982 -.02219 .02219 .02982 174.96 724.51)" d="m-69.552 190.17c-2.8463 2.2655-76.615-37.03-80.171-36.917s-75.322 50.686-78.352 48.689 13.865-88.475 12.496-91.817-70.236-54.675-69.444-58.23 82.835-14.191 85.536-16.583 34.216-84.7 37.843-84.824 40.544 78.527 43.607 80.4 86.166 0.26786 87.485 3.6412-60.953 66.947-61.725 70.46 25.572 82.915 22.726 85.181z" fill="#fff"/>
  <path transform="matrix(.02982 -.02219 .02219 .02982 165.69 733.77)" d="m-69.552 190.17c-2.8463 2.2655-76.615-37.03-80.171-36.917s-75.322 50.686-78.352 48.689 13.865-88.475 12.496-91.817-70.236-54.675-69.444-58.23 82.835-14.191 85.536-16.583 34.216-84.7 37.843-84.824 40.544 78.527 43.607 80.4 86.166 0.26786 87.485 3.6412-60.953 66.947-61.725 70.46 25.572 82.915 22.726 85.181z" fill="#fff"/>
  <path transform="matrix(.02982 -.02219 .02219 .02982 142.67 721.87)" d="m-69.552 190.17c-2.8463 2.2655-76.615-37.03-80.171-36.917s-75.322 50.686-78.352 48.689 13.865-88.475 12.496-91.817-70.236-54.675-69.444-58.23 82.835-14.191 85.536-16.583 34.216-84.7 37.843-84.824 40.544 78.527 43.607 80.4 86.166 0.26786 87.485 3.6412-60.953 66.947-61.725 70.46 25.572 82.915 22.726 85.181z" fill="#fff"/>
  <path transform="matrix(.0172 -.0128 .0128 .0172 151.52 737.27)" d="m-69.552 190.17c-2.8463 2.2655-76.615-37.03-80.171-36.917s-75.322 50.686-78.352 48.689 13.865-88.475 12.496-91.817-70.236-54.675-69.444-58.23 82.835-14.191 85.536-16.583 34.216-84.7 37.843-84.824 40.544 78.527 43.607 80.4 86.166 0.26786 87.485 3.6412-60.953 66.947-61.725 70.46 25.572 82.915 22.726 85.181z" fill="#fff"/>
  <path transform="matrix(.03869 .00925 -.00925 .03869 331.55 824.98)" d="m-69.552 190.17c-2.8463 2.2655-76.615-37.03-80.171-36.917s-75.322 50.686-78.352 48.689 13.865-88.475 12.496-91.817-70.236-54.675-69.444-58.23 82.835-14.191 85.536-16.583 34.216-84.7 37.843-84.824 40.544 78.527 43.607 80.4 86.166 0.26786 87.485 3.6412-60.953 66.947-61.725 70.46 25.572 82.915 22.726 85.181z" fill="#f00" fill-opacity=".41117"/>
  <path transform="matrix(.02912 .00697 -.00697 .02912 342.83 824.79)" d="m-69.552 190.17c-2.8463 2.2655-76.615-37.03-80.171-36.917s-75.322 50.686-78.352 48.689 13.865-88.475 12.496-91.817-70.236-54.675-69.444-58.23 82.835-14.191 85.536-16.583 34.216-84.7 37.843-84.824 40.544 78.527 43.607 80.4 86.166 0.26786 87.485 3.6412-60.953 66.947-61.725 70.46 25.572 82.915 22.726 85.181z" fill="#f44"/>
  <path transform="matrix(.02808 .00671 -.00671 .02808 354.18 822.85)" d="m-69.552 190.17c-2.8463 2.2655-76.615-37.03-80.171-36.917s-75.322 50.686-78.352 48.689 13.865-88.475 12.496-91.817-70.236-54.675-69.444-58.23 82.835-14.191 85.536-16.583 34.216-84.7 37.843-84.824 40.544 78.527 43.607 80.4 86.166 0.26786 87.485 3.6412-60.953 66.947-61.725 70.46 25.572 82.915 22.726 85.181z" fill="#f00" fill-opacity=".41117"/>
  <path transform="matrix(.02808 .00671 -.00671 .02808 363.71 815.31)" d="m-69.552 190.17c-2.8463 2.2655-76.615-37.03-80.171-36.917s-75.322 50.686-78.352 48.689 13.865-88.475 12.496-91.817-70.236-54.675-69.444-58.23 82.835-14.191 85.536-16.583 34.216-84.7 37.843-84.824 40.544 78.527 43.607 80.4 86.166 0.26786 87.485 3.6412-60.953 66.947-61.725 70.46 25.572 82.915 22.726 85.181z" fill="#f00" fill-opacity=".39899"/>
  <path transform="matrix(.0511 0 0 .0511 501.21 550.91)" d="m-69.552 190.17c-2.8463 2.2655-76.615-37.03-80.171-36.917s-75.322 50.686-78.352 48.689 13.865-88.475 12.496-91.817-70.236-54.675-69.444-58.23 82.835-14.191 85.536-16.583 34.216-84.7 37.843-84.824 40.544 78.527 43.607 80.4 86.166 0.26786 87.485 3.6412-60.953 66.947-61.725 70.46 25.572 82.915 22.726 85.181z" fill="#fff"/>
  <path transform="matrix(.06825 0 0 .06825 524.75 536.31)" d="m-69.552 190.17c-2.8463 2.2655-76.615-37.03-80.171-36.917s-75.322 50.686-78.352 48.689 13.865-88.475 12.496-91.817-70.236-54.675-69.444-58.23 82.835-14.191 85.536-16.583 34.216-84.7 37.843-84.824 40.544 78.527 43.607 80.4 86.166 0.26786 87.485 3.6412-60.953 66.947-61.725 70.46 25.572 82.915 22.726 85.181z" fill="#fff"/>
  <path transform="matrix(.06045 0 0 .06045 540.38 518.06)" d="m-69.552 190.17c-2.8463 2.2655-76.615-37.03-80.171-36.917s-75.322 50.686-78.352 48.689 13.865-88.475 12.496-91.817-70.236-54.675-69.444-58.23 82.835-14.191 85.536-16.583 34.216-84.7 37.843-84.824 40.544 78.527 43.607 80.4 86.166 0.26786 87.485 3.6412-60.953 66.947-61.725 70.46 25.572 82.915 22.726 85.181z" fill="#fff"/>
  <path transform="matrix(.0573 0 0 .0573 556.16 494.89)" d="m-69.552 190.17c-2.8463 2.2655-76.615-37.03-80.171-36.917s-75.322 50.686-78.352 48.689 13.865-88.475 12.496-91.817-70.236-54.675-69.444-58.23 82.835-14.191 85.536-16.583 34.216-84.7 37.843-84.824 40.544 78.527 43.607 80.4 86.166 0.26786 87.485 3.6412-60.953 66.947-61.725 70.46 25.572 82.915 22.726 85.181z" fill="#fff"/>
  <path transform="matrix(.04625 0 0 .04625 564.95 476.09)" d="m-69.552 190.17c-2.8463 2.2655-76.615-37.03-80.171-36.917s-75.322 50.686-78.352 48.689 13.865-88.475 12.496-91.817-70.236-54.675-69.444-58.23 82.835-14.191 85.536-16.583 34.216-84.7 37.843-84.824 40.544 78.527 43.607 80.4 86.166 0.26786 87.485 3.6412-60.953 66.947-61.725 70.46 25.572 82.915 22.726 85.181z" fill="#fff"/>
  <path transform="matrix(.03863 0 0 .03863 573.45 458.25)" d="m-69.552 190.17c-2.8463 2.2655-76.615-37.03-80.171-36.917s-75.322 50.686-78.352 48.689 13.865-88.475 12.496-91.817-70.236-54.675-69.444-58.23 82.835-14.191 85.536-16.583 34.216-84.7 37.843-84.824 40.544 78.527 43.607 80.4 86.166 0.26786 87.485 3.6412-60.953 66.947-61.725 70.46 25.572 82.915 22.726 85.181z" fill="#fff"/>
  <path transform="matrix(.03863 0 0 .03863 534.16 549.46)" d="m-69.552 190.17c-2.8463 2.2655-76.615-37.03-80.171-36.917s-75.322 50.686-78.352 48.689 13.865-88.475 12.496-91.817-70.236-54.675-69.444-58.23 82.835-14.191 85.536-16.583 34.216-84.7 37.843-84.824 40.544 78.527 43.607 80.4 86.166 0.26786 87.485 3.6412-60.953 66.947-61.725 70.46 25.572 82.915 22.726 85.181z" fill="#fff"/>
  <path transform="matrix(.02892 .02336 -.02336 .02892 154.35 615.31)" d="m-69.552 190.17c-2.8463 2.2655-76.615-37.03-80.171-36.917s-75.322 50.686-78.352 48.689 13.865-88.475 12.496-91.817-70.236-54.675-69.444-58.23 82.835-14.191 85.536-16.583 34.216-84.7 37.843-84.824 40.544 78.527 43.607 80.4 86.166 0.26786 87.485 3.6412-60.953 66.947-61.725 70.46 25.572 82.915 22.726 85.181z" fill="#fff"/>
  <path transform="matrix(.02892 .02336 -.02336 .02892 161.65 647.29)" d="m-69.552 190.17c-2.8463 2.2655-76.615-37.03-80.171-36.917s-75.322 50.686-78.352 48.689 13.865-88.475 12.496-91.817-70.236-54.675-69.444-58.23 82.835-14.191 85.536-16.583 34.216-84.7 37.843-84.824 40.544 78.527 43.607 80.4 86.166 0.26786 87.485 3.6412-60.953 66.947-61.725 70.46 25.572 82.915 22.726 85.181z" fill="#fff"/>
  <path transform="matrix(.02892 .02336 -.02336 .02892 171.75 628.21)" d="m-69.552 190.17c-2.8463 2.2655-76.615-37.03-80.171-36.917s-75.322 50.686-78.352 48.689 13.865-88.475 12.496-91.817-70.236-54.675-69.444-58.23 82.835-14.191 85.536-16.583 34.216-84.7 37.843-84.824 40.544 78.527 43.607 80.4 86.166 0.26786 87.485 3.6412-60.953 66.947-61.725 70.46 25.572 82.915 22.726 85.181z" fill="#fff"/>
  <path transform="matrix(.02892 .02336 -.02336 .02892 169.51 613.62)" d="m-69.552 190.17c-2.8463 2.2655-76.615-37.03-80.171-36.917s-75.322 50.686-78.352 48.689 13.865-88.475 12.496-91.817-70.236-54.675-69.444-58.23 82.835-14.191 85.536-16.583 34.216-84.7 37.843-84.824 40.544 78.527 43.607 80.4 86.166 0.26786 87.485 3.6412-60.953 66.947-61.725 70.46 25.572 82.915 22.726 85.181z" fill="#fff" fill-opacity=".63131"/>
  <path transform="matrix(.02892 .02336 -.02336 .02892 239.66 665.25)" d="m-69.552 190.17c-2.8463 2.2655-76.615-37.03-80.171-36.917s-75.322 50.686-78.352 48.689 13.865-88.475 12.496-91.817-70.236-54.675-69.444-58.23 82.835-14.191 85.536-16.583 34.216-84.7 37.843-84.824 40.544 78.527 43.607 80.4 86.166 0.26786 87.485 3.6412-60.953 66.947-61.725 70.46 25.572 82.915 22.726 85.181z" fill="#fff" fill-opacity=".63131"/>
  <path transform="matrix(.02892 .02336 -.02336 .02892 216.65 655.71)" d="m-69.552 190.17c-2.8463 2.2655-76.615-37.03-80.171-36.917s-75.322 50.686-78.352 48.689 13.865-88.475 12.496-91.817-70.236-54.675-69.444-58.23 82.835-14.191 85.536-16.583 34.216-84.7 37.843-84.824 40.544 78.527 43.607 80.4 86.166 0.26786 87.485 3.6412-60.953 66.947-61.725 70.46 25.572 82.915 22.726 85.181z" fill="#fff" fill-opacity=".63131"/>
  <path transform="matrix(.02892 .02336 -.02336 .02892 189.83 631.31)" d="m-69.552 190.17c-2.8463 2.2655-76.615-37.03-80.171-36.917s-75.322 50.686-78.352 48.689 13.865-88.475 12.496-91.817-70.236-54.675-69.444-58.23 82.835-14.191 85.536-16.583 34.216-84.7 37.843-84.824 40.544 78.527 43.607 80.4 86.166 0.26786 87.485 3.6412-60.953 66.947-61.725 70.46 25.572 82.915 22.726 85.181z" fill="#fff" fill-opacity=".80808"/>
 </g>
</svg>
