<?xml version="1.0" encoding="UTF-8"?>
<svg viewBox="0 0 759.25 825.44745" xmlns="http://www.w3.org/2000/svg">
 <defs>
  <radialGradient id="a" cx="1.304" cy="1378.9" r="15.714" gradientTransform="matrix(.0078802 1.0781 -.99997 .0073089 1378.1 1362.4)" gradientUnits="userSpaceOnUse">
   <stop stop-color="#f00" offset="0"/>
   <stop stop-color="#500" offset="1"/>
  </radialGradient>
  <radialGradient id="d" cx="909.18" cy="1108.4" r="32.5" gradientTransform="matrix(7.7259e-7 .80275 -.74196 7.0415e-7 1737.8 380.5)" gradientUnits="userSpaceOnUse">
   <stop stop-color="#fff" offset="0"/>
   <stop stop-color="#afc6e9" stop-opacity="0" offset="1"/>
  </radialGradient>
  <radialGradient id="e" cx="852.06" cy="735.61" r="131.32" gradientTransform="matrix(.0084669 .81589 -.99995 .010377 1616.2 32.955)" gradientUnits="userSpaceOnUse">
   <stop stop-color="#5f8dd3" offset="0"/>
   <stop stop-color="#214478" offset="1"/>
  </radialGradient>
  <radialGradient id="b" cx="909.18" cy="1108.4" r="32.5" gradientTransform="matrix(7.7259e-7 .80275 -.74196 7.0415e-7 1737.8 380.5)" gradientUnits="userSpaceOnUse">
   <stop stop-color="#fff" offset="0"/>
   <stop stop-color="#aade87" stop-opacity="0" offset="1"/>
  </radialGradient>
  <radialGradient id="c" cx="852.06" cy="735.61" r="131.32" gradientTransform="matrix(.0084669 .81589 -.99995 .010377 1616.2 32.955)" gradientUnits="userSpaceOnUse">
   <stop stop-color="#5aa02c" offset="0"/>
   <stop stop-color="#2d5016" offset="1"/>
  </radialGradient>
  <radialGradient id="f" cx="909.18" cy="1108.4" r="32.5" gradientTransform="matrix(7.7259e-7 .80275 -.74196 7.0415e-7 1737.8 380.5)" gradientUnits="userSpaceOnUse">
   <stop stop-color="#fff" offset="0"/>
   <stop stop-color="#f55" stop-opacity="0" offset="1"/>
  </radialGradient>
  <radialGradient id="g" cx="852.06" cy="735.61" r="131.32" gradientTransform="matrix(.0084669 .81589 -.99995 .010377 1616.2 32.955)" gradientUnits="userSpaceOnUse">
   <stop stop-color="#f55" offset="0"/>
   <stop stop-color="#800000" offset="1"/>
  </radialGradient>
 </defs>
 <g transform="translate(-846.91 -497.82)">
  <g transform="matrix(-.50967 .32499 .32499 .50967 952.94 -108.11)">
   <path d="m-19.501 1280.7s47.552 32.233 89.711 36.428c37.638 3.7452 63.793 2.4334 63.793 2.4334s1.6072 35.889 14.6 60.06c18.61 34.62 62.853 28.758 62.853 28.758s-21.043 29.173 5.9728 71.536 59.784 27.873 59.784 27.873-45.744 22.279-37.753 71.636c8.1296 50.216-22.122 76.734-22.122 76.734s5.5026-30.276-33.404-50.188c-50.679-25.938-79.14-6.8578-79.14-6.8578s14.987-28.924-12.831-66.199c-28.402-38.058-76.264-35.284-76.264-35.284s29.062-6.2494 14.075-51.129-60.917-30.86-60.917-30.86 29.781-13.356 40.068-58.263-31.496-77.564-28.426-76.679z" fill="#445016" fill-rule="evenodd"/>
   <path d="m-26.469 1283.1-10.812 7.1874c29.582 15.402 58.467 32.947 82.724 56.055 12.514 12.199 23.467 25.88 35.936 38.123 10.883 11.63 19.828 24.872 29.965 37.127 13.673 16.856 27.094 34.001 38.455 52.528 8.2008 12.12 17.795 23.279 25.22 35.926 4.298 6.7565 8.016 13.9 12.45 20.553 2.6743 3.3816 2.3347 8.0078 4.0624 11.828 2.3992 6.2122 5.8384 11.964 8.1638 18.213 2.9458 7.1316 6.0373 14.33 7.3829 21.963 0.9367 7.1456 2.2633 14.236 4.1298 21.198 1.9712 8.1538 3.263 16.492 5.6434 24.532 1.2629 2.6304 1.6343 5.5939 1.5552 8.4855 1.3493 1.1657 0.94779 3.168 1.8125 4.5937-0.31074-2.9499-1.3488-5.8095-1.3018-8.7863-1.2334-5.3686-1.8845-10.893-1.3917-16.395 0.25878-10.338-0.91301-20.731-3.9627-30.632-2.2411-7.8235-4.5762-15.634-6.1617-23.621-2.1514-8.5034-5.8104-16.574-10.647-23.883-2.5672-4.2423-4.8119-8.7614-5.6525-13.69-4.3125-14.822-13.432-27.638-23.092-39.449-8.749-10.737-17.414-21.644-24.122-33.81-7.8346-13.169-16.271-26.073-26.618-37.43-11.143-12.541-21.062-26.086-30.863-39.68-11.794-14.116-26.473-25.403-38.934-38.884-16.835-17.051-33.573-34.234-51.522-50.128l-10.825-9.9563-11.594 8.0313z" fill="#abc837"/>
   <g transform="translate(1.0102 27.274)">
    <path d="m1.0496 1263.5s48.469-15.836 84.508-27.317 43.338-46.876 43.338-46.876 28.307 22.12 55.119 27.971c38.402 8.3795 62.723-29.041 62.723-29.041s8.4745 34.958 58.225 41.988 60.054-27.285 60.054-27.285-11.318 32.099 31.372 58.13c43.433 26.483 67.135 2.0598 67.135 2.0598s-32.491 53.85-72.92 70.454c-52.663 21.628-72.842 48.585-72.842 48.585s-12.224-30.196-58.631-33.307c-47.382-3.1766-76.402 34.984-76.402 34.984s14.154-26.141-29.685-43.944-63.06 26.204-63.06 26.204 9.2233-31.309-18.199-68.329-73.403-32.52-70.735-34.276z" fill="#2d5016" fill-rule="evenodd"/>
    <path d="m-28.685 1237.9 1.3666-15.13c30.273 20.729 62.262 39.492 97.248 50.314 18.319 5.4188 37.265 8.3925 55.604 13.741 16.922 4.1111 34.402 5.32 51.543 8.3123 23.437 3.8424 47.022 7.2616 70.881 7.7905 16.006 1.1204 31.803 4.2111 47.918 4.2382 8.7811 0.3489 17.637-0.1147 26.387 0.4319 4.6661 0.7017 8.9771-2.3667 13.578-2.8771 7.2689-1.2437 14.631-1.1681 21.897-2.5075 8.444-1.2345 17.028-2.3614 25.129-5.5042 7.4162-3.2671 14.981-6.1091 22.701-8.3307 8.9303-2.819 17.687-6.4309 26.72-8.7707 3.2059-0.2778 6.2728-1.65 9.0364-3.4337 1.83 0.6726 3.564-0.9118 5.395-0.8809-3.0223 1.4254-6.3339 2.0647-9.1968 3.8662-5.8464 1.921-11.542 4.5206-16.623 8.259-9.8924 6.3526-20.581 11.297-31.764 14.059-8.7498 2.3523-17.536 4.6026-26.105 7.7118-9.3628 2.8434-19.087 3.9126-28.683 3.3471-5.4454-0.0866-10.992 0.3149-16.208 2.3721-16.611 4.3894-33.769 2.7533-50.232-0.0183-14.949-2.4879-30.019-4.7904-45.296-4.3804-16.833-0.1333-33.723-1.0294-50.101-4.7611-17.94-3.8371-36.218-5.8483-54.484-7.7124-19.804-3.5644-38.361-11.703-57.896-16.313-25.264-6.9132-50.606-13.652-75.326-22.37l-15.268-5.0398 1.7802-16.414z" fill="#abc837"/>
   </g>
   <path d="m-30.642 1271.3s-38.458 14.34-66.919 25.231-49.306-12.592-49.306-12.592-8.1556 32.742-22.766 52.024c-20.927 27.617-53.666 11.918-53.666 11.918s10.48 31.813-18.376 64.62-51.145 11.815-51.145 11.815 21.932 18.713 6.2905 62.399c-15.913 44.446 2.1282 75.951 2.1282 75.951s1.6297-29.217 35.256-38.542c43.802-12.147 61.908 12.079 61.908 12.079s-5.8922-30.175 22.596-58.1c29.087-28.512 65.192-14.82 65.192-14.82s-21.043-12.526-0.90908-50.452 52.59-14.307 52.59-14.307-20.222-19.251-19.431-63.081 39.078-64.246 36.558-64.143z" fill="#677821" fill-rule="evenodd"/>
   <path d="m-10.044 1275.2 7.8488 10.137c-28.145 6.7527-56.103 15.811-81.174 31.652-12.987 8.4466-24.925 18.793-37.883 27.295-11.489 8.3498-21.632 18.834-32.604 28.01-14.861 12.698-29.562 25.75-42.771 40.747-9.2956 9.5922-19.597 17.844-28.331 28.176-4.9488 5.4251-9.4768 11.395-14.521 16.68-2.9228 2.5668-3.5134 7.2129-5.7126 10.479-3.2267 5.4287-7.2524 10.11-10.423 15.595-3.8677 6.1777-7.872 12.379-10.471 19.505-2.1578 6.7617-4.6375 13.359-7.5526 19.675-3.2313 7.4597-5.9186 15.293-9.4772 22.525-1.5768 2.2286-2.4571 5.0378-2.9398 7.904-1.3719 0.7634-1.4106 2.8466-2.4188 4.0034 0.82595-2.8131 2.2548-5.3308 2.781-8.2717 2.0726-4.9298 3.6786-10.178 4.3051-15.729 1.746-10.24 4.722-20.129 9.2048-29.001 3.3986-7.0581 6.8748-14.077 9.7457-21.482 3.4514-7.7523 8.1055-14.651 13.618-20.467 2.9953-3.4437 5.7682-7.2511 7.4222-11.859 6.4955-13.353 16.707-23.369 27.187-32.244 9.4998-8.0763 18.96-16.344 26.993-26.405 9.183-10.728 18.829-21.024 29.809-29.258 11.884-9.1711 22.915-19.677 33.855-30.266 12.738-10.535 27.398-17.47 40.583-27.193 17.593-11.992 35.128-24.141 53.451-34.678l11.121-6.7197 8.3542 11.189z" fill="#abc837"/>
   <path transform="translate(-28.745 -109.92)" d="m18.571 1376.6a15.714 15.714 0 1 1 -31.429 0 15.714 15.714 0 1 1 31.429 0z" fill="url(#a)"/>
   <path transform="translate(7.1157 -90.47)" d="m18.571 1376.6a15.714 15.714 0 1 1 -31.429 0 15.714 15.714 0 1 1 31.429 0z" fill="url(#a)"/>
   <path transform="translate(-3.996 -44.509)" d="m18.571 1376.6a15.714 15.714 0 1 1 -31.429 0 15.714 15.714 0 1 1 31.429 0z" fill="url(#a)"/>
   <path transform="translate(2.57 -128.6)" d="m18.571 1376.6a15.714 15.714 0 1 1 -31.429 0 15.714 15.714 0 1 1 31.429 0z" fill="url(#a)"/>
  </g>
  <g transform="translate(1.0102 153.54)">
   <path transform="translate(133.34 98.995)" d="m1004.1 773.56a131.32 131.32 0 1 1 -262.64 0 131.32 131.32 0 1 1 262.64 0z" fill="url(#g)"/>
   <path d="m1006.1 723.4c-15.599 0-30.554 2.7208-44.438 7.7188v14.156c13.882-4.9973 28.84-7.7188 44.438-7.7188s30.556 2.7214 44.437 7.7188v-14.156c-13.883-4.998-28.839-7.7188-44.437-7.7188z" fill="#800000"/>
   <path d="m1006.1 675.95c-15.377 0-27.875 12.467-27.875 27.844 0 6.8317 2.4762 13.09 6.5625 17.938 6.9357-1.1332 14.055-1.7188 21.312-1.7188 7.2515 0 14.351 0.58735 21.281 1.7188 4.0863-4.8477 6.5626-11.106 6.5626-17.938 0-15.377-12.467-27.844-27.844-27.844z" fill="#800000"/>
   <path transform="matrix(1.9014 0 0 2.0568 -702.07 -1455.1)" d="m947.86 1116.3a32.5 32.5 0 1 1 -65 0 32.5 32.5 0 1 1 65 0z" fill="url(#f)"/>
  </g>
  <path d="m1004.1 497.82h6.0609v326.25h-6.0609z" fill="#800000"/>
  <g transform="translate(0,100)">
   <path transform="translate(342.44 38.386)" d="m1004.1 773.56a131.32 131.32 0 1 1 -262.64 0 131.32 131.32 0 1 1 262.64 0z" fill="url(#c)"/>
   <path d="m1215.2 662.79c-15.599 0-30.554 2.7208-44.438 7.7188v14.156c13.882-4.9973 28.84-7.7188 44.438-7.7188s30.556 2.7214 44.437 7.7188v-14.156c-13.883-4.998-28.839-7.7188-44.437-7.7188z" fill="#2d5016"/>
   <path d="m1215.2 615.34c-15.377 0-27.875 12.467-27.875 27.844 0 6.8317 2.4762 13.09 6.5625 17.938 6.9357-1.1332 14.055-1.7188 21.312-1.7188 7.2515 0 14.351 0.58735 21.281 1.7188 4.0863-4.8477 6.5626-11.106 6.5626-17.938 0-15.377-12.467-27.844-27.844-27.844z" fill="#2d5016"/>
   <path transform="matrix(1.9014 0 0 2.0568 -492.97 -1515.7)" d="m947.86 1116.3a32.5 32.5 0 1 1 -65 0 32.5 32.5 0 1 1 65 0z" fill="url(#b)"/>
   <path d="m1212.2 497.95h6.0609v111.96h-6.0609z" fill="#2d5016"/>
  </g>
  <path transform="translate(485.3 418.39)" d="m1004.1 773.56a131.32 131.32 0 1 1 -262.64 0 131.32 131.32 0 1 1 262.64 0z" fill="url(#e)"/>
  <path d="m1358.1 1042.8c-15.599 0-30.554 2.7208-44.438 7.7188v14.156c13.882-4.9973 28.84-7.7187 44.438-7.7187s30.556 2.7214 44.437 7.7187v-14.156c-13.883-4.998-28.839-7.7188-44.437-7.7188z" fill="#214478"/>
  <path d="m1358.1 995.34c-15.377 0-27.875 12.467-27.875 27.844 0 6.8317 2.4762 13.09 6.5625 17.938 6.9357-1.1332 14.055-1.7187 21.312-1.7187 7.2515 0 14.351 0.5873 21.281 1.7187 4.0863-4.8477 6.5626-11.106 6.5626-17.938 0-15.377-12.467-27.844-27.844-27.844z" fill="#214478"/>
  <path transform="matrix(1.9014 0 0 2.0568 -350.11 -1135.7)" d="m947.86 1116.3a32.5 32.5 0 1 1 -65 0 32.5 32.5 0 1 1 65 0z" fill="url(#d)"/>
  <path d="m1355 497.95h6.0609v491.96h-6.0609z" fill="#214478"/>
  <g transform="matrix(.60447 0 0 .60447 1024.1 -233.51)">
   <path d="m-19.501 1280.7s47.552 32.233 89.711 36.428c37.638 3.7452 63.793 2.4334 63.793 2.4334s1.6072 35.889 14.6 60.06c18.61 34.62 62.853 28.758 62.853 28.758s-21.043 29.173 5.9728 71.536 59.784 27.873 59.784 27.873-45.744 22.279-37.753 71.636c8.1296 50.216-22.122 76.734-22.122 76.734s5.5026-30.276-33.404-50.188c-50.679-25.938-79.14-6.8578-79.14-6.8578s14.987-28.924-12.831-66.199c-28.402-38.058-76.264-35.284-76.264-35.284s29.062-6.2494 14.075-51.129-60.917-30.86-60.917-30.86 29.781-13.356 40.068-58.263-31.496-77.564-28.426-76.679z" fill="#445016" fill-rule="evenodd"/>
   <path d="m-26.469 1283.1-10.812 7.1874c29.582 15.402 58.467 32.947 82.724 56.055 12.514 12.199 23.467 25.88 35.936 38.123 10.883 11.63 19.828 24.872 29.965 37.127 13.673 16.856 27.094 34.001 38.455 52.528 8.2008 12.12 17.795 23.279 25.22 35.926 4.298 6.7565 8.016 13.9 12.45 20.553 2.6743 3.3816 2.3347 8.0078 4.0624 11.828 2.3992 6.2122 5.8384 11.964 8.1638 18.213 2.9458 7.1316 6.0373 14.33 7.3829 21.963 0.9367 7.1456 2.2633 14.236 4.1298 21.198 1.9712 8.1538 3.263 16.492 5.6434 24.532 1.2629 2.6304 1.6343 5.5939 1.5552 8.4855 1.3493 1.1657 0.94779 3.168 1.8125 4.5937-0.31074-2.9499-1.3488-5.8095-1.3018-8.7863-1.2334-5.3686-1.8845-10.893-1.3917-16.395 0.25878-10.338-0.91301-20.731-3.9627-30.632-2.2411-7.8235-4.5762-15.634-6.1617-23.621-2.1514-8.5034-5.8104-16.574-10.647-23.883-2.5672-4.2423-4.8119-8.7614-5.6525-13.69-4.3125-14.822-13.432-27.638-23.092-39.449-8.749-10.737-17.414-21.644-24.122-33.81-7.8346-13.169-16.271-26.073-26.618-37.43-11.143-12.541-21.062-26.086-30.863-39.68-11.794-14.116-26.473-25.403-38.934-38.884-16.835-17.051-33.573-34.234-51.522-50.128l-10.825-9.9563-11.594 8.0313z" fill="#abc837"/>
   <g transform="translate(1.0102 27.274)">
    <path d="m1.0496 1263.5s48.469-15.836 84.508-27.317 43.338-46.876 43.338-46.876 28.307 22.12 55.119 27.971c38.402 8.3795 62.723-29.041 62.723-29.041s8.4745 34.958 58.225 41.988 60.054-27.285 60.054-27.285-11.318 32.099 31.372 58.13c43.433 26.483 67.135 2.0598 67.135 2.0598s-32.491 53.85-72.92 70.454c-52.663 21.628-72.842 48.585-72.842 48.585s-12.224-30.196-58.631-33.307c-47.382-3.1766-76.402 34.984-76.402 34.984s14.154-26.141-29.685-43.944-63.06 26.204-63.06 26.204 9.2233-31.309-18.199-68.329-73.403-32.52-70.735-34.276z" fill="#2d5016" fill-rule="evenodd"/>
    <path d="m-28.685 1237.9 1.3666-15.13c30.273 20.729 62.262 39.492 97.248 50.314 18.319 5.4188 37.265 8.3925 55.604 13.741 16.922 4.1111 34.402 5.32 51.543 8.3123 23.437 3.8424 47.022 7.2616 70.881 7.7905 16.006 1.1204 31.803 4.2111 47.918 4.2382 8.7811 0.3489 17.637-0.1147 26.387 0.4319 4.6661 0.7017 8.9771-2.3667 13.578-2.8771 7.2689-1.2437 14.631-1.1681 21.897-2.5075 8.444-1.2345 17.028-2.3614 25.129-5.5042 7.4162-3.2671 14.981-6.1091 22.701-8.3307 8.9303-2.819 17.687-6.4309 26.72-8.7707 3.2059-0.2778 6.2728-1.65 9.0364-3.4337 1.83 0.6726 3.564-0.9118 5.395-0.8809-3.0223 1.4254-6.3339 2.0647-9.1968 3.8662-5.8464 1.921-11.542 4.5206-16.623 8.259-9.8924 6.3526-20.581 11.297-31.764 14.059-8.7498 2.3523-17.536 4.6026-26.105 7.7118-9.3628 2.8434-19.087 3.9126-28.683 3.3471-5.4454-0.0866-10.992 0.3149-16.208 2.3721-16.611 4.3894-33.769 2.7533-50.232-0.0183-14.949-2.4879-30.019-4.7904-45.296-4.3804-16.833-0.1333-33.723-1.0294-50.101-4.7611-17.94-3.8371-36.218-5.8483-54.484-7.7124-19.804-3.5644-38.361-11.703-57.896-16.313-25.264-6.9132-50.606-13.652-75.326-22.37l-15.268-5.0398 1.7802-16.414z" fill="#abc837"/>
   </g>
   <path d="m-30.642 1271.3s-38.458 14.34-66.919 25.231-49.306-12.592-49.306-12.592-8.1556 32.742-22.766 52.024c-20.927 27.617-53.666 11.918-53.666 11.918s10.48 31.813-18.376 64.62-51.145 11.815-51.145 11.815 21.932 18.713 6.2905 62.399c-15.913 44.446 2.1282 75.951 2.1282 75.951s1.6297-29.217 35.256-38.542c43.802-12.147 61.908 12.079 61.908 12.079s-5.8922-30.175 22.596-58.1c29.087-28.512 65.192-14.82 65.192-14.82s-21.043-12.526-0.90908-50.452 52.59-14.307 52.59-14.307-20.222-19.251-19.431-63.081 39.078-64.246 36.558-64.143z" fill="#677821" fill-rule="evenodd"/>
   <path d="m-10.044 1275.2 7.8488 10.137c-28.145 6.7527-56.103 15.811-81.174 31.652-12.987 8.4466-24.925 18.793-37.883 27.295-11.489 8.3498-21.632 18.834-32.604 28.01-14.861 12.698-29.562 25.75-42.771 40.747-9.2956 9.5922-19.597 17.844-28.331 28.176-4.9488 5.4251-9.4768 11.395-14.521 16.68-2.9228 2.5668-3.5134 7.2129-5.7126 10.479-3.2267 5.4287-7.2524 10.11-10.423 15.595-3.8677 6.1777-7.872 12.379-10.471 19.505-2.1578 6.7617-4.6375 13.359-7.5526 19.675-3.2313 7.4597-5.9186 15.293-9.4772 22.525-1.5768 2.2286-2.4571 5.0378-2.9398 7.904-1.3719 0.7634-1.4106 2.8466-2.4188 4.0034 0.82595-2.8131 2.2548-5.3308 2.781-8.2717 2.0726-4.9298 3.6786-10.178 4.3051-15.729 1.746-10.24 4.722-20.129 9.2048-29.001 3.3986-7.0581 6.8748-14.077 9.7457-21.482 3.4514-7.7523 8.1055-14.651 13.618-20.467 2.9953-3.4437 5.7682-7.2511 7.4222-11.859 6.4955-13.353 16.707-23.369 27.187-32.244 9.4998-8.0763 18.96-16.344 26.993-26.405 9.183-10.728 18.829-21.024 29.809-29.258 11.884-9.1711 22.915-19.677 33.855-30.266 12.738-10.535 27.398-17.47 40.583-27.193 17.593-11.992 35.128-24.141 53.451-34.678l11.121-6.7197 8.3542 11.189z" fill="#abc837"/>
   <path transform="translate(-28.745 -109.92)" d="m18.571 1376.6a15.714 15.714 0 1 1 -31.429 0 15.714 15.714 0 1 1 31.429 0z" fill="url(#a)"/>
   <path transform="translate(7.1157 -90.47)" d="m18.571 1376.6a15.714 15.714 0 1 1 -31.429 0 15.714 15.714 0 1 1 31.429 0z" fill="url(#a)"/>
   <path transform="translate(-3.996 -44.509)" d="m18.571 1376.6a15.714 15.714 0 1 1 -31.429 0 15.714 15.714 0 1 1 31.429 0z" fill="url(#a)"/>
   <path transform="translate(2.57 -128.6)" d="m18.571 1376.6a15.714 15.714 0 1 1 -31.429 0 15.714 15.714 0 1 1 31.429 0z" fill="url(#a)"/>
  </g>
 </g>
</svg>
