<?xml version="1.0" encoding="UTF-8"?>
<svg viewBox="0 0 199.19653 207.48358" xmlns="http://www.w3.org/2000/svg" xmlns:xlink="http://www.w3.org/1999/xlink">
 <defs>
  <filter id="i">
   <feGaussianBlur stdDeviation="5.1635"/>
  </filter>
  <linearGradient id="a">
   <stop stop-color="#af6b00" offset="0"/>
   <stop stop-color="#fff" offset=".5"/>
   <stop stop-color="#af6b00" offset="1"/>
  </linearGradient>
  <linearGradient id="g" x1="-161.81" x2="-152.35" y1="463.27" y2="462.77" gradientUnits="userSpaceOnUse" spreadMethod="reflect">
   <stop stop-color="#d40000" offset="0"/>
   <stop stop-color="#800406" offset="1"/>
  </linearGradient>
  <linearGradient id="f" x1="-167.79" x2="-157.83" y1="408.26" y2="515.81" gradientUnits="userSpaceOnUse">
   <stop stop-color="#fff" offset="0"/>
   <stop stop-color="#e64338" stop-opacity="0" offset="1"/>
  </linearGradient>
  <linearGradient id="e" x1="-311.32" x2="-295.64" y1="494.62" y2="541.98" gradientUnits="userSpaceOnUse">
   <stop stop-color="#fff" offset="0"/>
   <stop stop-color="#fff" stop-opacity="0" offset="1"/>
  </linearGradient>
  <linearGradient id="h" x1="-165.8" x2="-160.23" y1="441.41" y2="445.58" gradientUnits="userSpaceOnUse" xlink:href="#a"/>
  <linearGradient id="d" x1="-335.07" x2="-319.64" y1="482.2" y2="481.2" gradientTransform="matrix(1.1389 0 0 .66724 212.18 128.11)" gradientUnits="userSpaceOnUse" xlink:href="#a"/>
  <radialGradient id="c" cx="-170.77" cy="494.4" r="48.294" gradientTransform="matrix(1.2474 -.00998 .01031 1.2887 37.149 -144.42)" gradientUnits="userSpaceOnUse">
   <stop stop-color="#d81e2c" offset="0"/>
   <stop stop-color="#781522" offset="1"/>
  </radialGradient>
  <radialGradient id="b" cx="-161.48" cy="505.56" r="47.891" gradientUnits="userSpaceOnUse">
   <stop stop-color="#eecfbb" offset="0"/>
   <stop stop-color="#b69528" offset="1"/>
  </radialGradient>
 </defs>
 <g transform="translate(264.03 -357.16)">
  <path transform="matrix(.90399 0 0 1 -20.63 5.6329)" d="m-185.89 527.74-43.655-33.797s4.9288-26.756 6.337-29.573 9.1534-52.808 9.1534-55.625 21.827-16.195 28.164-18.307 30.277 2.1123 32.389 5.6329 26.052 2.1123 26.052 2.1123l23.236 7.0411 2.1123 30.277s32.389 1.4082 29.573 7.0411-23.94 25.348-23.94 25.348l-4.2247 27.46-19.715 9.1534z" fill="#c4e6f8" filter="url(#i)"/>
  <path d="m-162.86 438.52c-1.6269 0-2.9445 2.586-2.9445 5.7795s1.3177 5.7795 2.9445 5.7795 2.9445-2.586 2.9445-5.7795-1.3177-5.7795-2.9445-5.7795zm0 1.7119c1.1448 0 2.0817 1.8203 2.0817 4.0676s-0.93689 4.0676-2.0817 4.0676-2.068-1.8203-2.068-4.0676 0.92319-4.0676 2.068-4.0676z" fill="url(#h)"/>
  <path d="m-171.77 449.58h19.417v26.388h-19.417z" fill="url(#g)"/>
  <path d="m-113.02 506.35c0 26.672-21.622 48.294-48.294 48.294s-48.294-21.622-48.294-48.294 21.622-48.294 48.294-48.294 48.294 21.622 48.294 48.294z" fill="url(#c)"/>
  <path d="m-154.21875,458.5625c.93575,3.22789.12947,6.87298-2.25,9.90625-.22475.29128-.46527.5631-.71875.84375-2.30406,2.55108-5.73801,4.63555-9.34375,5.8125-1.88786.61633-3.84779.98212-5.75,1.09375-1.37326.0806-1.96427.0172-2.1875.0312-.0427.003-.0761.0268-.0937.0312 .0324.0171.0997.0422.1875.0625 .1756.0406.37001.10191.21875.125s-.66797.0471-1.84375-.0937c-.77367-.0927-1.81786-.26968-2.9375-.65625-1.16357-.39261-2.40556-1.04238-3.4375-1.90625s-1.84942-1.95921-2.28125-3.15625c-.44437-1.23454-.42253-2.59-.0625-3.8125s1.05236-2.30122 1.78125-3.09375c.49314-.54775 1.00929-.94636 1.40625-1.25-2.15623.99582-4.21719,2.14724-6.1875,3.4375-.13622.32207-.27729.63483-.375.96875-.46514,1.5896-.46638,3.28563.0625,4.78125 .41709,1.18198 1.10643,2.22731 1.90625,3.09375s1.71488,1.53198 2.53125,2.03125c1.04752.64062 1.92567,1.00852 2.65625,1.28125 1.14428.41919 1.90416.63495 3,.84375 .54792.1044 1.205.20796 2.03125.28125s1.83142.11849 3.15625.0625c2.19185-.0926 4.77655-.5044 7.375-1.34375 2.57536-.83192 5.12471-2.03987 7.3125-3.5s3.99965-3.1463 5.3125-4.8125c.24527-.31494.47617-.62939.6875-.9375 .80496-1.17359 1.38829-2.27519 1.8125-3.34375s.68928-2.10344.84375-3.125c.13286-.87865.1818-1.7638.125-2.65625-1.61394-.41416-3.26298-.7531-4.9375-1zm-15.40625.21875c-1.31608.22885-2.62904.4794-3.90625.8125 1.02138.0323 2.168.27132 3.09375.75 .57574.2876 1.06383.67696 1.40625,1.125s.54092.9381.625,1.40625c.0977.57907-.0717,1.13607-.25,1.53125-.2455.54406-.64774,1.01554-1.15625,1.34375-.27715.20814-.65091.3226-1.03125.40625s-.78685.1425-1.125.15625c-.16453-.004-.3083-.0174-.4375-.0312-.18071-.0194-.32027-.0632-.40625-.125-.22353-.089-.20964-.31502-.21875-.46875s-.004-.26962-.0625-.28125c-.0179-.004-.10816.10267-.1875.28125s-.16199.45806.0625.71875c.20638.22149.62478.36862 1.09375.40625 .83711.0818 1.96026-.0296 2.875-.53125 .97061-.54714 1.6076-1.31203 1.9375-1.96875s.3522-1.2.375-1.4375c.0257-.26695.089-.17759.125.0937s.006.7263-.125,1.15625-.35318.83921-.4375,1c.0641-.0632.21563-.18649.375-.4375 .27957-.44032.65633-1.2536.53125-2.21875-.0702-.58622-.29957-1.2085-.71875-1.8125s-1.02795-1.18606-1.84375-1.625c-.1853-.0972-.39504-.16641-.59375-.25zm30.84375,11.3125c-1.08622.0205-1.94666.10702-2.6875.21875-.98777.14898-1.74249.33633-2.5.5625s-1.51274.5016-2.375.90625-1.85423.91915-2.96875,1.8125c-.42721.34243-.80759.70024-1.15625,1.0625-.82757.86005-1.43458,1.75453-1.90625,2.6875s-.81237,1.89652-1.03125,2.90625-.32903,2.06918-.3125,3.21875 .16496,2.39813.5,3.78125c.088.36311.19525.74343.3125,1.125 .63458,2.02413 1.72438,4.23234 3.25,6.375s3.48252,4.21295 5.59375,5.90625c2.13017,1.70846 4.39058,3.00905 6.40625,3.875 1.21834.52342 2.2017.83721 3,1.0625s1.41952.34025 1.96875.4375c1.09847.19451 1.8752.29741 3.09375.3125 .77981.005 1.73065-.0237 2.9375-.25 .94055-.17636 2.0381-.50584 3.09375-1.03125s2.06488-1.26233 2.875-2.21875c1.02613-1.20981 1.65076-2.78639 1.78125-4.4375s-.22558-3.3575-.8125-4.8125c-.39017-.94668-.87576-1.76219-1.3125-2.40625-.70208-1.03534-1.17635-1.54501-1.4375-1.8125s-.31334-.30986-.34375-.3125-.0387.034-.21875-.125-.51941-.49708-1.3125-1.15625c-.33905-.28174-.77492-.61399-1.28125-.96875-1.00098-.70286-2.33392-1.46979-3.8125-1.96875s-3.09198-.73154-4.5-.5625c-.91857.12017-1.70597.42826-2.3125.84375s-1.0384.94582-1.3125,1.46875c-.4601.8576-.38598,1.73904-.28125,2.25 .0622.30362.15104.48543.1875.5625s.0421.0589.0312-.0312c-.0216-.18026-.0927-.64523-.0625-1.09375s.1512-.88414.28125-1.125 .22718-.28988.15625-.0312c-.0631.23009-.23106.73765-.15625,1.46875s.41237,1.67473 1.125,2.53125c.67657.79415 1.68851,1.27879 2.5,1.5 .45171.13158.88461.16488 1.15625.0312 .30252-.16382.32313-.46112.3125-.65625s-.0446-.30947-.0625-.3125c-.059-.01-.0931.0783-.15625.21875s-.16568.37128-.40625.375c-.10232.0271-.23046.0149-.40625-.0312-.12569-.033-.2824-.10122-.4375-.15625-.31116-.13309-.64301-.28656-.96875-.5s-.62747-.48816-.8125-.78125c-.35857-.48758-.589-1.06045-.625-1.65625-.0262-.43276.0152-1.02478.3125-1.53125 .24505-.40766.6144-.76549 1.09375-1.0625s1.07837-.52966 1.71875-.59375c1.08743-.12416 2.28781.13545 3.28125.5 .65862.24169 1.22135.51487 1.71875.8125s.93443.63254 1.34375.96875c.52656.43219 1.03488.89321 1.5625,1.46875s1.07838,1.2533 1.625,2.125c.27105.43225.61875,1.03881.90625,1.78125 .39944.99991.69194,2.26062.59375,3.53125s-.58319,2.5354-1.4375,3.53125c-.82925.96526-1.97832,1.71578-3.25,2.15625s-2.64787.57805-3.875.53125c-1.18392-.0368-2.24393-.24903-3-.4375-1.14903-.28642-1.61681-.48715-1.75-.5625-.0166-.009.007-.025 0-.0312 .0555.002.16072-.0122.25,0 .17856.0245.32864.0612.125-.0312s-.7764-.28012-2.03125-.84375c-1.7382-.78072-3.45467-1.81517-5-3.0625-2.95159-2.38217-5.40989-5.54637-6.65625-8.75-.13712-.35244-.23726-.67909-.34375-1.03125-1.28019-4.11437-.45761-8.28215 2.1875-11 .29534-.30361.59967-.57312.9375-.84375 2.6859-2.15163 6.54306-3.16535 10.65625-2.84375 1.47768.10694 3.0189.40146 4.53125.8125 3.14333.85432 6.24714,2.31864 9.0625,4.125-1.55052-2.23687-3.25946-4.34087-5.15625-6.28125-1.61047-.65956-3.2328-1.20332-4.75-1.59375-1.74364-.4487-3.34498-.72046-4.75-.84375-.46543-.0386-.93285-.0506-1.34375-.0625-.41601-.0121-.79418-.007-1.15625,0zm-61.09375,7.1875c-.58287.77264-1.18222,1.56722-1.71875,2.375 .2712.37856.55035.7451.84375,1.09375 .45286.53813.73488.80104.875.90625s.15606.0575.15625,0-.0412-.11937.0312-.0937 .25406.15773.625.5 .96364.8674 1.71875,1.46875 1.66354,1.26728 2.625,1.84375 1.97066,1.06838 2.8125,1.4375 1.51297.60299 1.8125.6875c1.19711.33765 1.88399.41861 1.96875.3125 .0424-.0531 1.19706.19872 1.5625.21875 .18273.01.15262-.0399-.28125-.1875s-1.28033-.38661-2.6875-.9375c-1.59967-.62625-2.81313-1.25335-3.75-1.8125s-1.60595-1.0584-2.09375-1.4375c-.9756-.75819-1.27038-1.08768-1.21875-1.09375s.4635.30157 1.03125.6875 1.30919.85562 1.96875,1.21875c.44314.24398.44831.18661.15625-.0312s-.88767-.6034-1.53125-1.125-1.34917-1.15837-1.96875-1.8125-1.13498-1.32194-1.5-1.84375c-.37371-.53424-.9326-1.36638-1.4375-2.375zm-3.65625,5.59375c-.46132.82822-.89942,1.67397-1.3125,2.53125 .32416-.0525.64342-.0893.96875-.0937 1.92436-.0418 3.85984.75757 5.375,2.28125 .19058.19165.38856.41344.5625.625 1.55772,1.89387 2.40945,4.63186 2.25,7.28125-.0122.2269-.0358.46168-.0625.6875-.24304,2.05266-1.07339,4.02581-2.21875,5.46875-.59965.75555-1.28863,1.37134-2.03125,1.8125-.53612.31849-.7881.38516-.875.4375s-.0199.0712.0625.0625c.0412-.004.0971-.0268.125-.0312 .003.003.0138.0202 0,.0312-.0552.044-.2652.17171-.78125.3125-.33956.0926-.815.18083-1.375.15625-.5795-.0198-1.25219-.15835-1.90625-.5s-1.28051-.86317-1.78125-1.53125c-.51603-.6892-.90786-1.56772-1.09375-2.40625s-.17458-1.64101-.0937-2.28125c.0557-.47575.16819-.85228.25-1.125 .16498-.54998.3429-.98749.53125-1.34375s.39021-.6441.59375-.90625c.1582-.20395.32686-.38752.53125-.5625s.43144-.33714.71875-.46875c.43338-.19851.99959-.31382 1.53125-.1875 .3121.0685.61411.2227.875.4375s.46362.47218.625.75c.19707.34486.27758.74811.3125,1.03125 .0481.38981.0237.75705-.0937,1.0625-.0561.18486-.18068.342-.3125.46875s-.27258.20666-.40625.28125c-.0679.0297-.13123.0773-.1875.0937-.0787.0231-.16703.022-.21875,0-.11502-.0124-.17328-.15516-.21875-.25s-.0668-.16039-.0937-.15625c-.008.001-.0163.0598 0,.1875s.0567.31745.21875.4375c.14404.099.36171.13032.5625.0625 .36238-.11186.79587-.41255 1.03125-.90625 .24573-.53317.2944-1.14793.25-1.625s-.19473-.81504-.25-.96875c-.0621-.17277.005-.13226.0937.0312s.18651.48544.25.78125 .0843.57.0937.6875c.005.0587.0223.0803.0312.0312s.004-.17816 0-.375c-.006-.33126-.0619-.91783-.375-1.5-.18783-.35472-.44679-.70216-.78125-1s-.73673-.5395-1.1875-.65625c-.6893-.169-1.44396-.0793-2.09375.1875s-1.19382.70462-1.59375,1.125c-.20238.21214-.36932.42268-.5.59375-.30567.40025-.43162.62176-.5.71875s-.0795.0621-.0937.0625-.0393.0638-.0937.15625c-.013.022-.013-.00046-.0312.0312-.36571,1.50448-.65391,3.03783-.875,4.59375 .0303.3929.0675.78927.15625,1.1875 .24293,1.08974.72244,2.1632 1.34375,3 .49066.66149 1.03331,1.17396 1.59375,1.5625s1.12635.65795 1.59375.8125c.59973.19831 1.06652.25234 1.4375.28125 .57888.0403.93547.02 1.4375-.0625 .25101-.0412.55059-.10366.90625-.21875s.75812-.26892 1.28125-.5625c.86548-.4857 1.82846-1.24694 2.65625-2.28125 .82043-1.02513 1.50776-2.3119 2-3.65625s.76303-2.75929.84375-4.0625c.0141-.24577.0291-.4839.0312-.71875 .008-.89456-.0383-1.68321-.15625-2.4375s-.28518-1.4841-.5-2.15625-.48565-1.30535-.8125-1.9375-.73033-1.24484-1.21875-1.84375c-.20577-.25227-.41523-.50752-.65625-.75-.62877-.6326-1.16991-1.01124-1.625-1.3125s-.83311-.50777-1.21875-.6875-.7631-.33023-1.25-.46875-1.08752-.27572-1.875-.3125c-.11667-.005-.248-.001-.375,0zm31.8125,2.96875c-.87003-.004-1.7125.0412-2.53125.125-1.6375.16771-3.20887.47474-4.71875.9375s-2.95759,1.09186-4.4375,1.875-2.97172,1.72253-4.46875,2.96875c-.39302.32717-.79684.69475-1.1875,1.0625-2.06104,1.96293-3.96151,4.50478-5.375,7.40625s-2.32268,6.14607-2.625,9.3125c-.30499,3.19481.0625,6.25916.75,8.78125 .41555,1.52445.85597,2.67341 1.28125,3.59375s.81981,1.59285 1.1875,2.1875c.73538,1.18932 1.36079,2.03335 2.4375,3.21875 .69526.7554 1.58871,1.64322 2.96875,2.65625 1.07553.7895 2.46079,1.61369 4.09375,2.28125s3.49624,1.16941 5.46875,1.3125c2.49633.18233 5.11066-.27395 7.375-1.25s4.16736-2.46286 5.53125-4c.87993-1.00813 1.52422-2.02392 1.96875-2.875 .7146-1.36814.91839-2.16334 1.03125-2.59375s.0864-.50015.0625-.53125-.0447-.0327 0-.3125 .20017-.85762.34375-2.0625c.0613-.51505.088-1.11861.0937-1.84375 .0134-1.43455-.19351-3.24087-.875-5s-1.82589-3.47348-3.3125-4.71875c-.98269-.80579-2.10154-1.34852-3.1875-1.65625s-2.13593-.36587-3.0625-.28125c-1.52909.12856-2.61733.77673-3.1875,1.21875-.33881.26265-.52633.4759-.59375.5625s-.0137.0706.0937,0c.21493-.14117.73338-.51103 1.34375-.78125s1.28856-.43344 1.71875-.46875 .58761-.0104.1875.0937c-.35599.0927-1.14791.28367-2.03125.84375s-1.83992,1.52228-2.3125,2.78125c-.42392,1.18258-.12996,2.47591.3125,3.40625 .2353.5235.58184.95217 1,1.125 .4852.18245.91209.0155 1.15625-.125s.32469-.26192.3125-.28125c-.0401-.0636-.16679-.0328-.40625,0s-.62247.10456-.84375-.125c-.12736-.0806-.21437-.23714-.3125-.4375-.0702-.14323-.15076-.31368-.21875-.5-.10689-.38894-.20322-.82461-.21875-1.28125s.0666-.93843.28125-1.3125c.3114-.67126.85142-1.25516 1.59375-1.6875 .53919-.31404 1.32399-.66746 2.25-.71875 .75055-.0357 1.58878.0796 2.40625.34375s1.62177.67511 2.28125,1.25c1.13981.96601 1.92397,2.2985 2.34375,3.5 .2783.79656.40824,1.54036.46875,2.21875s.0377,1.31832-.0312,1.9375c-.0882.79631-.22633,1.57574-.5,2.46875s-.67082,1.89101-1.3125,3c-.3182.54992-.79327,1.32097-1.5,2.09375-.9408,1.05259-2.32196,2.12172-4.0625,2.875s-3.84272,1.1594-5.90625,1c-2.00121-.15564-4.00187-.78613-5.71875-1.71875s-3.14429-2.16016-4.1875-3.375c-1.01731-1.1665-1.68984-2.30121-2.125-3.15625-.66136-1.29942-.79064-1.915-.8125-2.09375s.0899.0614.21875.25 .25043.3519.1875.0937-.3539-.94475-.75-2.53125c-.54869-2.19758-.73158-4.55204-.5-6.875 .44199-4.43671 2.33066-8.9098 5.375-12.25 .33491-.36747.70039-.72476 1.0625-1.0625 4.19814-3.98063 10.3049-5.92496 16.21875-5.1875 .6605.0822 1.31289.19851 1.96875.34375 5.21428,1.15469 9.99877,4.22431 13.28125,8.40625 1.19042,1.49664 2.20506,3.11072 3.03125,4.84375 2.42292,5.08234 3.27579,10.90679 2.6875,16.28125-.17234,1.57675-.45145,3.12276-.84375,4.625-1.6131,6.17723-4.93685,11.53978-9.03125,15.25-.31232.28562-.64782.54482-.96875.8125-1.13026.9427-1.92077,1.51295-2.53125,1.9375s-1.01705.71207-1.40625.96875-.75923.47282-1.3125.78125-1.31311.71981-2.46875,1.1875c-1.56702.63419-3.95002,1.36668-6.625,1.75s-5.60365.38858-8.09375.0625c-1.48606-.19442-2.7169-.47763-3.78125-.75 3.22305,1.89176 6.66786,3.42203 10.3125,4.53125 .53926-.0256 1.07547-.0718 1.625-.125 2.74093-.26526 5.61782-.8845 8.46875-1.96875s5.69996-2.61185 8.375-4.6875c.37986-.29475.75278-.62096 1.125-.9375 4.86346-4.16898 8.83586-10.20721 10.84375-17.375 .41463-1.48018.82833-3.32158 1.09375-5.40625 .2589-2.0365.38798-4.28441.25-6.625s-.54496-4.74574-1.15625-7.0625-1.45219-4.55-2.4375-6.53125-2.08371-3.71879-3.1875-5.15625c-.36853-.4747-.73958-.90821-1.09375-1.3125-1.4343-1.63729-2.66757-2.70917-3.75-3.5625s-2.02438-1.4828-3-2.0625-2.01055-1.12588-3.3125-1.6875-2.86689-1.14621-5.03125-1.625c-.82962-.18353-1.65276-.34297-2.4375-.4375-.93144-.11212-1.81747-.15248-2.6875-.15625zm-37.65625,25.1875c.0446.46353.0986.91539.15625,1.375 .24375.14676.57172.35242 1,.5625 .47024.23066 1.04642.45023 1.59375.625s1.08887.30721 1.53125.375 .76157.0678.90625.0625c.57819-.0213.90064-.10428.90625-.1875 .003-.0416.53356-.0976.6875-.15625 .077-.0293.0601-.0544-.15625-.0625s-.65351.009-1.375-.0625c-.82019-.0816-1.46737-.26882-2-.4375s-.94877-.32564-1.25-.46875c-.60245-.28622-.80058-.45487-.78125-.46875s.25818.11819.59375.25 .75832.27542 1.125.375c.24637.0669.24037.0487.0625-.0312s-.503-.23521-.90625-.4375-.88299-.45974-1.3125-.75c-.27937-.1888-.54738-.37176-.78125-.5625zm95.78125,2.84375-.1875.125c-.52671.35792-1.25081.79644-2.0625,1.1875s-1.71301.74133-2.5,1-1.46206.43147-1.8125.53125-.34469.13296.15625.0625c.74558-.10487 1.58214-.27868 2.25-.4375s1.17264-.30519 1.21875-.28125-.34981.23202-1.53125.59375c-.59072.18087-1.39428.40428-2.46875.59375s-2.4072.35849-4.125.375c-1.51109.0145-2.417-.0774-2.875-.0937-.229-.008-.36435.0193-.40625.0312 .0149.0102.0502.0486.0937.0625 .34868.11122 1.47926.27905 1.5.34375 .0415.12931.72981.29617 1.96875.40625 .31.0275 1.05067.0457 1.96875,0s2.02139-.14682 3.125-.34375 2.20541-.4877 3.125-.78125c.88661-.28302 1.59246-.56118 2.0625-.75 .18394-.86029.36255-1.7484.5-2.625zm-13.3125,5.3125c-.54062-.002-1.05375.0417-1.5625.0937-1.01751.10421-1.96804.3062-2.90625.59375s-1.86167.66962-2.78125,1.15625-1.85103,1.06938-2.78125,1.84375c-.24421.2033-.476.42774-.71875.65625-1.28069,1.21972-2.46544,2.79084-3.34375,4.59375s-1.4684,3.8137-1.65625,5.78125c-.18951,1.98518.0416,3.90158.46875,5.46875 .25821.94726.54824,1.64687.8125,2.21875s.52153,1.0055.75,1.375c.45695.73902.83096,1.26342 1.5,2 .43202.46939.98623,1.02677 1.84375,1.65625 .37885.2781.82046.54534 1.3125.8125 .85458-.52852 1.7132-1.07701 2.53125-1.65625-.44196-.15789-.88119-.34518-1.28125-.5625-1.06683-.5795-1.94553-1.33888-2.59375-2.09375-.63213-.72484-1.0421-1.43745-1.3125-1.96875-.41095-.80743-.51767-1.17018-.53125-1.28125s.0762.008.15625.125 .1641.22291.125.0625-.22262-.57668-.46875-1.5625c-.34094-1.36553-.4564-2.83781-.3125-4.28125 .27464-2.75687 1.45207-5.51823 3.34375-7.59375 .20811-.22834.39999-.44639.625-.65625 2.60863-2.47347 6.41902-3.70824 10.09375-3.25 .41042.0511.81122.1285 1.21875.21875 2.57467.57016 4.97261,1.89733 6.875,3.71875 .49634-1.06894.9563-2.17163 1.375-3.28125-.1787-.15338-.3631-.33619-.53125-.46875-.67259-.53023-1.26877-.92104-1.875-1.28125s-1.22225-.68227-2.03125-1.03125-1.81137-.73374-3.15625-1.03125c-.51551-.11404-1.01238-.19126-1.5-.25-.57878-.0697-1.14688-.12266-1.6875-.125zm-.71875,12.8125c-.95014.0799-1.64571.47534-2,.75-.20096.15579-.26694.28709-.3125.34375 .13355-.0877.46448-.30084.84375-.46875s.79519-.29056 1.0625-.3125 .37362-.002.125.0625c-.2212.0576-.73236.18323-1.28125.53125s-1.1126.93645-1.40625,1.71875c-.26342.73483-.0874,1.54691.1875,2.125 .14621.32529.36517.61136.625.71875 .30149.11337.56703-.006.71875-.0937s.19508-.14424.1875-.15625c-.0249-.0395-.10121-.0516-.25-.0312s-.39375.0801-.53125-.0625c-.0791-.0501-.12652-.15675-.1875-.28125-.0436-.089-.0828-.19672-.125-.3125-.0664-.24168-.11535-.49751-.125-.78125s.0229-.58006.15625-.8125c.19349-.4171.50749-.79385.96875-1.0625 .33504-.19514.83085-.40563 1.40625-.4375 .46638-.0222.99204.0234 1.5.1875s.99646.45527 1.40625.8125c.57956.49118.9976,1.12774 1.28125,1.75 .34969-.44415.69701-.88723 1.03125-1.34375-.38464-.60442-.85616-1.16421-1.40625-1.625-.61062-.5007-1.29396-.84003-1.96875-1.03125s-1.3305-.24008-1.90625-.1875zm-19.65625,18.625c.0001.0132-.0131.0306 0,.0625 .10506.2551.60318.99199.5625,1.03125-.0485.0468.0556.27308.25.59375 .18105-.0584.35114-.12703.53125-.1875-.5359-.59452-.90343-1.06082-1.09375-1.28125-.11383-.13185-.21459-.19381-.25-.21875z" fill="url(#b)" opacity=".8"/>
  <path d="m-161.31 458.06c-21.506 0-39.716 14.042-45.969 33.469 7.8196 16.132 24.338 27.25 43.469 27.25 21.508 0 39.718-14.07 45.969-33.5-7.8246-16.119-24.348-27.219-43.469-27.219z" fill="url(#f)"/>
  <path transform="matrix(.70754 -.3937 .38596 .78216 -169.79 -50.394)" d="m-274.83 524.02c0 7.0118-11.703 12.696-26.139 12.696s-26.139-5.6842-26.139-12.696 11.703-12.696 26.139-12.696 26.139 5.6842 26.139 12.696z" fill="url(#e)" opacity=".8"/>
  <path d="m-162.06 446.38c-5.6369 0-10.219 1.253-10.219 2.8125 0 0.13977 0.0541 0.27192 0.125 0.40625v5.0312c0.51489-2.2191 1.2889-3.6562 2.1562-3.6562 1.1062 0 2.0677 2.3093 2.5312 5.6562h0.1875c0.45995-3.3461 1.3941-5.6562 2.5-5.6562s2.0675 2.3101 2.5312 5.6562h0.1875c0.46357-3.347 1.4251-5.6562 2.5312-5.6562 0.99603 0 1.8723 1.872 2.375 4.6875 0.52487-2.8153 1.4289-4.6875 2.4688-4.6875 1.1546 0 2.1443 2.3154 2.625 5.6562h0.3125v-7.0312h-0.21875c0.0709-0.13433 0.125-0.26648 0.125-0.40625 0-1.5595-4.5818-2.8125-10.219-2.8125z" fill="url(#d)"/>
  <path d="m-244.147,479.92477c1.49551-1.71666 1.866-1.73182 2.29006-.0936 .13821.53393.27385.97571.30139.9817 .10822.0235 1.0597-.11465 1.06852-.15518 .005-.0236-.17077-.82817-.39095-1.78765s-.36328-1.89336-.31799-2.07522c.0449-.18194 1.03026-1.38777 2.18879-2.67979 1.85392-2.06744 2.15657-2.34414 2.52464-2.30799 .39103.0387.44046.14037.76193,1.56937 .49227,2.18874.50034,2.10642-.27098,2.76205l-.67148.57077 .33034.40011c.18165.22011.42645.38337.54396.3629s.31553-.055.44008-.0766 .34846.15875.49769.40065c.25519.41378.30324.43386.80944.33836 .42278-.0798.53186-.16849.50896-.41388-.0201-.2155.11292-.39614.42955-.58307 .29779-.17573.49316-.42897.55685-.72174 .10552-.48511-.0662-.67599-.73981-.82252-.22335-.0486-.50433-.19919-.62441-.33466-.27321-.3082-1.23259-4.82946-1.12741-5.31301 .0427-.196.70089-1.05724 1.46281-1.9139 1.25794-1.41438 1.42392-1.54918 1.80543-1.4662 .23107.0503.43565.19258.45461.31626 .0293.19048.12931.20953.65524.12463l.62075-.10027-.21117-1.10917c-.12582-.66075-.14722-1.20987-.0529-1.35823 .19766-.31101 2.53223-2.93793 2.79544-3.14548 .1066-.0841.35091-.11864.54295-.0769 .28279.0616.44615.37134.85913,1.62949 .28048.85445.57272,1.82254.64945,2.15128l.1395.59775-.85246.97472-.85243.97476 .44635.34582c.4421.34254.4504.34226.87112-.0267 .31724-.27823.52156-.33925.80726-.2411 .321.11045.48327.45022 1.00991,2.1157 .34507,1.09135.61015,2.06138.58905,2.15562s-.98183,1.19429-2.13499,2.44459l-2.09662,2.27322-1.17779-.12062c-1.13748-.11649-1.18062-.1072-1.26072.27165-.10484.49436-.0108.74627.33242.89343 .52682.22588.52906.66653.006,1.24517-.26323.29138-.46006.55098-.43741.57691 .27063.30968.68819.70824.75785.7234 .0486.0106.29431-.21265.54604-.49613 .53517-.60255 1.01464-.70532 1.31731-.28228 .2666.37255.38886.39262.90586.14845l.4199-.1983-.24964-.76373c-.13729-.42003-.22063-.89695-.18521-1.05981 .063-.28982 2.49185-3.02962 3.06601-3.45865 .16616-.12416.43966-.16481.63876-.095 .2867.10057.54968.74985 1.48922,3.67709 .62757,1.95524 1.15918,3.67335 1.18139,3.81801 .0225.14642-.3614.83792-.86552,1.55928-.49822.71286-.91672,1.34606-.92998,1.40702-.0195.0897.69308.60931.89613.65347 .0294.006.22022-.2349.42402-.53616 .39746-.58749.84109-.80435 1.18459-.57901 .11719.077.34214.57475.4999,1.10634l.28683.96654 .54635-.1284c.30051-.0707.55568-.17123.56707-.22354s-.19089-.79272-.44952-1.64533c-.61638-2.03194-.56118-2.09694 1.37539-1.61981l1.42359.35082 .12743-.58582 .12742-.58583-.91313-.28327-2.13719-.67222-1.22404-.38895-1.01109-3.10518c-.5561-1.70786-.99039-3.21492-.96511-3.34901 .10462-.55502.47235-.54478 2.35423.0656 .98301.3188 1.89076.66639 2.01727.77242s.24038.51215.25306.90251c.0224.6881.0379.70983.50911.7113 .66202.002.72713-.0313.81061-.4151 .0931-.42818.41659-.63318.85022-.53887 .23836.0519.36141-.0124.40464-.21115 .0342-.15708.12531-.38192.20252-.49964 .096-.1462.0279-.2873-.215-.44555-.23485-.15301-.33111-.34321-.2838-.5607 .0747-.34315-.31137-1.1344-.58218-1.1933-.0859-.0187-.45997.19495-.83135.47472l-.67523.50868-2.60934-.84336c-1.43515-.46387-2.71176-.89823-2.83694-.96524-.35236-.18869-1.59294-4.24534-1.40064-4.58002 .16143-.28095.80586-.39479 1.02688-.18147 .0671.0649.22083-.11589.34152-.40165 .27083-.64126.19164-.7276-1.04424-1.13834-.52224-.17354-1.02922-.36787-1.12661-.43174-.20968-.13757-1.40546-3.83045-1.33911-4.13551 .0252-.11564.14762-.26311.27218-.32773 .27025-.14021 3.5667.34961 4.08651.60721 .25839.12805.47773.52188.75686,1.35886 .21618.64822.43868,1.22264.49444,1.2765s.32953.0257.60835-.0628l.50692-.16059-.19363-.5484c-.1073-.30397-.13246-.72773-.0564-.95077 .12673-.37158.20141-.39614.97731-.32115 1.17679.11373 3.4965.61007 3.67385.78615 .18514.18374 2.14185,6.17616 2.0918,6.40622-.0202.0928-.33064.53097-.68988.97373s-.63602.8278-.61503.85569 .22961.20691.46356.39788c.40598.33137.43562.33516.65021.0832 .35755-.41975.93024-.19881 1.15307.44481 .10438.3015.19689.61164.20559.68918 .0206.18326 1.06765-.0974 1.11126-.29787 .0183-.0839-.0603-.44867-.17465-.81028-.23343-.73817-.0297-1.13156.56536-1.09195 .27341.0183.35208-.0786.4575-.5633l.12732-.5853-.94486-.20553c-.7146-.15544-.98608-.28097-1.11393-.51523-.2847-.52155-1.59364-4.71478-1.54358-4.94499 .11906-.54733.51246-.52399 4.44004.2635l3.83518.76898 .72665,1.57364c.93654,2.0281.90966,1.99805 1.51739,1.69773l.50023-.24719-.44868-.91776c-.78255-1.6007-.50032-1.83675 1.63962-1.37128l1.54238.3355 .0919-.64286 .0919-.64283-1.66088-.30642c-1.41209-.26053-1.69068-.35272-1.85981-.61592-.23971-.37298-.0818-.6957.70158-1.43454 .30895-.29137.56906-.56338.57799-.60447s-.15211-.2599-.35787-.48623l-.37412-.41152-1.34191,1.30994c-1.62797,1.5892-1.39964,1.56334-5.46872.61918l-2.90634-.67441 .0399-.38123c.0277-.26506.39958-.7065 1.22048-1.44869 .64935-.5871 1.29212-1.10146 1.42838-1.14302 .2224-.0678.73036.0957 1.39952.45054 .18163.0963.28913.003.45977-.40162 .18871-.44681.17943-.57761-.0606-.85666-.23445-.27257-.24745-.41421-.0754-.82172 .183-.43321.16278-.5439-.16803-.9211-.20679-.23579-.39073-.36098-.40874-.27818-.0481.22096-.79699.20759-.97301-.0173-.19064-.24365-1.19077-.0845-1.24421.19801-.0206.1069.0226.38285.0951.61306 .25547.81107.0479,1.12252-1.97248,2.96025l-1.9479,1.77178-2.13216-.40159c-1.17266-.22089-2.24313-.48838-2.37881-.59438-.1812-.14161-.20404-.30606-.086-.61964 .12788-.3399.0904-.50408-.18401-.80595-.18956-.20848-.37381-.38543-.40945-.39318s-.45407.31135-.92983.70909l-.86504.72319-2.28642-.40606c-1.25754-.22335-2.36981-.46081-2.47174-.52763-.49185-.32266-.2345-.75736 1.62732-2.74873l1.8711-2.00134 1.47123.32002 1.47121.32001 .12957-.59566c.12693-.58357.11879-.598-.40143-.71116-.71643-.15582-1.05621-.47461-.96294-.90341 .0424-.19487.70436-1.01342 1.47106-1.81898l1.39401-1.46467 2.94746.68515c1.62114.37678 3.14159.76075 3.37884.85313 .3369.13126.51367.38807.80747,1.17326l.37616,1.00523 .54833-.18103c.47139-.15561.55295-.24819.58115-.65953 .0402-.58669.28167-.69614 1.13373-.51402l.63345.1351 .12956-.59566 .12957-.59565-.72635-.15799c-.82205-.17881-1.06044-.46854-.85741-1.04201 .10188-.2878.0419-.46505-.25715-.76039l-.39004-.38514-.68213.72751-.68214.72751-2.58197-.6602c-2.70402-.69141-3.045-.86291-2.81024-1.41347 .12967-.3041 4.75251-5.3527 5.16093-5.63625 .13791-.0957.96398-.063 2.15264.0854l1.92883.24082 .0827-.59376 .0827-.59376-1.18731-.2775c-1.12373-.26259-1.18593-.29661-1.16104-.63465 .0164-.22167.40713-.76366 1.03013-1.42855l1.00384-1.07139-.4641-.39744c-.2673-.2289-.50137-.33956-.55193-.26097-.0483.075-.56386.62951-1.14565,1.23206-.93815.97162-1.10723,1.08482-1.49434,1.00061s-.46305-.20735-.66941-1.08136c-.12808-.54253-.24908-1.01266-.26885-1.04473-.053-.0859-1.05729.20191-1.08076.30983-.011.0506.13842.81559.33208,1.69981s.31797,1.76471.27622,1.95665-1.05785,1.3948-2.25799,2.67303c-2.04958,2.18293-2.2091,2.31817-2.62687,2.2273s-.45977-.17794-.74447-1.72154c-.16481-.89362-.27925-1.74295-.25433-1.8874 .0252-.14438.33449-.46988.68792-.72321l.64256-.46059-.26806-.3898c-.20953-.30468-.38865-.39622-.82031-.41926-.45431-.0243-.5805-.0968-.71146-.40939-.14573-.34771-.20822-.37477-.73719-.31925-.46049.0484-.5722.12209-.54971.36288 .0189.20191-.11847.38878-.41375.56308-.26308.1553-.50785.46395-.60472.76262-.16172.49874-.15852.50333.54421.76735 .3888.14613.77437.37229.85681.50268 .20832.32952 1.02853,4.8787.94722,5.25359-.0642.29578-2.27709,2.80221-2.8528,3.23113-.35234.26253-.67185.20144-.9453-.18075-.1788-.24987-.29273-.28274-.7626-.22001l-.5524.0738 .16384.94442c.0901.51944.12853,1.10686.0853,1.30536s-.75063,1.08122-1.57211,1.96155c-2.0532,2.20027-2.17404,2.18099-3.00914-.48-.2377-.7574-.4009-1.52092-.36266-1.69671s.46817-.7392.9554-1.25202l.88588-.9324-.45667-.39108c-.42853-.36698-.46891-.37727-.65499-.167-.50427.56988-1.04436.85655-1.31777.69946-.3756-.21581-1.57947-3.97711-1.40436-4.38775 .0718-.16815 1.10236-1.32534 2.29035-2.57153 2.32904-2.44316 2.29241-2.42173 3.6445-2.13132l.78218.16835 .12246-.56302c.10632-.48881.0685-.59803-.2876-.82881-.49136-.31849-.45418-.68075.13517-1.31691l.41375-.44661-.43692-.40477-.43693-.40478-.53458.56519c-.57013.60279-1.11881.66246-1.38437.15052-.11835-.22811-.19181-.2436-.61466-.13012-.56218.15141-.62198.311-.37926,1.01184 .3676,1.06134.35159,1.09503-1.4236,2.99277-1.97737,2.11392-2.03657,2.16061-2.46789,1.94686-.25453-.12615-.59263-.99495-1.45906-3.74946-.62027-1.97189-1.09835-3.72046-1.06241-3.8857s.54715-.96067 1.13603-1.76763l1.07067-1.4672-.48922-.34763-.48922-.34764-.55561.79973c-1.02342,1.4731-1.43693,1.33062-2.0688-.71285l-.44058-1.42481-.47619.12824c-.2619.0706-.51812.17227-.56933.22607s.1326.80141.40853,1.66136 .48269,1.65077.4595,1.75741c-.0901.41438-.55619.46816-1.5846.18285l-1.01886-.28265-.17614.55144c-.21193.66333-.25364.63514 1.81014,1.22345 .85777.24456 1.62231.50515 1.69898.57917 .2919.28176 2.10974,6.28141 1.99598,6.58757-.11115.29914-.17679.29622-1.72313-.0765-1.96145-.47273-2.26975-.68736-2.36569-1.64644-.0394-.39458-.0796-.7344-.0891-.75513s-.27808-.0158-.59673.0108c-.48471.0406-.6031.12233-.7247.50014-.12556.39004-.21147.44376-.63085.39417-.4397-.0519-.50112-.006-.65077.48229-.12835.41941-.10645.58817.0986.75723 .14511.11962.25911.40217.25333.62783s.13891.59011.32145.80991l.33188.39964 .60217-.48661c.33117-.26765.69821-.50136.81562-.51937 .30015-.0461 5.05678,1.62938 5.22569,1.84064 .0763.0955.41823,1.04414.75973,2.10809 .66079,2.05877.66041,2.5498-.002,2.55914-.32787.004-.41987.10272-.56903.60678l-.17795.60127 1.01714.33061c.66626.21659 1.07123.43144 1.17398.62292 .28307.52753 1.47186,4.50857 1.41895,4.7518-.0284.13071-.1964.27883-.37327.32915-.3423.0974-3.32799-.50293-3.85651-.77541-.20942-.10801-.4393-.58739-.68757-1.4341-.20516-.69954-.38614-1.29914-.40224-1.33245s-.2653.0176-.55379.11293c-.53985.17853-.55572.22463-.39749,1.15398 .17013.99925.045,1.02063-2.47932.42354l-2.26518-.53575-.91579-3.08445c-.50368-1.69645-.90225-3.17124-.88572-3.27731s.31773-.54738.66932-.98068 .64656-.82152.65552-.8627-.16754-.22703-.39221-.41302c-.37162-.3076-.43649-.32207-.71833-.15983-.5483.31495-.93399.10066-1.12518-.62517l-.17484-.66375-.53312.13969c-.29322.0769-.56301.15635-.59952.17673s.0234.30923.1333.6419c.30387.92043.0435,1.48882-.61639,1.34529-.21343-.0464-.29443.063-.3976.53735l-.12956.59567 .86501.18815c.47575.10349.95197.29476 1.05823.42513 .23278.2855 1.56487,4.86066 1.50088,5.15485-.11366.52251-.42316.49918-4.16108-.31388-2.02449-.44035-3.77625-.86318-3.89279-.93966s-.52827-.85028-.91495-1.71962-.73991-1.64991-.78494-1.73458c-.045-.0847-.32086-.0516-.61292.0734l-.53104.22739 .41206.98136c.22662.53975.39625,1.05401.37693,1.1428-.0907.41683-.64112.45772-2.04658.152l-1.42801-.31061-.18219.61833-.18219.61833 1.82341.44047c1.79884.43458 1.82306.44549 1.79618.80921-.0178.24127-.29499.61437-.80187,1.07942l-.77461.71073 .42448.43221 .42449.4322 1.11482-1.03933c1.90583-1.77678 1.37905-1.68366 5.03082-.88935 1.73995.37847 3.26067.75184 3.37941.82974 .44775.2937.0673.92736-1.21883,2.03018-1.33736,1.14673-1.40929,1.16675-2.43899.67904-.50122-.23739-.54091-.23038-.70279.12379-.0944.20648-.20842.44261-.25343.52473-.045.0822.0352.26339.17813.40273 .20995.20457.22162.35942.0606.80405-.17381.47985-.15383.60274.15508.95501 .22994.26216.40121.35594.48725.26682 .073-.0755.3727-.0652.66612.023s.75986.15508 1.03666.14827l.50319-.0122-.12569-.86783c-.15138-1.0451-.2582-.89831 2.14793-2.95125 1.12319-.95832 1.95837-1.55839 2.16979-1.55897 .18906-.00057 1.23777.24463 2.3305.54477l1.98672.54578-.0444.56294c-.0283.35787.0692.6999.26775.9389l.31221.37589 .85294-.69509 .85293-.6951 1.8458.35747c1.89413.36699 2.24298.5363 2.13037,1.03327-.0307.13296-.68174.94777-1.44799,1.8104l-1.39316,1.56851-1.45977-.27296-1.45977-.27296-.1284.59025c-.12774.5873-.12582.59082.4551.71717 .82148.17869 1.02757.35353.93242.79095-.0801.36834-2.11039,2.80448-2.69344,3.23191-.25617.18778-.62244.13749-3.401-.46689-1.7239-.37497-3.2202-.76791-3.35206-.88018s-.38115-.58706-.55595-1.05668c-.34016-.91386-.46629-1.00872-1.00793-.7581-.23724.10977-.38476.33484-.46686.71227l-.12003.55182-.79156-.1252-.79155-.1252-.12725.58504c-.13778.63342-.065.70701 1.02298,1.03299 .48761.14624.50602.17959.37928.69144-.11638.46959-.0771.58132.3086.88018l.44181.34227 .58485-.6858 .58488-.68582 2.66981.53813c2.76316.557 3.06861.68492 2.94882,1.23565-.0319.14673-1.20368,1.55009-2.60391,3.11851l-2.54586,2.85177-1.51733-.12502c-2.7023-.2227-2.50667-.23857-2.60176.21088-.13868.65398-.0128.76084 1.18256,1.00542 1.11861.22881 1.11983.22953 1.07715.65528-.0396.39533-.3059.75242-1.5411,2.06681l-.38863.41353 .36735.31643c.20205.17401.43446.33381.51649.35508s.61588-.49704 1.18631-1.15184z" fill="#fff"/>
  <path d="m-116.72706,462.02364c.32055-1.73485.5617-1.89107 1.49064-.96556 .30275.30164.56746.54284.58819.53597 .0814-.027.66165-.49438.65154-.5249-.006-.0177-.44051-.48507-.96577-1.03825s-.98899-1.11965-1.03051-1.25883 .13992-1.33199.40317-2.6507c.42129-2.11018.51405-2.41411.77382-2.53514 .27605-.12845.34914-.0801 1.12714.74634 1.19153,1.26582 1.16445,1.20773.90852,1.94925l-.2228.64553 .37812.13661c.20798.0752.43566.0875.50596.0276l.26335-.22465c.0745-.0634.29505-.0315.48998.071 .33339.17536.37336.1698.67335-.0935 .25056-.21993.28833-.32212.17628-.47678-.0984-.13581-.0809-.30877.0566-.55832 .12933-.23467.15979-.48063.0868-.70103-.12093-.3652-.31075-.42481-.81785-.2569-.16814.0557-.41496.0661-.54849.023-.30378-.0978-2.72676-2.73531-2.8473-3.09934-.0489-.14755.0505-.98162.22097-1.85351 .2813-1.43954.33885-1.59491.62606-1.69001 .17394-.0576.36654-.0433.42796.0317 .0946.11553.16888.0888.48622-.17525l.37452-.31169-.57829-.65658c-.34451-.39112-.57533-.74896-.57094-.88512 .009-.28539.53046-2.95832.62417-3.20057 .0379-.0982.18729-.21752.33185-.26538 .2129-.0705.44405.0717 1.21569.74809 .52406.45934 1.10078.98984 1.28161,1.17885l.32878.34372-.18422.98634-.18418.98638 .43411.0546c.42998.0541.4354.0506.57053-.36137 .10188-.3107.21411-.43198.44338-.47917 .25767-.053.49992.10972 1.50801,1.01297 .66057.59188 1.21995,1.13438 1.24303,1.20556s-.18392,1.18385-.46003,2.4726l-.50203,2.34316-.8332.38402c-.80467.37088-.82978.39409-.73381.67838 .12475.3712.28707.50206.57407.46486 .44048-.0571.61576.23595.4953.82805-.0607.29817-.0896.54896-.0642.55732 .30265.0998.73836.20103.79081.18366 .0367-.0121.11245-.25791.16856-.54627 .11935-.61298.39864-.87061.76737-.70779 .32475.14336.41421.10853.66279-.25818l.20188-.29787-.4677-.41098c-.25723-.22603-.5009-.51129-.5415-.63389-.0723-.21818.46736-3.00358.68115-3.51618 .0619-.14835.22828-.28332.38862-.31527 .23088-.046.66237.28341 2.44348,1.86545 1.18969,1.05671 2.22187,1.9931 2.29373,2.08084s.0894.70144.0376,1.38141c-.0512.67198-.0806,1.25939-.0654,1.30529 .0223.0675.7026.1331.85546.0825 .02213-.007.05425-.24354.07138-.52486 .03343-.54862.24383-.86822.56183-.85338 .1085.005.45488.24845.76975.54082l.57249.5316 .31379-.3011c.1726-.16565.30314-.33337.29009-.37276s-.43995-.45348-.9487-.92022c-1.21249-1.11228-1.2013-1.1774.27863-1.62287l1.08793-.32741-.14603-.44102-.14603-.44102-.72079.17119-1.69068.39444-.96986.22328-1.89901-1.67252c-1.04447-.91988-1.92849-1.75388-1.96451-1.85329-.14912-.41146.10023-.54966 1.59619-.88472 .78143-.17499 1.52401-.30115 1.6502-.28032s.36232.24682.52473.5022c.28629.45017.30523.45852.6201.27368 .44239-.25971.47268-.30761.377-.59655-.10674-.32234.02817-.58665.35461-.69475 .17944-.0594.2362-.15076.18664-.30042-.03916-.11826-.06704-.30417-.06196-.41314 .0064-.13537-.09472-.20263-.31912-.21241s-.35622-.0983-.41043-.26208c-.08554-.25832-.65506-.63389-.85893-.56639-.0646.0214-.22993.31145-.36732.64453l-.2498.60559-2.07312.46648c-1.14021.25658-2.16306.4703-2.27298.47496-.30945.0131-2.73677-2.20357-2.74049-2.50265-.003-.25107.38184-.58114.61339-.52601 .0703.0168.1016-.1644.0694-.40261-.0722-.53455-.15907-.56092-1.14546-.34749-.41679.0902-.8316.16051-.92176.15632-.19412-.009-2.4481-2.00077-2.52415-2.23043-.0288-.087-.005-.2337.0523-.32594 .12498-.2001 2.51699-1.17339 2.9653-1.20656 .22285-.0165.52449.1597 1.04075.60792 .39983.34712.77479.64255.83323.65647s.22992-.11282.38105-.28175l.27479-.30704-.34543-.28944c-.19145-.16044-.37534-.43318-.41258-.61195-.0621-.29783-.0218-.34368.52525-.59963 .8298-.38823 2.57286-.97197 2.76062-.92443 .19595.0496 3.86437,3.27504 3.92172,3.44823 .02313.0698-.01116.48457-.07617.92156s-.09778.80301-.07278.81334c.02496.0103.23475.0475.46612.0826 .40148.0609.42275.0518.46654-.20092 .07297-.42099.54209-.49948.94456-.15803 .18853.15994.37255.33033.40893.37863 .08598.11414.67375-.48601.62377-.63694-.02093-.0632-.21718-.27549-.43605-.47161-.44681-.40032-.4661-.74305-.05351-.95132 .1896-.0956.20384-.19131.08303-.55617l-.1459-.44063-.71131.23554c-.53796.17813-.76856.20144-.94622.0956-.39559-.23562-2.92238-2.51644-2.97977-2.68973-.13644-.41205.13518-.55162 3.06557-1.57526l2.86145-.99955 1.10529.7631c1.42452.98347 1.39474.97403 1.68168.53403l.23619-.36216-.66122-.43522c-1.15326-.75912-1.05809-1.02786.55289-1.5613l1.16113-.38449-.19224-.46503-.19224-.46503-1.22869.45062c-1.04467.38306-1.26685.43145-1.48346.32261-.30699-.15425-.32898-.43176-.09776-1.23356 .09117-.31619.1574-.60022.14716-.63114s-.20396-.11339-.43046-.18321l-.41185-.12694-.3785,1.40297c-.45918,1.70207-.31707,1.59477-3.40363,2.56971l-2.20458.69635-.12374-.27003c-.0861-.18772-.0121-.62883.24278-1.44764 .20161-.6477.4275-1.24429.50201-1.32574 .1216-.13295.52491-.2242 1.1112-.2514 .15914-.007.1938-.11245.1483-.44922-.0503-.37246-.10812-.45604-.37825-.54752-.26388-.0894-.3284-.17871-.37431-.51841-.0488-.36113-.10592-.42699-.47534-.54814-.23093-.0758-.40299-.0867-.38235-.0244 .0551.16634-.44975.45277-.65587.37215-.22325-.0873-.8276.41326-.75184.62275 .0284.0794.16603.24648.30519.37144 .49026.44026.47466.72986-.14829,2.75247l-.60058,1.95003-1.58061.57294c-.8693.31516-1.68884.55886-1.82117.54162-.17671-.023-.25679-.12368-.30174-.37939-.0487-.27716-.1385-.3719-.44057-.46503-.20867-.0643-.40136-.10968-.42819-.10079s-.18009.38675-.34057.83968l-.29181.82354-1.68525.63086c-.92689.34701-1.76248.62718-1.85673.62309-.45533-.0212-.45509-.41271.002-2.47526l.45881-2.07287 1.10757-.36674 1.10754-.36674-.14849-.44842c-.14547-.43932-.15676-.44567-.54822-.31605-.53932.17859-.8917.0999-.99859-.22287-.0485-.14669.0702-.95375.2639-1.79345l.35224-1.52673 2.23625-.70537c1.22993-.38804 2.39556-.73153 2.59025-.76345 .27649-.0453.49568.0563 1.00131.46417l.64734.52216 .29436-.33699c.25307-.28969.27096-.38361.12755-.66911-.20457-.40719-.0867-.57543.55352-.78997l.4759-.15943-.14848-.44841-.14849-.44843-.5468.18106c-.61885.20492-.89212.10569-.98286-.35691-.0456-.23216-.15544-.32674-.4714-.40579l-.41206-.10308-.16809.75428-.1681.75429-1.98263.57789c-2.07635.60515-2.37141.62526-2.43194.16544-.0334-.25398 1.05914-5.44467 1.21975-5.79487 .0542-.11826.61818-.42217 1.46958-.79195l1.38157-.60003-.179-.42868-.17899-.42867-.90142.28313c-.85313.26797-.90802.26986-1.02474.0346-.0765-.15431-.0296-.66995.12376-1.35915l.24708-1.11053-.46632-.082c-.26856-.0473-.46834-.0288-.47107.0435s-.12785.64226-.2783,1.27363c-.2426,1.01808-.31074,1.16026-.60216,1.25676s-.39064.0443-.87297-.45731c-.29939-.31137-.56552-.57725-.59135-.59084-.0692-.0365-.62562.55164-.59872.63288 .0127.0381.41398.48944.89187,1.00288s.90804,1.05171.95588,1.1962-.15555,1.34756-.45199,2.67348c-.50625,2.26439-.55932,2.4175-.87384,2.52165-.3181.10533-.37685.0626-1.1755-.85473-.46236-.53108-.87364-1.05247-.91398-1.15867s.0378-.44533.17366-.75368l.24697-.56064-.33254-.1543c-.25992-.1206-.4155-.11102-.71251.0438-.31261.16299-.42542.16431-.63603.008-.23432-.17446-.28668-.16787-.61763.0778-.28809.21384-.33354.30709-.22356.45884 .0922.12722.0743.30604-.0539.53875-.11424.20735-.15579.50976-.10262.74718 .0888.39646.0928.39824.66563.29723 .31697-.0559.66335-.0571.76976-.003 .26891.13765 2.61007,2.84864 2.70367,3.13077 .0738.2226-.41379,2.76719-.62865,3.28032-.13149.31408-.36871.39933-.70182.25225-.21781-.0962-.30677-.0731-.59546.15395l-.33937.26707 .48174.56535c.26496.31094.52225.68762.57173.83706s-.0743,1.01724-.27509,1.9284c-.50182,2.27737-.59002,2.31218-2.19649.86654-.45725-.41147-.86721-.8564-.91103-.98873s.0208-.67771.14352-1.21192l.2232-.97131-.45885-.0807c-.43056-.0758-.46155-.0667-.50276.1469-.11163.57899-.35882.98321-.60315.98624-.33564.004-2.622-2.02997-2.66715-2.37293-.0184-.14045.21264-1.31879.51362-2.61854 .59004-2.54817.57405-2.51943 1.59048-2.85894l.58799-.19654-.14034-.42384c-.12185-.36798-.19022-.42589-.51869-.43943-.45336-.0187-.57142-.27496-.42919-.93173l.0999-.46107-.45107-.0977-.45108-.0977-.1337.58783c-.14257.62692-.48502.8831-.86407.64635-.16888-.10548-.224-.0869-.46132.15552-.31529.3227-.29224.45274.14605.82449 .66376.56299.66637.59177.23067,2.55771-.48531,2.18986-.50638,2.24435-.87839,2.27188-.21953.0162-.78768-.42995-2.4519-1.92561-1.1914-1.0707-2.19987-2.04851-2.24107-2.1729s-.0139-.85658.0607-1.62708l.13556-1.40092-.46343-.0389-.46342-.0389-.0553.75256c-.10171,1.38621-.43373,1.45424-1.66109.34038l-.85578-.77665-.26706.27335c-.14687.15033-.27766.31923-.29061.37531s.40451.48227.9277.94707 .97299.91076.99957.99104c.10329.31195-.18638.53162-.98488.74688l-.79106.2133 .10002.43729c.12022.52604.0813.52368 1.68991.10221 .66861-.17514 1.28134-.30283 1.36168-.2837 .30582.0728 3.88446,3.3579 3.92932,3.60698 .0438.24337-.00088.26732-1.17956.62851-1.49479.45819-1.78507.43663-2.2273-.16528-.18194-.24763-.3427-.45848-.35726-.46855s-.19174.0991-.39375.24257c-.3073.21825-.35405.31944-.28616.61941 .0701.30968.034.3794-.26535.51171-.3138.13876-.33682.19328-.24389.57834 .0798.33039.16093.43433.36436.46625 .14397.0226.33144.16607.41659.31887s.32537.33884.53381.41346l.37899.13569 .20975-.56205c.11536-.30914.26802-.60979.33924-.6681 .18203-.1491 4.0156-.90738 4.21159-.83307 .0886.0336.69075.53153 1.33813,1.10654 1.25268,1.11268 1.44607,1.44036 1.0079,1.70783-.21687.1324-.23957.2341-.14026.62915l.11843.47123 .80886-.18057c.52983-.11826.88468-.13467 1.02874-.0475 .39686.24026 2.75981,2.42693 2.82045,2.61004 .0326.0984-.021.26343-.11917.36675-.18993.19996-2.41823.97698-2.87825,1.00365-.18227.0105-.52466-.21858-1.02419-.68544-.41272-.38572-.7699-.71429-.79377-.73016s-.17005.11634-.32486.29372c-.28969.33199-.2821.369.18994.9265 .50756.59944.43255.66303-1.48675,1.26028l-1.72223.53598-1.82726-1.69626c-1.005-.93296-1.85248-1.7595-1.88327-1.83678s-.004-.49042.0597-.91809 .1073-.80298.097-.83398-.20128-.0854-.4245-.12082c-.3692-.0587-.41816-.0427-.54215.17677-.24154.42631-.5833.43548-.99708.0267l-.37839-.37379-.30051.30342c-.1653.16688-.31389.32634-.33021.35433s.1376.19701.34206.3756c.56568.49412.61613.97595.11939,1.14044-.16068.0532-.17154.15816-.0533.51523l.14849.44842 .6512-.21563c.35816-.1186.75124-.17879.87354-.13376 .26785.0986 2.96071,2.62509 3.03404,2.84656 .13025.39335-.0854.49985-2.89935,1.43163-1.52407.50467-2.85932.91343-2.96719.90842s-.68771-.35884-1.28848-.78622-1.14421-.80875-1.20764-.84746-.2344.0921-.37987.2907l-.26455.36111 .66188.4921c.36402.27065.67997.54679.70211.61364 .1039.31379-.24714.55814-1.30519.90849l-1.07502.35598 .12229.4843 .12231.4843 1.38997-.42532c1.37128-.4195 1.39174-.42177 1.51723-.16859 .0833.16797.0456.52615-.10918,1.03625l-.23641.77955 .4536.1209 .45361.12089 .33372-1.13291c.57056-1.93678.2559-1.66691 3.00501-2.57722 1.30985-.43373 2.47146-.78445 2.58139-.77929 .41448.0194.41063.59202-.0124,1.83486-.43984,1.29231-.47992,1.33404-1.3591,1.41481-.42795.0393-.45166.0596-.41996.35973 .0185.17494.0355.37743.0379.44995s.12733.16184.27765.19838c.22072.0537.28957.15235.35749.51244 .0733.38862.1351.46271.48008.57588 .25677.0841.40798.0792.43024-.0141 .0189-.0792.22286-.19051.45339-.24735s.56797-.19635.74996-.30994l.33086-.20653-.42609-.52931c-.51313-.63742-.52649-.49736.26887-2.81565 .37127-1.08219.69171-1.81182.83251-1.89559 .12587-.075.92212-.32492 1.76934-.55572l1.54047-.41944 .19238.39301c.12228.24987.32223.43954.54888.5207l.35649.1276 .29482-.80003 .2948-.80002 1.37219-.48949c1.40819-.50215 1.70764-.52684 1.82852-.15093 .0316.10092-.081.90104-.25189,1.77863l-.31072,1.59567-1.08135.39366-1.08136.39364 .14714.44435c.1464.44213.14879.4438.58639.2989 .61842-.20477.82485-.16943.93389.15986 .0918.2773-.30171,2.70297-.52205,3.21801-.0968.22629-.36096.33719-2.45271,1.02982-1.29777.42973-2.45082.75775-2.58305.73483s-.48576-.24126-.78756-.48558c-.5873-.47542-.70883-.48896-.9713-.10818-.11494.16678-.12459.37509-.0305.65922l.13755.41542-.57735.22869-.57735.22869 .14584.44042c.1579.47684.23553.4972 1.08974.28561 .38294-.0947.40835-.0798.52567.31164 .10759.35911.17781.41817.55297.4654l.42967.0541 .11967-.68809 .11966-.68813 1.99308-.69389c2.06278-.71817 2.31698-.75334 2.45427-.33871 .0366.11046-.19159,1.50865-.50705,3.10705l-.57352,2.90623-1.06143.51501c-1.89033.91715-1.7661.82941-1.65228,1.16671 .16531.49094.29151.51255 1.1853.20428 .83638-.28853.83748-.28853.97693.0123 .12945.27932.0927.62252-.21288,1.98639l-.0962.4291 .36983.0662c.2034.0364.42145.0513.48456.0332s.21479-.57444.33706-1.23617z" fill="#fff"/>
  <path d="m-202.63249,434.69375c1.11339-1.27805 1.38922-1.28933 1.70493-.0697 .1029.39751.20388.72641.22439.73087 .0806.0175.78894-.0854.7955-.11553 .004-.0176-.12713-.61657-.29106-1.33089s-.27046-1.4096-.23674-1.54499 .76702-1.03319 1.62954-1.99509c1.38024-1.5392 1.60556-1.7452 1.87958-1.71829 .29112.0288.32792.10451.56726,1.16839 .36649,1.6295.3725,1.56822-.20175,2.05633l-.49991.42493 .24594.29788c.13523.16388.31749.28542.40497.27018l.32764-.057c.0927-.0161.25942.11819.37053.29828 .18998.30806.22576.32301.60262.25191 .31476-.0594.39597-.12544.37892-.30813-.015-.16044.0841-.29492.31979-.43409 .22171-.13083.36716-.31937.41458-.53733 .0786-.36116-.0493-.50327-.55079-.61236-.16628-.0362-.37547-.1483-.46487-.24916-.2034-.22945-.91765-3.5955-.83935-3.9555 .0318-.14592.52181-.78711 1.08906-1.42489 .93652-1.053 1.0601-1.15336 1.34413-1.09158 .17203.0374.32434.14338.33845.23546 .0218.14181.0963.15599.48782.0928l.46215-.0747-.15722-.82577c-.0937-.49192-.1096-.90074-.0394-1.01119 .14716-.23155 1.88523-2.18728 2.08119-2.3418 .0794-.0626.26125-.0883.40422-.0573 .21054.0459.33216.27646.63962,1.21315 .20882.63613.42639,1.35687.48351,1.60161l.10386.44503-.63465.72567-.63463.7257 .3323.25746c.32914.25502.33532.25481.64855-.0199 .23618-.20715.3883-.25257.601-.1795 .23898.0822.35979.33518.75187,1.57512 .2569.81251.45425,1.53469.43855,1.60485s-.73097.88914-1.58949,1.81999l-1.56092,1.69239-.87686-.0898c-.84685-.0867-.87897-.0798-.9386.20225-.078.36804-.008.55559.24748.66515 .39222.16817.39389.49623.004.92702-.19597.21693-.34251.4102-.32565.42951 .20148.23055.51235.52728.56422.53856 .0362.008.21911-.15831.40652-.36936 .39843-.4486.75539-.52511.98073-.21016 .19848.27736.2895.29231.67441.11052l.31261-.14763-.18586-.56859c-.10221-.31271-.16425-.66778-.13788-.78903 .0469-.21576 1.85517-2.25553 2.28262-2.57494 .12371-.0924.32733-.1227.47556-.0707 .21344.0749.40923.55826 1.10871,2.73757 .46723,1.45567.86301,2.73479.87954,2.84249s-.26906.62383-.64437,1.16088c-.37093.53072-.6825,1.00213-.69237,1.04752-.0145.0668.516.45362.66717.4865 .0219.004.16395-.17488.31568-.39917 .2959-.43738.62618-.59883.88192-.43107 .0872.0573.25472.4279.37217.82367l.21354.71958 .40676-.0956c.22373-.0526.4137-.12748.42218-.16643s-.14212-.59017-.33467-1.22494c-.45889-1.51276-.41779-1.56116 1.02397-1.20594l1.05986.26119 .0949-.43614 .0949-.43615-.67982-.21089-1.59112-.50047-.9113-.28957-.75275-2.31179c-.41401-1.27149-.73734-2.39349-.71851-2.49332 .0779-.4132.35166-.40558 1.75271.0488 .73184.23735 1.40766.49613 1.50184.57507s.17896.38129.1884.67191c.0167.51229.0282.52846.37903.52956 .49287.001.54135-.0233.6035-.30904 .0693-.31878.31015-.4714.63298-.40119 .17746.0386.26907-.009.30125-.1572 .0255-.11694.0933-.28433.15078-.37198 .0715-.10884.0208-.21389-.16007-.33171-.17484-.11391-.24651-.25551-.21128-.41743 .0556-.25548-.23182-.84456-.43343-.88841-.064-.0139-.34245.14514-.61894.35343l-.5027.37871-1.94264-.62788c-1.06846-.34535-2.01889-.66873-2.11209-.71862-.26233-.14047-1.18593-3.16063-1.04277-3.40979 .12019-.20917.59996-.29392.76451-.13511 .0499.0483.16441-.0863.25426-.29902 .20163-.47742.14267-.5417-.77743-.84749-.38881-.1292-.76625-.27388-.83876-.32143-.1561-.10242-1.04635-2.85175-.99696-3.07886 .0188-.0861.1099-.19589.20264-.244 .2012-.10438 2.65539.26029 3.04238.45207 .19237.0953.35567.38853.56348,1.01166 .16095.4826.3266.91025.36811.95035s.24533.0191.45291-.0468l.3774-.11955-.14416-.40829c-.0799-.2263-.0986-.54179-.042-.70784 .0943-.27664.14994-.29492.7276-.23909 .87611.0847 2.60312.45419 2.73516.58528 .13783.1368 1.59459,4.59812 1.55733,4.7694-.015.0691-.24616.3953-.51361.72493s-.47351.6163-.45789.63706 .17095.15404.34512.29622c.30225.2467.32432.24952.48408.0619 .26619-.3125.69256-.14801.85845.33116 .0777.22446.14659.45536.15306.51309 .0153.13644.79486-.0725.82733-.22176 .0136-.0625-.0449-.33403-.13003-.60325-.17378-.54956-.0221-.84244.42091-.81295 .20355.0136.26212-.0585.34061-.41938l.0948-.43575-.70345-.15301c-.53201-.11573-.73413-.20918-.82931-.38359-.21196-.38829-1.18646-3.51013-1.14919-3.68152 .0886-.40748.38153-.3901 3.30559.19618l2.85527.5725 .54098,1.17156c.69725,1.50991.67724,1.48754 1.12969,1.26395l.37242-.18403-.33404-.68326c-.5826-1.19172-.37248-1.36745 1.22069-1.02091l1.14829.24977 .0684-.4786 .0684-.47859-1.23652-.22812c-1.05129-.19397-1.2587-.2626-1.38461-.45855-.17847-.27768-.0609-.51795.52232-1.06801 .23001-.21692.42366-.41943.43031-.45002s-.11325-.1935-.26643-.362l-.27853-.30637-.99905.97524c-1.21201,1.18315-1.04202,1.1639-4.07143.46098l-2.16375-.5021 .0297-.28382c.0206-.19734.29749-.52599.90864-1.07854 .48344-.4371.96198-.82003 1.06342-.85098 .16558-.0505.54375.0712 1.04194.33543 .13522.0717.21525.002.34229-.29901 .1405-.33264.13359-.43002-.0451-.63777-.17455-.20293-.18423-.30838-.0561-.61177 .13625-.32252.12119-.40493-.12509-.68575-.15396-.17555-.2909-.26875-.30431-.20711-.0358.16451-.59335.15455-.7244-.0129-.14193-.18139-.88652-.0629-.92631.14742-.0153.0796.0168.28503.0708.45642 .1902.60384.0357.83571-1.4685,2.20389l-1.4502,1.31908-1.58738-.29898c-.87304-.16445-1.66999-.3636-1.77101-.44251-.1349-.10543-.1519-.22786-.064-.46132 .0952-.25306.0673-.37529-.137-.60003-.14113-.15521-.2783-.28695-.30483-.29272s-.33805.2318-.69226.52792l-.64401.53841-1.70223-.30231c-.93623-.16629-1.76431-.34307-1.8402-.39282-.36618-.24022-.17458-.56385 1.21153-2.04641l1.39303-1.48999 1.09532.23825 1.09531.23825 .0965-.44347c.0945-.43446.0884-.44521-.29886-.52945-.53338-.11601-.78634-.35335-.7169-.67259 .0316-.14508.52439-.75448 1.09519-1.35422l1.03783-1.09044 2.19437.5101c1.20693.28051 2.3389.56637 2.51553.63515 .25082.0977.38242.28891.60116.87348l.28005.74839 .40822-.13478c.35095-.11585.41167-.18477.43267-.49101 .0299-.43679.2097-.51828.84405-.38269l.4716.10058 .0965-.44346 .0965-.44346-.54076-.11762c-.61201-.13313-.78949-.34883-.63834-.77577 .0759-.21427.0312-.34623-.19144-.56611l-.29039-.28673-.50784.54162-.50785.54163-1.92226-.49152c-2.01313-.51475-2.26699-.64243-2.09221-1.05232 .0965-.2264 3.53822-3.98505 3.84229-4.19615 .10267-.0713.71767-.0469 1.60262.0636l1.43601.17929 .0616-.44205 .0616-.44206-.88395-.20659c-.83661-.1955-.88292-.22083-.86439-.4725 .0122-.16503.30311-.56854.76693-1.06354l.74735-.79765-.34552-.29589c-.199-.17041-.37326-.2528-.41091-.19429s-.41979.46867-.85293.91726c-.69844.72337-.82432.80764-1.11252.74495s-.34474-.15437-.49838-.80507c-.0953-.40391-.18543-.75392-.20015-.77779-.0395-.064-.78715.15032-.80462.23067-.008.0377.10305.6072.24723,1.26549s.23673,1.31382.20564,1.45672-.78756,1.03842-1.68106,1.99005c-1.5259,1.62518-1.64466,1.72587-1.95569,1.65822s-.34229-.13248-.55425-1.28168c-.1227-.66529-.2079-1.29762-.18935-1.40516s.24903-.34982.51215-.53842l.47839-.34291-.19957-.2902c-.156-.22684-.28935-.29499-.61072-.31214-.33823-.0181-.43218-.0721-.52968-.30479-.10849-.25887-.15502-.27901-.54883-.23768-.34283.036-.426.0909-.40926.27016 .0141.15032-.0882.28945-.30803.41921-.19586.11562-.37809.34541-.45021.56777-.1204.37131-.11802.37472.40516.57129 .28946.10879.57651.27716.63789.37424 .15509.24532.76573,3.63216.7052,3.91127-.0478.2202-1.69528,2.08623-2.12389,2.40556-.26232.19545-.50019.14997-.70377-.13457-.13312-.18603-.21794-.2105-.56776-.1638l-.41126.055 .12198.70311c.0671.38672.0957.82405.0635.97183s-.55884.80497-1.17043,1.46037c-1.52859,1.63809-1.61856,1.62373-2.24029-.35736-.17696-.56388-.29846-1.13232-.26999-1.26319s.34854-.55033.71128-.93212l.65954-.69417-.33999-.29116c-.31904-.27321-.3491-.28087-.48764-.12433-.37542.42428-.77752.6377-.98107.52075-.27963-.16067-1.17591-2.96094-1.04554-3.26666 .0535-.12519.8207-.98671 1.70516-1.91449 1.73395-1.81892 1.70668-1.80296 2.71331-1.58675l.58232.12533 .0912-.41916c.0792-.36392.051-.44523-.21411-.61705-.36582-.23711-.33814-.50681.10063-.98043l.30804-.3325-.32529-.30135-.32529-.30135-.39799.42078c-.42446.44877-.83295.49319-1.03066.11206-.0881-.16983-.1428-.18136-.45761-.0969-.41854.11273-.46306.23154-.28236.75331 .27368.79017.26176.81525-1.05986,2.2281-1.47214,1.57381-1.51621,1.60857-1.83733,1.44943-.18949-.0939-.44121-.74073-1.08626-2.79145-.46179-1.46806-.81772-2.76986-.79096-2.89288s.40735-.71522.84577-1.31599l.79711-1.09233-.36422-.2588-.36423-.25882-.41364.59539c-.76194,1.09672-1.06979.99064-1.54021-.53071l-.32801-1.06076-.35452.0955c-.19499.0526-.38574.12826-.42387.16831s.0987.59664.30415,1.23687 .35936,1.22899.3421,1.30838c-.0671.30851-.41408.34855-1.17973.13614l-.75854-.21044-.13113.41055c-.15778.49384-.18883.47286 1.34764.91085 .6386.18207 1.2078.37608 1.26488.43119 .21732.20977 1.57069,4.67647 1.486,4.90441-.0828.22271-.13162.22053-1.28287-.057-1.46028-.35194-1.68981-.51173-1.76124-1.22576-.0293-.29376-.0593-.54676-.0663-.56219s-.20703-.0118-.44426.008c-.36087.0302-.44901.0911-.53954.37235-.0935.29038-.15744.33038-.46966.29346-.32736-.0386-.37309-.004-.4845.35906-.0956.31225-.0793.43789.0734.56375 .10803.0891.1929.29942.1886.46742s.10342.43933.23932.60297l.24708.29753 .44831-.36228c.24656-.19926.51982-.37326.60723-.38666 .22346-.0343 3.76474,1.21306 3.8905,1.37034 .0568.0711.31137.77736.56561,1.56946 .49195,1.53275.49167,1.89831-.001,1.90527-.2441.003-.31259.0765-.42364.45174l-.13248.44764 .75725.24614c.49603.16125.79753.32121.87402.46376 .21075.39275 1.0958,3.35661 1.05641,3.53769-.0212.0973-.14622.20759-.2779.24505-.25484.0725-2.47767-.37443-2.87115-.57729-.15591-.0804-.32706-.43731-.51189-1.06768-.15274-.5208-.28748-.9672-.29947-.992s-.19751.0131-.41229.0841c-.40192.13291-.41373.16723-.29593.85913 .12666.74394.0335.75985-1.84584.31532l-1.68642-.39886-.6818-2.29636c-.37498-1.26299-.67172-2.36097-.65941-2.43993s.23655-.40753.49831-.73012 .48136-.61161.48803-.64227-.12474-.16902-.292-.30749c-.27667-.22901-.32497-.23978-.53479-.11899-.40821.23447-.69536.0749-.83769-.46544l-.13017-.49416-.39691.104-.44634.13157c-.0272.0151.0174.23022.0992.4779 .22623.68525.0324,1.10841-.45889,1.00156-.1589-.0345-.21921.0469-.29602.40005l-.0965.44347 .64399.14008c.3542.077.70874.21945.78785.31651 .1733.21255 1.16504,3.61873 1.1174,3.83775-.0846.38901-.31504.37164-3.0979-.23368-1.50723-.32784-2.8114-.64263-2.89816-.69957s-.3933-.63303-.68118-1.28025-.55086-1.22835-.58438-1.29138-.23888-.0384-.45632.0546l-.39536.16929 .30678.73062c.16872.40184.29501.78471.28062.85081-.0675.31033-.47731.34077-1.52366.11316l-1.06315-.23124-.13564.46034-.13564.46034 1.35752.32793c1.33923.32354 1.35726.33166 1.33725.60245-.0133.17963-.21962.4574-.59699.80362l-.57669.52914 .31602.32178 .31603.32177 .82998-.77378c1.41888-1.3228 1.02669-1.25347 3.74541-.66211 1.29539.28176 2.42755.55974 2.51596.61773 .33334.21866.0501.69042-.90742,1.51146-.99565.85373-1.04921.86864-1.81581.50554-.37316-.17673-.40271-.17152-.52322.0922-.0703.15373-.15517.32952-.18868.39066s.0262.19609.13262.29983c.1563.1523.16499.26759.0451.59861-.1294.35725-.11452.44874.11546.711 .17119.19518.2987.265.36275.19865 .0543-.0562.27748-.0485.49593.0171s.56571.11546.77178.11039l.37463-.009-.0936-.64609c-.1127-.77807-.19223-.66879 1.59912-2.19719 .83621-.71346 1.458-1.16021 1.6154-1.16064 .14075-.00043.92151.18212 1.73504.40557l1.4791.40633-.0331.41911c-.0211.26643.0515.52107.19934.69901l.23244.27984 .635-.51749 .63501-.5175 1.37418.26614c1.41017.27322 1.66989.39927 1.58605.76926-.0229.099-.50755.70561-1.07802,1.34784l-1.0372,1.16774-1.08679-.20321-1.08679-.20322-.0956.43944c-.0951.43724-.0937.43986.33882.53392 .61158.13304.76502.26321.69418.58886-.0596.27423-1.57117,2.08792-2.00525,2.40614-.19072.1398-.46341.10236-2.53203-.3476-1.28343-.27916-2.39742-.5717-2.49559-.65528s-.28376-.43707-.4139-.7867c-.25325-.68036-.34715-.75098-.7504-.5644-.17662.0817-.28645.24929-.34757.53028l-.0894.41083-.58932-.0932-.5893-.0932-.0947.43556c-.10257.47158-.0484.52636.76161.76905 .36302.10888.37672.13371.28237.51478-.0866.3496-.0574.43279.22975.65529l.32892.25481 .43542-.51057 .43544-.51059 1.98766.40063c2.05716.41469 2.28456.50992 2.19538.91994-.0238.10924-.89613,1.15403-1.9386,2.32171l-1.89538,2.12313-1.12964-.0931c-2.01185-.1658-1.8662-.17761-1.93699.157-.10325.48689-.01.56644.8804.74853 .8328.17035.83371.17088.80194.48785-.0295.29432-.22774.56018-1.14734,1.53873l-.28934.30787 .27349.23558c.15043.12955.32346.24852.38453.26436s.45852-.37005.8832-.85754z" fill="#fff"/>
  <path d="m-156.09 367.16-6.6562 69.562-9.25-68.875-1 0.125 9.8438 73.125v0.0937h1v-0.125l7.0312-73.812-0.96875-0.0937z" fill="#bea263"/>
 </g>
</svg>
