<?xml version="1.0" encoding="UTF-8"?>
<!DOCTYPE svg  PUBLIC '-//W3C//DTD SVG 1.1//EN'  'http://www.w3.org/Graphics/SVG/1.1/DTD/svg11.dtd'>
<svg enable-background="new 0 0 44 41.45" version="1.1" viewBox="0 0 44 41.45" xml:space="preserve" xmlns="http://www.w3.org/2000/svg">
<g clip-rule="evenodd" fill-rule="evenodd">
	<linearGradient id="bv" x1="2.6377" x2="39.863" y1="7.7998" y2="7.7998" gradientUnits="userSpaceOnUse">
		<stop stop-color="#B8D63A" offset="0"/>
		<stop stop-color="#A7C740" offset=".4902"/>
		<stop stop-color="#B8D63A" offset=".9333"/>
	</linearGradient>
	<path d="m39.75 8.55l-0.15 0.05-2.15-0.4h-0.6l-2.05-0.25c0.566 0 1.316-0.034 2.25-0.1 0.066-0.033 0.134-0.05 0.2-0.05l-0.85-0.1c0.566 0 1.267-0.034 2.1-0.1l-0.75-0.15c0.634 0 1.384-0.034 2.25-0.1l-0.6-0.1c0.533 0 1.166-0.05 1.899-0.15 0.3 0 0.566-0.017 0.8-0.05 0.035-0.033 0.068-0.05 0.101-0.05l0.149 0.05-0.249 0.15c-0.133 0.167-0.133 0.283 0 0.35l-0.7-0.05c-0.134 0.167-0.117 0.3 0.05 0.4l-0.85-0.05c-0.067 0.133-0.034 0.25 0.1 0.35l-1-0.1v0.1c-0.033 0.1-0.016 0.217 0.05 0.35z" fill="url(#bv)"/>
	<linearGradient id="av" x2="44" y1="8.4746" y2="8.4746" gradientUnits="userSpaceOnUse">
		<stop stop-color="#DC6647" offset="0"/>
		<stop stop-color="#D7541B" offset=".4902"/>
		<stop stop-color="#D86F5A" offset="1"/>
	</linearGradient>
	<path d="m32.85 5.95l9.25 1.1c-0.233 0.034-0.5 0.05-0.8 0.05-0.733 0.1-1.366 0.15-1.899 0.15l0.6 0.1c-0.866 0.066-1.616 0.1-2.25 0.1l0.749 0.15c-0.833 0.066-1.533 0.1-2.1 0.1l0.85 0.1c-0.066 0-0.134 0.017-0.2 0.05-0.934 0.066-1.684 0.1-2.25 0.1l2.05 0.25-1 0.25 1 0.1 0.95-0.25-0.35-0.1 2.15 0.4-1.85 0.5-6.15-0.95c0.2-0.1 0.184-0.167-0.05-0.2-0.166-0.034-0.399-0.034-0.7 0 0-0.034 0.017-0.083 0.051-0.15 0.066-0.233 0.05-0.417-0.051-0.55 0.4-0.133 0.717-0.3 0.95-0.5h0.2c-0.033-0.033-0.066-0.067-0.1-0.1 0.066-0.1 0.133-0.183 0.199-0.25l0.551 0.05c-0.134-0.1-0.134-0.217 0-0.35l0.2-0.15zm9.5 1.1l1.65 0.2-4.25 1.3c-0.066-0.133-0.083-0.25-0.05-0.35v-0.1l1 0.1c-0.134-0.1-0.167-0.217-0.101-0.35l0.851 0.05c-0.167-0.1-0.184-0.233-0.05-0.4l0.7 0.05c-0.133-0.066-0.133-0.183 0-0.35l0.25-0.15zm-9.9-1.15l-0.25 0.05v-0.05h0.25zm-27.8 3.45l0.5 0.05h-0.1l-0.4-0.05zm-0.1 0l-0.5 0.15c-1.3-0.233-2.65-0.467-4.05-0.7 2.618-0.677 4.834-1.244 6.65-1.7h0.025l0.525 0.05-0.85 0.2 0.9 0.1 0.9-0.2 1.8 0.2c-0.133-0.1-0.133-0.233 0-0.4l0.55 0.05c1.333 0.233 2.567 0.45 3.7 0.65v0.15c0.167 0.033 0.35 0.067 0.55 0.1h-0.75l1.45 0.2c-1.967 0.533-4.267 1.167-6.9 1.9v0.05c-1.167-0.167-2.367-0.35-3.6-0.55l0.5-0.1 1.8 0.25c-0.133-0.1-0.133-0.25 0-0.45l0.9 0.1c-0.1-0.1-0.1-0.233 0-0.4l0.8 0.1c-0.133-0.1-0.133-0.233 0-0.4l0.65 0.05c-0.1-0.067-0.067-0.183 0.1-0.35l0.4-0.2h-0.05l-1.05 0.1c-0.7 0.1-1.3 0.15-1.8 0.15l0.5 0.05 0.05 0.05c-0.833 0.067-1.55 0.1-2.15 0.1l0.65 0.1c-0.767 0.067-1.417 0.1-1.95 0.1l0.75 0.15-2.3 0.15 0.95 0.15c0.2 0.033 0.483 0.05 0.85 0.05zm5.45-3.1l-0.4 0.1h-0.05c0.2-0.067 0.4-0.117 0.6-0.15l0.95-0.2-0.85 0.2h-0.1l-0.15 0.05zm13.55-1.35l-0.65 0.05c-0.101 0-0.184 0.017-0.25 0.05 0-0.1 0.017-0.167 0.05-0.2l0.85 0.1zm-1.9 7.1c-0.533-0.1-1.117-0.2-1.75-0.3-1.267-0.233-2.45-0.417-3.55-0.55 1.2-0.467 2.333-0.867 3.4-1.2 0.233 0.1 0.533 0.15 0.9 0.15 1.567 0 2.6-0.05 3.1-0.15 0.267-0.034 0.566-0.1 0.9-0.2h0.3l0.95-0.2 1.5 0.2 5.35 0.8v0.05c-1.233 0.367-2.7 0.75-4.4 1.15-1.733 0.4-2.933 0.667-3.6 0.8-0.5-0.1-1.267-0.233-2.3-0.4l0.899-0.2 1.95 0.25c-0.133-0.133-0.133-0.3 0-0.5l0.95 0.1c-0.134-0.1-0.15-0.216-0.05-0.35l0.801 0.05c-0.134-0.1-0.134-0.233 0-0.4l0.7 0.05c-0.134-0.1-0.117-0.217 0.05-0.35 0.066-0.066 0.184-0.15 0.35-0.25l-1.1 0.15c-0.767 0.066-1.417 0.1-1.95 0.1l0.601 0.1-2.25 0.15 0.699 0.1c-0.8 0.067-1.483 0.1-2.05 0.1l0.8 0.15-2.45 0.15 2 0.25-0.75 0.2zm1.9-6.75c0.2 0.033 0.5 0.15 0.9 0.35h-0.05c-0.1-0.033-0.216-0.067-0.35-0.1-0.166-0.033-0.566-0.05-1.2-0.05l0.05-0.05c0.1-0.033 0.216-0.05 0.35-0.05h0.35c-0.034-0.033-0.05-0.067-0.05-0.1zm5.55 5.25c0.267-0.1 0.267-0.167 0-0.2-0.233-0.033-0.55-0.017-0.949 0.05-0.367 0.066-0.384 0.133-0.051 0.2l0.15-0.05-0.1 0.05c0.234 0.033 0.55 0.017 0.95-0.05zm-11.9-5.85l1.1-0.25c0.1 0 0.2 0.017 0.3 0.05 0.1 0.167 0.233 0.316 0.4 0.45 0.067 0.067 0.15 0.133 0.25 0.2-0.567 0.1-1 0.15-1.3 0.15-0.367 0-0.817-0.033-1.35-0.1 0.2-0.233 0.4-0.4 0.6-0.5zm-6.15 3.5c0.233-0.1 0.233-0.167 0-0.2-0.2-0.034-0.5-0.017-0.9 0.05-0.367 0.067-0.383 0.133-0.05 0.2l0.1-0.05-0.05 0.05c0.4 0 0.7-0.017 0.9-0.05z" fill="url(#av)"/>
		<linearGradient id="bf" x1="16.896" x2="23.051" y1="-30.724" y2="-30.724" gradientTransform="matrix(.2234 .9747 -.9747 .2234 -.00044236 -.00024378)" gradientUnits="userSpaceOnUse">
		<stop stop-color="#9C340B" offset="0"/>
		<stop stop-color="#74240B" offset="1"/>
	</linearGradient>
	<path d="m38.05 9.25l5.95-2v4.9l-1.2 0.5-5.25 2.1v-0.7c0.033-0.7 0.084-1.35 0.15-1.95 0-0.2 0.017-0.4 0.05-0.6 0.033-0.4 0.066-0.783 0.1-1.15l0.2-1.1zm-5.25 1.75l0.2 5.55c-1.866 0.767-4.434 1.867-7.7 3.3h-0.05v-6.75c2.967-0.8 5.483-1.5 7.55-2.1z" fill="url(#bf)"/>
	<path d="m41.35 17.95c0.233-0.067 0.351 0.083 0.351 0.45s-0.117 0.6-0.351 0.7v-0.05l-0.05-0.1v0.15c-0.066 0.066-0.149 0.05-0.25-0.05-0.066-0.1-0.1-0.216-0.1-0.35 0-0.367 0.133-0.617 0.4-0.75zm-14.65 6.15c0.267-0.133 0.399 0.017 0.399 0.45 0 0.334-0.133 0.601-0.399 0.8v-0.05l-0.05-0.149v0.199c-0.233 0.067-0.35-0.083-0.35-0.45 0-0.4 0.134-0.667 0.4-0.8zm11 5.1v-1.2c0-0.033 0.017-0.05 0.05-0.05 0.267-0.134 0.4 0.017 0.4 0.45 0 0.366-0.134 0.616-0.4 0.75l-0.05 0.05zm-7.3 2.1c0.233-0.1 0.35 0.05 0.35 0.45s-0.134 0.65-0.4 0.75v0.05c-0.267 0.066-0.399-0.083-0.399-0.45 0.066-0.433 0.216-0.7 0.449-0.8z" fill="#9E8838"/>
		<linearGradient id="bg" x1="16.741" x2="36.091" y1="-34.173" y2="-34.173" gradientTransform="matrix(5.168e-5 1 -1 -.001 .00034974 -.0001029)" gradientUnits="userSpaceOnUse">
		<stop stop-color="#9C340B" offset="0"/>
		<stop stop-color="#74240B" offset="1"/>
	</linearGradient>
	<path d="m42.85 24.65v8.5l-2.95 1.7c-0.667 0.367-1.267 0.7-1.801 1v-0.55c0.2 0 0.4-0.05 0.601-0.149l0.9-0.551c-0.3-0.166-0.616-0.5-0.949-1l0.699-0.4c-0.267-0.134-0.55-0.417-0.85-0.851l0.6-0.349c-0.3-0.134-0.583-0.45-0.85-0.95l0.5-0.25c-0.267-0.133-0.5-0.416-0.7-0.85-0.133-0.2-0.233-0.467-0.3-0.8v0.05c0 0.033-0.017 0.083-0.05 0.149v-0.149l0.05-0.05c0.267-0.134 0.4-0.384 0.4-0.75 0-0.434-0.134-0.584-0.4-0.45-0.033 0-0.05 0.017-0.05 0.05-0.066-3.467-0.117-6.316-0.15-8.55l0.65-0.3v-1.15c0.267 0 0.467-0.033 0.6-0.1l0.9-0.45c-0.3-0.2-0.617-0.55-0.95-1.05l0.65-0.35c-0.233-0.133-0.483-0.383-0.75-0.75l4.1-1.75 0.05-0.9-0.05 6.25c0.033 0.7 0.066 2.083 0.1 4.15-0.267-0.133-0.517-0.399-0.75-0.8l0.551-0.3c-0.267-0.167-0.551-0.483-0.851-0.95h0.05l0.45-0.25c-0.233-0.133-0.467-0.417-0.7-0.85l-0.25-0.75v-0.05h-0.05v0.05c0 0.1-0.083 0.434-0.25 1-0.233 0.6-0.467 1.083-0.7 1.45l0.45-0.149 0.05-0.05c-0.3 0.733-0.583 1.3-0.85 1.699l0.55-0.199c-0.267 0.666-0.533 1.183-0.8 1.55l0.65-0.2c-0.334 0.8-0.65 1.417-0.95 1.85 0.233-0.033 0.533-0.133 0.899-0.3l0.601-0.401v1.149l0.75-0.35v-1.099l0.6-0.149 0.55-0.301zm0-0.4l-0.649-0.8 0.649-0.3v1.1zm-6.25 12.35c0.134-0.066 0.284-0.149 0.45-0.25l0.3-0.199v0.1c-0.267 0.133-0.517 0.249-0.75 0.349zm-3.4-7.6v0.25c-0.101 2.934-0.15 5.917-0.15 8.95-0.866 0.366-1.934 0.85-3.2 1.45-1.133 0.533-2.399 1.133-3.8 1.8-0.133-2.967-0.233-5.55-0.3-7.75v-0.601c-0.033-0.166-0.05-0.333-0.05-0.5v-0.25l0.45-0.3v1.2l0.8-0.35 0.05-1.249 0.65-0.15 0.949-0.55c-0.333-0.167-0.666-0.517-1-1.05l0.75-0.4c-0.3-0.134-0.6-0.417-0.899-0.85l0.65-0.35c-0.3-0.166-0.6-0.5-0.899-1l0.55-0.25c-0.3-0.133-0.566-0.434-0.8-0.899l-0.251-0.801h-0.05c0 0.2-0.101 0.551-0.301 1.051-0.267 0.566-0.517 1.066-0.75 1.5-0.033-0.867-0.05-1.567-0.05-2.101l-0.05-4.95 4.1-1.75c-0.267 0.533-0.517 0.95-0.75 1.25 0.167 0 0.417-0.067 0.75-0.2-0.066 0.133-0.116 0.267-0.149 0.4-0.334 0.634-0.65 1.134-0.95 1.5 0.267-0.033 0.583-0.133 0.95-0.3l0.7-0.4-0.051 1.2 0.801-0.35v-1.15l0.649-0.15 0.95-0.5c-0.333-0.167-0.667-0.517-1-1.05l0.701-0.35c-0.233-0.133-0.467-0.367-0.7-0.7l1.55-0.65v0.6c0.101 2.5 0.167 4.616 0.2 6.35-0.034 0.035-0.067 0.068-0.1 0.101h0.1v0.75c-0.167 0.3-0.333 0.566-0.5 0.8 0.134 0 0.3-0.033 0.5-0.1v0.149c-0.267 0.566-0.517 1.017-0.75 1.351l0.7-0.2c-0.367 0.833-0.7 1.467-1 1.899 0.233-0.033 0.533-0.133 0.899-0.3 0.035 0 0.068-0.017 0.101-0.05zm8.15-11.05c-0.267 0.133-0.399 0.383-0.399 0.75 0 0.133 0.033 0.25 0.1 0.35 0.101 0.1 0.184 0.117 0.25 0.05v-0.15l0.05 0.1v0.05c0.233-0.1 0.351-0.333 0.351-0.7s-0.119-0.517-0.352-0.45zm-14.65 6.15c-0.267 0.134-0.4 0.4-0.4 0.801 0 0.366 0.117 0.517 0.351 0.449v-0.2l0.049 0.15v0.05c0.267-0.199 0.399-0.466 0.399-0.8 1e-3 -0.434-0.132-0.583-0.399-0.45zm3.2 15.15l-0.051 0.4 0.801-0.4 0.05-0.4 0.65-0.15 0.9-0.55c-0.3-0.167-0.634-0.517-1-1.051l0.75-0.449c-0.267-0.134-0.55-0.4-0.85-0.801l0.6-0.399c-0.3-0.134-0.6-0.45-0.9-0.95h0.05l0.5-0.3c-0.267-0.134-0.517-0.417-0.75-0.851-0.067-0.1-0.167-0.366-0.301-0.8-0.133 0.533-0.233 0.884-0.3 1.05-0.267 0.7-0.533 1.233-0.8 1.601l0.5-0.2h0.05c-0.333 0.8-0.649 1.417-0.95 1.85l0.601-0.25c-0.3 0.733-0.601 1.301-0.9 1.7 0.2-0.033 0.45-0.116 0.75-0.25-0.366 0.867-0.717 1.533-1.05 2 0.233-0.033 0.55-0.149 0.95-0.35 0.133-0.066 0.366-0.217 0.7-0.45zm0.5-7.95c-0.233 0.101-0.384 0.367-0.45 0.8 0 0.367 0.133 0.517 0.399 0.45v-0.05c0.267-0.1 0.4-0.35 0.4-0.75s-0.115-0.55-0.349-0.45zm-4.8-2.7v-0.6l0.45-0.2h0.05l-0.5 1.05v-0.25zm0.05 1.05c-0.034-0.067-0.034-0.134 0-0.2l0.1-0.05-0.1 0.25z" fill="url(#bg)"/>
	<path d="m38.65 15.3l-1.101 0.45c-0.033-0.367-0.033-0.7 0-1l5.25-2.1-0.05 0.9-4.099 1.75zm-5.65 1.25l0.05 1.1-1.55 0.65-1.9 0.8-4.1 1.75-0.15 0.05-1-1.25 0.9 0.2h0.05c3.266-1.433 5.834-2.533 7.7-3.3z" fill="#591F07"/>
		<linearGradient id="bh" x1="16.334" x2="36.384" y1="-41.148" y2="-41.148" gradientTransform="matrix(4.9875e-5 1 -1 -.001 .00025478 -.00010195)" gradientUnits="userSpaceOnUse">
		<stop stop-color="#76882B" offset="0"/>
		<stop stop-color="#526321" offset="1"/>
	</linearGradient>
	<path d="m42.85 23.15l-0.649 0.3 0.649 0.8v0.4l-0.55 0.3-0.6 0.15-0.4-0.05-0.35 0.35-0.6 0.4c-0.366 0.167-0.666 0.267-0.899 0.3 0.3-0.433 0.616-1.05 0.95-1.85l-0.65 0.2c0.267-0.367 0.533-0.884 0.8-1.55l-0.551 0.2c0.267-0.399 0.55-0.966 0.85-1.699l-0.05 0.05-0.45 0.149c0.233-0.366 0.467-0.85 0.7-1.45 0.167-0.566 0.25-0.9 0.25-1v-0.05h0.05v0.05l0.25 0.75c0.233 0.434 0.467 0.717 0.7 0.85l-0.45 0.25h-0.05c0.3 0.467 0.584 0.783 0.851 0.95l-0.551 0.3c0.233 0.4 0.483 0.667 0.75 0.8v0.1z" fill="url(#bh)"/>
	<path d="m37.45 8.2l0.35 0.1-0.95 0.25-1-0.1 1-0.25h0.6zm0.65 27.1v0.55l-0.75 0.4v-0.1l0.5-0.351v-0.5h0.25zm3.6-10.2v1.1l-0.75 0.35v-1.15l0.35-0.351 0.4 0.051zm-16.4-15.65l0.5 0.05 0.1 0.05-0.95 0.2h-0.3c0.133-0.067 0.267-0.133 0.399-0.2 0.101-0.033 0.184-0.067 0.251-0.1zm-2.9 2.35h0.649l0.3 0.15-0.899 0.2c-0.267-0.066-0.534-0.117-0.8-0.15l0.75-0.2zm-0.05 11.75l-0.05 1.1-1-0.2 0.05-1.101 0.5-0.1 0.45 0.25 0.05 0.051zm8.55-2.5v1.15l-0.8 0.35 0.051-1.2 0.349-0.35 0.4 0.05zm7.3-3.05v1.15l-0.65 0.3v-1.2l0.3-0.25h0.35zm-31-10.85h0.65l0.3 0.1-0.9 0.2-0.9-0.1 0.85-0.2zm-2.65 2.2h0.1l0.4 0.05h0.1l0.3 0.1-0.5 0.1c-0.3-0.033-0.6-0.067-0.9-0.1l0.5-0.15zm0.1 11.05l-0.05 1.1-0.85-0.2 0.05-1.05c0.2 0 0.333-0.033 0.4-0.1l0.45 0.25zm4.05 8.8l-0.05 1.05-0.85-0.15v-1.05l0.45-0.1 0.45 0.25zm8.8 1.75l-0.05 1.1-0.9-0.2 0.05-1.1 0.45-0.1c0.133 0.133 0.283 0.234 0.45 0.3zm-13.15 5.15l-0.05 0.55-0.85-0.25v-0.5l0.45-0.05 0.4 0.25h0.05zm17.5 3.85l-0.05 0.55-0.95-0.2 0.05-0.55 0.45-0.1 0.5 0.3zm8.85-1.1l-0.05 0.4-0.801 0.4 0.051-0.4 0.35-0.4h0.45zm-3.7-7.2l-0.05 1.25-0.8 0.35v-1.2l0.399-0.399h0.451zm-1.25 1.45v0.601h-0.05l0.05-0.601z" fill="#904C0B"/>
		<linearGradient id="bi" x1="8.8022" x2="22.932" y1="14.639" y2="14.639" gradientTransform="matrix(.936 -.3521 .3521 .936 -.00031698 -4.6253e-5)" gradientUnits="userSpaceOnUse">
		<stop stop-color="#FFDB5E" offset="0"/>
		<stop stop-color="#FFD84A" offset=".4902"/>
		<stop stop-color="#D4A911" offset=".9804"/>
	</linearGradient>
	<path d="m32.2 5.85v-0.05h0.05l-0.05 0.05zm-7.05 0.1c0.366 0.133 0.666 0.267 0.899 0.4-0.2-0.033-0.383-0.05-0.55-0.05-0.099-0.133-0.216-0.25-0.349-0.35zm-16.6 4.15c2.633-0.733 4.934-1.367 6.9-1.9 0.167-0.067 0.333-0.117 0.5-0.15 0.066 0 0.133-0.017 0.2-0.05 0.2 0 0.417-0.017 0.65-0.05 0.534-0.067 0.983-0.1 1.35-0.1-0.066 0.267-0.05 0.533 0.05 0.8 0.133 0.4 0.483 0.684 1.05 0.85 0.067 0.2 0.233 0.35 0.5 0.45-1.067 0.333-2.2 0.733-3.4 1.2-0.1 0-0.184 0.017-0.25 0.05l-0.7-0.1c-0.367-0.067-0.967-0.15-1.8-0.25-0.267-0.067-0.567-0.117-0.9-0.15-0.233-0.034-0.483-0.067-0.75-0.1l-3.4-0.5z" fill="url(#bi)"/>
		<linearGradient id="bj" x1="4.3013" x2="7.8521" y1="-27.256" y2="-27.256" gradientTransform="matrix(.0211 .9998 -.9998 .0211 .00032874 .00029627)" gradientUnits="userSpaceOnUse">
		<stop stop-color="#D9AE11" offset="0"/>
		<stop stop-color="#FFD84A" offset=".4902"/>
		<stop stop-color="#D4A911" offset=".7804"/>
		<stop stop-color="#B8920E" offset="1"/>
	</linearGradient>
	<path d="m25.15 4.4c-0.2 0.1-0.434 0.233-0.7 0.4-0.101 0.067-0.184 0.117-0.25 0.15-0.267 0.133-0.483 0.233-0.65 0.3h-0.05c-0.1 0.033-0.184 0.067-0.25 0.1-0.134 0-0.25 0.017-0.35 0.05-0.101 0-0.217 0.017-0.351 0.05l0.75-0.3 0.45-0.2c0.033-0.034 0.066-0.05 0.1-0.05 0.168-0.167 0.351-0.317 0.551-0.45 0.399-0.3 0.767-0.5 1.1-0.6 0.8-0.3 1.816-0.417 3.05-0.35 2.033 0.2 3.184 0.617 3.45 1.25 0.167 0.367 0.233 0.717 0.2 1.05v0.15c0 0.133-0.033 0.283-0.101 0.45-0.066 0.067-0.133 0.15-0.199 0.25-0.034 0.033-0.067 0.067-0.101 0.1-0.233 0.2-0.55 0.367-0.95 0.5-0.299 0.067-0.649 0.117-1.049 0.15-2.2 0.2-3.283-0.033-3.25-0.7 0.101 0 0.2 0.017 0.3 0.05h1c0.334-0.033 0.584-0.117 0.75-0.25 0.067-0.1 0.117-0.2 0.15-0.3 0.1-0.233 0.116-0.567 0.05-1-0.033-0.333-0.1-0.583-0.2-0.75-0.066-0.067-0.116-0.117-0.149-0.15-0.5-0.533-1.517-0.533-3.05 0-0.068 0.033-0.151 0.067-0.251 0.1z" fill="url(#bj)"/>
	<linearGradient id="bk" x1="2.6377" x2="39.863" y1="6.2998" y2="6.2998" gradientUnits="userSpaceOnUse">
		<stop stop-color="#B8D63A" offset="0"/>
		<stop stop-color="#A7C740" offset=".4902"/>
		<stop stop-color="#B8D63A" offset=".9333"/>
	</linearGradient>
	<path d="m32.45 5.9l0.55-0.05-0.15 0.1-0.2 0.15c-0.134 0.133-0.134 0.25 0 0.35l-0.55-0.05c0.067-0.167 0.1-0.317 0.1-0.45l0.25-0.05zm-0.55 0.75c0.033 0.033 0.066 0.067 0.1 0.1h-0.2c0.033-0.033 0.066-0.067 0.1-0.1z" fill="url(#bk)"/>
	<path d="m30.85 7.95c0.301-0.034 0.534-0.034 0.7 0 0.233 0.033 0.25 0.1 0.05 0.2h-0.05l-0.75-0.1c0-0.033 0.016-0.067 0.05-0.1zm-1.75 2.55c-0.399 0.067-0.716 0.083-0.949 0.05l0.1-0.05-0.15 0.05c-0.333-0.066-0.316-0.133 0.051-0.2 0.399-0.067 0.716-0.083 0.949-0.05 0.265 0.033 0.265 0.1-1e-3 0.2zm-18.05-2.35c-0.2 0.033-0.5 0.05-0.9 0.05l0.05-0.05-0.1 0.05c-0.333-0.067-0.317-0.133 0.05-0.2 0.4-0.067 0.7-0.083 0.9-0.05 0.233 0.033 0.233 0.1 0 0.2zm-3.1 14.6c0-0.366 0.15-0.517 0.45-0.45 0.3 0 0.45 0.2 0.45 0.601 0 0.333-0.15 0.5-0.45 0.5v-0.051c-0.3-0.067-0.45-0.267-0.45-0.6zm8.8 1.6c0-0.399 0.167-0.566 0.5-0.5 0.3 0.067 0.45 0.284 0.45 0.65-0.067 0.366-0.233 0.517-0.5 0.45-0.3-0.066-0.45-0.266-0.45-0.6zm-12.75 4.95c0.3 0.066 0.45 0.267 0.45 0.601 0 0.366-0.15 0.517-0.45 0.449-0.333-0.066-0.467-0.267-0.4-0.6 0-0.366 0.133-0.517 0.4-0.45zm17.05 4c0.067-0.399 0.233-0.566 0.5-0.5 0.333 0.101 0.5 0.334 0.5 0.7s-0.167 0.517-0.5 0.45v-0.15l-0.05 0.15c-0.3-0.066-0.45-0.283-0.45-0.65z" fill="#F2D156"/>
		<linearGradient id="bx" x1="13.494" x2="35.329" y1="3.6138" y2="3.6138" gradientTransform="matrix(.9835 .1809 -.1809 .9835 -.00023639 -3.2842e-5)" gradientUnits="userSpaceOnUse">
		<stop stop-color="#FFDB5E" offset="0"/>
		<stop stop-color="#FFD84A" offset=".4902"/>
		<stop stop-color="#D4A911" offset=".7804"/>
		<stop stop-color="#B8920E" offset="1"/>
	</linearGradient>
	<path d="m10.5 7.1c-0.733-0.133-1.5-0.267-2.3-0.4l0.65-0.15h0.05l0.7-0.2 0.4-0.1 0.25-0.05 0.85-0.2 0.3-0.05 1.55-0.4v0.15c0.1 0.5 0.383 0.9 0.85 1.2 0.167 0.1 0.417 0.184 0.75 0.25-0.066 0.067-0.117 0.133-0.15 0.2-0.133 0.133-0.2 0.267-0.2 0.4-1.133-0.2-2.367-0.417-3.7-0.65zm22.25 3.45l-5.35-0.8-1.6-0.25-0.5-0.05c0-0.034 0.017-0.05 0.05-0.05 0.367-0.2 0.65-0.35 0.85-0.45 0.133-0.034 1-0.083 2.6-0.15 0.233 0 0.45-0.017 0.65-0.05 0.033-0.033 0.066-0.05 0.1-0.05 0.2-0.034 0.384-0.083 0.55-0.15 0.233-0.1 0.417-0.216 0.551-0.35 0.033 0 0.05-0.017 0.05-0.05l0.1-0.1 0.75 0.1h0.05l6.15 0.95c-1.5 0.533-2.967 1-4.4 1.4-0.334 0.067-0.535 0.083-0.601 0.05zm-16.8-3.85v-0.15l0.15 0.15h-0.15zm0 1.35h-0.2c0.1-0.033 0.233-0.05 0.4-0.05-0.067 0.033-0.133 0.05-0.2 0.05z" fill="url(#bx)"/>
	<path d="m30.8 8.05c-0.033 0.034-0.066 0.067-0.1 0.1 0 0.033-0.017 0.05-0.05 0.05-0.134 0.133-0.317 0.25-0.551 0.35-0.166 0.067-0.35 0.117-0.55 0.15-0.033 0-0.066 0.017-0.1 0.05-0.2 0.033-0.417 0.05-0.65 0.05-1.6 0.067-2.467 0.117-2.6 0.15-0.199 0.1-0.482 0.25-0.849 0.45-0.033 0-0.05 0.017-0.05 0.05-0.066 0.033-0.149 0.066-0.25 0.1-0.133 0.067-0.267 0.133-0.399 0.2-0.334 0.1-0.634 0.167-0.9 0.2-0.5 0.1-1.533 0.15-3.1 0.15-0.367 0-0.667-0.05-0.9-0.15-0.267-0.1-0.433-0.25-0.5-0.45 0.367 0.1 0.867 0.15 1.5 0.15 0.933 0 1.967-0.133 3.1-0.4 0.733-0.167 1.284-0.45 1.65-0.85 0.434-0.467 0.517-1.033 0.25-1.7-0.066-0.167-0.15-0.3-0.25-0.4 0.167 0 0.35 0.017 0.55 0.05h0.101c0.267 0.133 0.5 0.267 0.699 0.4-0.1-0.033-0.199-0.05-0.3-0.05-0.033 0.667 1.05 0.9 3.25 0.7 0.4-0.033 0.75-0.083 1.05-0.15 0.099 0.133 0.116 0.317 0.049 0.55-0.034 0.067-0.051 0.117-0.051 0.15-0.033 0.033-0.049 0.067-0.049 0.1zm-15.05 0c-0.367 0-0.7-0.017-1-0.05-0.2-0.033-0.383-0.067-0.55-0.1v-0.15c0-0.133 0.066-0.267 0.2-0.4 0.033-0.067 0.083-0.133 0.15-0.2 0.467 0.1 1.083 0.15 1.85 0.15-0.267-0.133-0.417-0.333-0.45-0.6h0.15l0.3 0.4c0.633 0.1 1.4 0.05 2.3-0.15-0.3 0.3-0.483 0.6-0.55 0.9-0.367 0-0.816 0.033-1.35 0.1-0.233 0.033-0.45 0.05-0.65 0.05-0.167 0-0.3 0.017-0.4 0.05z" fill="#5E4B07"/>
		<linearGradient id="bl" x1="11.887" x2="36.04" y1="-35.252" y2="-35.252" gradientTransform="matrix(.0145 .9999 -.9999 .0145 .00020606 .00016149)" gradientUnits="userSpaceOnUse">
		<stop stop-color="#D9AE11" offset="0"/>
		<stop stop-color="#FFD84A" offset=".4902"/>
		<stop stop-color="#D4A911" offset=".7804"/>
		<stop stop-color="#B8920E" offset="1"/>
	</linearGradient>
	<path d="m37.55 19.45c0.033 2.233 0.084 5.083 0.15 8.55v1.349c0.033 1.834 0.083 3.817 0.149 5.95v0.5l-0.5 0.351-0.3 0.199c-0.166 0.101-0.316 0.184-0.45 0.25-0.433 0.233-0.816 0.417-1.149 0.551-0.566 0.233-1.15 0.5-1.75 0.8-0.101 0.033-0.2 0.083-0.3 0.149l-0.1 0.051v-0.1l0.2-1.399-0.35-21.351c0-0.267 0.017-0.517 0.05-0.75v-1.75c0-1.033-0.134-1.65-0.4-1.85l-0.05-0.3 0.6-0.15c1.967-0.3 3.534-0.75 4.7-1.35v0.1l-0.2 1.1c-0.033 0.367-0.066 0.75-0.1 1.15-0.033 0.2-0.05 0.4-0.05 0.6-0.066 0.6-0.117 1.25-0.15 1.95v0.7c-0.033 0.3-0.033 0.633 0 1-0.033 0.7-0.033 1.533 0 2.5v1.2z" fill="url(#bl)"/>
	<path d="m33 16.55l-0.2-5.55-0.05-0.35v-0.1c0.066 0.034 0.267 0.017 0.6-0.05l-0.6 0.15 0.05 0.3c0.267 0.2 0.4 0.816 0.4 1.85v1.75c-0.033 0.233-0.05 0.483-0.05 0.75l0.35 21.35-0.2 1.399v0.101c-0.066 0.033-0.149 0.066-0.25 0.1v-0.05c0-3.033 0.05-6.017 0.15-8.95v-0.25c0.033-0.7 0.05-1.6 0.05-2.7v-1.599c-0.032-0.032-0.032-0.065 0-0.101-0.033-1.733-0.1-3.85-0.2-6.35v-0.6l-0.05-1.1zm0.35-6.05c1.434-0.4 2.9-0.867 4.4-1.4l0.3 0.05c-1.166 0.6-2.734 1.05-4.7 1.35z" fill="#EEC221"/>
	<path d="m44 7.25l-5.95 2v-0.1l-0.3-0.05 1.85-0.5 0.15-0.05 4.25-1.3zm-27.65 3.9c1.1 0.133 2.283 0.317 3.55 0.55 0.633 0.1 1.217 0.2 1.75 0.3 0.267 0.033 0.534 0.083 0.8 0.15 1.033 0.167 1.8 0.3 2.3 0.4 0.667-0.133 1.866-0.4 3.6-0.8 1.7-0.4 3.167-0.783 4.4-1.15v0.05l0.05 0.35c-2.066 0.6-4.583 1.3-7.55 2.1v6.75l-0.75-5.8-0.05-0.1c-0.033-0.4-0.101-0.7-0.2-0.9l-3.9-0.75c-1.533-0.3-2.95-0.55-4.25-0.75v-0.35c0.067-0.033 0.15-0.05 0.25-0.05zm-16.35-2.35c1.4 0.233 2.75 0.467 4.05 0.7 0.3 0.033 0.6 0.067 0.9 0.1 1.233 0.2 2.433 0.383 3.6 0.55l0.05 0.35c-1.6-0.233-3.267-0.533-5-0.9-0.533-0.1-1.067-0.217-1.6-0.35l-0.55-0.1c-0.5-0.133-0.983-0.25-1.45-0.35z" fill="#FF6E47"/>
	<linearGradient id="bm" x1="23.338" x2="30.463" y1="5.5752" y2="5.5752" gradientUnits="userSpaceOnUse">
		<stop stop-color="#756321" offset="0"/>
		<stop stop-color="#D4A911" offset=".7804"/>
		<stop stop-color="#B8920E" offset="1"/>
	</linearGradient>
	<path d="m23.3 5.15v-0.2c0.167 0.033 0.334 0.017 0.5-0.05 0.033-0.033 0.066-0.066 0.101-0.1 0.199-0.2 0.366-0.316 0.5-0.35-0.2 0.133-0.384 0.283-0.551 0.45-0.033 0-0.066 0.017-0.1 0.05l-0.45 0.2zm2.75 1.2c-0.233-0.133-0.533-0.267-0.899-0.4-0.2-0.167-0.434-0.284-0.7-0.35-0.4-0.2-0.7-0.317-0.9-0.35 0.167-0.067 0.384-0.167 0.65-0.3 0.066-0.034 0.149-0.083 0.25-0.15 0.267-0.167 0.5-0.3 0.7-0.4 0.133 0 0.283 0.017 0.449 0.05 0.5 0.133 0.867 0.216 1.101 0.25 0.399 0.1 0.783 0.1 1.149 0 0.267-0.1 0.517-0.184 0.75-0.25 0.101 0.167 0.167 0.417 0.2 0.75 0.066 0.433 0.05 0.767-0.05 1-0.033 0.1-0.083 0.2-0.15 0.3-0.166 0.133-0.416 0.217-0.75 0.25h-1c-0.199-0.133-0.433-0.267-0.699-0.4h-0.101z" fill="url(#bm)"/>
		<linearGradient id="bn" x1="5.8105" x2="9.8112" y1="-21.856" y2="-21.856" gradientTransform="matrix(.0187 .9998 -.9998 .0187 .00017146 7.6205e-5)" gradientUnits="userSpaceOnUse">
		<stop stop-color="#D9AE11" offset="0"/>
		<stop stop-color="#FFD84A" offset=".4902"/>
		<stop stop-color="#D4A911" offset=".7804"/>
		<stop stop-color="#B8920E" offset="1"/>
	</linearGradient>
	<path d="m22.1 5.45h0.75c0.634 0 1.034 0.017 1.2 0.05 0.134 0.033 0.25 0.067 0.351 0.1h0.05c0.267 0.066 0.5 0.183 0.7 0.35 0.133 0.1 0.25 0.216 0.35 0.35 0.1 0.1 0.184 0.233 0.25 0.4 0.267 0.667 0.184 1.233-0.25 1.7-0.366 0.4-0.917 0.684-1.65 0.85-1.133 0.267-2.167 0.4-3.1 0.4-0.633 0-1.133-0.05-1.5-0.15-0.567-0.167-0.917-0.45-1.05-0.85-0.1-0.267-0.117-0.533-0.05-0.8 0.067-0.3 0.25-0.6 0.55-0.9 0.167-0.233 0.383-0.45 0.65-0.65 0.433-0.333 0.883-0.583 1.35-0.75 0.2-0.1 0.4-0.167 0.6-0.2 0.133-0.067 0.284-0.117 0.45-0.15 0.1-0.034 0.217-0.05 0.35-0.05l-0.2 0.2-0.1 0.1h0.299z" fill="url(#bn)"/>
	<linearGradient id="bo" x1="18.163" x2="22.638" y1="3.6499" y2="3.6499" gradientUnits="userSpaceOnUse">
		<stop stop-color="#756321" offset="0"/>
		<stop stop-color="#D4A911" offset=".7804"/>
		<stop stop-color="#B8920E" offset="1"/>
	</linearGradient>
	<path d="m18.75 1.8c0 0.5 0.25 1.05 0.75 1.65 0.3 0.367 0.633 0.7 1 1-0.567-0.133-1.283-0.3-2.15-0.5-0.067-0.2-0.117-0.4-0.15-0.6-0.167-0.7-0.034-1.233 0.4-1.6l0.15 0.05zm1.95 3.75c-0.333-0.033-0.617-0.083-0.85-0.15-0.233-0.1-0.434-0.2-0.6-0.3-0.1-0.067-0.183-0.133-0.25-0.2-0.167-0.133-0.3-0.283-0.4-0.45 0.4 0.033 0.85 0.167 1.35 0.4 0.5 0.2 0.95 0.367 1.35 0.5-0.2 0.033-0.4 0.1-0.6 0.2z" fill="url(#bo)"/>
		<linearGradient id="bp" x1=".7251" x2="5.8011" y1="-20.945" y2="-20.945" gradientTransform="matrix(.0197 .9998 -.9998 .0197 1.2875e-5 -.00026178)" gradientUnits="userSpaceOnUse">
		<stop stop-color="#D9AE11" offset="0"/>
		<stop stop-color="#FFD84A" offset=".4902"/>
		<stop stop-color="#D4A911" offset=".7804"/>
		<stop stop-color="#B8920E" offset="1"/>
	</linearGradient>
	<path d="m20.5 4.45c-0.367-0.3-0.7-0.633-1-1-0.5-0.6-0.75-1.15-0.75-1.65-0.033-0.133-0.033-0.25 0-0.35 0.1-0.467 0.467-0.85 1.1-1.15 0.633-0.267 1.233-0.35 1.8-0.25 1.234 0.2 1.75 1 1.55 2.4-0.066 0.6-0.233 1.383-0.5 2.35-0.033 0.034-0.05 0.1-0.05 0.2-0.067 0.133-0.117 0.283-0.15 0.45h-0.4l-0.2-0.1 0.2-0.2c-0.133 0-0.25 0.017-0.35 0.05l-0.45-0.25c-0.267-0.167-0.533-0.333-0.8-0.5z" fill="url(#bp)"/>
		<linearGradient id="bq" x1="4.0059" x2="7.4567" y1="-17.394" y2="-17.394" gradientTransform="matrix(.0217 .9998 -.9998 .0217 .00013911 -.00019636)" gradientUnits="userSpaceOnUse">
		<stop stop-color="#D9AE11" offset="0"/>
		<stop stop-color="#FFD84A" offset=".4902"/>
		<stop stop-color="#D4A911" offset=".7804"/>
		<stop stop-color="#B8920E" offset="1"/>
	</linearGradient>
	<path d="m21.3 5.35c-0.4-0.133-0.85-0.3-1.35-0.5-0.5-0.233-0.95-0.367-1.35-0.4-0.1-0.034-0.2-0.05-0.3-0.05-0.267-0.033-0.5-0.017-0.7 0.05-0.133 0.033-0.267 0.1-0.4 0.2-0.2 0.1-0.4 0.267-0.6 0.5-0.133 0.167-0.267 0.367-0.4 0.6-0.167 0.3-0.25 0.567-0.25 0.8v0.15c0.033 0.267 0.183 0.466 0.45 0.6-0.767 0-1.383-0.05-1.85-0.15-0.333-0.067-0.583-0.15-0.75-0.25-0.466-0.3-0.75-0.7-0.85-1.2v-0.15c-0.067-0.433 0.05-0.833 0.35-1.2 0.7-0.867 2.117-1.067 4.25-0.6 0.267 0.067 0.534 0.133 0.8 0.2 0.867 0.2 1.583 0.367 2.15 0.5 0.267 0.167 0.533 0.333 0.8 0.5l0.45 0.25c-0.167 0.033-0.317 0.083-0.45 0.15zm0.8 0.1h-0.3l0.1-0.1 0.2 0.1z" fill="url(#bq)"/>
	<linearGradient id="br" x1="2.6377" x2="39.863" y1="5.1504" y2="5.1504" gradientUnits="userSpaceOnUse">
		<stop stop-color="#B8D63A" offset="0"/>
		<stop stop-color="#A7C740" offset=".4902"/>
		<stop stop-color="#B8D63A" offset=".9333"/>
	</linearGradient>
	<path d="m22.9 5.4l-0.05 0.05h-0.35c0.033-0.167 0.083-0.317 0.15-0.45 0.066-0.033 0.149-0.05 0.25-0.05l0.65-0.05 0.101-0.05 0.149 0.05c-0.166 0.067-0.333 0.083-0.5 0.05v0.2l-0.75 0.3c0.134-0.033 0.25-0.05 0.35-0.05zm0.65-0.15c0 0.033 0.017 0.067 0.05 0.1h-0.35c0.066-0.033 0.15-0.067 0.25-0.1h0.05z" fill="url(#br)"/>
	<linearGradient id="bs" x1="2.6377" x2="39.863" y1="11.375" y2="11.375" gradientUnits="userSpaceOnUse">
		<stop stop-color="#B8D63A" offset="0"/>
		<stop stop-color="#A7C740" offset=".4902"/>
		<stop stop-color="#B8D63A" offset=".9333"/>
	</linearGradient>
	<path d="m22.4 11.8l-2-0.25 2.45-0.15-0.8-0.15c0.566 0 1.25-0.033 2.05-0.1l-0.699-0.1 2.25-0.15-0.601-0.1c0.533 0 1.184-0.033 1.95-0.1l1.1-0.15c-0.166 0.1-0.283 0.184-0.35 0.25-0.167 0.133-0.184 0.25-0.05 0.35l-0.7-0.05c-0.134 0.167-0.134 0.3 0 0.4l-0.8-0.05c-0.101 0.133-0.084 0.25 0.05 0.35l-0.95-0.1c-0.133 0.2-0.133 0.367 0 0.5l-1.95-0.25-0.3-0.15h-0.65z" fill="url(#bs)"/>
	<linearGradient id="bt" x1="2.6377" x2="39.863" y1="9.625" y2="9.625" gradientUnits="userSpaceOnUse">
		<stop stop-color="#B8D63A" offset="0"/>
		<stop stop-color="#A7C740" offset=".4902"/>
		<stop stop-color="#B8D63A" offset=".9333"/>
	</linearGradient>
	<polygon points="25.8 9.5 27.4 9.75 25.9 9.55" fill="url(#bt)"/>
		<linearGradient id="bu" x1="10.134" x2="15.784" y1="-13.902" y2="-13.902" gradientTransform="matrix(-.0929 .9957 -.9957 -.0929 -.00089148 -9.4451e-5)" gradientUnits="userSpaceOnUse">
		<stop stop-color="#DD5C29" offset="0"/>
		<stop stop-color="#BB491C" offset="1"/>
	</linearGradient>
	<path d="m16.1 11.55c1.3 0.2 2.717 0.45 4.25 0.75l3.9 0.75c0.1 0.2 0.167 0.5 0.2 0.9l0.05 0.1 0.75 5.8-0.9-0.2-3.75-0.85c-1.833-0.4-3.367-0.716-4.6-0.95l0.1-6.3zm-7.5-1.05l0.25 5.95c-1.733-0.4-3.883-0.917-6.45-1.55-0.6-0.133-1.217-0.283-1.85-0.45l-0.55-5.65c0.467 0.1 0.95 0.217 1.45 0.35l0.55 0.1c0.533 0.133 1.067 0.25 1.6 0.35 1.733 0.367 3.4 0.667 5 0.9z" fill="url(#bu)"/>
		<linearGradient id="bw" x1="18.782" x2="39.574" y1="-20.872" y2="-20.872" gradientTransform="matrix(.0409 .9992 -.9992 .0409 -.00032438 -.000129)" gradientUnits="userSpaceOnUse">
		<stop stop-color="#B0CC33" offset="0"/>
		<stop stop-color="#809436" offset="1"/>
	</linearGradient>
	<path d="m22.35 23.55l-0.05-0.05-0.45-0.25-0.5 0.1c-0.2 0.067-0.467 0.067-0.8 0l-1.15-0.3c0.4-0.233 0.833-0.633 1.3-1.2l-0.9-0.199c0.367-0.2 0.733-0.517 1.1-0.95l-0.75-0.2c0.3-0.167 0.6-0.417 0.9-0.75 0.567 0.167 1 0.283 1.3 0.35l0.65 0.199c0.233 0.333 0.467 0.6 0.7 0.8l-0.75-0.1c0.366 0.6 0.717 1.05 1.05 1.35l-0.9-0.05c0.4 0.7 0.801 1.233 1.2 1.601l-1.15-0.101c-0.3-0.033-0.567-0.116-0.8-0.25z" fill="url(#bw)"/>
		<linearGradient id="am" x1="16.821" x2="34.908" y1="-17.001" y2="-17.001" gradientTransform="matrix(-.0981 .9952 -.9952 -.0981 .00078423 .00021971)" gradientUnits="userSpaceOnUse">
		<stop stop-color="#C54C15" offset="0"/>
		<stop stop-color="#A2370C" offset="1"/>
	</linearGradient>
	<path d="m15.8 29.3h0.1c-0.033 0.033-0.066 0.084-0.1 0.15v-0.15zm0.05-0.85v-0.4c0.066 0.033 0.15 0.05 0.25 0.05-0.1 0.133-0.183 0.25-0.25 0.35zm0-0.8v-0.95l0.15-8.1c2.233 0.5 3.917 0.883 5.05 1.15-0.3 0.333-0.6 0.583-0.9 0.75l0.75 0.2c-0.367 0.434-0.733 0.75-1.1 0.95l0.9 0.199c-0.467 0.567-0.9 0.967-1.3 1.2l1.15 0.3c0.333 0.067 0.6 0.067 0.8 0l-0.05 1.101 1 0.2 0.05-1.101c0.233 0.134 0.5 0.217 0.801 0.25l1.149 0.101c-0.4-0.367-0.8-0.9-1.2-1.6l0.9 0.05c-0.333-0.3-0.684-0.75-1.05-1.35l0.75 0.1c-0.233-0.2-0.467-0.466-0.7-0.8l2.35 0.6 0.15-0.05 0.05 4.95c0 0.533 0.017 1.233 0.05 2.101l-0.05 0.05v0.049h0.05v0.05c-0.199 0.167-0.383 0.3-0.55 0.4l0.55 0.15v0.15c-0.366 0.434-0.716 0.733-1.05 0.9 0.167 0.1 0.417 0.183 0.75 0.25-0.399 0.433-0.767 0.733-1.1 0.899 0.2 0.101 0.5 0.184 0.899 0.25-0.465 0.567-0.899 0.951-1.299 1.151 0.267 0.133 0.65 0.25 1.15 0.35 0.2 0.033 0.45 0.05 0.75 0.05 0 0.167 0.017 0.334 0.05 0.5l-0.05 0.6h0.05c0.066 2.2 0.167 4.783 0.3 7.75l-4.8-1.05c-2.3-0.5-4.033-0.851-5.2-1.051-0.2-2.3-0.3-4.316-0.3-6.05l0.05-2.55c0.267 0.066 0.517 0.066 0.75 0h0.05l-0.05 1.1 0.9 0.2 0.05-1.1 0.8 0.25 1.1 0.149c-0.367-0.366-0.75-0.899-1.15-1.6l0.85 0.1c-0.333-0.3-0.667-0.75-1-1.35l0.75 0.1c-0.367-0.333-0.717-0.833-1.05-1.5l0.6 0.101c-0.3-0.3-0.583-0.733-0.85-1.3l-0.35-0.899c-0.067 0.233-0.2 0.483-0.4 0.75-0.3 0.467-0.617 0.783-0.95 0.95l0.6 0.149h0.05c-0.233 0.335-0.45 0.601-0.65 0.801zm-13.2-8.15c-0.033-0.267-0.05-0.517-0.05-0.75l0.55 0.1-0.5 0.65zm0 0.7l0.4 0.05c0.267 0.067 0.5 0.067 0.7 0h0.05l-0.05 1.05 0.85 0.2 0.05-1.1c0.267 0.133 0.517 0.217 0.75 0.25l1.05 0.1c-0.367-0.333-0.75-0.833-1.15-1.5l0.85 0.05c-0.3-0.3-0.617-0.716-0.95-1.25l0.7 0.05c-0.367-0.333-0.7-0.8-1-1.4l0.6 0.05c-0.2-0.167-0.383-0.383-0.55-0.65 1.4 0.3 2.716 0.583 3.95 0.85l0.15 3.55c0.1 1.434 0.2 3.033 0.3 4.8-0.233-0.267-0.45-0.6-0.65-1l-0.3-0.9-0.35 0.75c-0.3 0.433-0.6 0.733-0.9 0.899l0.55 0.2h0.05c-0.367 0.467-0.717 0.8-1.05 1l0.7 0.2c-0.367 0.434-0.7 0.733-1 0.899 0.2 0.101 0.467 0.184 0.8 0.25-0.4 0.536-0.8 0.902-1.2 1.102l1.05 0.3 0.75 0.05v1.05l0.85 0.15 0.05-1.05c0.267 0.133 0.517 0.217 0.75 0.25 0.067 2.567 0.117 5.416 0.15 8.55 0.033 0.033 0.1 0.066 0.2 0.1-1.867-0.466-4.2-1.083-7-1.85-0.033-0.9-0.066-1.75-0.1-2.55-0.1-3.4-0.117-6.05-0.05-7.95 0.033-1.033 0.033-2.884 0-5.55zm-0.15-4.65c0.4 0.067 0.8 0.15 1.2 0.25-0.2 0.267-0.4 0.45-0.6 0.55l0.55 0.15h0.05c-0.367 0.5-0.717 0.85-1.05 1.05l0.7 0.15c-0.267 0.367-0.517 0.633-0.75 0.8 0-0.6-0.017-1.217-0.05-1.85l-0.05-1.1zm5.45 7.2c0 0.333 0.15 0.533 0.45 0.6v0.05c0.3 0 0.45-0.167 0.45-0.5 0-0.4-0.15-0.601-0.45-0.601-0.3-0.066-0.45 0.085-0.45 0.451zm1.45 4.3c-0.066-0.1-0.117-0.184-0.15-0.25l0.15 0.05v0.2zm-0.05-1.55v0.65c-0.133-0.233-0.267-0.467-0.4-0.7h0.05l0.35 0.05zm7.4-1.15c0 0.334 0.15 0.534 0.45 0.601 0.267 0.066 0.433-0.084 0.5-0.45 0-0.366-0.15-0.583-0.45-0.65-0.333-0.068-0.5 0.099-0.5 0.499zm-12.75 4.95c-0.267-0.066-0.4 0.084-0.4 0.45-0.067 0.333 0.066 0.533 0.4 0.6 0.3 0.067 0.45-0.083 0.45-0.449 0-0.335-0.15-0.535-0.45-0.601zm-0.55 6.6v0.5l0.85 0.25 0.05-0.55c0.233 0.134 0.467 0.217 0.7 0.25l1.05 0.15c-0.367-0.333-0.733-0.85-1.1-1.55l0.8 0.1c-0.3-0.3-0.617-0.733-0.95-1.3l0.7 0.1c-0.333-0.333-0.667-0.8-1-1.399h0.05l0.55 0.05c-0.3-0.267-0.583-0.684-0.85-1.25l-0.3-0.851-0.35 0.75c-0.267 0.4-0.55 0.683-0.85 0.85l0.55 0.15v0.05l-0.65 0.7v0.4l0.3 0.05-0.3 0.35 0.05 0.75 0.1 0.05-0.1 0.1 0.05 1.25 0.65 0.05zm17.45 3.85l-0.05 0.55 0.95 0.2 0.05-0.55c0.333 0.166 0.6 0.267 0.8 0.3l1.15 0.15c-0.399-0.367-0.8-0.917-1.2-1.65l0.9 0.15c-0.333-0.334-0.684-0.801-1.05-1.4l0.75 0.1c-0.367-0.333-0.717-0.833-1.05-1.5l0.65 0.1c-0.333-0.3-0.633-0.733-0.9-1.3-0.133-0.233-0.25-0.551-0.35-0.95h-0.05c0 0.2-0.117 0.467-0.35 0.8-0.3 0.434-0.617 0.733-0.95 0.9l0.6 0.199c-0.367 0.5-0.733 0.834-1.1 1 0.167 0.101 0.417 0.184 0.75 0.25-0.4 0.434-0.767 0.733-1.1 0.9l0.9 0.25c-0.467 0.533-0.9 0.9-1.3 1.1 0.3 0.134 0.683 0.25 1.15 0.351l0.75 0.05h0.05zm0.15-6.45c0 0.367 0.15 0.584 0.45 0.65l0.05-0.15v0.15c0.333 0.066 0.5-0.084 0.5-0.45s-0.167-0.6-0.5-0.7c-0.267-0.067-0.433 0.1-0.5 0.5z" fill="url(#am)"/>
	<path d="m8.9 16.95c-1.233-0.267-2.55-0.55-3.95-0.85-0.4-0.1-0.817-0.2-1.25-0.3-0.4-0.1-0.8-0.183-1.2-0.25-0.033-0.033-0.067-0.05-0.1-0.05v-0.6c2.567 0.633 4.717 1.15 6.45 1.55l0.05 0.5zm16.45 3.95l-2.35-0.6-0.65-0.2c-0.3-0.067-0.733-0.184-1.3-0.35-1.133-0.267-2.816-0.65-5.05-1.15v-0.75c1.233 0.233 2.767 0.55 4.6 0.95l3.75 0.85 1 1.25z" fill="#7D2C0A"/>
		<linearGradient id="an" x1="16.345" x2="36.395" y1="-30.498" y2="-30.498" gradientTransform="matrix(4.9875e-5 1 -1 -.001 .00025478 -.00010195)" gradientUnits="userSpaceOnUse">
		<stop stop-color="#76882B" offset="0"/>
		<stop stop-color="#526321" offset="1"/>
	</linearGradient>
	<path d="m31.5 18.3c0.233 0.333 0.467 0.567 0.7 0.7l-0.7 0.35c0.333 0.533 0.667 0.883 1 1.05l-0.95 0.5-0.65 0.15-0.4-0.05-0.35 0.35-0.7 0.4c-0.367 0.167-0.684 0.267-0.95 0.3 0.3-0.366 0.616-0.866 0.95-1.5 0.033-0.133 0.083-0.267 0.149-0.4-0.333 0.133-0.583 0.2-0.75 0.2 0.233-0.3 0.483-0.717 0.75-1.25l1.901-0.8z" fill="url(#an)"/>
		<linearGradient id="ao" x1="16.337" x2="36.387" y1="-38.61" y2="-38.61" gradientTransform="matrix(4.9875e-5 1 -1 -.001 .00025478 -.00010195)" gradientUnits="userSpaceOnUse">
		<stop stop-color="#76882B" offset="0"/>
		<stop stop-color="#526321" offset="1"/>
	</linearGradient>
	<path d="m38.65 15.3c0.267 0.367 0.517 0.617 0.75 0.75l-0.65 0.35c0.333 0.5 0.65 0.85 0.95 1.05l-0.9 0.45c-0.133 0.067-0.333 0.1-0.6 0.1h-0.35l-0.3 0.25c-0.033-0.967-0.033-1.8 0-2.5l1.1-0.45z" fill="url(#ao)"/>
		<linearGradient id="ap" x1="16.341" x2="36.391" y1="-32.723" y2="-32.723" gradientTransform="matrix(4.9875e-5 1 -1 -.001 .00025478 -.00010195)" gradientUnits="userSpaceOnUse">
		<stop stop-color="#76882B" offset="0"/>
		<stop stop-color="#526321" offset="1"/>
	</linearGradient>
	<path d="m33.25 24.7h-0.1c0.032-0.032 0.065-0.065 0.1-0.101-0.032 0.036-0.032 0.069 0 0.101zm0 0.75v0.7c-0.2 0.066-0.366 0.1-0.5 0.1 0.167-0.233 0.333-0.5 0.5-0.8zm-0.05 3.55c-0.033 0.033-0.066 0.05-0.101 0.05-0.366 0.167-0.666 0.267-0.899 0.3 0.3-0.433 0.633-1.066 1-1.899l-0.7 0.2c0.233-0.334 0.483-0.784 0.75-1.351 0 1.1-0.017 2-0.05 2.7z" fill="url(#ap)"/>
	<linearGradient id="aq" x1="14.5" x2="21.2" y1="6.125" y2="6.125" gradientUnits="userSpaceOnUse">
		<stop stop-color="#756321" offset="0"/>
		<stop stop-color="#D4A911" offset=".7804"/>
		<stop stop-color="#B8920E" offset="1"/>
	</linearGradient>
	<path d="m16.6 5.15c0.533 0.067 0.983 0.1 1.35 0.1 0.3 0 0.733-0.05 1.3-0.15 0.167 0.1 0.367 0.2 0.6 0.3 0.233 0.067 0.517 0.117 0.85 0.15-0.467 0.167-0.917 0.417-1.35 0.75-0.267 0.2-0.483 0.417-0.65 0.65-0.9 0.2-1.667 0.25-2.3 0.15l-0.3-0.4-0.15-0.15c0-0.233 0.083-0.5 0.25-0.8 0.133-0.233 0.267-0.433 0.4-0.6z" fill="url(#aq)"/>
	<linearGradient id="ar" x1="2.6875" x2="39.912" y1="8.1001" y2="8.1001" gradientUnits="userSpaceOnUse">
		<stop stop-color="#B8D63A" offset="0"/>
		<stop stop-color="#A7C740" offset=".4902"/>
		<stop stop-color="#B8D63A" offset=".9333"/>
	</linearGradient>
	<path d="m14.75 8c0.3 0.033 0.633 0.05 1 0.05h0.2c-0.167 0.034-0.333 0.083-0.5 0.15l-1.45-0.2h0.75z" fill="url(#ar)"/>
	<linearGradient id="as" x1="2.6377" x2="39.863" y1="6.8252" y2="6.8252" gradientUnits="userSpaceOnUse">
		<stop stop-color="#B8D63A" offset="0"/>
		<stop stop-color="#A7C740" offset=".4902"/>
		<stop stop-color="#B8D63A" offset=".9333"/>
	</linearGradient>
	<path d="m8.85 6.55l-0.65 0.15c0.8 0.133 1.567 0.267 2.3 0.4l-0.55-0.05c-0.133 0.167-0.133 0.3 0 0.4l-1.8-0.2-0.3-0.1h-0.65l-0.525-0.05 1.525-0.4 0.55-0.15h0.1zm0.7-0.2h0.05l-0.7 0.2-0.05-0.05 0.6-0.15h0.1zm0.7-0.15l-0.25 0.05 0.15-0.05h0.1z" fill="url(#as)"/>
		<linearGradient id="at" x1="11.806" x2="38.186" y1="-12.11" y2="-12.11" gradientTransform="matrix(.0199 .9998 -.9998 .0199 -.00021711 .000327)" gradientUnits="userSpaceOnUse">
		<stop stop-color="#D9AE11" offset="0"/>
		<stop stop-color="#FFD84A" offset=".4902"/>
		<stop stop-color="#D4A911" offset=".7804"/>
		<stop stop-color="#B8920E" offset="1"/>
	</linearGradient>
	<path d="m16.05 39.35v0.05c-3.466-0.567-5.55-1-6.25-1.301-0.1-0.033-0.167-0.066-0.2-0.1-0.033-3.134-0.083-5.983-0.15-8.55 0-0.5-0.017-0.983-0.05-1.45v-1.15c-0.033-0.267-0.05-0.5-0.05-0.699v-0.65c-0.033-0.066-0.033-0.134 0-0.2-0.1-1.767-0.2-3.366-0.3-4.8l-0.15-3.55-0.05-0.5-0.25-5.95-0.05-0.35v-0.05l3.4 0.5c0.267 0.033 0.517 0.066 0.75 0.1 0.333 0.033 0.633 0.083 0.9 0.15 0.833 0.1 1.433 0.183 1.8 0.25l0.7 0.1v0.35l-0.1 6.3v0.75l-0.15 8.1v1.749l-0.05 0.851v1.45l-0.05 2.55c0 1.733 0.1 3.75 0.3 6.05z" fill="url(#at)"/>
	<linearGradient id="au" x1="2.6377" x2="39.863" y1="8.9751" y2="8.9751" gradientUnits="userSpaceOnUse">
		<stop stop-color="#B8D63A" offset="0"/>
		<stop stop-color="#A7C740" offset=".4902"/>
		<stop stop-color="#B8D63A" offset=".9333"/>
	</linearGradient>
	<path d="m5.45 9.5l-0.3-0.1-0.5-0.05h-0.1c-0.367 0-0.65-0.017-0.85-0.05l-0.95-0.15 2.3-0.15-0.75-0.15c0.534 0 1.184-0.033 1.95-0.1l-0.65-0.1c0.6 0 1.316-0.033 2.15-0.1l-0.05-0.05-0.5-0.05c0.5 0 1.1-0.05 1.8-0.15l1.05-0.1h0.05l-0.4 0.2c-0.167 0.167-0.2 0.283-0.1 0.35l-0.65-0.05c-0.133 0.167-0.133 0.3 0 0.4l-0.8-0.1c-0.1 0.167-0.1 0.3 0 0.4l-0.9-0.1c-0.133 0.2-0.133 0.35 0 0.45l-1.8-0.25z" fill="url(#au)"/>
		<linearGradient id="aw" x1="18.78" x2="39.572" y1="-3.6982" y2="-3.6982" gradientTransform="matrix(.0409 .9992 -.9992 .0409 -.00032438 -.000129)" gradientUnits="userSpaceOnUse">
		<stop stop-color="#B0CC33" offset="0"/>
		<stop stop-color="#809436" offset="1"/>
	</linearGradient>
	<path d="m2.65 20.2v-0.2l-0.05-0.5h0.05l0.5-0.65-0.55-0.1v-0.25c0.233-0.167 0.483-0.433 0.75-0.8l-0.7-0.15c0.333-0.2 0.683-0.55 1.05-1.05h-0.05l-0.55-0.15c0.2-0.1 0.4-0.283 0.6-0.55 0.433 0.1 0.85 0.2 1.25 0.3 0.167 0.267 0.35 0.483 0.55 0.65l-0.6-0.05c0.3 0.6 0.633 1.066 1 1.4l-0.7-0.05c0.333 0.533 0.65 0.95 0.95 1.25l-0.85-0.05c0.4 0.667 0.784 1.167 1.15 1.5l-1.05-0.1c-0.233-0.033-0.483-0.117-0.75-0.25l-0.45-0.25c-0.067 0.067-0.2 0.1-0.4 0.1h-0.05c-0.2 0.067-0.433 0.067-0.7 0l-0.4-0.05z" fill="url(#aw)"/>
		<linearGradient id="ax" x1="18.767" x2="39.56" y1="-6.5645" y2="-6.5645" gradientTransform="matrix(.0409 .9992 -.9992 .0409 -.00032438 -.000129)" gradientUnits="userSpaceOnUse">
		<stop stop-color="#B0CC33" offset="0"/>
		<stop stop-color="#809436" offset="1"/>
	</linearGradient>
	<path d="m9.35 25.3c-0.033 0.066-0.033 0.134 0 0.2l-0.35-0.05h-0.05c0.133 0.233 0.267 0.467 0.4 0.7 0 0.199 0.017 0.433 0.05 0.699l-0.15-0.049c0.033 0.066 0.083 0.15 0.15 0.25v0.95c0.033 0.467 0.05 0.95 0.05 1.45-0.233-0.033-0.483-0.117-0.75-0.25l-0.45-0.25-0.45 0.1-0.75-0.05-1.05-0.3c0.4-0.2 0.8-0.566 1.2-1.101-0.333-0.066-0.6-0.149-0.8-0.25 0.3-0.166 0.633-0.466 1-0.899l-0.7-0.2c0.333-0.2 0.683-0.533 1.05-1h-0.05l-0.55-0.2c0.3-0.166 0.6-0.467 0.9-0.899l0.35-0.751 0.3 0.9c0.2 0.4 0.417 0.733 0.65 1z" fill="url(#ax)"/>
		<linearGradient id="ay" x1="18.773" x2="39.565" y1="-16.315" y2="-16.315" gradientTransform="matrix(.0409 .9992 -.9992 .0409 -.00032438 -.000129)" gradientUnits="userSpaceOnUse">
		<stop stop-color="#B0CC33" offset="0"/>
		<stop stop-color="#809436" offset="1"/>
	</linearGradient>
	<path d="m17.5 30.95c-0.167-0.066-0.317-0.167-0.45-0.3l-0.45 0.1h-0.05c-0.233 0.066-0.483 0.066-0.75 0v-1.3c0.034-0.066 0.067-0.117 0.1-0.15h-0.1l0.05-0.85c0.067-0.1 0.15-0.217 0.25-0.35-0.1 0-0.184-0.017-0.25-0.05v-0.4c0.2-0.2 0.417-0.467 0.65-0.801h-0.05l-0.6-0.149c0.333-0.167 0.65-0.483 0.95-0.95 0.2-0.267 0.333-0.517 0.4-0.75l0.35 0.9c0.267 0.566 0.55 1 0.85 1.3l-0.6-0.1c0.333 0.667 0.684 1.167 1.05 1.5l-0.75-0.1c0.333 0.6 0.667 1.05 1 1.35l-0.85-0.1c0.4 0.7 0.783 1.233 1.15 1.6l-1.1-0.15-0.8-0.25z" fill="url(#ay)"/>
		<linearGradient id="az" x1="18.799" x2="39.592" y1="-2.9614" y2="-2.9614" gradientTransform="matrix(.0409 .9992 -.9992 .0409 -.00032438 -.000129)" gradientUnits="userSpaceOnUse">
		<stop stop-color="#B0CC33" offset="0"/>
		<stop stop-color="#809436" offset="1"/>
	</linearGradient>
	<path d="m4.35 36.1h-0.05l-0.4-0.25-0.45 0.05-0.65-0.05-0.05-1.25 0.1-0.1-0.1-0.05-0.05-0.75 0.3-0.35-0.3-0.05v-0.4l0.65-0.7v-0.05l-0.55-0.15c0.3-0.167 0.583-0.45 0.85-0.85l0.35-0.75 0.3 0.85c0.267 0.566 0.55 0.983 0.85 1.25l-0.55-0.05h-0.05c0.333 0.6 0.667 1.066 1 1.399l-0.7-0.1c0.333 0.566 0.65 1 0.95 1.3l-0.8-0.099c0.367 0.7 0.733 1.217 1.1 1.55l-1.05-0.15c-0.233-0.034-0.467-0.117-0.7-0.25z" fill="url(#az)"/>
		<linearGradient id="ba" x1="18.785" x2="39.577" y1="-19.727" y2="-19.727" gradientTransform="matrix(.0409 .9992 -.9992 .0409 -.00032438 -.000129)" gradientUnits="userSpaceOnUse">
		<stop stop-color="#B0CC33" offset="0"/>
		<stop stop-color="#809436" offset="1"/>
	</linearGradient>
	<path d="m21.85 39.95l-0.5-0.3-0.45 0.1h-0.05l-0.75-0.05c-0.467-0.101-0.85-0.217-1.15-0.351 0.4-0.199 0.833-0.566 1.3-1.1l-0.9-0.249c0.333-0.167 0.7-0.467 1.1-0.9-0.333-0.066-0.583-0.149-0.75-0.25 0.367-0.166 0.733-0.5 1.1-1l-0.6-0.199c0.333-0.167 0.65-0.467 0.95-0.9 0.233-0.333 0.35-0.6 0.35-0.8h0.05c0.1 0.399 0.217 0.717 0.35 0.95 0.267 0.566 0.567 1 0.9 1.3l-0.65-0.101c0.333 0.667 0.683 1.167 1.05 1.5l-0.75-0.1c0.366 0.6 0.717 1.066 1.05 1.4l-0.9-0.15c0.4 0.733 0.801 1.283 1.2 1.65l-1.149-0.15c-0.201-0.033-0.467-0.134-0.801-0.3z" fill="url(#ba)"/>
		<linearGradient id="bb" x1="16.337" x2="36.387" y1="-38.647" y2="-38.647" gradientTransform="matrix(4.9875e-5 1 -1 -.001 .00025478 -.00010195)" gradientUnits="userSpaceOnUse">
		<stop stop-color="#76882B" offset="0"/>
		<stop stop-color="#526321" offset="1"/>
	</linearGradient>
	<path d="m38.1 35.3h-0.25c-0.066-2.133-0.116-4.116-0.149-5.95 0.033-0.066 0.05-0.116 0.05-0.149v-0.05c0.066 0.333 0.167 0.6 0.3 0.8 0.2 0.434 0.434 0.717 0.7 0.85l-0.5 0.25c0.267 0.5 0.55 0.816 0.85 0.95l-0.6 0.35c0.3 0.434 0.583 0.717 0.85 0.851l-0.701 0.398c0.333 0.5 0.649 0.834 0.949 1l-0.899 0.55c-0.2 0.1-0.4 0.15-0.6 0.15z" fill="url(#bb)"/>
		<linearGradient id="bc" x1="16.345" x2="36.395" y1="-30.247" y2="-30.247" gradientTransform="matrix(4.9875e-5 1 -1 -.001 .00025478 -.00010195)" gradientUnits="userSpaceOnUse">
		<stop stop-color="#76882B" offset="0"/>
		<stop stop-color="#526321" offset="1"/>
	</linearGradient>
	<path d="m30.7 38.85h-0.45l-0.35 0.4c-0.334 0.233-0.567 0.384-0.7 0.45-0.4 0.2-0.717 0.316-0.95 0.35 0.333-0.467 0.684-1.133 1.05-2-0.3 0.134-0.55 0.217-0.75 0.25 0.3-0.399 0.601-0.967 0.9-1.7l-0.601 0.25c0.301-0.433 0.617-1.05 0.95-1.85h-0.05l-0.5 0.2c0.267-0.367 0.533-0.9 0.8-1.601 0.066-0.166 0.167-0.517 0.3-1.05 0.134 0.434 0.233 0.7 0.301 0.8 0.233 0.434 0.483 0.717 0.75 0.851l-0.5 0.3h-0.05c0.301 0.5 0.601 0.816 0.9 0.95l-0.6 0.399c0.3 0.4 0.583 0.667 0.85 0.801l-0.75 0.45c0.366 0.534 0.7 0.884 1 1.051l-0.9 0.55-0.65 0.149z" fill="url(#bc)"/>
		<linearGradient id="bd" x1="16.348" x2="36.398" y1="-27.072" y2="-27.072" gradientTransform="matrix(4.9875e-5 1 -1 -.001 .00025478 -.00010195)" gradientUnits="userSpaceOnUse">
		<stop stop-color="#76882B" offset="0"/>
		<stop stop-color="#526321" offset="1"/>
	</linearGradient>
	<path d="m27 31.65h-0.45l-0.4 0.4-0.45 0.3-0.1-2.65 0.051-0.05 0.1-0.25-0.1 0.05h-0.051v-0.6l0.5-1.05h-0.05l-0.45 0.2h-0.05v-0.05l0.05-0.05c0.233-0.434 0.483-0.934 0.75-1.5 0.2-0.5 0.301-0.851 0.301-1.051h0.05l0.25 0.801c0.233 0.466 0.5 0.767 0.8 0.899l-0.551 0.251c0.3 0.5 0.6 0.834 0.899 1l-0.649 0.35c0.3 0.433 0.6 0.716 0.899 0.85l-0.75 0.4c0.334 0.533 0.667 0.883 1 1.05l-0.949 0.55-0.65 0.15z" fill="url(#bd)"/>
		<linearGradient id="be" x1="18.775" x2="39.567" y1="-23.447" y2="-23.447" gradientTransform="matrix(.0409 .9992 -.9992 .0409 -.00032438 -.000129)" gradientUnits="userSpaceOnUse">
		<stop stop-color="#B0CC33" offset="0"/>
		<stop stop-color="#809436" offset="1"/>
	</linearGradient>
	<path d="m25.7 32.35v0.25c-0.3 0-0.55-0.017-0.75-0.05-0.5-0.1-0.884-0.217-1.15-0.35 0.4-0.2 0.834-0.584 1.3-1.15-0.4-0.067-0.7-0.15-0.9-0.25 0.333-0.166 0.7-0.467 1.1-0.899-0.333-0.067-0.583-0.15-0.75-0.25 0.334-0.167 0.684-0.467 1.05-0.9v0.701h0.051c-0.034 0.066-0.034 0.133 0 0.2l-0.051 0.048 0.1 2.65zm-0.1-3.75l-0.55-0.149c0.167-0.101 0.351-0.233 0.55-0.4v0.549z" fill="url(#be)"/>
</g>
</svg>
