<?xml version="1.0" encoding="UTF-8"?>
<svg viewBox="0 0 500 600" xmlns="http://www.w3.org/2000/svg" xmlns:xlink="http://www.w3.org/1999/xlink">
 <defs>
  <filter id="g">
   <feGaussianBlur stdDeviation="4.00757"/>
  </filter>
  <filter id="d">
   <feGaussianBlur stdDeviation=".14205"/>
  </filter>
  <filter id="c">
   <feGaussianBlur stdDeviation=".28718"/>
  </filter>
  <filter id="u">
   <feGaussianBlur stdDeviation="8.00204"/>
  </filter>
  <filter id="f" x="-.11375" y="-.12787" width="1.2275" height="1.2558">
   <feGaussianBlur stdDeviation="10.52242"/>
  </filter>
  <filter id="e" x="-.30155" y="-.339" width="1.6031" height="1.678">
   <feGaussianBlur stdDeviation="27.89514"/>
  </filter>
  <linearGradient id="a">
   <stop stop-color="#fff" offset="0"/>
   <stop stop-color="#fff" stop-opacity="0" offset="1"/>
  </linearGradient>
  <linearGradient id="s" x1="828.31" x2="823.68" y1="230.97" y2="365.42" gradientUnits="userSpaceOnUse">
   <stop stop-color="#ddedf3" offset="0"/>
   <stop stop-color="#fff" offset="1"/>
  </linearGradient>
  <linearGradient id="q" x1="623.45" x2="653.13" y1="135.36" y2="216.68" gradientUnits="userSpaceOnUse">
   <stop stop-color="#b50000" offset="0"/>
   <stop stop-color="#ff4141" offset="1"/>
  </linearGradient>
  <linearGradient id="p" x1="605.04" x2="642.17" gradientUnits="userSpaceOnUse">
   <stop stop-color="#ff4141" offset="0"/>
   <stop stop-color="#ff4141" stop-opacity="0" offset="1"/>
  </linearGradient>
  <linearGradient id="n" x1="530.51" x2="675.08" y1="-64.369" y2="-82.44" gradientTransform="matrix(1 0 0 1.4736 0 27.924)" gradientUnits="userSpaceOnUse">
   <stop stop-color="#19aeff" offset="0"/>
   <stop stop-color="#0084c8" offset="1"/>
  </linearGradient>
  <linearGradient id="m" x1="571.82" x2="703.48" y1="39.844" y2="8.8652" gradientUnits="userSpaceOnUse">
   <stop stop-color="#005c94" offset="0"/>
   <stop stop-color="#fff" offset="1"/>
  </linearGradient>
  <linearGradient id="t" x1="707.45" x2="573.68" gradientUnits="userSpaceOnUse" xlink:href="#a"/>
  <linearGradient id="r" x1="683.68" x2="499.05" y1="148.34" y2="172.13" gradientUnits="userSpaceOnUse" xlink:href="#a"/>
  <linearGradient id="o" x1="661.72" x2="640.27" y1="161.46" y2="172.87" gradientUnits="userSpaceOnUse" xlink:href="#a"/>
  <linearGradient id="b" x1="587.63" x2="588.37" y1="130.4" y2="99.498" gradientUnits="userSpaceOnUse" xlink:href="#a"/>
  <linearGradient id="l" x1="644.1" x2="598.96" y1="5.7818" y2="39.302" gradientUnits="userSpaceOnUse" xlink:href="#a"/>
  <radialGradient id="k" cx="728" cy="172.08" r="111.51" gradientTransform="matrix(-1.5743 .28939 -.05596 -.30443 1883.7 49.353)" gradientUnits="userSpaceOnUse">
   <stop stop-color="#ff4141" offset="0"/>
   <stop stop-color="#f60" offset="1"/>
  </radialGradient>
  <radialGradient id="j" cx="675.59" cy="147.74" r="131.25" gradientTransform="matrix(-1.6227 .20653 -.03053 -.23985 1846.9 122.92)" gradientUnits="userSpaceOnUse">
   <stop stop-color="#dc0000" offset="0"/>
   <stop stop-color="#f60" offset="1"/>
  </radialGradient>
  <radialGradient id="i" cx="595.15" cy="316.96" r="51.301" gradientTransform="matrix(-.65419 -1.6606 1.6298 -.64203 454.9 1544)" gradientUnits="userSpaceOnUse">
   <stop stop-color="#ff4141" offset="0"/>
   <stop stop-color="#f90" offset="1"/>
  </radialGradient>
  <radialGradient id="h" cx="584.19" cy="267.27" r="44.226" gradientTransform="matrix(-.05837 -3.6483 2.099 -.03358 4.9008 2497.6)" gradientUnits="userSpaceOnUse">
   <stop stop-color="#dc0000" offset="0"/>
   <stop stop-color="#f90" offset="1"/>
  </radialGradient>
 </defs>
 <g transform="matrix(1.0087 0 0 1.0724 -405.44 36.633)" fill="#364e59" filter="url(#u)">
  <path transform="matrix(1.2254 0 0 -.10017 -140.22 502.27)" d="m747.36 130.84c0 54.535-49.7 98.745-111.01 98.745s-111.01-44.21-111.01-98.745 49.7-98.745 111.01-98.745 111.01 44.21 111.01 98.745z" filter="url(#e)" opacity=".96585" stroke="#9aa3ab" stroke-linecap="round" stroke-width="2.1163"/>
  <path transform="matrix(1.5268 0 0 1.4746 -330.72 139.91)" d="m747.36 130.84c0 54.535-49.7 98.745-111.01 98.745s-111.01-44.21-111.01-98.745 49.7-98.745 111.01-98.745 111.01 44.21 111.01 98.745z" stroke="#cacaca" stroke-linecap="round" stroke-width=".66646"/>
  <path transform="matrix(1.2254 0 0 1.3645 -116.99 156.25)" d="m747.36 130.84c0 54.535-49.7 98.745-111.01 98.745s-111.01-44.21-111.01-98.745 49.7-98.745 111.01-98.745 111.01 44.21 111.01 98.745z" filter="url(#g)" stroke="#9aa3ab" stroke-linecap="round" stroke-width=".77333"/>
  <path transform="matrix(-.68164 1.0258 -.59547 -.2987 1225.4 -480.68)" d="m897.09 284.45c0 27.446-29.762 49.695-66.475 49.695s-66.475-22.249-66.475-49.695 29.762-49.695 66.475-49.695 66.475 22.249 66.475 49.695z" stroke="#bbb5b5" stroke-linecap="round" stroke-width="1.1081"/>
  <path transform="matrix(.83754 .83754 -.42243 .42243 242.83 -516.55)" d="m897.09 284.45c0 27.446-29.762 49.695-66.475 49.695s-66.475-22.249-66.475-49.695 29.762-49.695 66.475-49.695 66.475 22.249 66.475 49.695z" stroke="#c6c6c6" stroke-linecap="round" stroke-width="1.1888"/>
  <path d="m747.36 130.84c0 54.535-49.7 98.745-111.01 98.745s-111.01-44.21-111.01-98.745 49.7-98.745 111.01-98.745 111.01 44.21 111.01 98.745z" stroke="#dedede" stroke-linecap="round"/>
  <path transform="matrix(.79126 0 0 .8503 147.03 18.942)" d="m747.36 130.84c0 54.535-49.7 98.745-111.01 98.745s-111.01-44.21-111.01-98.745 49.7-98.745 111.01-98.745 111.01 44.21 111.01 98.745z" filter="url(#f)" stroke="#9aa3ab" stroke-linecap="round" stroke-width="1.2191"/>
  <path transform="matrix(.86348 0 0 .81738 84.071 31.909)" d="m678.95 174.73c0 19.604-17.626 35.496-39.369 35.496s-39.369-15.892-39.369-35.496 17.626-35.496 39.369-35.496 39.369 15.892 39.369 35.496z" stroke="#9aa3ab" stroke-linecap="round" stroke-width="1.1903"/>
  <path transform="matrix(.59438 0 0 .67712 245.39 56.326)" d="m678.95 174.73c0 19.604-17.626 35.496-39.369 35.496s-39.369-15.892-39.369-35.496 17.626-35.496 39.369-35.496 39.369 15.892 39.369 35.496z"/>
  <path transform="matrix(.86348 0 0 .81738 84.071 31.909)" d="m664.75 165.7c0 3.9208-3.4674 7.0993-7.7447 7.0993s-7.7447-3.1785-7.7447-7.0993 3.4674-7.0993 7.7447-7.0993 7.7447 3.1785 7.7447 7.0993z" filter="url(#d)" stroke="#9aa3ab" stroke-linecap="round" stroke-width="1.1903"/>
  <path transform="matrix(.96667 0 0 .9 25.342 26.831)" d="m605.38 119.87c0 10.693-8.6685 19.362-19.362 19.362s-19.362-8.6685-19.362-19.362 8.6685-19.362 19.362-19.362 19.362 8.6685 19.362 19.362z" stroke="#9aa3ab" stroke-linecap="round" stroke-width="1.0721"/>
  <path d="m557.3 67.706h159.4a44.879 7.3581 0 0 1 44.879 7.3581 44.879 7.3581 0 0 1 -44.879 7.3581h-159.4a44.879 7.3581 0 0 1 -44.879 -7.3581 44.879 7.3581 0 0 1 44.879 -7.3581" stroke="#9aa3ab" stroke-linecap="round"/>
  <path transform="scale(1,-1)" d="m557.3-83.052c67.753-14.661 111.25-4.9194 159.4 0 24.734 2.5271 44.879 5.3734 44.879 12.048v1e-6c0 6.6746-20.016 12.048-44.879 12.048h-159.4c-24.863 0-44.879-5.3734-44.879-12.048v-1e-6c0-6.6746 20.579-6.7896 44.879-12.048z" opacity=".61463" stroke="#9aa3ab" stroke-linecap="round"/>
  <path d="m553.17 65.383s-28.215-76.722 77.892-79.777c101.2-2.9139 85.116 80.121 85.116 80.121-53.041 3.7739-91.258 7.5176-163.01-0.34435z" stroke="#f5f5f5"/>
  <path d="m551.16 196.03s56.794 30.979 83.901 27.106 99.39-33.56 99.39-33.56l27.106 32.27s-77.691 20.671-116.17 32.27c-54.831 16.527-105.84-30.979-105.84-30.979l10.326-10.326z" stroke="#ff8383"/>
  <path d="m540.58 214.24s61.734 31.543 91.198 27.6 129.98-23.845 129.98-23.845c9.0577 8.8677 22.476 16.863 15.265 28.985 0 0-92.192 14.594-134.02 26.403-59.6 16.828-125.38-36.706-125.38-36.706l11.224-11.805z" stroke="#e23f3f"/>
  <path d="m594.36 215.01s-46.617 34.947-41.274 54.091 54.051 89.554 54.051 89.554l-57.434 21.725s-23.359-76.811-39.363-103.99c-22.804-38.724 42.745-74.751 42.745-74.751l14.248 7.2928z" stroke="#e47612"/>
  <path d="m579.57 211.62s-44.814 48.762-39.373 69.57 32.902 91.795 32.902 91.795c-12.236 6.3969-23.268 15.873-39.993 10.781 0 0-20.137-65.11-36.431-94.649-23.219-42.092 54.298-94.021 54.298-94.021l16.289 9.7525z" stroke="#f54e27"/>
  <path d="m588.6 174.09c0 10.693-9.2464 19.362-20.652 19.362s-20.652-8.6685-20.652-19.362 9.2464-19.362 20.652-19.362 20.652 8.6685 20.652 19.362z" filter="url(#c)" opacity=".23415" stroke="#b22b2b" stroke-linecap="round"/>
  <path transform="translate(132.95)" d="m588.6 174.09c0 10.693-9.2464 19.362-20.652 19.362s-20.652-8.6685-20.652-19.362 9.2464-19.362 20.652-19.362 20.652 8.6685 20.652 19.362z" opacity=".23415" stroke="#b22b2b" stroke-linecap="round"/>
  <path transform="matrix(.41277 0 0 .4286 355.18 85.621)" d="m605.38 119.87c0 10.693-8.6685 19.362-19.362 19.362s-19.362-8.6685-19.362-19.362 8.6685-19.362 19.362-19.362 19.362 8.6685 19.362 19.362z" stroke="#9aa3ab" stroke-linecap="round" stroke-width="2.3775"/>
  <path transform="matrix(-.96667 0 0 .9 1253.7 23.18)" d="m605.38 119.87c0 10.693-8.6685 19.362-19.362 19.362s-19.362-8.6685-19.362-19.362 8.6685-19.362 19.362-19.362 19.362 8.6685 19.362 19.362z" stroke="#9aa3ab" stroke-linecap="round" stroke-width="1.0721"/>
  <path transform="matrix(-.41277 0 0 .4286 923.84 81.97)" d="m605.38 119.87c0 10.693-8.6685 19.362-19.362 19.362s-19.362-8.6685-19.362-19.362 8.6685-19.362 19.362-19.362 19.362 8.6685 19.362 19.362z" stroke="#9aa3ab" stroke-linecap="round" stroke-width="2.3775"/>
  <path transform="matrix(.73203 -.0431 .29284 1.0202 205.75 25.563)" d="m672.5 23.064c0 14.258-23.694 25.816-52.922 25.816s-52.922-11.558-52.922-25.816 23.694-25.816 52.922-25.816 52.922 11.558 52.922 25.816z" opacity=".61463"/>
 </g>
 <g transform="matrix(1.0061 0 0 1.07 -401.07 37.93)" opacity=".90244">
  <path transform="matrix(1.2254 0 0 -.10017 -140.22 502.27)" d="m747.36 130.84c0 54.535-49.7 98.745-111.01 98.745s-111.01-44.21-111.01-98.745 49.7-98.745 111.01-98.745 111.01 44.21 111.01 98.745z" fill="#364e59" filter="url(#e)" opacity=".96585" stroke="#9aa3ab" stroke-linecap="round" stroke-width="2.1163"/>
  <path transform="matrix(1.5268 0 0 1.4746 -330.72 139.91)" d="m747.36 130.84c0 54.535-49.7 98.745-111.01 98.745s-111.01-44.21-111.01-98.745 49.7-98.745 111.01-98.745 111.01 44.21 111.01 98.745z" fill="#ede9e9" stroke="#cacaca" stroke-linecap="round" stroke-width=".66646"/>
  <path transform="matrix(1.2254 0 0 1.3645 -116.99 156.25)" d="m747.36 130.84c0 54.535-49.7 98.745-111.01 98.745s-111.01-44.21-111.01-98.745 49.7-98.745 111.01-98.745 111.01 44.21 111.01 98.745z" fill="url(#t)" filter="url(#g)" stroke="#9aa3ab" stroke-linecap="round" stroke-width=".77333"/>
  <path transform="matrix(-.68164 1.0258 -.59547 -.2987 1225.4 -480.68)" d="m897.09 284.45c0 27.446-29.762 49.695-66.475 49.695s-66.475-22.249-66.475-49.695 29.762-49.695 66.475-49.695 66.475 22.249 66.475 49.695z" fill="#f7f5f5" stroke="#bbb5b5" stroke-linecap="round" stroke-width="1.1081"/>
  <path transform="matrix(.83754 .83754 -.42243 .42243 242.83 -516.55)" d="m897.09 284.45c0 27.446-29.762 49.695-66.475 49.695s-66.475-22.249-66.475-49.695 29.762-49.695 66.475-49.695 66.475 22.249 66.475 49.695z" fill="url(#s)" stroke="#c6c6c6" stroke-linecap="round" stroke-width=".27271"/>
  <path d="m747.36 130.84c0 54.535-49.7 98.745-111.01 98.745s-111.01-44.21-111.01-98.745 49.7-98.745 111.01-98.745 111.01 44.21 111.01 98.745z" fill="#e8e8e8" stroke="#dedede" stroke-linecap="round"/>
  <path transform="matrix(.79126 0 0 .8503 147.03 18.942)" d="m747.36 130.84c0 54.535-49.7 98.745-111.01 98.745s-111.01-44.21-111.01-98.745 49.7-98.745 111.01-98.745 111.01 44.21 111.01 98.745z" fill="url(#r)" filter="url(#f)" stroke="#9aa3ab" stroke-linecap="round" stroke-width="1.2191"/>
  <path transform="matrix(.86348 0 0 .81738 84.071 31.909)" d="m678.95 174.73c0 19.604-17.626 35.496-39.369 35.496s-39.369-15.892-39.369-35.496 17.626-35.496 39.369-35.496 39.369 15.892 39.369 35.496z" fill="url(#q)" stroke="#9aa3ab" stroke-linecap="round" stroke-width="1.1903"/>
  <path transform="matrix(.59438 0 0 .67712 245.39 56.326)" d="m678.95 174.73c0 19.604-17.626 35.496-39.369 35.496s-39.369-15.892-39.369-35.496 17.626-35.496 39.369-35.496 39.369 15.892 39.369 35.496z" fill="url(#p)"/>
  <path transform="matrix(.86348 0 0 .81738 84.071 31.909)" d="m664.75 165.7c0 3.9208-3.4674 7.0993-7.7447 7.0993s-7.7447-3.1785-7.7447-7.0993 3.4674-7.0993 7.7447-7.0993 7.7447 3.1785 7.7447 7.0993z" fill="url(#o)" filter="url(#d)" stroke="#9aa3ab" stroke-linecap="round" stroke-width="1.1903"/>
  <path transform="matrix(.96667 0 0 .9 25.342 26.831)" d="m605.38 119.87c0 10.693-8.6685 19.362-19.362 19.362s-19.362-8.6685-19.362-19.362 8.6685-19.362 19.362-19.362 19.362 8.6685 19.362 19.362z" fill="#0e232e" stroke="#9aa3ab" stroke-linecap="round" stroke-width="1.0721"/>
  <path d="m557.3 67.706h159.4a44.879 7.3581 0 0 1 44.879 7.3581 44.879 7.3581 0 0 1 -44.879 7.3581h-159.4a44.879 7.3581 0 0 1 -44.879 -7.3581 44.879 7.3581 0 0 1 44.879 -7.3581" fill="#005c94" stroke="#9aa3ab" stroke-linecap="round"/>
  <path transform="scale(1,-1)" d="m557.3-83.052c67.753-14.661 111.25-4.9194 159.4 0 24.734 2.5271 44.879 5.3734 44.879 12.048v1e-6c0 6.6746-20.016 12.048-44.879 12.048h-159.4c-24.863 0-44.879-5.3734-44.879-12.048v-1e-6c0-6.6746 20.579-6.7896 44.879-12.048z" fill="url(#n)" opacity=".61463" stroke="#9aa3ab" stroke-linecap="round"/>
  <path d="m553.17 65.383s-28.215-76.722 77.892-79.777c101.2-2.9139 85.116 80.121 85.116 80.121-53.041 3.7739-91.258 7.5176-163.01-0.34435z" fill="url(#m)" stroke="#195fb0"/>
  <path d="m551.16 196.03s64.096 23.677 91.202 19.805 92.088-26.259 92.088-26.259l27.106 32.27s-77.691 20.671-116.17 32.27c-54.831 16.527-105.84-30.979-105.84-30.979l10.326-10.326z" fill="url(#k)" stroke="#ff8383"/>
  <path d="m540.58 214.24s61.734 31.543 91.198 27.6 129.98-23.845 129.98-23.845c9.0577 8.8677 22.476 16.863 15.265 28.985 0 0-92.192 14.594-134.02 26.403-59.6 16.828-125.38-36.706-125.38-36.706l11.224-11.805z" fill="url(#j)" stroke="#e23f3f"/>
  <path d="m594.36 215.01s-46.617 34.947-41.274 54.091 54.051 89.554 54.051 89.554l-57.434 21.725s-23.359-76.811-39.363-103.99c-22.804-38.724 42.745-74.751 42.745-74.751l14.248 7.2928z" fill="url(#i)" stroke="#e47612"/>
  <path d="m579.57 211.62s-44.814 48.762-39.373 69.57 32.902 91.795 32.902 91.795c-12.236 6.3969-23.268 15.873-39.993 10.781 0 0-20.137-65.11-36.431-94.649-23.219-42.092 54.298-94.021 54.298-94.021l16.289 9.7525z" fill="url(#h)" stroke="#f54e27"/>
  <path d="m588.6 174.09c0 10.693-9.2464 19.362-20.652 19.362s-20.652-8.6685-20.652-19.362 9.2464-19.362 20.652-19.362 20.652 8.6685 20.652 19.362z" fill="#ff4141" filter="url(#c)" opacity=".23415" stroke="#b22b2b" stroke-linecap="round"/>
  <path transform="translate(132.95)" d="m588.6 174.09c0 10.693-9.2464 19.362-20.652 19.362s-20.652-8.6685-20.652-19.362 9.2464-19.362 20.652-19.362 20.652 8.6685 20.652 19.362z" fill="#ff4141" opacity=".23415" stroke="#b22b2b" stroke-linecap="round"/>
  <path transform="matrix(.41277 0 0 .4286 355.18 85.621)" d="m605.38 119.87c0 10.693-8.6685 19.362-19.362 19.362s-19.362-8.6685-19.362-19.362 8.6685-19.362 19.362-19.362 19.362 8.6685 19.362 19.362z" fill="url(#b)" stroke="#9aa3ab" stroke-linecap="round" stroke-width="2.3775"/>
  <path transform="matrix(-.96667 0 0 .9 1253.7 23.18)" d="m605.38 119.87c0 10.693-8.6685 19.362-19.362 19.362s-19.362-8.6685-19.362-19.362 8.6685-19.362 19.362-19.362 19.362 8.6685 19.362 19.362z" fill="#0e232e" stroke="#9aa3ab" stroke-linecap="round" stroke-width="1.0721"/>
  <path transform="matrix(-.41277 0 0 .4286 923.84 81.97)" d="m605.38 119.87c0 10.693-8.6685 19.362-19.362 19.362s-19.362-8.6685-19.362-19.362 8.6685-19.362 19.362-19.362 19.362 8.6685 19.362 19.362z" fill="url(#b)" stroke="#9aa3ab" stroke-linecap="round" stroke-width="2.3775"/>
  <path transform="matrix(.73203 -.0431 .29284 1.0202 205.75 25.563)" d="m672.5 23.064c0 14.258-23.694 25.816-52.922 25.816s-52.922-11.558-52.922-25.816 23.694-25.816 52.922-25.816 52.922 11.558 52.922 25.816z" fill="url(#l)" opacity=".61463"/>
 </g>
 <path transform="matrix(.70785 0 0 .70787 -36.213 -251.14)" d="m299.37 488.65-12.064-50.436-34.875 38.38 31.91-40.878-51.751-3.337 51.856-0.53857-29.657-42.541 32.753 40.207 14.769-49.711-11.014 50.675 48.074-19.447-46.487 22.985 45.178 25.461-46.954-22.014z" fill="#fff" opacity=".69756"/>
 <path transform="matrix(.70785 0 0 .70787 66.014 -74.064)" d="m299.37 488.65-12.064-50.436-34.875 38.38 31.91-40.878-51.751-3.337 51.856-0.53857-29.657-42.541 32.753 40.207 14.769-49.711-11.014 50.675 48.074-19.447-46.487 22.985 45.178 25.461-46.954-22.014z" fill="#fff" opacity=".49268"/>
 <path transform="matrix(.70785 0 0 .70787 -78.2 53.723)" d="m299.37 488.65-12.064-50.436-34.875 38.38 31.91-40.878-51.751-3.337 51.856-0.53857-29.657-42.541 32.753 40.207 14.769-49.711-11.014 50.675 48.074-19.447-46.487 22.985 45.178 25.461-46.954-22.014z" fill="#fff" opacity=".62439"/>
</svg>
