<?xml version="1.0" encoding="UTF-8"?>
<svg enable-background="new 0 0 140.891 185.439" viewBox="0 0 140.891 185.439" xmlns="http://www.w3.org/2000/svg" xmlns:xlink="http://www.w3.org/1999/xlink">
 <defs>
  <path id="a" d="m102.616,30.852c-2.556-11.223-8.88-22.56-18.374-29.276-7.002-4.951-20.229,3.117-27.861,5.666-9.548,2.367 3.258,9.774 3.501,13.9 .25,4.254-2.173,6.054 2.587,7.43 4.687,1.354 9.473,2.37 14.312,3.005 8.451,1.108 17.49,1.322 25.835-.725"/>
  <path id="b" d="m55.627,41.263c-.646-7.921-12.396-6.82-11.754,1.046 .649,7.92 12.396,6.819 11.754-1.046"/>
  <clipPath id="e">
   <use xlink:href="#a"/>
  </clipPath>
  <linearGradient id="i" x1="129.95" x2="148.04" y1="110.9" y2="135.4" gradientUnits="userSpaceOnUse">
   <stop stop-color="#000119" offset="0"/>
   <stop stop-color="#496381" offset="1"/>
  </linearGradient>
  <linearGradient id="h" x1="86.601" x2="124.13" y1="100.78" y2="42.958" gradientUnits="userSpaceOnUse">
   <stop stop-color="#000119" offset="0"/>
   <stop stop-color="#496381" offset="1"/>
  </linearGradient>
  <linearGradient id="g" x2="0" y1="-8.0161" y2="229.41" gradientUnits="userSpaceOnUse">
   <stop stop-color="#fff" offset="0"/>
   <stop stop-color="#b9d1ec" offset="1"/>
  </linearGradient>
  <linearGradient id="f" x1="-1041" x2="-1078" y1="908.97" y2="968.31" gradientTransform="matrix(.969 -.2472 .2472 .969 819.63 -1048.5)" gradientUnits="userSpaceOnUse">
   <stop stop-color="#000119" offset="0"/>
   <stop stop-color="#496381" offset="1"/>
  </linearGradient>
  <linearGradient id="d" x1="128.5" x2="53.124" y1="13.418" y2="42.95" gradientUnits="userSpaceOnUse">
   <stop stop-color="#fff" offset=".5"/>
   <stop stop-color="#a9bfd8" offset="1"/>
  </linearGradient>
  <radialGradient id="c" cx="49.75" cy="41.785" r="5.9251" gradientUnits="userSpaceOnUse">
   <stop stop-color="#fff" offset="0"/>
   <stop stop-color="#b9d1ec" offset="1"/>
  </radialGradient>
 </defs>
 <path d="m36.745,69.429-36.745,45.789 20.916,12.436 22.612-50.876c0-.001-6.219-5.089-6.783-7.349z" fill="#d41920"/>
 <path d="m71.296,182.272c-4.353,2.372 16.602-2.456 23.494,2.621 3.344,2.463 10.338-4.422 24.436-.819 8.467,2.163-.627-4.094-5.953-6.551s-19.734-7.37-41.977,4.749z" fill="#fcb912"/>
 <path d="m91.566,182.272c4.354,2.372-16.603-2.456-23.494,2.621-3.344,2.463-10.338-4.422-24.435-.819-8.466,2.163.626-4.094 5.952-6.551s19.736-7.37 41.977,4.749z" fill="#fcb912"/>
 <path d="m120.67 82.053s32.057 53.638 15.453 47.861c-17.335-6.027-21.481-39.946-22.612-45.6s5.275-3.768 7.159-2.261z" fill="url(#i)"/>
 <path d="m78.576 22.133c-31.656-0.397-66.704 86.301-52.435 126.37 8.747 24.565 100.88 25.85 104.3 0 4.662-35.173-16.442-125.93-51.867-126.37z" fill="#000119"/>
 <path d="m126.4 143.25c-1.852-37.83-12.025-118.1-48.205-118.1-26.57 0-50.876 71.228-48.015 118.1 1.464 24.012 97.394 24.026 96.22 0z" fill="url(#h)"/>
 <path d="m100.583,71.968c.662-2.729 1.661-11.399 1.582-14.513-.33-12.776-7.392-22.958-15.774-22.741-2.739.069-5.278,1.246-7.446,3.236-2.012-1.876-4.376-3.023-6.957-3.195-8.368-.555-15.84,9.334-16.685,22.085-.209,3.152-.662,11.874-.093,14.661-17.585,14.718-29.069,40.524-29.069,77.005 0,13.519 23.35,32.684 52.151,32.684s52.15-19.165 52.15-32.684c.001-36.101-12.569-61.628-29.859-76.538z" fill="url(#g)"/>
 <path d="m78.285,71.501c0,0 7.712-2.582 14.789-3.539l.02-.375c0,0-10.288-1.072-14.451-5.11l-.703.004c-4.162,4.038-14.494,5.111-14.494,5.111l.02.375c7.076.957 14.819,3.534 14.819,3.534z" fill="#fcb912"/>
 <path d="m31.388 83.025s-32.69 63.696-10.317 52.026c23.359-12.181 20.917-46.561 21.14-52.453s-8.494-1.722-10.823 0.427z" fill="url(#f)"/>
 <path d="m72.923 52.658a2.638 3.034 0 1 0 -5.276 0 2.638 3.034 0 1 0 5.276 0"/>
 <path d="m88.752 52.658a2.638 3.034 0 1 0 -5.276 0 2.638 3.034 0 1 0 5.276 0"/>
 <use fill="#d41920" xlink:href="#a"/>
 <path d="m58.126 28.243c10.489-7.398 11.503-19.224 20.494-27.588-9.796 2.463-20.296 7.312-25.072 8.954-7.534 2.59 1.405 11.326 4.578 18.634" clip-path="url(#e)" fill="#b00d28"/>
 <path d="m55.608,34.625c7.484,4.725 17.228,5.97 25.87,6.153 3.291.07 22.982.264 22.982-5.163 0-5.408-.389-8.392-5.694-8.041-6.664.439-13.325.567-19.995.215-6.333-.334-12.656-.88-18.95-1.639-4.094-.493-5.286,5.124-4.213,8.475" fill="url(#d)"/>
 <path d="m80.261.058c-10.643.454-19.296,6.011-29.671,7.647-4.71,9.57-3.252,22.407-.206,32.202 3.643-16.605 17.53-29.166 29.877-39.849" fill="#d41920"/>
 <use fill="url(#c)" xlink:href="#b"/>
 <path d="m125.399,80.81c.565-2.198-2.149-6.367-5.155-7.306-2.242,2.833-5.463,3.022-9.314,2.987-10.545-.094-21.094-1.12-31.348-2.698-10.921-1.68-21.719-4.017-31.816-7.227-3.798-1.208-7.859-1.826-8.796-4.997-8.645,1.127-4.516,5.029-5.515,8.286-.501,1.643-1.22,3.271-2.295,4.796-.979,1.352 3.078,3.15 4.294,3.75 8.533,4.213 19.042,6.974 29.11,9.13 12.437,2.664 25.504,4.28 38.608,4.503 4.949.086 9.988.008 14.862-.582 1.343-.164 6.437-2.292 6.437-3.671-.252-2.879.206-4.126.928-6.971" fill="#d41920"/>
</svg>
