<?xml version="1.0" encoding="UTF-8"?>
<!DOCTYPE svg  PUBLIC '-//W3C//DTD SVG 1.1//EN'  'http://www.w3.org/Graphics/SVG/1.1/DTD/svg11.dtd'>
<svg enable-background="new 0 0 595.28 841.89" version="1.1" viewBox="0 0 595.28 841.89" xml:space="preserve" xmlns="http://www.w3.org/2000/svg">
	<linearGradient id="a" x1="131" x2="476.33" y1="523.95" y2="523.95" gradientUnits="userSpaceOnUse">
		<stop stop-color="#E7E7E8" offset="0"/>
		<stop stop-color="#F2F2F2" offset=".5"/>
		<stop stop-color="#E7E7E8" offset="1"/>
	</linearGradient>
	<ellipse cx="303.67" cy="523.94" rx="172.67" ry="145.94" fill="url(#a)"/>
	<linearGradient id="q" x1="181.67" x2="439.67" y1="342.67" y2="342.67" gradientUnits="userSpaceOnUse">
		<stop stop-color="#E7E7E8" offset="0"/>
		<stop stop-color="#F2F2F2" offset=".5"/>
		<stop stop-color="#E7E7E8" offset="1"/>
	</linearGradient>
	<ellipse cx="310.67" cy="342.67" rx="129" ry="121.33" fill="url(#q)"/>
		<ellipse cx="263.36" cy="301.63" rx="18.204" ry="22.094" fill="#fff"/>
						<linearGradient id="p" x1="2259" x2="2235.9" y1="311.78" y2="315.34" gradientTransform="matrix(-.9883 .1525 .1525 .9883 2436.6 -350.68)" gradientUnits="userSpaceOnUse">
						<stop stop-color="#272526" offset="0"/>
						<stop stop-color="#434244" offset=".5"/>
						<stop stop-color="#272526" offset="1"/>
					</linearGradient>
					<path d="m251.71 303.76c0.979 6.383 6.942 10.752 13.317 9.771 6.375-0.986 10.754-6.952 9.764-13.329-0.984-6.378-6.947-10.748-13.322-9.764-6.38 0.98-10.75 6.95-9.76 13.32z" fill="url(#p)"/>
				<linearGradient id="o" x1="253.11" x2="273.36" y1="301.91" y2="301.91" gradientUnits="userSpaceOnUse">
					<stop stop-color="#434244" offset="0"/>
					<stop stop-color="#D1D2D3" offset=".5"/>
					<stop stop-color="#434244" offset="1"/>
				</linearGradient>
				<polygon points="261.07 303.22 253.11 303.47 260.78 301.31 254.97 295.85 261.92 299.75 261.67 291.78 263.84 299.45 269.29 293.64 265.4 300.59 273.36 300.34 265.69 302.51 271.5 307.96 264.55 304.07 264.8 312.03 262.63 304.36 257.18 310.17" fill="url(#o)"/>
				<linearGradient id="n" x1="253.36" x2="273.11" y1="301.91" y2="301.91" gradientUnits="userSpaceOnUse">
					<stop stop-color="#434244" offset="0"/>
					<stop stop-color="#A6A8AA" offset=".5"/>
					<stop stop-color="#434244" offset="1"/>
				</linearGradient>
				<polygon points="260.72 302.21 253.36 299.17 261.24 300.35 258.2 292.99 262.92 299.4 265.98 292.04 264.8 299.92 272.16 296.87 265.75 301.6 273.11 304.65 265.22 303.46 268.28 310.83 263.54 304.42 260.5 311.78 261.67 303.9 254.32 306.95" fill="url(#n)" opacity=".6"/>
				<path d="m256.87 302.97c0.544 3.519 3.839 5.939 7.36 5.395 3.526-0.543 5.938-3.843 5.396-7.362-0.545-3.525-3.837-5.939-7.363-5.395-3.53 0.55-5.94 3.84-5.4 7.37z" fill="#040506"/>
				<path d="m254.79 299.17c0.277 1.805 1.969 3.05 3.785 2.77 1.798-0.281 3.047-1.975 2.764-3.783-0.281-1.806-1.973-3.044-3.779-2.77-1.81 0.28-3.06 1.97-2.77 3.78z" fill="#AAB797" opacity=".5"/>
				<path d="m251.62 297.45c0.316 2.01 2.198 3.391 4.214 3.08 2.017-0.31 3.395-2.195 3.084-4.207-0.313-2.018-2.195-3.396-4.209-3.084-2 0.3-3.38 2.19-3.08 4.21z" fill="#fff"/>
				<path d="m269.83 304.56c0.134 0.844 0.931 1.422 1.771 1.291 0.849-0.13 1.426-0.917 1.298-1.764-0.131-0.847-0.924-1.424-1.771-1.292-0.84 0.12-1.42 0.91-1.3 1.76z" fill="#fff"/>
				<path d="m267.48 307.7c0.225 1.442 1.573 2.434 3.009 2.213 1.441-0.226 2.435-1.573 2.209-3.021-0.218-1.439-1.571-2.426-3.012-2.206-1.44 0.24-2.43 1.58-2.21 3.02z" fill="#AAB797" opacity=".5"/>
		<ellipse cx="336.58" cy="304.93" rx="18.204" ry="22.094" fill="#fff"/>
						<linearGradient id="m" x1="2187.1" x2="2164" y1="326.22" y2="329.78" gradientTransform="matrix(-.9883 .1525 .1525 .9883 2436.6 -350.68)" gradientUnits="userSpaceOnUse">
						<stop stop-color="#272526" offset="0"/>
						<stop stop-color="#434244" offset=".5"/>
						<stop stop-color="#272526" offset="1"/>
					</linearGradient>
					<path d="m324.93 307.07c0.979 6.383 6.942 10.752 13.317 9.771 6.375-0.986 10.754-6.952 9.764-13.329-0.984-6.378-6.947-10.748-13.322-9.764-6.38 0.98-10.75 6.95-9.76 13.32z" fill="url(#m)"/>
				<linearGradient id="l" x1="326.33" x2="346.58" y1="305.21" y2="305.21" gradientUnits="userSpaceOnUse">
					<stop stop-color="#434244" offset="0"/>
					<stop stop-color="#D1D2D3" offset=".5"/>
					<stop stop-color="#434244" offset="1"/>
				</linearGradient>
				<polygon points="334.3 306.53 326.33 306.78 334 304.61 328.19 299.16 335.15 303.05 334.89 295.09 337.06 302.76 342.52 296.95 338.62 303.9 346.58 303.65 338.91 305.82 344.72 311.27 337.77 307.38 338.02 315.34 335.86 307.67 330.4 313.48" fill="url(#l)"/>
				<linearGradient id="k" x1="326.58" x2="346.33" y1="305.21" y2="305.21" gradientUnits="userSpaceOnUse">
					<stop stop-color="#434244" offset="0"/>
					<stop stop-color="#A6A8AA" offset=".5"/>
					<stop stop-color="#434244" offset="1"/>
				</linearGradient>
				<polygon points="333.94 305.52 326.58 302.47 334.46 303.65 331.42 296.3 336.15 302.7 339.2 295.34 338.02 303.22 345.38 300.17 338.97 304.91 346.33 307.96 338.45 306.77 341.5 314.14 336.76 307.72 333.72 315.08 334.89 307.21 327.54 310.26" fill="url(#k)" opacity=".6"/>
				<path d="m330.09 306.27c0.544 3.519 3.839 5.939 7.36 5.395 3.526-0.543 5.938-3.843 5.396-7.362-0.545-3.525-3.837-5.939-7.363-5.395-3.53 0.56-5.94 3.85-5.4 7.37z" fill="#040506"/>
				<path d="m328.01 302.48c0.277 1.805 1.969 3.05 3.785 2.77 1.798-0.281 3.047-1.975 2.764-3.783-0.281-1.806-1.973-3.044-3.779-2.77-1.81 0.28-3.05 1.97-2.77 3.78z" fill="#AAB797" opacity=".5"/>
				<path d="m324.84 300.75c0.316 2.01 2.198 3.391 4.214 3.08 2.017-0.31 3.395-2.195 3.084-4.207-0.313-2.018-2.195-3.396-4.209-3.084-2 0.31-3.38 2.2-3.08 4.21z" fill="#fff"/>
				<path d="m343.06 307.86c0.134 0.844 0.931 1.422 1.771 1.291 0.849-0.13 1.426-0.917 1.298-1.764-0.131-0.847-0.924-1.424-1.771-1.292-0.85 0.12-1.43 0.92-1.3 1.76z" fill="#fff"/>
				<path d="m340.7 311.01c0.225 1.442 1.573 2.434 3.009 2.213 1.441-0.226 2.435-1.573 2.209-3.021-0.218-1.439-1.571-2.426-3.012-2.206-1.44 0.23-2.43 1.58-2.21 3.02z" fill="#AAB797" opacity=".5"/>
		<ellipse transform="matrix(.9856 -.1688 .1688 .9856 -62.037 51.126)" cx="269.63" cy="390.38" rx="25.591" ry="19.125" fill="none"/>
		<linearGradient id="j" x1="239.97" x2="348.99" y1="383.55" y2="383.55" gradientTransform="matrix(.9947 .1025 -.1025 .9947 40.212 -28.69)" gradientUnits="userSpaceOnUse">
		<stop stop-color="#A42531" offset="0"/>
		<stop stop-color="#C52B2D" offset=".5"/>
		<stop stop-color="#A42531" offset="1"/>
	</linearGradient>
	<path d="m294.38 401.62c-15.415-1.589-32.608-11.379-54.106-30.81l0.84-1.342c15.846 6.403 29.841 10.164 42.786 11.498 21.667 2.233 40.931-2.272 63.189-9.724l2.827-0.947-1.968 2.24c-19.28 21.94-35.8 30.91-53.57 29.08z" fill="url(#j)"/>
		<linearGradient id="i" x1="244.44" x2="340.48" y1="383.18" y2="383.18" gradientTransform="matrix(.9947 .1025 -.1025 .9947 40.212 -28.69)" gradientUnits="userSpaceOnUse">
		<stop stop-color="#A42531" offset="0"/>
		<stop stop-color="#C9443C" offset=".5"/>
		<stop stop-color="#A42531" offset="1"/>
	</linearGradient>
	<path d="m244.81 370.42c42.19 38.134 66.421 35.723 96.386 1.621-33.65 11.26-57.17 14.22-96.39-1.62z" fill="url(#i)"/>
	<linearGradient id="h" x1="252.53" x2="306.42" y1="338.51" y2="344.06" gradientUnits="userSpaceOnUse">
		<stop stop-color="#A42531" offset="0"/>
		<stop stop-color="#583C1D" offset=".5"/>
		<stop stop-color="#A42531" offset="1"/>
	</linearGradient>
	<path d="m306.5 342.67c0-6.811-5.225-12.333-11.668-12.333-0.458 0-0.908 0.035-1.353 0.089l-7e-3 -0.089c-0.299 0.077-0.584 0.155-0.879 0.232-0.037 7e-3 -0.076 0.01-0.112 0.018-0.369 0.08-0.729 0.182-1.084 0.298-14.322 3.828-24.356 8.162-39.814 16.827 16.279 5.088 26.801 6.534 41.864 7.197 0.455 0.057 0.916 0.095 1.386 0.095 0.124 0 0.244-0.016 0.366-0.02 0.047 2e-3 0.091 4e-3 0.138 6e-3l-1e-3 -0.013c6.19-0.31 11.15-5.7 11.15-12.33z" fill="url(#h)"/>
		<radialGradient id="g" cx="420.18" cy="218.55" r="155.99" gradientTransform="matrix(.9993 -.0367 .0367 .9993 -5.188 11.912)" gradientUnits="userSpaceOnUse">
		<stop stop-color="#A42531" offset="0"/>
		<stop stop-color="#C52B2D" offset=".6912"/>
		<stop stop-color="#A42531" offset="1"/>
	</radialGradient>
	<path d="m332.01 87.674c6.333-1.999 10.854-8.893 10.56-16.932-0.345-9.383-7.111-16.75-15.113-16.457-8.003 0.294-14.211 8.139-13.867 17.521 0.223 6.082 3.153 11.303 7.362 14.153l-55.649 143.83c43.066-6.021 79.471-2.929 122.56 16.04l-55.85-158.16z" fill="url(#g)"/>
	<linearGradient id="f" x1="330.6" x2="429.54" y1="519.91" y2="519.91" gradientUnits="userSpaceOnUse">
		<stop stop-color="#A42531" offset="0"/>
		<stop stop-color="#C9443C" offset=".5"/>
		<stop stop-color="#A42531" offset="1"/>
	</linearGradient>
	<path d="m413.25 478c19.708 39.584 25.488 69.803-5.25 72-12.422 14.513-22.754 14.361-40 6.5-33.288 12.61-41.028-7.646-36-59l81.25-19.5z" fill="url(#f)"/>
	<path d="m423.78 507.54c-4.396-16.053-14.487-25.953-21.166-24.123-5.392 1.476-7.633 11.211-5.983 23.354-5.229-12.354-13.74-20.045-20.662-18.494-6.524 1.462-10.884 11.514-10.927 24.108-2.346-11.16-7.884-19.003-14.344-19.003-8.583 0-17.37 13.485-17.37 30.565s8.787 31.289 17.37 31.289c8.584 0 15.543-13.847 15.543-30.928v-0.022c0.082 0.405 0.163 0.81 0.254 1.216 4.061 18.122 15.309 32.982 23.995 31.035 7.709-1.727 12.351-17.22 10.457-33.354 4.776 12.04 11.988 19.899 17.587 18.367 6.69-1.86 9.65-17.99 5.25-34.04z" fill="#fff" opacity=".1"/>
	<linearGradient id="e" x1="38.616" x2="181.34" y1="450.27" y2="450.27" gradientUnits="userSpaceOnUse">
		<stop stop-color="#A42531" offset="0"/>
		<stop stop-color="#C52B2D" offset=".5"/>
		<stop stop-color="#A42531" offset="1"/>
	</linearGradient>
	<path d="m147 418.75c-9.25-44.767-68.5-40.751-60-7.456-71.75 0-63.25 103.46 22.5 86.956 0 0 11.75 29.5 39 9.75l32.84-87.055s-18.09-26.69-34.34-2.19z" fill="url(#e)"/>
	<path d="m139.6 425.06c-7.4-35.813-54.8-32.601-48-5.965-57.4 0-50.6 82.765 18 69.564 0 0 9.4 23.6 31.2 7.8l26.272-69.644c0-0.01-14.47-21.37-27.47-1.76z" fill="#fff" opacity=".1"/>
	<path d="m87 411.29c0.067 7.738 1.606 9.883 5.167 10.539-4.237-26.364 3.115-35.13 33.167-29.583-20.5-14.25-41.485 0.39-38.33 19.04z" fill="#fff" opacity=".1"/>
	<path d="m75.75 432.5c-20.839 33.033-10.696 44.508 32.5 51.5-25.973-11.69-33.678-25.42-32.5-51.5z" fill="#fff" opacity=".1"/>
	<polygon points="144.33 421.83 113.4 494.89 123.67 498.67 149.67 420.94" fill="#fff" opacity=".2"/>
		<linearGradient id="d" x1="-362.44" x2="-219.71" y1="450.27" y2="450.27" gradientTransform="matrix(-1 0 0 1 219.96 0)" gradientUnits="userSpaceOnUse">
		<stop stop-color="#A42531" offset="0"/>
		<stop stop-color="#C52B2D" offset=".5"/>
		<stop stop-color="#A42531" offset="1"/>
	</linearGradient>
	<path d="m474.01 418.75c9.25-44.767 68.5-40.751 60-7.456 71.75 0 63.25 103.46-22.5 86.956 0 0-11.75 29.5-39 9.75l-32.841-87.055s18.09-26.69 34.34-2.19z" fill="url(#d)"/>
	<path d="m481.41 425.06c7.399-35.813 54.799-32.601 48-5.965 57.399 0 50.6 82.765-18 69.564 0 0-9.4 23.6-31.201 7.8l-26.271-69.644c0-0.01 14.47-21.37 27.47-1.76z" fill="#fff" opacity=".1"/>
	<path d="m534.01 411.29c-0.067 7.738-1.607 9.883-5.167 10.539 4.237-26.364-3.114-35.13-33.167-29.583 20.5-14.25 41.49 0.39 38.34 19.04z" fill="#fff" opacity=".1"/>
	<path d="m545.26 432.5c20.838 33.033 10.695 44.508-32.5 51.5 25.97-11.69 33.68-25.42 32.5-51.5z" fill="#fff" opacity=".1"/>
	<polygon points="476.67 421.83 507.61 494.89 497.34 498.67 471.34 420.94" fill="#fff" opacity=".2"/>
	<linearGradient id="c" x1="163.96" x2="460" y1="433.62" y2="433.62" gradientUnits="userSpaceOnUse">
		<stop stop-color="#A42531" offset="0"/>
		<stop stop-color="#C9443C" offset=".5"/>
		<stop stop-color="#A42531" offset="1"/>
	</linearGradient>
	<path d="m194 371.03c-10.811-9.676-16.848 2.968-12.333 21.969-10.572 2.447-9.757 11.663-6.597 21.063-9.709 0.275-14.148 5.52-8.838 14.964 114.83 104.53 279.1 87.31 293.77-15.27-3.216-8.344-5.081-12.337-10.75-12.75-2.094-13.304-4.355-17.46-12.5-15.266 2.033-9.487 0.828-13.712-7.5-16.592 0 0-18.25 19.857-42.5 31.357-48 26.58-132.84 18.5-192.75-29.47z" fill="url(#c)"/>
	<path d="m427.67 378c-75.317 52.474-131.51 58.697-217.33 8.529-17.152 19.298-2.127 29.517 35.094 39.472-19.988 1.305-48.423-2.215-62.094-20.334 1.704 8.911 4.619 17.459 10.108 19.145l42.39 24.18-57.999-18.771c115.92 84.75 253.49 69.3 277.49-13.23-27.455 33.421-71.88 59.143-105.33 48.334 50.054-2.77 73.216-19.275 93-64.334-12.42 15.182-31.703 21.684-65.333 25.334 33.88-15.29 47.03-30.09 50-48.33z" fill="#fff" opacity=".1"/>
	<radialGradient id="b" cx="338.5" cy="94" r="0" gradientUnits="userSpaceOnUse">
		<stop stop-color="#A42531" offset="0"/>
		<stop stop-color="#C52B2D" offset=".6912"/>
		<stop stop-color="#A42531" offset="1"/>
	</radialGradient>
	<path d="m338.5 94" fill="url(#b)"/>
<g fill="#fff">
	<path d="m326.58 84.416c6.14 53.238 25.092 118.62 9.999 142.58 15.496-0.521 27.274 3.617 39.084 8.749l-49.08-151.33z" opacity=".1"/>
	<ellipse cx="330.25" cy="70.75" rx="8.25" ry="9.75" opacity=".2"/>
	<polygon points="272.73 224.5 324.79 92 297.64 221.94" opacity=".1"/>
</g>
</svg>
