<?xml version="1.0" encoding="UTF-8"?>
<!DOCTYPE svg  PUBLIC '-//W3C//DTD SVG 1.1//EN'  'http://www.w3.org/Graphics/SVG/1.1/DTD/svg11.dtd'>
<svg width="200mm" height="175.89mm" clip-rule="evenodd" fill-rule="evenodd" image-rendering="optimizeQuality" shape-rendering="geometricPrecision" text-rendering="geometricPrecision" version="1.1" viewBox="0 0 20000 17589" xml:space="preserve" xmlns="http://www.w3.org/2000/svg" xmlns:xlink="http://www.w3.org/1999/xlink">
 <defs>
  <style type="text/css">
    .str0 {stroke:#2B2A29;stroke-width:20}
    .fil13 {fill:none}
    .fil10 {fill:#2B2A29}
    .fil11 {fill:#434242}
    .fil14 {fill:#A75F4A}
    .fil17 {fill:#FECC00}
    .fil12 {fill:#FEFEFE}
    .fil16 {fill:#067937}
    .fil0 {fill:#E8BA06}
    .fil18 {fill:#E31E24;fill-rule:nonzero}
    .fil4 {fill:url(#a)}
    .fil3 {fill:url(#n)}
    .fil5 {fill:url(#o)}
    .fil2 {fill:url(#p)}
    .fil6 {fill:url(#q)}
    .fil1 {fill:url(#r)}
    .fil15 {fill:url(#s)}
    .fil9 {fill:url(#t)}
    .fil7 {fill:url(#u)}
    .fil8 {fill:url(#m)}
  </style>
     <clipPath id="l">
      <path d="m7038 6372c-627 36-1173-362-1168-264 6 98 562 656 1188 620s1086-652 1080-750c-5-99-474 358-1100 394z"/>
     </clipPath>
  <linearGradient id="a" x1="6457.1" x2="6457.1" y1="1782.9" y2="15080" gradientUnits="userSpaceOnUse">
   <stop stop-color="#B0CB1F" offset="0"/>
   <stop stop-color="#009846" offset=".50196"/>
   <stop stop-color="#0D622F" offset="1"/>
  </linearGradient>
  <linearGradient id="n" x1="6457.1" x2="6457.1" y1="3036.2" y2="16334" gradientUnits="userSpaceOnUse" xlink:href="#a">
  </linearGradient>
  <linearGradient id="o" x1="6457.1" x2="6457.1" y1="1416.3" y2="12522" gradientUnits="userSpaceOnUse" xlink:href="#a">
  </linearGradient>
  <linearGradient id="p" x1="6457.1" x2="6457.1" y1="6596.9" y2="17703" gradientUnits="userSpaceOnUse" xlink:href="#a">
  </linearGradient>
  <linearGradient id="q" x1="6457.1" x2="6457.1" y1="1078.4" y2="8598.7" gradientUnits="userSpaceOnUse" xlink:href="#a">
  </linearGradient>
  <linearGradient id="r" x1="50%" x2="50%" y1=".99994%" y2="99%">
   <stop stop-color="#A75F4A" offset="0"/>
   <stop stop-color="#86755D" offset="1"/>
  </linearGradient>
  <linearGradient id="s" x1="14350" x2="14123" y1="11029" y2="10969" gradientUnits="userSpaceOnUse">
   <stop stop-color="#2B2A29" offset="0"/>
   <stop stop-color="#C5C6C6" offset=".50196"/>
   <stop stop-color="#2B2A29" offset="1"/>
  </linearGradient>
  <radialGradient id="t" cx="73%" cy="33%">
   <stop stop-color="aqua" offset="0"/>
   <stop stop-color="blue" offset=".8"/>
   <stop stop-color="#190364" offset="1"/>
  </radialGradient>
  <radialGradient id="u" cx="73%" cy="33%">
   <stop stop-color="#fff" offset="0"/>
   <stop stop-color="#F3F516" offset=".30196"/>
   <stop stop-color="#FCCE00" offset=".58824"/>
   <stop stop-color="#FF9E67" offset="1"/>
  </radialGradient>
  <radialGradient id="m" cx="73%" cy="33%">
   <stop stop-color="#fff" offset="0"/>
   <stop stop-color="#FFC4CB" offset=".10196"/>
   <stop stop-color="red" offset=".65882"/>
   <stop stop-color="#CF3600" offset=".87843"/>
   <stop stop-color="#9F0000" offset="1"/>
  </radialGradient>
 </defs>
    <polygon class="fil0" points="6193 0 6011 1124 4875 1039 5758 1759 5116 2699 6180 2295 6674 3321 6856 2197 7992 2283 7110 1563 7752 622 6687 1026"/>
    <path class="fil1" d="m6969 15816c77 662-326 1625 271 1692 983 111 2011 105 3009 0 401-42 396-461 0-522-933-144-1796-342-2127-1232-343 7-811 55-1153 62z"/>
    <path class="fil1" d="m6845 15816c-77 662 325 1625-272 1692-982 111-2011 105-3008 0-401-42-397-461 0-522 933-144 1796-342 2127-1232 343 7 810 55 1153 62z"/>
    <path class="fil2" d="m7159 7492c-509 1630-1246 3239-2284 4782-1054 1567-2393 3069-3970 4534 1781-562 3610-856 5476-862s3749 274 5631 862c-967-1468-1804-2998-2614-4532-829-1570-1609-3149-2239-4784z"/>
    <path class="fil3" d="m6844 4109c-449 1952-1183 3881-2319 5726-1159 1879-2690 3673-4525 5428 2134-673 4333-1026 6597-1033 2263-8 4570 328 6891 1033-1273-1759-2411-3595-3519-5430-1138-1883-2221-3767-3125-5724z"/>
    <path class="fil4" d="m6661 2855c-390 1952-1060 3882-2144 5726-1104 1880-2594 3675-4394 5429 2129-674 4337-1027 6617-1034 2279-8 4616 330 6992 1034-1368-1759-2595-3592-3773-5429-1207-1881-2343-3769-3298-5726z"/>
    <path class="fil5" d="m6568 2312c-295 1630-813 3240-1664 4782-866 1568-2048 3069-3503 4534 1774-562 3615-857 5532-863 1916-6 3908 275 5960 863-1273-1470-2412-2995-3459-4534-1065-1565-2042-3147-2866-4782z"/>
    <path class="fil6" d="m6458 1684c-176 1104-490 2194-1010 3240-526 1059-1252 2078-2163 3070 1172-381 2404-581 3698-584 1295-3 2658 186 4094 584-970-995-1825-2024-2590-3070-772-1056-1454-2133-2029-3240z"/>
    <circle class="fil7" cx="8974" cy="7836" r="480"/>
    <circle class="fil7" cx="4232" cy="11116" r="480"/>
    <circle class="fil7" cx="7679" cy="13205" r="480"/>
    <circle class="fil7" cx="9935" cy="14542" r="480"/>
    <circle class="fil8" cx="5026" cy="7753" r="480"/>
    <circle class="fil8" cx="7157" cy="10991" r="480"/>
    <circle class="fil8" cx="1997" cy="13748" r="480"/>
    <circle class="fil9" cx="7011" cy="7565" r="480"/>
    <circle class="fil9" cx="10604" cy="11346" r="480"/>
    <circle class="fil9" cx="7032" cy="14416" r="480"/>
    <circle class="fil9" cx="4379" cy="13288" r="480"/>
    <circle class="fil8" cx="11585" cy="13476" r="480"/>
    <circle class="fil8" cx="4107" cy="14416" r="480"/>
    <path class="fil10" d="m7037 6356c-647 37-1212-394-1206-288s581 709 1228 672c647-38 1120-701 1114-807s-489 386-1136 423z"/>
    <path class="fil11" d="m5392 4903l74 28c11 236 41 397 90 483 122 215 303 316 542 302 307-18 508-125 604-321 57-118 83-306 78-565l-49-75c49-47 117-73 201-77 84-5 153 12 208 53l-41 81c25 258 73 442 143 552 118 184 330 267 637 250 239-14 407-135 504-363 37-91 49-254 34-489l70-37-12-220c-294-79-530-113-707-102-177 10-375 62-591 158-93-37-178-52-255-48s-160 30-247 77c-226-70-428-100-606-90-177 10-407 71-690 183l13 220z"/>
    <path class="fil12" d="m7038 6372c-627 36-1173-362-1168-264 6 98 562 656 1188 620s1086-652 1080-750c-5-99-474 358-1100 394z"/>
    <g clip-path="url(#l)">
      <line class="fil13 str0" x1="7034" x2="7057" y1="6351" y2="6755"/>
      <line class="fil13 str0" x1="6511" x2="6535" y1="6272" y2="6677"/>
      <line class="fil13 str0" x1="6753" x2="6777" y1="6339" y2="6743"/>
      <line class="fil13 str0" x1="7319" x2="7342" y1="6306" y2="6710"/>
      <line class="fil13 str0" x1="7554" x2="7578" y1="6198" y2="6603"/>
      <line class="fil13 str0" x1="7765" x2="7788" y1="6047" y2="6450"/>
      <line class="fil13 str0" x1="7951" x2="7967" y1="5993" y2="6278"/>
      <line class="fil13 str0" x1="6283" x2="6306" y1="6181" y2="6577"/>
      <line class="fil13 str0" x1="6044" x2="6059" y1="6093" y2="6365"/>
    </g>
    <path class="fil13" d="m7038 6372c-627 36-1173-362-1168-264 6 98 562 656 1188 620s1086-652 1080-750c-5-99-474 358-1100 394z"/>
    <path class="fil10" d="m8162 5684c-2 2-4 4-6 7-61 86-41 205 45 267 86 61 205 42 267-45 2-2 3-4 5-7-63 80-178 97-262 37s-105-174-49-259z"/>
    <path class="fil10" d="m5823 5811l6 6c71 79 65 200-13 271-79 71-200 65-271-14l-6-6c72 72 188 75 265 7 76-69 84-186 19-264z"/>
    <path class="fil14" d="m1205 6038l48 102c-26 64-60 97-130 103l-75-53-72-27c-57-35-120-88-189-160l-45-66-205-117c-31-18-53-34-65-50-11-14-17-28-18-42-1-15 3-26 12-33 14-11 40-6 79 15l179 99-206-182c-25-22-42-39-50-49-15-19-24-36-25-50-2-14 3-26 15-35 20-16 52-6 96 31l215 184-195-248c-21-27-34-50-38-69s1-33 15-44c27-21 64-1 112 59l191 252-106-229c-31-67-37-108-17-124 11-9 22-11 34-8 12 4 24 14 37 30 13 17 27 38 40 63l152 285c12 10 28 27 49 50 3-12 9-28 17-45-9-32-12-58-9-80 3-21 12-38 26-49s41-12 80-4l14 3 5 168 34 181c2 56 0 102-5 139z"/>
    <path class="fil15" d="m15211 7362c54 15 87 71 72 125l-1896 7077c-14 54-71 87-125 72-55-15-87-71-73-125l1897-7077c14-54 71-87 125-72z"/>
    <rect class="fil16" transform="matrix(-1.2889 -.34536 -.22368 .8348 20058 6980.2)" width="6870" height="2282" rx="300" ry="300"/>
    <path class="fil17" d="m19729 6948l-8224-2203c-143-39-291 43-328 180l-348 1299c-36 138 51 282 194 321l8224 2203c143 39 290-43 327-180l348-1299c37-138-50-282-193-321z"/>
    <path class="fil14" d="m14025 10055c15-56 30-112 45-169l-3769-137c-394-408-744-714-1349-910-43-14-54 62-107 98-56 39-154 41-165 83 532 553 385 571 1500 1014 1239 492 2848-78 3845 21z"/>
    <path class="fil14" d="m1113 6233c29-50 58-101 87-151l2762 2568c568-10 1031 21 1598 311 40 20-6 81 6 144 12 67 80 138 59 175-768 16-677 132-1778-343-1224-528-1958-2069-2734-2704z"/>
    <path class="fil14" d="m14004 10055l172 125c58 66 122 115 190 146 21 2 37 3 47 3 29 0 62-5 99-16l31 16h36c83 0 124-30 124-90 0-3 0-8-1-15 61-5 92-34 92-88 0-5-1-13-2-23 22-6 39-16 51-31 11-14 17-31 17-53 0-17-6-35-18-55 30-33 45-70 45-110 0-46-25-84-75-112-108-61-490-99-555-48-33 26-43 55-54 63-42 31-107 58-179 117-18 40-34 136-20 171z"/>
    <polygon class="fil17" points="6222 198 6061 1188 5061 1113 5838 1747 5273 2575 6211 2219 6645 3123 6806 2133 7806 2208 7029 1575 7594 746 6657 1102"/>
   <path class="fil18" d="m11960 5871l-79 293c-4 15 3 28 20 38 9 5 14 10 15 14 2 4 1 12-2 23-5 18-9 28-13 30-3 3-10 3-21 0l-220-59c-12-3-19-8-21-14-3-6-2-17 2-32 3-10 5-16 8-19 2-2 8-4 18-5 13-2 22-5 26-8 3-3 6-8 8-15l156-582c3-9 3-16 1-21-3-5-9-12-18-20-7-5-9-14-6-27 0-1 2-8 6-21 6-13 15-17 29-14l300 81c9 2 15 5 18 9 2 4 3 12 2 24v8l-8 113c0 7-1 13-2 18-3 10-12 13-28 9-20-5-32-13-35-22s-6-30-9-63c-2-21-5-35-10-43s-14-14-28-18c-4-1-11-3-22-4l-73 275 25 7c13 3 22 3 29-2 7-4 13-13 19-27 7-15 13-25 17-29 3-4 15-3 33 2 13 3 20 6 22 10 2 3 2 8 0 16l-46 173c-2 8-5 12-8 14-3 1-11 0-25-4-16-4-26-10-29-16-3-7-2-21 1-43s-6-36-27-42l-25-7zm400-42c6-6 15-18 25-36 24-39 43-62 57-69 15-8 29-10 43-6 20 5 32 18 37 39 4 21 3 45-4 73-16 59-41 85-74 76-17-5-27-18-31-40-2-13-7-20-12-21-15-4-26 10-35 41l-103 386c-3 12 0 22 9 31 10 9 13 19 10 31l-6 22c-2 7-4 12-6 14-3 1-8 1-16-1l-182-49c-12-3-17-11-14-23l7-26c3-9 7-14 13-16 13-2 21-9 24-20l130-485c2-12 1-20-6-27s-10-12-11-15c0-3 1-12 5-26 3-11 7-18 11-20s10-2 18 0l130 35c6 2 10 4 11 8s0 13-3 26l-27 98zm408-35c61 16 104 57 130 122s25 151-4 257c-31 115-75 197-131 245-57 48-117 63-178 47-42-11-76-35-100-70-23-35-38-78-43-127-5-50 4-114 25-192 29-111 71-190 125-237 55-47 113-62 176-45zm3 130c10-40 4-63-19-69-25-7-44 14-57 63l-107 401c-13 48-9 76 14 82 25 7 45-14 58-63l111-414zm427 58c61-32 111-43 148-33 28 7 49 24 64 50s18 56 9 90l-123 459c-3 12-2 22 3 29 8 10 10 22 6 35-4 16-8 25-11 29-3 3-9 4-17 2l-123-33c-11-3-18-13-23-31s-5-37 1-59l120-449c3-8 2-16-2-25-4-8-9-13-17-15-12-4-29 0-51 10l-119 445c-3 10-1 21 6 32 6 11 9 20 7 26-6 22-10 34-12 37s-9 3-20 0l-174-47c-7-2-11-5-13-9-2-3-1-11 2-22 3-14 6-22 9-26 2-3 7-6 15-10 10-4 17-12 20-24l159-591c5-21 2-35-11-41-6-4-9-9-7-16l9-34c2-7 7-9 15-7l161 43c12 3 16 10 13 22l-44 163zm405 386l-53 197c-7 26-7 47-1 65 6 17 17 28 33 32 25 7 47 2 67-15s36-43 46-79c6-19 11-30 15-33 5-3 17-2 37 3 17 5 28 10 32 15 3 4 3 14 0 28-14 50-42 89-84 119-43 30-90 38-143 24-61-16-106-58-133-124-28-67-27-155 3-266s72-190 127-238c54-47 114-62 177-45 55 14 92 51 112 108 20 58 18 132-6 222l-12 45-217-58zm83-44l42-159c8-30 2-48-20-54-23-6-38 6-46 36l-42 159 66 18zm775 47l11-131c1-13-2-26-10-40-5-9-6-16-5-23l9-33c3-10 9-13 18-11l197 53c7 2 10 4 11 8s0 11-3 22c-4 17-8 27-11 30-2 3-8 5-15 7-11 3-17 6-19 12s-3 17-4 31l-27 323 144-303c1-3 2-6 3-10 4-15-1-28-15-40-8-6-9-18-5-37 2-4 2-8 3-10l1-4c2-8 9-10 20-7l111 30c7 2 12 4 13 8 2 3 2 9-1 18l-3 9-6 18c-3 7-10 12-21 16-11 3-19 11-25 24l-287 605c-11 24-19 38-23 42s-10 5-18 3l-81-21c-9-3-12-13-9-32 0-4 1-7 1-9l30-356-154 329c-5 13-10 21-14 24-3 2-8 2-13 1l-85-23c-9-2-12-21-7-56 1-6 2-11 2-14l52-655c1-14-3-25-12-34-8-8-11-16-8-25l10-37c2-7 7-10 16-7l191 51c7 2 11 4 12 9 2 3 1 12-2 24-4 14-7 22-8 25-2 4-7 7-13 10-8 4-13 10-15 16-2 7-3 17-4 28l-28 345 96-203zm485 356l-53 197c-7 26-7 48-1 66 6 17 17 28 33 32 25 7 47 2 67-15s36-43 46-79c6-19 11-30 15-33s17-2 37 3c17 5 28 10 32 14 3 5 3 15-1 29-13 49-41 89-83 119-43 30-90 38-144 24-60-17-105-58-132-124-28-67-27-155 3-266 29-111 72-190 126-238 55-47 115-63 178-46 55 15 92 51 112 109s18 132-6 222l-12 45-217-59zm82-43l43-159c8-30 1-48-21-54s-37 6-45 36l-43 159 66 18zm438-307c36 10 51 27 44 51-5 20-21 33-49 39-28 7-57 7-88-2-40-10-56-29-49-56 6-21 24-33 55-37s60-2 87 5zm-183 150l9-32c2-11 10-15 23-11l152 40c11 3 15 10 12 21l-148 554c-2 8-3 13-3 15 0 3 3 5 7 9 10 7 13 19 9 34-5 18-9 28-11 31-3 3-8 4-17 1l-185-49c-4-2-7-5-7-9 0-3 1-12 5-27 5-17 12-26 20-27 11-1 18-6 20-15l129-480c5-19 1-32-11-39-5-3-6-8-4-16zm440 131c61-32 111-43 148-33 27 8 49 24 64 51 15 26 18 55 9 89l-123 460c-3 12-2 21 3 28 8 10 10 22 6 36-4 15-8 25-11 28-4 4-9 5-17 2l-123-32c-11-3-18-14-23-32-5-17-5-37 1-58l120-449c2-8 2-17-2-25-4-9-10-14-17-16-13-3-29 0-51 10l-119 445c-3 11-1 22 6 32 6 12 9 20 7 26-6 22-10 35-12 37-2 3-9 3-20 0l-174-46c-7-2-12-5-14-9-1-4-1-11 2-22 4-14 7-23 10-26 2-4 7-7 14-10 11-4 18-13 21-24l158-591c6-22 3-36-10-42-6-3-9-9-7-16l9-34c2-7 7-9 15-7l160 43c12 3 17 11 14 22l-44 163zm478 133c51-38 102-50 151-37 34 9 56 27 69 53 12 27 13 56 4 89l-123 462c-3 10-1 19 5 27 6 6 7 19 2 37-4 15-8 24-11 26s-8 2-16 0l-135-36c-15-22-19-46-12-72l123-459c7-25 0-40-21-46-14-3-31 0-50 10l-121 450c-3 11 0 22 9 31 6 6 7 14 5 24l-7 25c-3 11-12 14-28 10l-170-46c-9-2-13-5-15-8s-1-9 1-19l5-18c3-9 7-15 14-17 9-3 15-7 19-11 3-5 7-15 12-31l126-471c3-11 0-21-10-29-5-5-7-11-5-18l7-26c3-10 8-14 17-11l157 42c7 2 11 4 12 6s1 7-1 13l-13 50zm513 273l25-94c7-25 0-41-21-47-29-8-48 8-59 47-6 22-12 37-20 45-7 8-21 13-40 15s-39 0-58-5c-41-11-55-39-44-82 11-41 38-70 81-87 42-16 92-17 149-1 38 10 70 24 97 42 28 19 47 42 58 72 12 29 13 58 6 87l-118 440c0 2 4 8 10 18 5 6 7 14 4 24-3 13-8 21-12 26-6 4-15 7-30 8-15 0-33-2-53-7-25-7-45-17-59-31s-22-35-24-64c-36 21-64 34-83 37-20 3-39 3-57-2-41-11-68-35-82-73s-11-94 9-166c19-73 43-120 71-142 29-23 77-38 144-45 42-5 78-10 106-15zm-16 62c-41 7-68 19-80 37-13 18-28 62-47 132-14 52-20 85-18 100 3 16 11 25 25 29 25 6 43-11 54-52l66-246zm449-59l-125 468c-3 12-3 22 1 33 5 11 13 18 25 21 16 4 31-2 45-20 15-17 26-42 34-74l4-13c4-17 10-27 17-28 7-2 18 0 33 4 14 3 22 8 25 14 4 6 4 17-1 32-13 50-38 90-74 120-35 30-77 38-125 26-56-16-95-56-116-122s-17-151 11-255c20-78 47-140 79-187 32-46 65-79 98-97 32-18 68-22 108-11 46 12 79 37 98 76 19 38 23 77 12 118-6 21-15 38-28 50-13 13-29 16-47 11-19-5-32-16-38-33s-7-35-1-57c2-9 6-19 11-31 7-13 11-23 13-31 2-9 1-17-4-24-4-7-10-12-18-14s-16-1-23 4c-7 6-12 12-14 20zm395 79c61-32 111-43 148-33 28 7 49 24 64 50s18 56 9 90l-123 459c-3 12-2 22 3 28 8 10 10 22 6 36-4 16-8 25-11 29-4 3-9 4-17 2l-123-33c-11-3-18-13-23-31s-5-37 1-59l120-449c2-8 2-16-2-25-4-8-10-13-17-16-13-3-29 1-51 11l-119 445c-3 10-1 21 6 32 6 11 9 20 7 26-6 22-10 34-12 37s-9 3-20-1l-174-46c-7-2-12-5-14-9-1-3-1-11 2-22 4-14 7-23 10-26 2-3 7-6 14-10 11-4 18-12 21-24l158-591c6-22 3-35-10-42-6-3-9-8-7-15l9-35c2-6 7-9 15-6l161 43c11 3 16 10 13 22l-44 163zm317 90l-19-5c-6-1-9-3-10-5-1-1-1-5 1-11l9-34c2-7 4-11 6-13 2-1 6-1 14 0 24 2 50-4 80-20 29-16 49-36 61-60 4-9 7-13 10-15 3-1 8-1 16 1l31 8c8 3 11 9 8 20l-30 111 30 8c11 3 15 10 13 20l-10 35c-2 10-9 14-21 11l-29-8-134 499c-5 17 0 31 13 43 6 5 10 11 11 17 1 5-1 15-4 28-2 9-4 13-6 14-1 1-5 0-12-2l-152-40c-18-27-21-61-10-103l134-499zm355 367l-52 197c-7 26-8 48-2 65 7 18 18 29 33 33 25 6 47 1 67-15 21-17 36-44 47-79 5-20 10-31 14-34 5-3 17-1 37 4 18 5 28 9 32 14s4 14 0 29c-14 49-41 89-84 119-42 30-90 38-143 24-61-17-105-58-133-125-28-66-27-155 3-266s72-190 127-237c55-48 114-63 177-46 55 15 92 51 113 109 19 58 17 132-7 221l-12 45-217-58zm83-43l42-159c8-30 2-48-20-54s-38 6-46 36l-42 159 66 18zm432-92c52-37 102-50 151-36 34 9 57 26 69 53 12 26 14 56 5 89l-124 461c-3 11-1 20 6 27 6 7 6 19 1 38-4 14-7 23-11 25-3 3-8 3-16 1l-135-37c-15-21-19-45-11-71l122-459c7-25 0-41-21-46-14-4-30-1-50 9l-121 450c-3 12 0 22 10 32 5 5 7 13 4 24l-7 24c-3 11-12 14-27 10l-171-45c-8-3-13-5-15-8-1-3-1-10 2-19l4-18c3-9 8-15 14-18 9-3 16-7 19-11 4-4 8-14 12-31l126-471c3-11 0-21-10-29-5-4-7-10-5-18l7-25c3-11 9-14 18-12l157 42c6 2 11 4 12 6 1 3 0 7-1 13l-14 50zm327 461l-32-8c-6-2-10-4-11-6-1-3 0-10 4-22 4-17 15-102 33-255 14-120 22-184 25-194 6-24 20-42 40-54 21-13 45-16 74-8 28 8 47 22 56 44 10 23 12 46 5 70-4 16-38 98-103 244-42 96-65 151-70 166-3 14-6 22-9 23-2 2-6 2-12 0zm-35 49c24 6 41 21 52 44 10 23 12 48 5 75-7 25-21 47-43 63-21 17-43 22-67 15-22-6-39-20-48-42-10-22-11-47-4-74 8-27 21-49 40-66 20-16 41-21 65-15z"/>
</svg>
