<?xml version="1.0" encoding="UTF-8"?>
<svg viewBox="0 0 58 50" xmlns="http://www.w3.org/2000/svg" xmlns:xlink="http://www.w3.org/1999/xlink">
 <defs>
  <filter id="t" x="-.17386" y="-.13603" width="1.3477" height="1.2721">
   <feGaussianBlur stdDeviation=".3714"/>
  </filter>
  <filter id="s" x="-.28811" y="-.14614" width="1.5762" height="1.2923">
   <feGaussianBlur stdDeviation=".3714"/>
  </filter>
  <filter id="q" x="-.46047" y="-.13971" width="1.9209" height="1.2794">
   <feGaussianBlur stdDeviation=".3714"/>
  </filter>
  <filter id="r" x="-.57582" y="-.09952" width="2.1516" height="1.199">
   <feGaussianBlur stdDeviation=".3714"/>
  </filter>
  <filter id="d" x="-.32479" y="-.12903" width="1.6496" height="1.258">
   <feGaussianBlur stdDeviation=".4704"/>
  </filter>
  <filter id="u" x="-.1228" y="-.20021" width="1.2456" height="1.4004">
   <feGaussianBlur stdDeviation=".4704"/>
  </filter>
  <filter id="h" x="-.30128" y="-.43216" width="1.6026" height="1.8643">
   <feGaussianBlur stdDeviation=".3662"/>
  </filter>
  <filter id="e" x="-.33993" y="-.18412" width="1.6799" height="1.3682">
   <feGaussianBlur stdDeviation=".3662"/>
  </filter>
  <linearGradient id="a">
   <stop stop-color="#ffcb00" offset="0"/>
   <stop stop-color="#ffae00" offset=".5"/>
   <stop stop-color="#ffcb00" offset="1"/>
  </linearGradient>
  <linearGradient id="c">
   <stop stop-color="#f90" offset="0"/>
   <stop stop-color="#ffcb00" offset="1"/>
  </linearGradient>
  <linearGradient id="b">
   <stop stop-color="#ff5959" offset="0"/>
   <stop stop-color="#d90000" offset="1"/>
  </linearGradient>
  <linearGradient id="g" x1=".42614" x2=".96195" y1=".13855" y2=".55747" xlink:href="#c"/>
  <linearGradient id="j" x1=".92897" x2="-.36242" y1="-.08871" y2="1.189" xlink:href="#a"/>
  <linearGradient id="k" x1=".20821" x2="1.2354" y1=".19387" y2=".53151" xlink:href="#c"/>
  <linearGradient id="m" x1="1.6687" x2="-.04986" y1=".6755" y2=".28945" xlink:href="#a"/>
  <radialGradient id="f" cx="23.981" cy="14.054" r="4.5" gradientTransform="matrix(.92584 1.3774 -1.6709 1.1231 24.261 971.1)" gradientUnits="userSpaceOnUse" xlink:href="#a"/>
  <radialGradient id="i" cx="201.65" cy="55.183" r="13.94" gradientTransform="matrix(.97094 -1.4871 2.1155 1.6369 -110.88 265.36)" gradientUnits="userSpaceOnUse" xlink:href="#a"/>
  <radialGradient id="l" cx="-736.6" cy="7.9096" r="13.94" gradientTransform="matrix(1.1128 .21812 -.35232 2.1302 1023.2 195.6)" gradientUnits="userSpaceOnUse" xlink:href="#a"/>
  <radialGradient id="p" cx="22.893" cy="10.922" r="6" gradientTransform="matrix(1.0179 .80966 -.53436 .6718 5.4266 989.63)" gradientUnits="userSpaceOnUse" xlink:href="#b"/>
  <radialGradient id="n" cx="7.513" cy="9.4418" r="9.4171" gradientTransform="matrix(.90123 1.0409 -.80907 .70049 8.3811 999.12)" gradientUnits="userSpaceOnUse" xlink:href="#b"/>
  <radialGradient id="o" cx="32.792" cy="11.287" r="9.4733" gradientTransform="matrix(1.1831 1.1462 -.73132 .75489 2.2498 969.4)" gradientUnits="userSpaceOnUse" xlink:href="#b"/>
 </defs>
 <path transform="translate(4.4958 -1005.5)" d="m29 1021.4c0 2.49-2.0147 4.5-4.5 4.5s-4.5-2.01-4.5-4.5c0-2.48 2.0147-4.5 4.5-4.5s4.5 2.02 4.5 4.5z" fill="url(#f)" fill-rule="evenodd"/>
 <g transform="matrix(-.08616 .23903 -.21958 -.079148 39.575 -14.72)" fill-rule="evenodd">
  <path transform="matrix(-.95174 -.30689 .30689 -.95174 210.55 127.24)" d="m29.138 44.9c-20.87 11.74-21.904 84.436 6.819 104.77 16.341-15.016 20.428-76.992-6.694-104.68-0.03522-0.03832-0.08991-0.05529-0.125-0.09375z" fill="url(#g)"/>
  <path d="m188.78 58.069c7.8066 15.302 27.616 6.1931 26.47-11.61-2.822-22.217-34.735-10.813-26.47 11.61z" fill="url(#i)"/>
  <path transform="matrix(-.95174 -.30689 .30689 -.95174 210.55 127.24)" d="m28.99 45.109c28.779 44.481 18.31 89.026 6.8438 104.97 19.391-20.708 47.837-22.082 55.375-26.875s18.03-10.315 16.719-32.438c-1.6386-29.128-30.805-24.706-37.688-25.812-6.8715-1.1044-28.461-5.8834-41.25-19.844z" fill="url(#j)"/>
 </g>
 <g transform="matrix(.08616 .23903 .21958 -.079148 17.928 -13.584)" fill-rule="evenodd">
  <path transform="matrix(-.95174 -.30689 .30689 -.95174 210.55 127.24)" d="m29.138 44.9c-20.87 11.74-21.904 84.436 6.819 104.77 16.341-15.016 20.428-76.992-6.694-104.68-0.03522-0.03832-0.08991-0.05529-0.125-0.09375z" fill="url(#k)"/>
  <path d="m188.78 58.069c7.8066 15.302 27.616 6.1931 26.47-11.61-2.822-22.217-34.735-10.813-26.47 11.61z" fill="url(#l)"/>
  <path transform="matrix(-.95174 -.30689 .30689 -.95174 210.55 127.24)" d="m28.99 45.109c28.779 44.481 18.31 89.026 6.8438 104.97 19.391-20.708 47.837-22.082 55.375-26.875s18.03-10.315 16.719-32.438c-1.6386-29.128-30.805-24.706-37.688-25.812-6.8715-1.1044-28.461-5.8834-41.25-19.844z" fill="url(#m)"/>
 </g>
 <path transform="translate(4.4958 -1005.5)" d="m18.811 1013.8c-2.8108-3.47-12.811-7.47-15.811-6.47-2 1 0.39465 3.46 0 7-0.58143 5.21-1.9663 11.59 1 13 5.4295-1.3 10.59-1.44 17-7l-2.1892-6.53z" fill="url(#n)"/>
 <path transform="translate(4.4958 -1005.5)" d="m29.384 1014c2.6162-1.67 13.616-7.67 15.616-4.67 1 1-1 4 0.4095 8.23 1.1688 3.5 0.308 7.34-1.4095 10.77-6 1-11-7-17-8l2.3838-6.33z" fill="url(#o)"/>
 <path transform="translate(4.4958 -1005.5)" d="m21.4703,1021.1c1.6955,1.53 4.1726.72 6.5297.26 1.3714-2.66 1.3965-5.33 2-8-5.1311-2.95-8.8875-1.38-12,0 .753,2.58 1.0804,5.16 3.4703,7.74z" fill="url(#p)"/>
 <path transform="translate(4.4958 -1005.5)" d="m4.773 1008.1c-3.5932-2.54-1.0455 4.52-1.2374 5.83 0 0 0-5.12 1.2374-5.83z" fill="#fff" fill-opacity=".7054" filter="url(#q)"/>
 <path transform="translate(4.4958 -1005.5)" d="m3.0052,1017.89c.19844,3.01-1.94845,6.55.97228,8.93-1.05589.42-.07004-3.83-.97228-8.93z" fill="#fff" fill-opacity=".7054" filter="url(#r)"/>
 <path transform="translate(4.4958 -1005.5)" d="m21.6551,1012.85-3.0935.89 2.1213,5.21c.252-2.02-2.4736-3.65.9722-6.1z" fill="#fff" fill-opacity=".7054" filter="url(#s)"/>
 <path transform="translate(4.4958 -1005.5)" d="m34.4715,1012.23c-.7071-.17-4.4195,1.77-4.4195,1.77 .5714,1.39-.4385,3.18-.7071,4.77 .2216-3.99 2.5675-5.58 5.1266-6.54z" fill="#fff" fill-opacity=".7054" filter="url(#t)"/>
 <path transform="translate(4.4958 -1005.5)" d="m3.4472 1031.6c3.9968-0.71 6.2518-3.5 9.1924-5.48 0.0951-0.01-3.9488 6.75-9.1924 5.48z" fill="#fff" fill-opacity=".7902" filter="url(#u)"/>
 <path transform="translate(4.4958 -1005.5)" d="m27.224 1024.8c-2.465 1.02-3.0668 6.25-3.0052 8.75-0.348-0.43-1.7781-8.33 3.0052-8.75z" fill="#fff" fill-opacity=".7902" filter="url(#d)"/>
 <path transform="translate(4.4958 -1005.5)" d="m3.6239 1033.4c0.20777 1.96 1.0892 3.52 2.4749 4.77-1.7115-0.34-2.9745-2.66-2.4749-4.77z" fill="#fff" filter="url(#e)"/>
 <path transform="translate(4.4958 -1005.5)" d="m38.802 1037.5 2.9168 2.04s-2.6517 0.08-2.9168-2.04z" fill="#fff" filter="url(#h)"/>
</svg>
