<?xml version="1.0" encoding="UTF-8"?>
<svg viewBox="0 0 48 48" xmlns="http://www.w3.org/2000/svg" xmlns:xlink="http://www.w3.org/1999/xlink">
 <defs>
  <filter id="m"/>
  <filter id="b" x="-.17728" y="-.12096" width="1.3546" height="1.2419">
   <feGaussianBlur stdDeviation=".21341"/>
  </filter>
  <filter id="l" x="-.276" y="-.14554" width="1.552" height="1.2911">
   <feGaussianBlur stdDeviation=".38153"/>
  </filter>
  <filter id="e" x="-.276" y="-.14974" width="1.552" height="1.2995">
   <feGaussianBlur stdDeviation=".38153"/>
  </filter>
  <filter id="n" x="-.05521" y="-.24153" width="1.1104" height="1.4831">
   <feGaussianBlur stdDeviation=".80511"/>
  </filter>
  <linearGradient id="c">
   <stop stop-color="#286325" offset="0"/>
   <stop stop-color="#7ed249" offset="1"/>
  </linearGradient>
  <linearGradient id="d">
   <stop stop-color="#520" offset="0"/>
   <stop stop-color="#b6632c" offset="1"/>
  </linearGradient>
  <linearGradient id="k" x1="31" x2="25" y1="22.908" y2="8.9083" gradientUnits="userSpaceOnUse" xlink:href="#c"/>
  <linearGradient id="j" x1="24" x2="22" y1="30.908" y2="20.908" gradientUnits="userSpaceOnUse" xlink:href="#c"/>
  <linearGradient id="i" x1="35" x2="29" y1="38.908" y2="22.908" gradientUnits="userSpaceOnUse" xlink:href="#c"/>
  <linearGradient id="h" x1="22.862" x2="23.096" y1="42.255" y2="34.986" gradientUnits="userSpaceOnUse" xlink:href="#d"/>
  <radialGradient id="a" cx="-20.5" cy="5.25" r="5.5" gradientTransform="matrix(1.1818 1.2727 -.73279 .68045 7.5744 27.769)" gradientUnits="userSpaceOnUse">
   <stop stop-color="#ff5959" offset="0"/>
   <stop stop-color="#d90000" offset="1"/>
  </radialGradient>
  <radialGradient id="g" cx="31.33" cy="2.3424" r="4.1523" gradientTransform="matrix(-1.5812 .97043 -.50762 -.82708 76.578 -25.823)" gradientUnits="userSpaceOnUse">
   <stop stop-color="#ffd73b" offset="0"/>
   <stop stop-color="#ee8400" offset="1"/>
  </radialGradient>
  <radialGradient id="f" cx="20.165" cy="33.851" r="10.786" gradientTransform="matrix(1.5661 .07183 -.024099 .52541 -10.599 17.804)" gradientUnits="userSpaceOnUse" xlink:href="#d"/>
 </defs>
 <path transform="matrix(.68169 0 0 1.0581 7.8128 -3.4828)" d="m42 41a17.5 4 0 1 1 -35 0 17.5 4 0 1 1 35 0z" fill-opacity=".76863" fill-rule="evenodd" filter="url(#n)"/>
 <path transform="translate(-.41034,.79102)" d="m35.524 38.738c0 2.072-4.8291 3.7517-10.786 3.7517s-10.786-1.6797-10.786-3.7517c0-0.13168-0.0634-1.0908-0.02534-1.219 0.56078-1.8888 5.233-2.5327 10.811-2.5327 5.5964 0 10.322 0.61202 10.858 2.5095 0.03457 0.12227-0.07208 1.1167-0.07208 1.2422z" fill="url(#h)" fill-rule="evenodd"/>
 <path transform="translate(-.46896,-.1469)" d="m35.524 38.738c0 2.072-4.8291 3.7517-10.786 3.7517s-10.786-1.6797-10.786-3.7517 4.8291-3.7517 10.786-3.7517 10.786 1.6797 10.786 3.7517z" fill="url(#f)" fill-rule="evenodd"/>
 <path d="m12 23.908c-0.80569 4.0316-4.7898 5.5736-7 8-1.1319 10.924 42.913 9.6101 39 1-2.5349-2.5201-7-5-8-9h-24z" fill="url(#i)"/>
 <path d="m17 15.908c-0.9061 3.4272-4.918 4.7486-7 7-3 9 33 8 28 0-2.1633-2.17-6-3-7-7h-14z" fill="url(#j)"/>
 <path d="m24 3.9083c-2.2588 4.285-5.0866 7.2424-8 10-6 8 23 8 16 0-4.8848-3.3333-5.7235-6.6667-8-10z" fill="url(#k)"/>
 <path d="m17.779 12.513c-0.66426 0.57286-1.2678 1.2064-1.838 1.8733-0.54888 0.96443-0.77873 1.9466 0.35346 3.0044 0.90886 0.68828 1.6865 0.98301 2.5096 1.4138-1.9238-2.099-2.2112-4.1926-1.025-6.2916z" fill="#fff" fill-opacity=".60714" filter="url(#l)"/>
 <g transform="translate(.2931,.26344)">
  <path transform="matrix(.47711 -.10434 .10434 .47711 27.975 6.3187)" d="m-14 6.75c0 3.0376-2.4624 5.5-5.5 5.5s-5.5-2.4624-5.5-5.5 2.4624-5.5 5.5-5.5 5.5 2.4624 5.5 5.5z" fill="url(#a)" fill-rule="evenodd"/>
  <path d="m17.472 13.234c-0.13594-1.6128 0.36663-3.0888 2.4103-4.2345 0 0-4.2968 0.42122-2.4103 4.2345z" fill="#fff" fill-opacity=".71875" filter="url(#b)"/>
 </g>
 <g transform="translate(11.021 3.4289)">
  <path transform="matrix(.47711 -.10434 .10434 .47711 27.975 6.3187)" d="m-14 6.75c0 3.0376-2.4624 5.5-5.5 5.5s-5.5-2.4624-5.5-5.5 2.4624-5.5 5.5-5.5 5.5 2.4624 5.5 5.5z" fill="url(#a)" fill-rule="evenodd"/>
  <path d="m17.472 13.234c-0.13594-1.6128 0.36663-3.0888 2.4103-4.2345 0 0-4.2968 0.42122-2.4103 4.2345z" fill="#fff" fill-opacity=".71875" filter="url(#b)"/>
 </g>
 <path d="m12.619 21.208c-0.66426 0.57286-1.4445 1.0297-2.0147 1.6966-0.54888 0.96443-0.77873 1.9466 0.35346 3.0044 0.90886 0.68828 1.6865 0.98301 2.5096 1.4138-1.9238-2.099-2.0345-4.0159-0.84831-6.1149z" fill="#fff" fill-opacity=".60714" filter="url(#e)"/>
 <g transform="translate(-4.6896 9.4082)">
  <path transform="matrix(.47711 -.10434 .10434 .47711 27.975 6.3187)" d="m-14 6.75c0 3.0376-2.4624 5.5-5.5 5.5s-5.5-2.4624-5.5-5.5 2.4624-5.5 5.5-5.5 5.5 2.4624 5.5 5.5z" fill="url(#a)" fill-rule="evenodd"/>
  <path d="m17.472 13.234c-0.13594-1.6128 0.36663-3.0888 2.4103-4.2345 0 0-4.2968 0.42122-2.4103 4.2345z" fill="#fff" fill-opacity=".71875" filter="url(#b)"/>
 </g>
 <g transform="translate(7.6206 14.508)">
  <path transform="matrix(.47711 -.10434 .10434 .47711 27.975 6.3187)" d="m-14 6.75c0 3.0376-2.4624 5.5-5.5 5.5s-5.5-2.4624-5.5-5.5 2.4624-5.5 5.5-5.5 5.5 2.4624 5.5 5.5z" fill="url(#a)" fill-rule="evenodd"/>
  <path d="m17.472 13.234c-0.13594-1.6128 0.36663-3.0888 2.4103-4.2345 0 0-4.2968 0.42122-2.4103 4.2345z" fill="#fff" fill-opacity=".71875" filter="url(#b)"/>
 </g>
 <g transform="translate(15.359 10.463)">
  <path transform="matrix(.47711 -.10434 .10434 .47711 27.975 6.3187)" d="m-14 6.75c0 3.0376-2.4624 5.5-5.5 5.5s-5.5-2.4624-5.5-5.5 2.4624-5.5 5.5-5.5 5.5 2.4624 5.5 5.5z" fill="url(#a)" fill-rule="evenodd"/>
  <path d="m17.472 13.234c-0.13594-1.6128 0.36663-3.0888 2.4103-4.2345 0 0-4.2968 0.42122-2.4103 4.2345z" fill="#fff" fill-opacity=".71875" filter="url(#b)"/>
 </g>
 <g transform="translate(19.755 17.967)">
  <path transform="matrix(.47711 -.10434 .10434 .47711 27.975 6.3187)" d="m-14 6.75c0 3.0376-2.4624 5.5-5.5 5.5s-5.5-2.4624-5.5-5.5 2.4624-5.5 5.5-5.5 5.5 2.4624 5.5 5.5z" fill="url(#a)" fill-rule="evenodd"/>
  <path d="m17.472 13.234c-0.13594-1.6128 0.36663-3.0888 2.4103-4.2345 0 0-4.2968 0.42122-2.4103 4.2345z" fill="#fff" fill-opacity=".71875" filter="url(#b)"/>
 </g>
 <path d="m7.8468 29.903c-0.66426 0.57286-1.4445 1.0297-2.0147 1.6966-0.54888 0.96443-0.77873 1.9466 0.35346 3.0044 0.90886 0.68828 1.6865 0.98301 2.5096 1.4138-1.9238-2.099-2.0345-4.0159-0.84831-6.1149z" fill="#fff" fill-opacity=".60714" filter="url(#e)"/>
 <g transform="translate(-11.079 20.429)">
  <path transform="matrix(.47711 -.10434 .10434 .47711 27.975 6.3187)" d="m-14 6.75c0 3.0376-2.4624 5.5-5.5 5.5s-5.5-2.4624-5.5-5.5 2.4624-5.5 5.5-5.5 5.5 2.4624 5.5 5.5z" fill="url(#a)" fill-rule="evenodd"/>
  <path d="m17.472 13.234c-0.13594-1.6128 0.36663-3.0888 2.4103-4.2345 0 0-4.2968 0.42122-2.4103 4.2345z" fill="#fff" fill-opacity=".71875" filter="url(#b)"/>
 </g>
 <g transform="translate(.17586 20.429)">
  <path transform="matrix(.47711 -.10434 .10434 .47711 27.975 6.3187)" d="m-14 6.75c0 3.0376-2.4624 5.5-5.5 5.5s-5.5-2.4624-5.5-5.5 2.4624-5.5 5.5-5.5 5.5 2.4624 5.5 5.5z" fill="url(#a)" fill-rule="evenodd"/>
  <path d="m17.472 13.234c-0.13594-1.6128 0.36663-3.0888 2.4103-4.2345 0 0-4.2968 0.42122-2.4103 4.2345z" fill="#fff" fill-opacity=".71875" filter="url(#b)"/>
 </g>
 <g transform="translate(12.427 24.005)">
  <path transform="matrix(.47711 -.10434 .10434 .47711 27.975 6.3187)" d="m-14 6.75c0 3.0376-2.4624 5.5-5.5 5.5s-5.5-2.4624-5.5-5.5 2.4624-5.5 5.5-5.5 5.5 2.4624 5.5 5.5z" fill="url(#a)" fill-rule="evenodd"/>
  <path d="m17.472 13.234c-0.13594-1.6128 0.36663-3.0888 2.4103-4.2345 0 0-4.2968 0.42122-2.4103 4.2345z" fill="#fff" fill-opacity=".71875" filter="url(#b)"/>
 </g>
 <path transform="matrix(1 0 0 .91999 -2.8724 3.0835)" d="m29.369 6.6727-2.4817-1.5101-2.6509 1.1883 0.66928-2.8269-1.9493-2.1539 2.8953-0.23702 1.4462-2.5195 1.1201 2.6804 2.843 0.59681-2.203 1.8936 0.31095 2.8883z" fill="url(#g)" fill-rule="evenodd"/>
 <path d="m24.46875,2.34375-.96875,1.46875c.3712-.27383.70148-.61714 1.25-.625l-.28125-.84375zm-1.34375,1.96875-2.6875.15625 1.625,1.5625c-.37632-.83796.12252-1.3509 1.0625-1.71875z" fill="#fff" fill-opacity=".82231" filter="url(#m)"/>
</svg>
