<?xml version="1.0" encoding="UTF-8"?>
<svg viewBox="0 0 369.43 370.1" xmlns="http://www.w3.org/2000/svg">
 <defs>
  <linearGradient id="d" x1=".44094" x2=".66688" y1=".63458" y2=".63458">
   <stop stop-color="#ffb142" offset="0"/>
   <stop stop-color="#c87600" offset="1"/>
  </linearGradient>
  <radialGradient id="e" cx="414.68" cy="-8.8805" r="123.55" gradientTransform="matrix(-5.8291e-6 .89418 -1.9479 1.1251e-8 338.39 257.17)" gradientUnits="userSpaceOnUse">
   <stop stop-color="#ffb142" offset="0"/>
   <stop stop-color="#ffb141" offset=".88679"/>
   <stop stop-color="#c87600" offset="1"/>
  </radialGradient>
  <radialGradient id="f">
   <stop stop-color="#fff" offset="0"/>
   <stop stop-opacity=".996" offset=".99609"/>
  </radialGradient>
 </defs>
 <g fill-rule="evenodd">
  <path d="m147.24 317.14c-48.083 4.9497-103.23 43.858-81.312 52.344 21.92 8.4853 85.542 12.024 97.562 2.125 6.177-5.087 17.229-17.827 18.531-29.781 1.3042 11.953 12.324 24.695 18.5 29.781 12.021 9.8995 75.673 6.3603 97.594-2.125 21.92-8.4853-33.229-47.394-81.312-52.344-24.76 2.3865-33.666 10.706-34.781 20.25-1.1158-9.5442-10.022-17.864-34.781-20.25z" fill="url(#e)" stroke-width="0"/>
  <path d="m147.25 317.16c-23.6 2.4294-48.881 13.04-65.938 24.219 25.832 11.947 57.418 19.309 91.656 20.156 4.3872-5.7724 8.3176-12.85 9.0625-19.688 0.73903 6.7733 4.5772 13.788 8.9062 19.531 33.676-1.4258 64.607-9.1457 89.781-21.312-16.995-10.691-41.222-20.571-63.906-22.906-24.76 2.3865-33.666 10.706-34.781 20.25-1.1158-9.5442-10.022-17.864-34.781-20.25z" fill-opacity=".314" stroke-width="5"/>
 </g>
 <g stroke-linecap="round">
  <g stroke-width="0">
   <path d="m347.17 172.06a165.56 165.56 0 1 1 -331.13 0 165.56 165.56 0 1 1 331.13 0z" fill="url(#f)"/>
   <path d="m261.45 260.85a80.264 80.264 0 1 1 -160.53 0 80.264 80.264 0 1 1 160.53 0z" fill="#fff"/>
  </g>
  <path d="m338.66 132.03c0.33606 4.3048 0.53125 8.6406 0.53125 13.031 0 91.391-74.202 165.56-165.59 165.56-75.42 0-139.07-50.513-159.03-119.53 6.6593 85.301 78.03 152.53 165.03 152.53 91.391 0 165.59-74.171 165.59-165.56 0-15.971-2.3048-31.416-6.5312-46.031z" fill-opacity=".314" stroke-width="5"/>
 </g>
 <g fill-rule="evenodd">
  <path d="m180.64 150.41c-14.479 0-30.217 13.186-29.588 21.514 0.62952 8.3281 25.81 43.029 31.476 43.029 5.6657 0 27.699-34.006 27.07-43.723-0.62955-9.7161-19.515-21.514-28.958-20.82z" fill-opacity=".314" stroke-width="5"/>
  <g stroke-width="0">
   <path d="m55.537 141.84c48.111 17.3-14.163 94.143 37.819 161.19 9.6084 12.393-57.868 2.0908-81.723-66.585-23.198-66.786-1.1324-107.54 43.904-94.607z" fill="#fff"/>
   <path d="m56.737 141.04c48.111 17.3-42.588 102.12 37.819 161.19 22.626 16.622-57.868 2.0908-81.723-66.585-23.198-66.786-1.1324-107.54 43.904-94.607z"/>
   <path d="m312.69 140.24c-48.111 17.3 14.163 94.143-37.819 161.19-9.6084 12.393 57.868 2.0908 81.723-66.585 23.198-66.786 1.1323-107.54-43.904-94.607z" fill="#fff"/>
   <path d="m313.89 140.24c-48.111 17.3 42.588 102.12-37.819 161.19-22.626 16.622 57.868 2.0908 81.723-66.585 23.198-66.786 1.1323-107.54-43.904-94.607z"/>
  </g>
 </g>
 <g stroke="#000">
  <g stroke-width="0">
   <path d="m147.62 67.892c-22.935 0-41.562 21.434-41.562 47.844s18.628 47.844 41.562 47.844c13.478 0 25.439-7.4105 33.031-18.875 7.5922 11.473 19.579 18.875 33.062 18.875 22.935 0 41.562-21.434 41.562-47.844s-18.628-47.844-41.562-47.844c-13.482 0-25.47 7.4045-33.062 18.875-7.5928-11.462-19.555-18.875-33.031-18.875z" fill="#fff" stroke-linecap="round"/>
   <path d="m180.35 142.07c-14.479 0-30.217 11.961-29.588 19.515 0.62952 7.5543 25.81 39.03 31.476 39.03 5.6657 0 27.699-30.847 27.069-39.66-0.62952-8.8133-19.515-19.515-28.958-18.886z" fill="url(#d)" fill-rule="evenodd"/>
  </g>
  <g stroke-linecap="round" stroke-width="5">
   <path d="m173.38 124.16a10.387 10.387 0 1 1 -20.774 0 10.387 10.387 0 1 1 20.774 0z"/>
   <path d="m210.57 124.16a10.387 10.387 0 1 1 -20.774 0 10.387 10.387 0 1 1 20.774 0z"/>
  </g>
 </g>
 <g transform="matrix(.73937 .074296 -.074296 .73937 -20.779 -168.77)" fill-rule="evenodd" stroke-width="0">
  <path d="m240.27 36.279c-28.101 7.734-56.904 23.114-77.167 38.006-20.262 14.892-73.191 52.416-85.275 64.307-11.716 11.529-25.555 15.55-31.611 29.756-2.3354 5.4786 15.837 22.005 19.398 23.721 9.2413 4.4528 24.304-3.4428 31.178-3.9143 22.307-1.5303 45.167-4.4987 67.76 10.793-4.1805 4.2205 2.458-0.32326-6.0877 36.694-3.0135 13.053-9.5988 46.919-1.5071 53.38 8.0394 6.4196 12.949-18.606 20.937-14.774-0.003998 0.005981-0.001678 0.021057-0.004547 0.026428-0.00174 0.004822-0.003906 0.022217-0.004517 0.026428 4.58e-4 0.003662-0.006134 0.023315-0.004547 0.026428 0.002686 0.002563 0.021088 0.002808 0.024841 0.004822 0.024323 0.007263 0.077667 0.003662 0.12878-0.002319 0.015045 0.007263 0.034668 0.00238 0.049713 0.009644 0.056458 0.027161 0.10791 0.059143 0.16489 0.086609l0.0475-0.1273c3.7814-0.9773 33.263-13.966 60.176-8.743 15.171 2.9441 39.369-5.3096 53.29-9.6152 22.076-6.828 53.068-12.998 72.728-13.351 14.483-0.25954 27.587-8.459 41.521-9.4148 8.2204-0.56393 0.59821-27.066 0.42828-29.866-0.81659-13.455-17.565-34.13-26.191-52.504-8.626-18.373-23.082-41.697-39.004-59.986s-37.402-41.971-52.525-49.259c-15.124-7.2872-17.953-13.675-48.451-5.2817z" fill="#d00000" stroke="#000"/>
  <path d="m173.12 100.84c-18.233 4.4166-33.848 62.691-56.319 72.822-14.697 6.6258-54.749 16.693-51.188 18.408 9.2413 4.4528 24.304-3.4428 31.178-3.9143 22.307-1.5303 45.167-4.4987 67.76 10.793-4.1805 4.2205 2.458-0.32326-6.0877 36.694-3.0135 13.053-9.5988 46.919-1.5071 53.38 8.0394 6.4196 12.949-18.606 20.937-14.774-0.003998 0.005981-0.001678 0.021057-0.004547 0.026428-0.00174 0.004822-0.003906 0.022217-0.004517 0.026428 4.58e-4 0.003662-0.006134 0.023315-0.004547 0.026428 0.002686 0.002563 0.021088 0.002808 0.024841 0.004822 0.024323 0.007263 0.077667 0.003662 0.12878-0.002319 0.015045 0.007263 0.034668 0.00238 0.049713 0.009644 0.056458 0.027161 0.10791 0.059143 0.16489 0.086609l0.0475-0.1273c3.7814-0.9773 33.263-13.966 60.176-8.743 15.171 2.9441 39.369-5.3096 53.29-9.6152 22.076-6.828 53.068-12.998 72.728-13.351 14.483-0.25954 27.587-8.459 41.521-9.4148 8.2204-0.56393-51.085 4.5206-27.45-12.576 10.485-7.5843-104.98 15.808-149.31-34.777-43.895-50.088-37.455-89.506-56.127-84.983z" fill="#0e0000" opacity=".101"/>
  <g stroke="#000">
   <path d="m48.086 162.13c3.5509 2.3529 27.398 32.517 30.215 30.406 0.34059-3.3309-2.4407-4.6421-4.3971-5.0224 2.6196-3.3292 3.1134-6.8106-1.4325-7.1096-5.0402-0.88997-10.542-1.5143-5.1325-6.9359 2.4978-3.0387-0.16794-8.4351-1.7017-11.18-4.0295-2.1764-7.066-6.1144-8.7176-8.7913" opacity=".27"/>
   <path d="m371.76 227.08c-7.4512-2.6426-16.801-5.6948-23.39-5.2874-4.525-3.8225-7.9982 0.88788-11.919 2.1416-0.65796-7.3597-11.511 3.1123-16.291 3.1725-3.3945 1.9483-1.0548-5.8005-7.1335-2.8531-7.5576 0.71399-12.232 1.2332-17.839 3.6605-1.3466 8.0128-13.449 12.527-15.26 3.7443-6.5985 2.8714-18.869 8.4412-18.948-0.64163-10.564 8.194-10.9 15.598-21.214 19.553 0.9126-7.0922-22.371-10.908-25.544-3.4647-6.3896 2.5731 1.3292-9.321-7.9045-6.0523-10.401-3.0239-4.347 17.935-25.554 9.366-11.808-0.37982-5.2687 16.719-13.061 23.882-2.0761 7.5323-11.084-2.624-14.729-2.0601 0.84796 11.927 3.4077 7.8823 0.71924 15.997-1.6041 10.165-3.7513 15.256 7.4318 17.372 3.6212-4.9036-0.18204-2.829 0.62793 6.2175 6.4576-1.8798 14.946-12.64 14.075-1.5814 4.382-6.6733 18.254-10.151 18.08-17.339 7.0218 0.73706 14.902 8.5794 20.83-0.953 5.9508-7.0412 14.504-10.307 14.594-4.8685 7.2338 6.7565 7.9572 5.3873 15.478 3.6678-1.9372-8.7117 17.599-0.59857 7.2827-9.2717 4.0976-4.1034 15.188-6.5014 21.596-5.0754 5.6695 8.2542 22.944 8.9372 25.632-1.7471 0.564-8.4043 13.682-11.279 18.587-5.4682 8.5297-7.4786 21.984 3.3885 29.324-2.3442-6.5976-8.5629 9.3244-14.158 12.298-7.593 5.8417-3.1367 11.278-14.423 17.668-6.3428 7.3499-2.3952 16.325-5.7256 22.542-8.2218 4.6667 7.6932 16.747-0.2211 11.51-9.5323-2.8348-6.6507 9.3098 3.2744 6.0035-5.1637-3.7609-9.0769-9.0426-21.692-15.514-21.275-8.8124-2.2019-14.038 3.7449-14.403 12.16-0.11142-6.1411-10.522-0.155-15.983 2.0719l-2.9939 0.7123-3.5769-2.5229" opacity=".294"/>
   <path d="m376.69 229.33c-7.4512-2.6426-14.356-3.0141-20.945-2.6067-4.525-3.8225-9.8949-2.5689-13.816-1.3152-0.65796-7.3597-9.614 6.5691-14.395 6.6293-3.3945 1.9483-1.0548-5.8005-7.1336-2.8531-7.5575 0.71399-16.319-3.9722-21.925-1.545-1.3467 8.0128-13.449 12.527-15.26 3.7443-6.5986 2.8714-14.782 13.647-14.862 4.5638-12.384-0.54289-17.69 11.633-28.004 15.588 0.91263-7.0922-15.581-6.943-18.755 0.50038-6.3896 2.5731-1.6992-13.439-10.933-10.17-10.401-3.0239-10.117 17.698-22.525 13.484-11.808-0.37982-10.159 11.358-17.951 18.521-2.0761 7.5323-6.1937 2.7373-9.8394 3.3013 5.9992 8.5138-18.393 6.7404-11.152 19.87-1.6041 10.165 0.84851 17.472 12.032 19.589 3.6212-4.9036 7.0889-8.9191 7.8989 0.12732 6.4576-1.8798 14.946-12.64 14.075-1.5814 4.382-6.6733 18.254-10.151 18.08-17.339 7.0218 0.73706 14.902 8.5794 20.83-0.953 5.9508-7.0412 6.9335-1.296 7.0233 4.1423 7.2338 6.7565 15.528-3.6235 23.049-5.343-1.9372-8.7116 17.599-0.59857 7.2827-9.2717 4.0975-4.1034 15.188-6.5014 21.596-5.0754 5.6232 5.3341 22.944 8.9372 25.632-1.7471 0.564-8.4043 13.682-11.279 18.587-5.4682 8.5297-7.4786 21.984 3.3885 29.324-2.3442-6.5976-8.5629 9.3245-14.158 12.298-7.593 5.8417-3.1367 11.278-14.423 17.668-6.3428 7.3498-2.3952 16.325-5.7256 22.542-8.2218 4.6667 7.6932 16.747-0.2211 11.51-9.5323-2.8348-6.6507 9.3097 3.2744 6.0035-5.1637 0.073853-9.6565-3.5631-24.6-15.514-21.275-8.8124-2.2018-14.038 3.7449-14.403 12.16-0.11145-6.1411-14.026-3.9235-19.486-1.6966l-1.7889 0.9461-1.2786 1.0118" fill="#fff"/>
   <path d="m161.84 218.38c3.1401-40.848 23.786-59.45 20.151-92.121-2.1481-19.31-19.537-4.6727-13.869 13.442" fill="none"/>
  </g>
  <path d="m170.14 274.11c-2.0761 7.5323-6.1937 2.7373-9.8394 3.3013 5.9992 8.5137-18.393 6.7404-11.152 19.87-1.6042 10.165 0.84851 17.472 12.032 19.589 3.6212-4.9036 7.0889-8.9191 7.8989 0.12732 6.4576-1.8798 14.946-12.64 14.075-1.5814 4.382-6.6733 18.254-10.151 18.08-17.339 7.0218 0.73706 14.566 7.3497 20.493-2.1828 5.9508-7.0412 7.27-0.066223 7.3598 5.3721 7.2338 6.7565 15.528-3.6235 23.049-5.343-1.9372-8.7117 8.8664-1.5452 7.2827-9.2717-1.0372-5.0601 33.645-3.562 28.657-8.5104-14.906-14.787-38.191 7.4921-41.56 6.0701-3.3689-1.4221-7.0912-0.55957-2.3849-2.7193 4.7064-2.1597-6.7425 1.3925-16.277-1.9943-9.535-3.3868-16.514 0.8949-17.151 9.3428-7.1818-4.4667-7.6963 0.60687-18.885 3.7181 7.1295-10.423-12.6-2.7689-12.6-2.7689s3.4373-11.428-2.7394-9.9196c3.3207-5.9642-0.3649-7.8016-0.3649-7.8016s1.8191-5.1215-5.9734 2.0414z" opacity=".112"/>
  <path d="m53.108 153.74c-1.3017-2.3183-5.3575-2.9566-5.8794-4.9226 0.90649-2.2834-2.6591-0.62718-3.3617-1.8824-4.1944 3.4336-9.9845 4.9199-13.093 9.6425 1.6528-0.36246 1.6488-2.7786-0.15705-0.99614-3.4011 1.6896-6.6882 4.6577-5.4093 8.8928 0.30978 2.1732-2.4256 4.0433 0.91357 4.558-0.43541 3.4793-5.655 3.3328-5.6581 6.4037 1.1553 3.3495 0.64712 6.8402-2.1007 9.1896-2.718 2.5418-1.5986 6.2831-1.4996 9.3708-1.367 2.0653-2.1364 3.9857-0.33471 5.953 0.38145 3.5482 3.327 5.8976 3.3489 9.5893 1.24 1.9349 3.7267 1.8152 4.9968 4.0018 3.7105 0.3154 3.9827 5.4965 7.5172 6.2151 3.0362 0.99028 6.6286 0.30362 9.3644 1.0298 2.2437 1.819 4.8192 3.0869 7.6439 3.5977 3.5509 2.26 4.7578-3.3648 6.9067-5.176 0.11142-2.832 2.146-3.0523 3.5085-0.66771 3.101 2.1024 6.314-1.5181 8.5372-3.4338 2.1735-2.369 4.6119-4.42 7.0321-6.4972 3.4359-3.8786 4.6558-9.4297 4.4636-14.535 0.34059-3.1993-2.6341-3.3763-4.5905-3.7416 0.88457-2.6823 3.1134-6.5416-1.4325-6.8289-2.607-0.68089-8.5173-3.5936-5.1325-6.662 2.4978-2.9187-0.93975-6.8477-2.4735-9.4842-2.6562-2.1141-4.1995-5.0589-5.8512-7.6301-3.1977-0.50952-6.1943-2.4527-7.0095-5.8451-0.85364-2.694-0.2364-0.69904 0.032967 0.61246" fill="#fff" stroke="#000"/>
  <path d="m26.568 189.34c-1.6013-1.9684 4.7214-1.0412 4.1995-3.0071 0.90649-2.2834-0.17827-2.3785-0.88086-3.6337-4.1944 3.4336-3.2066-4.7009-6.3148 0.021774 1.6528-0.36247 1.381-6.3336-0.42488-4.5512-3.4011 1.6896-2.6805-5.8059-2.6836-2.735 1.1553 3.3495 0.64712 6.8402-2.1007 9.1896-2.718 2.5418-1.5986 6.2831-1.4996 9.3708-1.367 2.0653-2.1364 3.9857-0.33471 5.953 0.38145 3.5482 3.327 5.8976 3.3489 9.5893 1.24 1.9349 3.7267 1.8152 4.9968 4.0018 3.7105 0.3154 3.9827 5.4965 7.5172 6.2151 3.0362 0.99028 6.6286 0.30362 9.3644 1.0298 2.2437 1.819 4.8192 3.0869 7.6439 3.5977 3.5509 2.26 4.7578-3.3648 6.9067-5.176 0.11142-2.832 2.146-3.0523 3.5085-0.66771 3.101 2.1024 6.314-1.5181 8.5372-3.4338 2.1735-2.369-8.346 0.35931-5.9258-1.7178 3.4359-3.8786-7.7525 5.4138-7.9447 0.30847 0.34058-3.1993-12.37 4.0706-9.6785-1.5539 0.88459-2.6823 1.5359-0.74791-3.0101-1.0352-2.607-0.68091-9.8035-5.4936-6.4187-8.5621 2.4978-2.9187-1.3421 0.45638-2.8758-2.1801-2.6562-2.1141-0.95965-0.95001-2.6113-3.5212-3.1977-0.50952-1.7918-1.8166-2.607-5.209-1.3834 3.9801-0.98151-3.6051-0.71214-2.2936z" opacity=".096"/>
  <path d="m163.83 199.86s13.145-33.512 16.303-46.882c2.955-12.509 2.5726-31.603-1.8531-35.137-4.4257-3.5341-10.247 2.5783-10.861 9.816-0.61356 7.2377-1.1274 9.0616 1.8435 22.868 1.3468 6.2585 0.67416 21.093-1.1569 28.095-1.8311 7.0014-5.8267 22.946-4.2758 21.241z" fill-opacity=".223"/>
 </g>
</svg>
