<?xml version="1.0" encoding="UTF-8"?>
<svg viewBox="0 0 640 480" xmlns="http://www.w3.org/2000/svg" xmlns:xlink="http://www.w3.org/1999/xlink">
 <defs>
  <linearGradient id="g" x1="235.36" x2="235.36" y1="718.35" y2="424.74" gradientTransform="scale(1.4349 .69692)" gradientUnits="userSpaceOnUse" xlink:href="#a"/>
  <linearGradient id="f" x1="235.5" x2="235.5" y1="532.66" y2="299.71" gradientTransform="scale(1.4349 .69692)" gradientUnits="userSpaceOnUse" xlink:href="#a"/>
  <linearGradient id="e" x1="235.62" x2="235.62" y1="372.63" y2="192.72" gradientTransform="scale(1.4349 .69692)" gradientUnits="userSpaceOnUse" xlink:href="#a"/>
  <linearGradient id="d" x1="340.03" x2="261.71" y1="643.62" y2="643.62" gradientTransform="scale(1.1365 .8799)" gradientUnits="userSpaceOnUse" spreadMethod="reflect">
   <stop stop-color="#806514" offset="0"/>
   <stop stop-color="#c29a58" offset=".5"/>
   <stop stop-color="#806514" offset="1"/>
  </linearGradient>
  <linearGradient id="a">
   <stop stop-color="#285925" offset="0"/>
   <stop stop-color="#5ce451" offset="1"/>
  </linearGradient>
  <radialGradient id="b" cx="91.89" cy="364.99" r="17.361" fx="92.031" gradientTransform="scale(.97283 1.0279)" gradientUnits="userSpaceOnUse">
   <stop stop-color="#f2867d" offset="0"/>
   <stop stop-color="#ff000a" offset="1"/>
  </radialGradient>
  <radialGradient id="c" cx="316.34" cy="92.979" r="50.265" gradientTransform="scale(.9345 1.0701)" gradientUnits="userSpaceOnUse">
   <stop stop-color="#ffa900" offset="0"/>
   <stop stop-color="#ff0" offset="1"/>
  </radialGradient>
 </defs>
 <g fill-rule="evenodd" stroke="#000">
  <path d="m245.33 329.79c6.6199 38.272-12.09 75.718-24.825 107.79-2.3132 5.8256 8.8544 14.059 14.895 14.059 12.164 0 28.179-10.472 39.719-7.1706 15.766 4.5097 28.135 30.603 42.202 30.603s26.327-26.196 42.202-30.603c12.259-3.4034 29.062 7.1706 42.202 7.1706 6.7198 0 20.112-7.936 17.377-14.059-15.182-33.99-30.617-67.172-27.307-107.79h-146.46z" fill="url(#d)" stroke-width="1.25"/>
  <path d="m319.93 65.294c-110.74 89.227-245.27 198.14-332.21 267.68-21.593 17.275 81.121 30.592 121.54 30.592 37.908 0 76.536-20.744 113.44-19.35 30.622 1.1562 59.204 26.998 89.128 26.998 32.195 0 63.996-25.836 97.231-26.998 39.688-1.3875 81.026 19.35 121.54 19.35 40.513 0 142.22-12.348 121.54-30.592-78.829-69.546-221.47-178.46-332.21-267.68z" fill="url(#g)" stroke-width="2.04"/>
  <path d="m319.91-39.675c-87.853 70.789-194.59 157.19-263.56 212.37-17.131 13.705 64.358 24.271 96.424 24.271 30.074 0 60.721-16.457 89.996-15.352 24.294 0.91724 46.97 21.419 70.711 21.419 25.542 0 50.772-20.498 77.139-21.419 31.487-1.1008 64.282 15.352 96.424 15.352 32.141 0 112.83-9.7967 96.424-24.271-62.54-55.175-175.71-141.58-263.56-212.37z" fill="url(#f)" stroke-width="1.618"/>
  <g stroke-width="1.25">
   <path d="m319.89-129.48c-67.854 54.675-150.29 121.41-203.56 164.02-13.231 10.585 49.708 18.746 74.474 18.746 23.228 0 46.898-12.711 69.509-11.857 18.764 0.70844 36.278 16.544 54.614 16.544 19.728 0 39.214-15.832 59.579-16.544 24.319-0.8502 49.649 11.857 74.474 11.857s87.145-7.5666 74.474-18.746c-48.303-42.615-135.71-109.35-203.56-164.02z" fill="url(#e)"/>
   <path d="m379.41-124.79c-3.3254 5.3808-37.768-9.3301-43.498-6.2396-5.7301 3.0905-9.7907 38.568-16.39 38.54-6.5995-0.027885-10.324-35.538-16.024-38.677-5.7006-3.1388-40.281 11.28-43.555 5.8718-3.2742-5.4087 27.444-26.208 27.474-32.437 0.029541-6.2293-30.49-27.287-27.165-32.668 3.3253-5.3808 37.768 9.3301 43.498 6.2396 5.7301-3.0905 9.7907-38.568 16.39-38.54 6.5995 0.027878 10.324 35.538 16.024 38.677 5.7006 3.1388 40.281-11.28 43.555-5.8718 3.2741 5.4087-27.444 26.208-27.474 32.437-0.029541 6.2293 30.49 27.287 27.165 32.668z" fill="url(#c)"/>
  </g>
  <path d="m211.82 278.24c0.002899 11.649-9.4452 21.094-21.101 21.094s-21.104-9.445-21.101-21.094c-0.002899-11.649 9.4452-21.094 21.101-21.094s21.104 9.445 21.101 21.094z" fill="url(#b)" stroke-width="1.25"/>
  <g fill="url(#b)" stroke-width="1.25">
   <path d="m195.68 186.85c0.002899 11.649-9.4452 21.094-21.101 21.094s-21.104-9.445-21.101-21.094c-0.002869-11.649 9.4452-21.094 21.101-21.094s21.104 9.445 21.101 21.094z"/>
   <path d="m357.85 193.88c0.002869 11.649-9.4452 21.094-21.101 21.094s-21.104-9.445-21.101-21.094c-0.002869-11.649 9.4452-21.094 21.101-21.094s21.104 9.445 21.101 21.094z"/>
   <path d="m241.61 4.0843c0.002899 11.649-9.4452 21.094-21.101 21.094s-21.104-9.445-21.101-21.094c-0.002899-11.649 9.4452-21.094 21.101-21.094s21.104 9.445 21.101 21.094z"/>
   <path d="m425.31 36.889c0.002869 11.649-9.4452 21.094-21.101 21.094s-21.104-9.445-21.101-21.094c-0.002869-11.649 9.4452-21.094 21.101-21.094s21.104 9.445 21.101 21.094z"/>
   <path d="m286.29 107.19c0.002899 11.649-9.4452 21.094-21.101 21.094s-21.104-9.445-21.101-21.094c-0.002838-11.649 9.4452-21.094 21.101-21.094s21.104 9.445 21.101 21.094z"/>
   <path d="m541.98 189.2c0.002869 11.649-9.4452 21.094-21.101 21.094s-21.104-9.445-21.101-21.094c-0.002869-11.649 9.4452-21.094 21.101-21.094s21.104 9.445 21.101 21.094z"/>
   <path d="m462.54 247.78c0.002869 11.649-9.4452 21.094-21.101 21.094s-21.104-9.445-21.101-21.094c-0.00293-11.649 9.4452-21.094 21.101-21.094s21.104 9.445 21.101 21.094z"/>
   <path d="m70.315 346.19c0.002899 11.649-9.4452 21.094-21.101 21.094s-21.104-9.445-21.101-21.094c-0.002884-11.649 9.4452-21.094 21.101-21.094s21.104 9.445 21.101 21.094z"/>
   <path d="m366.97-45.123c0.002869 11.649-9.4452 21.094-21.101 21.094s-21.104-9.445-21.101-21.094c-0.002899-11.649 9.4452-21.094 21.101-21.094s21.104 9.445 21.101 21.094z"/>
   <path d="m314.03 353.22c0.002899 11.649-9.4452 21.094-21.101 21.094s-21.104-9.445-21.101-21.094c-0.002899-11.649 9.4452-21.094 21.101-21.094s21.104 9.445 21.101 21.094z"/>
   <path d="m535.78 346.19c0.00293 11.649-9.4451 21.094-21.101 21.094s-21.104-9.445-21.101-21.094c-0.002869-11.649 9.4452-21.094 21.101-21.094s21.104 9.445 21.101 21.094z"/>
  </g>
 </g>
</svg>
