<?xml version="1.0" encoding="UTF-8"?>
<svg viewBox="0 0 744.09448819 1052.3622047" xmlns="http://www.w3.org/2000/svg">
 <defs>
  <filter id="ae">
   <feGaussianBlur stdDeviation=".51695"/>
  </filter>
  <filter id="g">
   <feGaussianBlur stdDeviation=".27289"/>
  </filter>
  <filter id="d">
   <feGaussianBlur stdDeviation=".47352"/>
  </filter>
  <filter id="ad">
   <feGaussianBlur stdDeviation=".28943"/>
  </filter>
  <filter id="e">
   <feGaussianBlur stdDeviation=".82361"/>
  </filter>
  <filter id="ac">
   <feGaussianBlur stdDeviation=".35859"/>
  </filter>
  <filter id="ab">
   <feGaussianBlur stdDeviation=".71718"/>
  </filter>
  <filter id="f">
   <feGaussianBlur stdDeviation=".67502"/>
  </filter>
  <filter id="u">
   <feGaussianBlur stdDeviation=".3832"/>
  </filter>
  <filter id="t">
   <feGaussianBlur stdDeviation=".31281"/>
  </filter>
  <filter id="x" x="-.12139" y="-.45901" width="1.2428" height="1.918">
   <feGaussianBlur stdDeviation="6.80754"/>
  </filter>
  <filter id="z" x="-.09196" y="-.33177" width="1.1839" height="1.6636">
   <feGaussianBlur stdDeviation="4.08906"/>
  </filter>
  <filter id="v" x="-.08852" y="-.18622" width="1.177" height="1.3724">
   <feGaussianBlur stdDeviation="2.3422"/>
  </filter>
  <filter id="aa" x="-.04753" y="-.14841" width="1.0951" height="1.2968">
   <feGaussianBlur stdDeviation="1.73219"/>
  </filter>
  <filter id="y" x="-.09465" y="-.44334" width="1.1893" height="1.8867">
   <feGaussianBlur stdDeviation="4.47792"/>
  </filter>
  <filter id="w" x="-.10407" y="-.14168" width="1.2082" height="1.2834">
   <feGaussianBlur stdDeviation="1.69584"/>
  </filter>
  <radialGradient id="s" cx="28.425" cy="830.09" r="6.5578" gradientUnits="userSpaceOnUse">
   <stop stop-color="#fff" offset="0"/>
   <stop stop-color="#663eff" offset="1"/>
  </radialGradient>
  <radialGradient id="a" cx="28.425" cy="830.09" r="6.0578" gradientUnits="userSpaceOnUse">
   <stop offset="0"/>
   <stop stop-opacity="0" offset="1"/>
  </radialGradient>
  <radialGradient id="r" cx="28.425" cy="830.09" r="6.5578" gradientUnits="userSpaceOnUse">
   <stop stop-color="#fff" offset="0"/>
   <stop stop-color="#23a900" offset="1"/>
  </radialGradient>
  <radialGradient id="q" cx="28.425" cy="830.09" r="6.5578" gradientUnits="userSpaceOnUse">
   <stop stop-color="#fff" offset="0"/>
   <stop stop-color="#a93900" offset="1"/>
  </radialGradient>
  <radialGradient id="p" cx="28.425" cy="830.09" r="6.5578" gradientUnits="userSpaceOnUse">
   <stop stop-color="#fff" offset="0"/>
   <stop stop-color="#fcff46" offset="1"/>
  </radialGradient>
  <radialGradient id="o" cx="28.425" cy="830.09" r="6.5578" gradientUnits="userSpaceOnUse">
   <stop stop-color="#fff" offset="0"/>
   <stop stop-color="#9e00a9" offset="1"/>
  </radialGradient>
  <radialGradient id="c" cx="28.425" cy="830.09" r="6.5578" gradientUnits="userSpaceOnUse">
   <stop stop-color="#fff" offset="0"/>
   <stop stop-color="#002ea9" offset="1"/>
  </radialGradient>
  <radialGradient id="n" cx="28.425" cy="830.09" r="6.5578" gradientUnits="userSpaceOnUse">
   <stop stop-color="#fff" offset="0"/>
   <stop stop-color="#030094" offset="1"/>
  </radialGradient>
  <radialGradient id="m" cx="28.425" cy="830.09" r="6.5578" gradientUnits="userSpaceOnUse">
   <stop stop-color="#fff" offset="0"/>
   <stop stop-color="#9d84ff" offset="1"/>
  </radialGradient>
  <radialGradient id="l" cx="28.425" cy="830.09" r="6.5578" gradientUnits="userSpaceOnUse">
   <stop stop-color="#fff" offset="0"/>
   <stop stop-color="#ffed98" offset="1"/>
  </radialGradient>
  <radialGradient id="k" cx="28.425" cy="830.09" r="6.5578" gradientUnits="userSpaceOnUse">
   <stop stop-color="#fff" offset="0"/>
   <stop stop-color="#008023" offset="1"/>
  </radialGradient>
  <radialGradient id="b" cx="28.425" cy="830.09" r="6.5578" gradientUnits="userSpaceOnUse">
   <stop stop-color="#fff" offset="0"/>
   <stop stop-color="#ffc48c" offset="1"/>
  </radialGradient>
  <radialGradient id="j" cx="28.425" cy="830.09" r="6.5578" gradientUnits="userSpaceOnUse">
   <stop stop-color="#fff" offset="0"/>
   <stop stop-color="#a2a0ff" offset="1"/>
  </radialGradient>
  <radialGradient id="i" cx="28.425" cy="830.09" r="6.5578" gradientUnits="userSpaceOnUse">
   <stop stop-color="#fff" offset="0"/>
   <stop stop-color="#46e4ff" offset="1"/>
  </radialGradient>
  <radialGradient id="h" cx="28.425" cy="830.09" r="6.5578" gradientUnits="userSpaceOnUse">
   <stop stop-color="#fff" offset="0"/>
   <stop stop-color="#b1d2ff" offset="1"/>
  </radialGradient>
 </defs>
 <g transform="matrix(4.0138 0 0 4.7886 35.214 -3947.8)">
  <path d="m73.156 882.91c-4.1844-0.15526-9.2914 8.3926-12.224 10.781-3.128 2.5479-14.218 6.5746-13.027 10.594 0.4464 1.5072 2.4823 2.565 5.079 3.3438 0.74317 3.6415 1.9095 7.3088 4.9642 8.4375 3.5883 1.3259 7.7019-1.5971 11.162-4.1875 2.0361 1.0211 4.437 2.3286 6.7432 3.375 2.1292 3.6161 4.7044 7.8131 8.1493 7.7812 3.455-0.032 5.7906-4.308 7.7189-7.9688 1.7844-0.87085 3.5749-1.8107 5.1363-2.5938 3.4603 2.5904 7.5739 5.5134 11.162 4.1875 3.0546-1.1287 4.221-4.8272 4.9642-8.4688 2.5967-0.7788 4.6325-1.8053 5.0789-3.3125 1.1904-4.0192-9.8993-8.0771-13.027-10.625s-8.7376-12.065-13.056-10.594c-3.2258 1.099-3.73 7.6382-4.2755 12.562-1.4695-1.0246-3.0658-1.6999-4.8494-1.6875-1.7086 0.0119-3.2006 0.64412-4.5338 1.625-0.57191-4.9701-0.99046-11.955-4.3329-13.094-0.2699-0.0919-0.55319-0.1459-0.83214-0.15625z" fill="#6f916f"/>
  <path d="m117.92 945.64c-0.60598-3e-3 -1.1846 0.0888-1.75 0.27126-2.2112 0.71369-3.4073 2.745-4.0831 5.2353-2.525-1.9528-5.1229-3.2609-7.5588-2.7992-1.9458 0.36874-3.2736 1.7495-4.2392 3.6292-2.4924-1.8089-5.1025-3.4614-7.5445-4.0507-0.63481-0.49867-1.3442-0.821-2.1853-0.97574-0.39015-0.0718-0.81585-0.11862-1.213-0.10365-1.7535 0.0657-3.5527 0.95566-5.3381 2.2174-0.98797-0.68185-1.992-1.2442-2.9794-1.618-0.56457-0.57346-1.2258-0.9909-2.0398-1.2488-0.37762-0.11962-0.77539-0.2232-1.1713-0.25775-3.3932-0.29618-7.3926 2.3679-11.009 5.135-0.84486-1.0496-1.8964-1.7932-3.2418-2.0407-0.39015-0.0718-0.78194-0.14786-1.1791-0.13299-1.9504 0.0731-3.9967 1.1526-5.9749 2.649-0.6195-3.1404-1.7873-5.8142-4.4289-6.6512-0.37762-0.11962-0.80737-0.2251-1.2032-0.25966-5.9381-0.51836-13.747 8.053-18.073 10.318-4.6148 2.4156-20.638 5.7005-19.211 10.031 0.53513 1.6238 3.3649 2.9161 7.0049 3.9559 0.81619 3.8947 2.2407 7.8644 6.5086 9.3113 2.7664 0.9378 5.8269 0.4906 8.8872-0.4715 1.3123 3.4074 3.2396 6.591 7.2693 7.4156 3.8498 0.7879 7.9573-0.8893 11.745-3.056 2.324 2.9069 5.083 5.4624 8.6637 5.6516 2.7146 0.1429 5.0202-1.1282 7.0496-2.898 2.8527 2.9021 6.1625 5.5155 10.07 5.2346 2.1623-0.1556 3.9481-1.1659 5.4894-2.5841 1.3321 0.875 2.7949 1.4617 4.428 1.5479 3.5223 0.1862 6.3637-1.9814 8.7917-4.5785 2.4299 2.1359 5.1358 3.7532 8.2512 3.5293 3.4539-0.2485 5.9646-2.6595 8.0132-5.4704 3.133 1.5128 6.3886 2.4992 9.4798 1.8495 3.3973-0.7143 5.3069-3.1391 6.5979-5.9306 3.2899 1.1007 6.6208 1.6584 9.588 0.6348 4.2598-1.4696 5.633-5.4543 6.4274-9.3533 3.6341-1.0592 6.4621-2.3395 6.9882-3.9662 1.4028-4.3376-14.643-7.588-19.272-9.9791-4.1944-2.1668-11.7-10.16-17.558-10.19z" fill="#6f916f"/>
  <path d="m84.596 913.85c-5.3191-0.16367-11.798 8.8568-15.526 11.375-0.56575 0.38217-1.38 0.80924-2.2814 1.25-0.65479-5.0265-1.4458-11.043-5.2739-12.125-0.3431-0.0969-0.71203-0.17659-1.0666-0.1875-5.3191-0.16367-11.798 8.8568-15.526 11.375-3.9763 2.686-18.076 6.9192-16.563 11.156 0.56745 1.5889 3.1583 2.7102 6.4591 3.5312 0.9447 3.8388 2.428 7.7163 6.311 8.9062 4.5614 1.3978 9.7936-1.6754 14.192-4.4062 2.5882 1.0765 5.6311 2.4281 8.5627 3.5312 2.7065 3.8121 5.991 8.2523 10.37 8.2188 4.392-0.0337 7.356-4.5471 9.8072-8.4062l2.0444-0.84375c0.63929 0.25844 1.2919 0.48021 1.9259 0.71875 2.7065 3.8121 5.991 8.2523 10.37 8.2188 4.392-0.0337 7.356-4.5471 9.8072-8.4062 2.2683-0.91805 4.5335-1.8932 6.5184-2.7188 4.3987 2.7308 9.6308 5.804 14.192 4.4062 3.883-1.1899 5.3662-5.0986 6.311-8.9375 3.3008-0.82101 5.8916-1.9111 6.4591-3.5 1.5132-4.237-12.586-8.5015-16.563-11.188s-11.103-12.707-16.592-11.156c-3.9593 1.1187-4.6632 7.5392-5.3332 12.656-0.87665-0.43133-1.6685-0.81349-2.2222-1.1875-3.245-2.192-8.5817-9.2797-13.422-10.969-0.535-0.53876-1.1566-0.91603-1.8962-1.125-0.3431-0.0969-0.71203-0.17659-1.0666-0.1875z" fill="#6f916f"/>
  <path d="m116.28 950.39c-0.5767-2e-3 -1.1274 0.0695-1.6654 0.21204-2.1043 0.55788-3.2427 2.1457-3.8858 4.0923-2.403-1.5264-4.8753-2.549-7.1936-2.1881-1.8518 0.28824-3.1154 1.3676-4.0343 2.8369-2.3719-1.414-4.8559-2.7058-7.18-3.1664-0.60413-0.38981-1.2793-0.64176-2.0797-0.76271-0.3713-0.0561-0.77643-0.0928-1.1544-0.0811-1.6687 0.0514-3.381 0.74703-5.0801 1.7333-0.94023-0.53299-1.8958-0.9726-2.8355-1.2648-0.53729-0.44826-1.1665-0.77456-1.9412-0.97619-0.35937-0.0935-0.73792-0.17447-1.1147-0.20148-3.2292-0.23152-7.0353 1.851-10.477 4.014-0.80403-0.82041-1.8048-1.4017-3.0851-1.5952-0.3713-0.0561-0.74415-0.11558-1.1221-0.10396-1.8562 0.0571-3.8035 0.90096-5.6862 2.0707-0.58956-2.4548-1.7009-4.5449-4.2149-5.1992-0.35938-0.0935-0.76835-0.17596-1.1451-0.20298-5.6512-0.40519-13.083 6.2949-17.2 8.0652-4.3918 1.8882-19.64 4.456-18.282 7.8407 0.50927 1.2693 3.2023 2.2795 6.6664 3.0923 0.77675 3.0444 2.1324 6.1475 6.1941 7.2785 2.6327 0.73307 5.5453 0.3835 8.4577-0.36856 1.2488 2.6635 3.083 5.1521 6.918 5.7966 3.6637 0.61589 7.5728-0.69515 11.177-2.3888 2.2117 2.2723 4.8373 4.2699 8.245 4.4178 2.5834 0.11171 4.7776-0.88188 6.7089-2.2653 2.7148 2.2685 5.8647 4.3114 9.5832 4.0918 2.0578-0.12162 3.7573-0.91136 5.2242-2.0199 1.2677 0.68396 2.6598 1.1426 4.214 1.21 3.3521 0.14555 6.0562-1.5488 8.3668-3.5789 2.3125 1.6696 4.8876 2.9338 7.8524 2.7588 3.287-0.19424 5.6764-2.0789 7.626-4.2761 2.9816 1.1825 6.0799 1.9536 9.0216 1.4457 3.2332-0.55836 5.0504-2.4538 6.279-4.6358 3.1309 0.86039 6.3008 1.2963 9.1247 0.49622 4.0539-1.1488 5.3608-4.2635 6.1168-7.3113 3.4585-0.82796 6.1499-1.8288 6.6505-3.1003 1.335-3.3906-13.936-5.9314-18.34-7.8005-3.9917-1.6938-11.134-7.9416-16.709-7.9652z" fill="#fff" filter="url(#x)"/>
  <path d="m47.162 928.81c-1.4997 0.0183-2.9804 0.48829-4.4519 1.625-3.5552 2.7462-3.0519 6.2844-1.6067 10.188-0.52834 0.43603-1.0485 0.80503-1.5063 1.0938-4.2592 2.686-19.362 6.9192-17.741 11.156 0.60782 1.5889 3.3598 2.7102 6.8955 3.5312 1.0119 3.8388 2.6023 7.7163 6.7616 8.9062 3.0105 0.86127 6.2952 0.0326 9.4729-1.375 0.02232 3.88 0.8811 7.1239 4.954 8.5312 5.056 1.747 8.3997-1.6108 11.816-5.6562 2.5268 3.0657 5.5087 5.8704 9.2386 5.8438 4.7044-0.0337 7.885-4.5471 10.511-8.4062 0.76094-0.28753 1.4565-0.54927 2.2092-0.84375 0.68477 0.25844 1.3628 0.48021 2.0419 0.71875 2.8991 3.8121 6.4224 8.2523 11.113 8.2188 3.2384-0.0232 5.7241-2.1872 7.8327-4.7812 2.6884 3.6287 5.5734 6.3336 10.209 5.1875 4.3045-1.0642 5.4364-4.2947 5.8243-8.25 2.9746 1.2347 6.031 1.9277 8.8369 1.125 4.1593-1.1899 5.7162-5.0986 6.7281-8.9375 3.5356-0.82101 6.3211-1.9111 6.9289-3.5 1.5015-3.925-11.316-7.867-16.603-10.562 2.0582-3.9971 3.2053-7.6678-0.26779-10.875-1.5519-1.4331-3.2207-2.0356-4.954-2.0625-2.5109-0.0389-5.1861 1.0985-8.0001 2.4375-1.9587-1.1265-3.9108-1.7507-5.6904-1.2812-2.2619 0.59662-3.5164 2.733-4.318 5.3438-3.1623 0.68346-6.6616 0.69403-9.908 0.84375-2.6282-2.3892-5.494-4.7947-8.2344-5.6875-0.57306-0.53876-1.2496-0.91603-2.0419-1.125-0.3675-0.0969-0.75825-0.17659-1.1381-0.1875-4.02-0.11548-8.6314 4.3249-12.419 7.8438-1.7871-0.27404-3.5573-0.62391-5.1883-1.1875-0.98983-0.34202-1.9561-0.76949-2.9122-1.25-0.80284-2.4116-2.0435-4.3416-4.1841-4.9062-0.36751-0.0969-0.79172-0.17659-1.1716-0.1875-0.84704-0.0243-1.7238 0.16989-2.6109 0.5-2.1925-1.1878-4.338-2.0568-6.4268-2.0312z" fill="#6f916f"/>
  <path d="m84.622 920.37c-4.999-0.11358-11.088 6.1459-14.591 7.8933-0.5317 0.26519-1.297 0.56154-2.1441 0.86739-0.61538-3.4879-1.3588-7.6632-4.9565-8.4137-0.32245-0.0672-0.66918-0.12254-1.0024-0.13011-4.999-0.11357-11.088 6.1459-14.591 7.8933-3.737 1.8639-16.988 4.8013-15.566 7.7415 0.5333 1.1026 2.9682 1.8807 6.0704 2.4504 0.88784 2.6638 2.2818 5.3545 5.9311 6.1802 4.2869 0.96996 9.2041-1.1626 13.338-3.0576 2.4324 0.74697 5.2922 1.6849 8.0474 2.4504 2.5436 2.6452 5.6304 5.7264 9.746 5.7031 4.1276-0.0234 6.9132-3.1553 9.2169-5.8332l1.9214-0.58549c0.60082 0.17934 1.2142 0.33323 1.81 0.49875 2.5436 2.6452 5.6304 5.7264 9.746 5.7031 4.1276-0.0234 6.9132-3.1553 9.2169-5.8332 2.1318-0.63704 4.2606-1.3137 6.126-1.8866 4.1339 1.8949 9.0512 4.0275 13.338 3.0576 3.6493-0.82569 5.0433-3.538 5.9311-6.2018 3.1022-0.56971 5.537-1.3261 6.0704-2.4287 1.4221-2.9401-11.829-5.8993-15.566-7.7632s-10.434-8.8177-15.594-7.7415c-3.721 0.77626-4.3825 5.2316-5.0122 8.7823-0.82388-0.29931-1.5681-0.56449-2.0884-0.82402-3.0497-1.5211-8.0652-6.4393-12.614-7.6114-0.5028-0.37386-1.087-0.63565-1.7821-0.78066-0.32245-0.0672-0.66918-0.12253-1.0024-0.1301z" fill="#fff" filter="url(#z)"/>
  <path d="m69.808 896.91c-5.6101-0.16367-12.457 8.8474-16.389 11.366-4.1939 2.686-19.062 6.9309-17.466 11.168 0.5985 1.5889 3.3281 2.704 6.8095 3.525 0.9964 3.8388 2.5602 7.7049 6.6556 8.8948 4.811 1.3978 10.326-1.6836 14.966-4.4144 2.7298 1.0765 5.9488 2.4548 9.0409 3.5579 2.8546 3.8121 6.3073 8.2365 10.926 8.203 4.6323-0.0337 7.7636-4.5414 10.349-8.4006 2.3924-0.91805 4.793-1.9088 6.8865-2.7343 4.6393 2.7308 10.155 5.8122 14.966 4.4144 4.0955-1.1899 5.6592-5.0889 6.6556-8.9277 3.4814-0.82101 6.211-1.9031 6.8095-3.492 1.596-4.237-13.272-8.5148-17.466-11.201s-11.715-12.719-17.505-11.168c-4.325 1.1586-5.001 8.0522-5.7323 13.243-1.9702-1.0801-4.1104-1.792-6.5017-1.779-2.2907 0.0125-4.2912 0.67902-6.0786 1.7131-0.76678-5.2395-1.3279-12.603-5.8092-13.803-0.36187-0.0969-0.74167-0.15381-1.1157-0.16472z" fill="#6f916f"/>
  <path transform="matrix(1 0 0 .90215 0 86.879)" d="m74.111 887.88c-3.7778-0.1168-8.3886 6.3134-11.036 8.1103-2.8241 1.9167-12.836 4.9458-11.762 7.9693 0.40302 1.1338 2.2411 1.9295 4.5854 2.5154 0.67096 2.7394 1.724 5.4981 4.4818 6.3472 3.2396 0.99745 6.9535-1.2014 10.078-3.1501 1.8382 0.76815 4.0058 1.7517 6.088 2.5389 1.9223 2.7202 4.2472 5.8775 7.3574 5.8535 3.1193-0.0241 5.2279-3.2407 6.9688-5.9946 1.611-0.65511 3.2275-1.3621 4.6372-1.9512 3.1241 1.9487 6.8379 4.1476 10.078 3.1501 2.7578-0.84909 3.8108-3.6313 4.4818-6.3707 2.3444-0.58587 4.1824-1.3581 4.5854-2.4919 1.0747-3.0235-8.9374-6.0761-11.762-7.9928s-7.8886-9.076-11.787-7.9693c-2.9124 0.82676-3.3676 5.746-3.8601 9.4503-1.3267-0.77076-2.7679-1.2788-4.3782-1.2694-1.5426 9e-3 -2.8896 0.48454-4.0932 1.2224-0.51634-3.7388-0.89422-8.9933-3.9119-9.8499-0.24368-0.0692-0.49943-0.10975-0.75128-0.11753z" fill="#fff" filter="url(#v)"/>
  <path d="m70.763 904.05c-5.2035-0.10838-11.554 5.8586-15.201 7.5261-3.8899 1.7786-17.681 4.5895-16.2 7.3952 0.55512 1.0521 3.0869 1.7905 6.316 2.3342 0.92418 2.542 2.3746 5.102 6.1733 5.89 4.4623 0.9256 9.5778-1.1149 13.881-2.9232 2.532 0.71282 5.5176 1.6255 8.3856 2.356 2.6477 2.5243 5.8502 5.4541 10.134 5.4319 4.2965-0.0223 7.2009-3.0073 9.5989-5.5628 2.219-0.60792 4.4456-1.264 6.3874-1.8106 4.3031 1.8083 9.4186 3.8488 13.881 2.9232 3.7986-0.78794 5.2491-3.3698 6.1733-5.9118 3.2291-0.54366 5.7609-1.2602 6.316-2.3124 1.4803-2.8057-12.31-5.6384-16.2-7.417s-10.866-8.4222-16.236-7.3952c-4.0115 0.7672-4.6385 5.332-5.3169 8.7695-1.8274-0.71524-3.8125-1.1867-6.0305-1.178-2.1247 8e-3 -3.9802 0.44964-5.638 1.1344-0.71121-3.4695-1.2317-8.3454-5.3882-9.1404-0.33564-0.0642-0.68792-0.10185-1.0348-0.10908z" fill="#fff" filter="url(#aa)"/>
  <path d="m83.844 868.12c-5.53-0.0957-9.1187 10.666-12 14.031s-14.649 10.57-12 14.031c1.7659 2.3075 8.9174 1.651 15.156 1 1.9992 2.4438 4.3668 4.3621 7.3438 4.4062 2.9864 0.0443 5.5382-1.791 7.7812-4.1875 6.3119 0.88881 13.832 1.8759 15.812-0.4375 2.8813-3.3654-8.4138-10.945-11.062-14.406s-5.5013-14.342-11.031-14.438z" fill="#6f916f"/>
  <path transform="matrix(1.2311 0 0 1 -19.177 14)" d="m44.935 903.7c-0.27013 0.54906-0.33451 1.1036-0.15625 1.6562 0.48615 1.5072 2.7033 2.565 5.5312 3.3438 0.80935 3.6415 2.0796 7.3088 5.4062 8.4375 3.9079 1.3259 8.3878-1.5971 12.156-4.1875 2.2174 1.0211 4.8321 2.3286 7.3438 3.375 2.3188 3.6161 5.1233 7.8131 8.875 7.7812 3.7627-0.032 6.3062-4.308 8.4062-7.9688 1.9433-0.87085 3.8933-1.8107 5.5938-2.5938 3.7685 2.5904 8.2484 5.5134 12.156 4.1875 3.3267-1.1287 4.5969-4.8272 5.4062-8.4688 2.8279-0.7788 5.0451-1.8053 5.5312-3.3125 0.17825-0.55264 0.11388-1.1062-0.15625-1.6562-0.69634 1.3164-2.7744 2.2526-5.375 2.9688-0.80935 3.6415-2.0796 7.34-5.4062 8.4688-3.9079 1.3259-8.3878-1.5971-12.156-4.1875-1.7005 0.78308-3.6505 1.7229-5.5938 2.5938-2.1 3.6608-4.6436 7.9368-8.4062 7.9688-3.7517 0.0318-6.5562-4.1652-8.875-7.7812-2.5116-1.0464-5.1264-2.3539-7.3438-3.375-3.7685 2.5904-8.2484 5.5134-12.156 4.1875-3.3267-1.1287-4.5969-4.796-5.4062-8.4375-2.6006-0.7162-4.6787-1.6794-5.375-3z" fill="#abbfab" filter="url(#ae)"/>
  <path d="m59.619 894.63c-0.3353 0.83497-0.32715 1.5871 0.15625 2.2188 1.7659 2.3075 8.9174 1.651 15.156 1 1.9992 2.4438 4.3668 4.3621 7.3438 4.4062 2.9864 0.0443 5.5382-1.791 7.7812-4.1875 6.3119 0.88881 13.832 1.8759 15.812-0.4375 0.55779-0.65149 0.58919-1.4681 0.25-2.375-0.0668 0.12648-0.15009 0.25831-0.25 0.375-1.9807 2.3134-9.5006 1.3263-15.812 0.4375-2.2431 2.3966-4.7949 4.2318-7.7812 4.1875-2.9769-0.0442-5.3445-1.9624-7.3438-4.4062-6.2388 0.65098-13.39 1.3075-15.156-1-0.0545-0.0713-0.11374-0.14438-0.15625-0.21875z" fill="#b7c8b7" filter="url(#g)"/>
  <path transform="matrix(.91823 0 0 1 6.7856 0)" d="m44.935 903.7c-0.27013 0.54906-0.33451 1.1036-0.15625 1.6562 0.48615 1.5072 2.7033 2.565 5.5312 3.3438 0.80935 3.6415 2.0796 7.3088 5.4062 8.4375 3.9079 1.3259 8.3878-1.5971 12.156-4.1875 2.2174 1.0211 4.8321 2.3286 7.3438 3.375 2.3188 3.6161 5.1233 7.8131 8.875 7.7812 3.7627-0.032 6.3062-4.308 8.4062-7.9688 1.9433-0.87085 3.8933-1.8107 5.5938-2.5938 3.7685 2.5904 8.2484 5.5134 12.156 4.1875 3.3267-1.1287 4.5969-4.8272 5.4062-8.4688 2.8279-0.7788 5.0451-1.8053 5.5312-3.3125 0.17825-0.55264 0.11388-1.1062-0.15625-1.6562-0.69634 1.3164-2.7744 2.2526-5.375 2.9688-0.80935 3.6415-2.0796 7.34-5.4062 8.4688-3.9079 1.3259-8.3878-1.5971-12.156-4.1875-1.7005 0.78308-3.6505 1.7229-5.5938 2.5938-2.1 3.6608-4.6436 7.9368-8.4062 7.9688-3.7517 0.0318-6.5562-4.1652-8.875-7.7812-2.5116-1.0464-5.1264-2.3539-7.3438-3.375-3.7685 2.5904-8.2484 5.5134-12.156 4.1875-3.3267-1.1287-4.5969-4.796-5.4062-8.4375-2.6006-0.7162-4.6787-1.6794-5.375-3z" fill="#abbfab" filter="url(#d)"/>
  <path d="m35.781 918.97c-0.30529 0.55933-0.36822 1.1248-0.15625 1.6875 0.5985 1.5889 3.3311 2.7102 6.8125 3.5312 0.9964 3.8388 2.5608 7.7163 6.6562 8.9062 4.811 1.3978 10.298-1.7067 14.938-4.4375 2.7298 1.0765 5.9704 2.4594 9.0625 3.5625 2.8546 3.8121 6.2875 8.2523 10.906 8.2188 4.6322-0.0337 7.7897-4.5471 10.375-8.4062 2.3924-0.91805 4.7815-1.9245 6.875-2.75 4.6393 2.7308 10.158 5.8353 14.969 4.4375 4.0955-1.1899 5.6598-5.0986 6.6562-8.9375 3.4814-0.82101 6.214-1.9111 6.8125-3.5 0.21197-0.56273 0.11779-1.1272-0.1875-1.6875-0.81727 1.4216-3.3747 2.421-6.625 3.1875-0.99641 3.8388-2.5608 7.7476-6.6562 8.9375-4.811 1.3978-10.329-1.7067-14.969-4.4375-2.0935 0.82552-4.4826 1.832-6.875 2.75-2.5853 3.8592-5.7428 8.3726-10.375 8.4062-4.6187 0.0335-8.0516-4.4067-10.906-8.2188-3.0921-1.1031-6.3327-2.486-9.0625-3.5625-4.6394 2.7308-10.127 5.8353-14.938 4.4375-4.0955-1.1899-5.6598-5.0674-6.6562-8.9062-3.2549-0.76758-5.8428-1.7902-6.6562-3.2188z" fill="#536c53" filter="url(#ad)"/>
  <path transform="matrix(.91823 0 0 1 6.7856 2)" d="m44.935 903.7c-0.27013 0.54906-0.33451 1.1036-0.15625 1.6562 0.48615 1.5072 2.7033 2.565 5.5312 3.3438 0.80935 3.6415 2.0796 7.3088 5.4062 8.4375 3.9079 1.3259 8.3878-1.5971 12.156-4.1875 2.2174 1.0211 4.8321 2.3286 7.3438 3.375 2.3188 3.6161 5.1233 7.8131 8.875 7.7812 3.7627-0.032 6.3062-4.308 8.4062-7.9688 1.9433-0.87085 3.8933-1.8107 5.5938-2.5938 3.7685 2.5904 8.2484 5.5134 12.156 4.1875 3.3267-1.1287 4.5969-4.8272 5.4062-8.4688 2.8279-0.7788 5.0451-1.8053 5.5312-3.3125 0.17825-0.55264 0.11388-1.1062-0.15625-1.6562-0.69634 1.3164-2.7744 2.2526-5.375 2.9688-0.80935 3.6415-2.0796 7.34-5.4062 8.4688-3.9079 1.3259-8.3878-1.5971-12.156-4.1875-1.7005 0.78308-3.6505 1.7229-5.5938 2.5938-2.1 3.6608-4.6436 7.9368-8.4062 7.9688-3.7517 0.0318-6.5562-4.1652-8.875-7.7812-2.5116-1.0464-5.1264-2.3539-7.3438-3.375-3.7685 2.5904-8.2484 5.5134-12.156 4.1875-3.3267-1.1287-4.5969-4.796-5.4062-8.4375-2.6006-0.7162-4.6787-1.6794-5.375-3z" fill="#536c53" filter="url(#d)"/>
  <path d="m59.619 896.63c-0.3353 0.83497-0.32715 1.5871 0.15625 2.2188 1.7659 2.3075 8.9174 1.651 15.156 1 1.9992 2.4438 4.3668 4.3621 7.3438 4.4062 2.9864 0.0443 5.5382-1.791 7.7812-4.1875 6.3119 0.88881 13.832 1.8759 15.812-0.4375 0.55779-0.65149 0.58919-1.4681 0.25-2.375-0.0668 0.12648-0.15009 0.25831-0.25 0.375-1.9807 2.3134-9.5006 1.3263-15.812 0.4375-2.2431 2.3966-4.7949 4.2318-7.7812 4.1875-2.9769-0.0442-5.3445-1.9624-7.3438-4.4062-6.2388 0.65098-13.39 1.3075-15.156-1-0.0545-0.0713-0.11374-0.14438-0.15625-0.21875z" fill="#536c53" filter="url(#g)"/>
  <path transform="matrix(1.025 0 0 1 -2.1131 -2)" d="m15.663 965.5c-0.30298 0.5089-0.39277 1.0525-0.21875 1.5938 0.52205 1.6237 3.2928 2.8976 6.8438 3.9374 0.79624 3.8949 2.1802 7.8657 6.3438 9.3126 2.6988 0.9377 5.6707 0.4933 8.6562-0.4688 1.2802 3.4074 3.1625 6.5817 7.0938 7.4062 3.7557 0.788 7.7736-0.8645 11.469-3.0312 2.2672 2.907 4.9443 5.4358 8.4375 5.625 2.6483 0.1429 4.8952-1.1051 6.875-2.875 2.783 2.9021 6.0319 5.4996 9.8438 5.2188 2.1095-0.1557 3.84-1.1756 5.3438-2.5938 1.2995 0.875 2.7193 1.4763 4.3125 1.5625 3.4362 0.1862 6.2251-1.9966 8.5938-4.5937 2.3705 2.1359 4.992 3.7551 8.0312 3.5312 3.3695-0.2485 5.8452-2.6578 7.8438-5.4688 3.0564 1.5128 6.2344 2.5248 9.25 1.875 3.3143-0.7143 5.1781-3.1458 6.4375-5.9374 3.2095 1.1006 6.449 1.6485 9.3438 0.625 4.1557-1.4696 5.5063-5.4448 6.2812-9.3438 3.5453-1.0592 6.2993-2.3422 6.8125-3.9688 0.1671-0.5296 0.0705-1.0648-0.21875-1.5624-0.82735 1.4219-3.3715 2.5685-6.5938 3.5312-0.77498 3.899-2.1256 7.8742-6.2812 9.3438-2.8947 1.0235-6.1343 0.4756-9.3438-0.625-1.2594 2.7916-3.1232 5.2231-6.4375 5.9374-3.0156 0.6498-6.1936-0.3622-9.25-1.875-1.9986 2.811-4.4743 5.2203-7.8438 5.4688-3.0393 0.2239-5.6607-1.3953-8.0312-3.5312-2.3686 2.5971-5.1575 4.7799-8.5938 4.5937-1.5932-0.086-3.013-0.6875-4.3125-1.5625-1.5037 1.4182-3.2343 2.4381-5.3438 2.5938-3.8118 0.2808-7.0608-2.3167-9.8438-5.2188-1.9798 1.7699-4.2267 3.0179-6.875 2.875-3.4932-0.1892-6.1703-2.718-8.4375-5.625-3.6951 2.1667-7.7131 3.8192-11.469 3.0312-3.9313-0.8246-5.8136-3.9988-7.0938-7.4062-2.9855 0.9621-5.9575 1.4066-8.6562 0.4688-4.1636-1.4468-5.5475-5.4177-6.3438-9.3126-3.2458-0.9504-5.8058-2.0985-6.625-3.5312z" fill="#dbe3db" filter="url(#e)"/>
  <path transform="matrix(1.025 0 0 1.0109 -4.1632 3.6575)" d="m17.663 951.5c-0.30298 0.5089-0.39277 1.0525-0.21875 1.5938 0.52205 1.6237 3.2928 2.8976 6.8438 3.9374 0.79624 3.8949 2.1802 7.8657 6.3438 9.3126 2.6988 0.9377 5.6707 0.4933 8.6562-0.4688 1.2802 3.4074 3.1625 6.5817 7.0938 7.4062 3.7557 0.788 7.7736-0.8645 11.469-3.0312 2.2672 2.907 4.9443 5.4358 8.4375 5.625 2.6483 0.1429 4.8952-1.1051 6.875-2.875 2.783 2.9021 6.0319 5.4996 9.8438 5.2188 2.1095-0.1557 3.84-1.1756 5.3438-2.5938 1.2995 0.875 2.7193 1.4763 4.3125 1.5625 3.4362 0.1862 6.2251-1.9966 8.5938-4.5937 2.3705 2.1359 4.992 3.7551 8.0312 3.5312 3.3695-0.2485 5.8452-2.6578 7.8438-5.4688 3.0564 1.5128 6.2344 2.5248 9.25 1.875 3.3143-0.7143 5.1781-3.1458 6.4375-5.9374 3.2095 1.1006 6.449 1.6485 9.3438 0.625 4.1557-1.4696 5.5063-5.4448 6.2812-9.3438 3.5453-1.0592 6.2993-2.3422 6.8125-3.9688 0.1671-0.5296 0.0705-1.0648-0.21875-1.5624-0.82735 1.4219-3.3715 2.5685-6.5938 3.5312-0.77498 3.899-2.1256 7.8742-6.2812 9.3438-2.8947 1.0235-6.1343 0.4756-9.3438-0.625-1.2594 2.7916-3.1232 5.2231-6.4375 5.9374-3.0156 0.6498-6.1936-0.3622-9.25-1.875-1.9986 2.811-4.4743 5.2203-7.8438 5.4688-3.0393 0.2239-5.6607-1.3953-8.0312-3.5312-2.3686 2.5971-5.1575 4.7799-8.5938 4.5937-1.5932-0.086-3.013-0.6875-4.3125-1.5625-1.5037 1.4182-3.2343 2.4381-5.3438 2.5938-3.8118 0.2808-7.0608-2.3167-9.8438-5.2188-1.9798 1.7699-4.2267 3.0179-6.875 2.875-3.4932-0.1892-6.1703-2.718-8.4375-5.625-3.6951 2.1667-7.7131 3.8192-11.469 3.0312-3.9313-0.8246-5.8136-3.9988-7.0938-7.4062-2.9855 0.9621-5.9575 1.4066-8.6562 0.4688-4.1636-1.4468-5.5475-5.4177-6.3438-9.3126-3.2458-0.9504-5.8058-2.0985-6.625-3.5312z" fill="#536c53" filter="url(#e)"/>
  <path d="m22.294 951.04c-0.30887 0.55809-0.40242 1.1257-0.1875 1.6875 0.60782 1.5889 3.3394 2.7102 6.875 3.5312 1.0119 3.8388 2.622 7.7163 6.7812 8.9062 3.0105 0.86127 6.2911 0.0326 9.4688-1.375 0.0223 3.88 0.86458 7.1239 4.9375 8.5312 5.056 1.747 8.4275-1.6108 11.844-5.6562 2.5268 3.0657 5.4888 5.8704 9.2188 5.8438 4.7044-0.034 7.9057-4.5471 10.531-8.4062l2.1875-0.84375c0.68477 0.25844 1.3834 0.48021 2.0625 0.71875 2.8991 3.8121 6.4031 8.2522 11.094 8.2188 3.2384-0.0232 5.7352-2.1872 7.8438-4.7812 2.6884 3.6287 5.5828 6.3338 10.219 5.1874 4.3045-1.064 5.4246-4.2947 5.8125-8.25 2.9746 1.2347 6.0379 1.9277 8.8438 1.125 4.1593-1.1899 5.7068-5.0986 6.7188-8.9375 3.5356-0.82101 6.3297-1.9111 6.9375-3.5 0.21491-0.5618 0.12024-1.1287-0.1875-1.6875-0.83963 1.416-3.4587 2.4232-6.75 3.1875-1.0119 3.8388-2.5595 7.7476-6.7188 8.9375-2.8059 0.80273-5.8691 0.1097-8.8438-1.125-0.38792 3.9553-1.508 7.1858-5.8125 8.25-4.6359 1.1462-7.5304-1.5588-10.219-5.1875-2.1086 2.5941-4.6053 4.758-7.8438 4.7812-4.6906 0.0335-8.1947-4.4067-11.094-8.2188-0.67905-0.23854-1.3777-0.46031-2.0625-0.71875-0.75275 0.29448-1.4266 0.55622-2.1875 0.84375-2.6256 3.8592-5.8269 8.3722-10.531 8.4062-3.7299 0.0267-6.692-2.778-9.2188-5.8438-3.4163 4.0454-6.7877 7.4032-11.844 5.6562-4.0729-1.4073-4.9152-4.6513-4.9375-8.5312-3.1776 1.4076-6.4582 2.2363-9.4688 1.375-4.1592-1.1899-5.7694-5.0674-6.7812-8.9062-3.2855-0.76292-5.8471-1.803-6.6875-3.2188z" fill="#dbe3db" filter="url(#ac)"/>
  <path d="m38.944 944.15c-5.5991 2.1305-14.277 4.9037-13.07 7.6818 0.56745 1.3063 3.1468 2.2282 6.4476 2.9032 0.9447 3.156 2.4187 6.3439 6.3017 7.3221 2.8106 0.70809 5.9025 0.0268 8.8691-1.1304 0.02084 3.1899 0.80716 5.8568 4.6096 7.0138 4.7202 1.4363 7.8386-1.3243 11.028-4.6502 2.359 2.5204 5.1535 4.8263 8.6357 4.8043 4.392-0.0277 7.3514-3.7383 9.8027-6.9111 0.7104-0.23639 1.3686-0.45156 2.0714-0.69367 0.63929 0.21247 1.2624 0.3948 1.8964 0.59091 2.7066 3.134 6.007 6.7845 10.386 6.7569 3.0234-0.0191 5.3251-1.7981 7.2936-3.9308 2.5098 2.9833 5.212 5.2071 9.5401 4.2648 4.0186-0.87491 5.0935-3.5308 5.4556-6.7826 2.7771 1.0151 5.6077 1.5849 8.2272 0.92491 3.883-0.97827 5.357-4.1918 6.3017-7.3478 3.3008-0.67498 5.8801-1.5712 6.4476-2.8775 0.94879-2.1841-4.2156-4.3682-9.19-6.2431-0.92368 1.4599-2.2248 2.6346-4.172 3.1601-4.2585 1.1492-9.1387-1.3774-13.245-3.6225-1.853 0.67869-3.9507 1.4804-6.0683 2.2352-2.2884 3.1728-5.0606 6.8834-9.1608 6.9111-4.0883 0.0275-7.1592-3.6229-9.686-6.7569-0.59185-0.19611-1.212-0.37843-1.8088-0.59091-0.65608 0.24211-1.2331 0.45728-1.8964 0.69368-2.2884 3.1728-5.0606 6.8834-9.1608 6.9111-4.0883 0.0275-7.1592-3.6229-9.686-6.7569-2.737-0.90692-5.5775-2.0182-7.9938-2.9032-4.1066 2.2451-8.9868 4.7717-13.245 3.6225-2.5618-0.69132-3.9932-2.4916-4.9305-4.5988z" fill="#fff" filter="url(#y)"/>
  <path d="m22.294 953.04c-0.30887 0.55809-0.40242 1.1257-0.1875 1.6875 0.60782 1.5889 3.3394 2.7102 6.875 3.5312 1.0119 3.8388 2.622 7.7163 6.7812 8.9062 3.0105 0.86127 6.2911 0.0326 9.4688-1.375 0.0223 3.88 0.86458 7.1239 4.9375 8.5312 5.056 1.747 8.4275-1.6108 11.844-5.6562 2.5268 3.0657 5.4888 5.8704 9.2188 5.8438 4.7044-0.034 7.9057-4.5471 10.531-8.4062l2.1875-0.84375c0.68477 0.25844 1.3834 0.48021 2.0625 0.71875 2.8991 3.8121 6.4031 8.2522 11.094 8.2188 3.2384-0.0232 5.7352-2.1872 7.8438-4.7812 2.6884 3.6287 5.5828 6.3338 10.219 5.1874 4.3045-1.064 5.4246-4.2947 5.8125-8.25 2.9746 1.2347 6.0379 1.9277 8.8438 1.125 4.1593-1.1899 5.7068-5.0986 6.7188-8.9375 3.5356-0.82101 6.3297-1.9111 6.9375-3.5 0.21491-0.5618 0.12024-1.1287-0.1875-1.6875-0.83963 1.416-3.4587 2.4232-6.75 3.1875-1.0119 3.8388-2.5595 7.7476-6.7188 8.9375-2.8059 0.80273-5.8691 0.1097-8.8438-1.125-0.38792 3.9553-1.508 7.1858-5.8125 8.25-4.6359 1.1462-7.5304-1.5588-10.219-5.1875-2.1086 2.5941-4.6053 4.758-7.8438 4.7812-4.6906 0.0335-8.1947-4.4067-11.094-8.2188-0.67905-0.23854-1.3777-0.46031-2.0625-0.71875-0.75275 0.29448-1.4266 0.55622-2.1875 0.84375-2.6256 3.8592-5.8269 8.3722-10.531 8.4062-3.7299 0.0267-6.692-2.778-9.2188-5.8438-3.4163 4.0454-6.7877 7.4032-11.844 5.6562-4.0729-1.4073-4.9152-4.6513-4.9375-8.5312-3.1776 1.4076-6.4582 2.2363-9.4688 1.375-4.1592-1.1899-5.7694-5.0674-6.7812-8.9062-3.2855-0.76292-5.8471-1.803-6.6875-3.2188z" fill="#536c53" filter="url(#ab)"/>
  <path d="m28.531 935c-0.29106 0.56016-0.35765 1.1236-0.15625 1.6875 0.56745 1.5889 3.1367 2.7102 6.4375 3.5313 0.9447 3.8388 2.4295 7.7163 6.3125 8.9062 4.5614 1.3978 9.7888-1.6755 14.188-4.4062 2.5882 1.0765 5.6308 2.428 8.5625 3.5312 2.7065 3.812 5.9959 8.2523 10.375 8.2188 4.392-0.034 7.3613-4.5471 9.8125-8.4063 0.7104-0.2876 1.3285-0.5493 2.0312-0.8437 0.63929 0.2585 1.3036 0.4801 1.9375 0.7187 2.7065 3.812 5.9959 8.2523 10.375 8.2187 4.392-0.0339 7.3613-4.547 9.8125-8.4062 2.2683-0.9181 4.5151-1.8932 6.5-2.7188 4.3987 2.7309 9.6261 5.8041 14.188 4.4063 3.883-1.1899 5.3678-5.0987 6.3125-8.9375 3.3008-0.821 5.9013-1.9111 6.4688-3.5 0.2014-0.56393 0.10356-1.1264-0.1875-1.6875-0.78726 1.412-3.214 2.4246-6.2812 3.1875-0.94472 3.8388-2.4295 7.7476-6.3125 8.9375-4.5614 1.3978-9.7888-1.6754-14.188-4.4063-1.9849 0.8256-4.2317 1.8007-6.5 2.7188-2.4512 3.8592-5.4206 8.3723-9.8125 8.4062-4.3791 0.0336-7.6685-4.4067-10.375-8.2187-0.63395-0.2386-1.2982-0.4602-1.9375-0.7187-0.70275 0.2944-1.3208 0.5561-2.0312 0.8437-2.4512 3.8592-5.4206 8.3723-9.8125 8.4063-4.3791 0.0335-7.6685-4.4068-10.375-8.2188-2.9317-1.1032-5.9743-2.4547-8.5625-3.5312-4.3987 2.7307-9.6261 5.804-14.188 4.4062-3.883-1.1899-5.3678-5.0674-6.3125-8.9062-3.0716-0.76403-5.4976-1.7999-6.2812-3.2188z" fill="#dbe3db" filter="url(#f)"/>
  <path d="m28.531 937c-0.29106 0.56016-0.35765 1.1236-0.15625 1.6875 0.56745 1.5889 3.1367 2.7102 6.4375 3.5313 0.9447 3.8388 2.4295 7.7163 6.3125 8.9062 4.5614 1.3978 9.7888-1.6755 14.188-4.4062 2.5882 1.0765 5.6308 2.428 8.5625 3.5312 2.7065 3.812 5.9959 8.2523 10.375 8.2188 4.392-0.034 7.3613-4.5471 9.8125-8.4063 0.7104-0.2876 1.3285-0.5493 2.0312-0.8437 0.63929 0.2585 1.3036 0.4801 1.9375 0.7187 2.7065 3.812 5.9959 8.2523 10.375 8.2187 4.392-0.0339 7.3613-4.547 9.8125-8.4062 2.2683-0.9181 4.5151-1.8932 6.5-2.7188 4.3987 2.7309 9.6261 5.8041 14.188 4.4063 3.883-1.1899 5.3678-5.0987 6.3125-8.9375 3.3008-0.821 5.9013-1.9111 6.4688-3.5 0.2014-0.56393 0.10356-1.1264-0.1875-1.6875-0.78726 1.412-3.214 2.4246-6.2812 3.1875-0.94472 3.8388-2.4295 7.7476-6.3125 8.9375-4.5614 1.3978-9.7888-1.6754-14.188-4.4063-1.9849 0.8256-4.2317 1.8007-6.5 2.7188-2.4512 3.8592-5.4206 8.3723-9.8125 8.4062-4.3791 0.0336-7.6685-4.4067-10.375-8.2187-0.63395-0.2386-1.2982-0.4602-1.9375-0.7187-0.70275 0.2944-1.3208 0.5561-2.0312 0.8437-2.4512 3.8592-5.4206 8.3723-9.8125 8.4063-4.3791 0.0335-7.6685-4.4068-10.375-8.2188-2.9317-1.1032-5.9743-2.4547-8.5625-3.5312-4.3987 2.7307-9.6261 5.804-14.188 4.4062-3.883-1.1899-5.3678-5.0674-6.3125-8.9062-3.0716-0.76403-5.4976-1.7999-6.2812-3.2188z" fill="#374837" filter="url(#f)"/>
  <path d="m83.532 869.03c-4.6066-0.0821-7.596 9.1544-9.9962 12.043s-12.203 9.0722-9.9962 12.043c1.471 1.9805 7.4284 1.417 12.625 0.85827 1.6654 2.0975 3.6376 3.7439 6.1175 3.7818 2.4877 0.0381 4.6134-1.5371 6.4819-3.5941 5.258 0.76285 11.522 1.6101 13.172-0.3755 2.4002-2.8884-7.0089-9.394-9.2152-12.365s-4.5826-12.309-9.1892-12.391z" fill="#f9f9f9" filter="url(#w)"/>
  <path transform="matrix(.69208 0 0 .69208 43.972 325.9)" d="m34.794 831.33c0 3.3457-2.7122 6.0578-6.0578 6.0578s-6.0578-2.7122-6.0578-6.0578 2.7122-6.0578 6.0578-6.0578 6.0578 2.7122 6.0578 6.0578z" fill="url(#s)" stroke="url(#a)"/>
  <path transform="matrix(.69208 0 0 .69208 94.609 336.46)" d="m34.794 831.33c0 3.3457-2.7122 6.0578-6.0578 6.0578s-6.0578-2.7122-6.0578-6.0578 2.7122-6.0578 6.0578-6.0578 6.0578 2.7122 6.0578 6.0578z" fill="url(#r)" stroke="url(#a)"/>
  <path transform="matrix(.69208 0 0 .69208 53.292 361.31)" d="m34.794 831.33c0 3.3457-2.7122 6.0578-6.0578 6.0578s-6.0578-2.7122-6.0578-6.0578 2.7122-6.0578 6.0578-6.0578 6.0578 2.7122 6.0578 6.0578z" fill="url(#q)" stroke="url(#a)"/>
  <path transform="matrix(.69208 0 0 .69208 104.55 373.74)" d="m34.794 831.33c0 3.3457-2.7122 6.0578-6.0578 6.0578s-6.0578-2.7122-6.0578-6.0578 2.7122-6.0578 6.0578-6.0578 6.0578 2.7122 6.0578 6.0578z" fill="url(#p)" stroke="url(#a)"/>
  <path transform="matrix(.69208 0 0 .69208 10.732 365.35)" d="m34.794 831.33c0 3.3457-2.7122 6.0578-6.0578 6.0578s-6.0578-2.7122-6.0578-6.0578 2.7122-6.0578 6.0578-6.0578 6.0578 2.7122 6.0578 6.0578z" fill="url(#o)" stroke="url(#a)"/>
  <path transform="matrix(.69208 0 0 .69208 23.469 392.38)" d="m34.794 831.33c0 3.3457-2.7122 6.0578-6.0578 6.0578s-6.0578-2.7122-6.0578-6.0578 2.7122-6.0578 6.0578-6.0578 6.0578 2.7122 6.0578 6.0578z" fill="url(#c)" stroke="url(#a)"/>
  <path transform="matrix(.54997 0 0 .54997 84.403 500.58)" d="m34.794 831.33c0 3.3457-2.7122 6.0578-6.0578 6.0578s-6.0578-2.7122-6.0578-6.0578 2.7122-6.0578 6.0578-6.0578 6.0578 2.7122 6.0578 6.0578z" fill="url(#c)" stroke="url(#a)"/>
  <path transform="matrix(.54997 0 0 .54997 79.432 475.73)" d="m34.794 831.33c0 3.3457-2.7122 6.0578-6.0578 6.0578s-6.0578-2.7122-6.0578-6.0578 2.7122-6.0578 6.0578-6.0578 6.0578 2.7122 6.0578 6.0578z" fill="url(#n)" stroke="url(#a)"/>
  <path transform="matrix(.54997 0 0 .54997 76.015 442.8)" d="m34.794 831.33c0 3.3457-2.7122 6.0578-6.0578 6.0578s-6.0578-2.7122-6.0578-6.0578 2.7122-6.0578 6.0578-6.0578 6.0578 2.7122 6.0578 6.0578z" fill="url(#m)" stroke="url(#a)"/>
  <path transform="matrix(.54997 0 0 .54997 20.718 465.48)" d="m34.794 831.33c0 3.3457-2.7122 6.0578-6.0578 6.0578s-6.0578-2.7122-6.0578-6.0578 2.7122-6.0578 6.0578-6.0578 6.0578 2.7122 6.0578 6.0578z" fill="url(#l)" stroke="url(#a)"/>
  <path transform="matrix(.54997 0 0 .54997 44.949 461.13)" d="m34.794 831.33c0 3.3457-2.7122 6.0578-6.0578 6.0578s-6.0578-2.7122-6.0578-6.0578 2.7122-6.0578 6.0578-6.0578 6.0578 2.7122 6.0578 6.0578z" fill="url(#k)" stroke="url(#a)"/>
  <path transform="matrix(.54997 0 0 .54997 38.426 491.58)" d="m34.794 831.33c0 3.3457-2.7122 6.0578-6.0578 6.0578s-6.0578-2.7122-6.0578-6.0578 2.7122-6.0578 6.0578-6.0578 6.0578 2.7122 6.0578 6.0578z" fill="url(#b)" stroke="url(#a)"/>
  <path transform="matrix(.54997 0 0 .54997 68.249 508.97)" d="m34.794 831.33c0 3.3457-2.7122 6.0578-6.0578 6.0578s-6.0578-2.7122-6.0578-6.0578 2.7122-6.0578 6.0578-6.0578 6.0578 2.7122 6.0578 6.0578z" fill="url(#j)" stroke="url(#a)"/>
  <path transform="matrix(.54997 0 0 .54997 124.79 481.94)" d="m34.794 831.33c0 3.3457-2.7122 6.0578-6.0578 6.0578s-6.0578-2.7122-6.0578-6.0578 2.7122-6.0578 6.0578-6.0578 6.0578 2.7122 6.0578 6.0578z" fill="url(#b)" stroke="url(#a)"/>
  <path transform="matrix(.54997 0 0 .54997 123.86 503.07)" d="m34.794 831.33c0 3.3457-2.7122 6.0578-6.0578 6.0578s-6.0578-2.7122-6.0578-6.0578 2.7122-6.0578 6.0578-6.0578 6.0578 2.7122 6.0578 6.0578z" fill="url(#i)" stroke="url(#a)"/>
  <path transform="matrix(.54997 0 0 .54997 108.01 470.45)" d="m34.794 831.33c0 3.3457-2.7122 6.0578-6.0578 6.0578s-6.0578-2.7122-6.0578-6.0578 2.7122-6.0578 6.0578-6.0578 6.0578 2.7122 6.0578 6.0578z" fill="url(#h)" stroke="url(#a)"/>
  <path transform="matrix(.97217 .23426 -.23426 .97217 209 19.043)" d="m77.043 856.18-4.7194 3.8796-0.20864-6.1058-5.1481-3.2896 5.7425-2.0852 1.5377-5.9126 3.7577 4.817 6.0984-0.36463-3.4201 5.0623 2.2313 5.6873z" fill="#d8db00"/>
  <path d="m83.78 855.67-2.875 5.375-6.0938 0.6875 4.25 4.4062-1.2188 5.9688 2.2188-1.0625 1-4.9062-4.25-4.4062 6.0938-0.6875 1.7812-3.3438-0.90625-2.0312zm1.5625 13.781-1.0938 0.53125 4.4062 2.5-0.1875-1.25-3.125-1.7812z" fill="#fff" filter="url(#u)"/>
  <path d="m83.78125,855.65625-.4375.8125 2.15625,4.75 6,1.0625-4.5,4.125 .78125,5.5625 .875.5-.84375-6.0625 4.5-4.125-6-1.0625-2.53125-5.5625zm-1.25,13.78125-4.59375,2.25-.09375.4375 5.0625-2.46875-.375-.21875z" fill="#ccc" filter="url(#t)"/>
 </g>
</svg>
